<?xml version="1.0" encoding="UTF-8"?>
<svg data-bbox="18.436 21.374 463.129 456.312" viewBox="0 0 500 500" xmlns="http://www.w3.org/2000/svg" data-type="ugc">
    <g>
        <path d="M86.257 249.458c-90.43 52.21-90.428 136.86.005 189.07 90.433 52.21 237.052 52.21 327.482 0 90.43-52.21 90.428-136.86-.005-189.07-90.433-52.211-237.052-52.211-327.482 0z" fill="#f5f5f5"/>
        <path d="M104.525 409.133c14.204 8.293 14.203 21.738 0 30.031-14.204 8.293-37.233 8.293-51.437 0-14.203-8.292-14.203-21.738.001-30.031 14.204-8.292 37.233-8.292 51.436 0z" fill="#e0e0e0"/>
        <path d="M455.68 371.336c26.246 15.324 26.245 40.169-.001 55.492-26.247 15.324-68.8 15.324-95.046 0-26.246-15.323-26.246-40.168.001-55.491 26.246-15.325 68.8-15.325 95.046-.001z" fill="#e0e0e0"/>
        <path d="M325.14 373.661c1.852 0 3.626.435 4.996 1.226l3.758 2.17c1.673.967 2.633 2.393 2.633 3.914 0 1.52-.96 2.946-2.633 3.911l-63.818 31.834c4.419 4.902 6.383 10.422 5.692 16.072-.88 7.202-6.149 13.929-14.839 18.947-9.407 5.431-21.884 8.422-35.132 8.422-13.247 0-25.725-2.991-35.132-8.422-9.656-5.575-14.974-13.074-14.974-21.116s5.317-15.541 14.974-21.116c9.406-5.43 21.88-8.421 35.122-8.421h.004c12.761 0 24.824 2.781 34.102 7.844l59.643-33.731c1.517-.993 3.502-1.534 5.604-1.534z" fill="#e0e0e0"/>
        <path d="M140.027 413.609c-.178 0-.352-.024-.559-.072a1.28 1.28 0 0 1-.298-.1c-.09-.045-.164-.09-.239-.135l-.205-.138c-1.06-.578-1.654-1.569-1.654-2.689v-2.019h-.005V133.932c0-6.37 2.677-10.185 5.183-11.632l165.705-95.453c.751-.428 1.45-.646 2.076-.646.341 0 .655.067.934.199.122.054.222.109.303.166l.072.063a.954.954 0 0 1 .208.208l.066.087.088.067c.049.096.072.122.091.151l.033.099.042.051c.101.15.177.314.226.488.041.115.068.195.084.259l-.033.065.107.318c.027.083.04.195.054.333.016.189.033.405.033.619v279.292c0 3.297-2.325 7.322-5.183 8.972l-160.228 92.385-5.479 3.161c-.485.277-.96.424-1.372.424l-.05.001z" fill="#ffffff"/>
        <path d="M310.032 27c.225 0 .419.04.628.138.042.019.076.036.102.051l.01.01.091.068c.025.019.028.021.048.048l.136.18.026.02.014.041.12.18a.958.958 0 0 1 .11.225l-.035.068.149.446.004.04.027.055.03.089c.013.057.016.116.02.156.015.177.031.369.031.561v279.292c0 2.991-2.19 6.783-4.782 8.279l-160.229 92.386-5.177 2.989-.042.014-.143.091-.11.064c-.357.204-.713.321-1.002.321h-.002l-.026-.001h-.026a1.701 1.701 0 0 1-.474-.087 1.753 1.753 0 0 1-.152-.086l-.118-.078-.089-.059-.061-.041-.065-.035a2.192 2.192 0 0 1-1.172-1.948v-2.82h-.005V133.932c0-6.03 2.471-9.605 4.782-10.939l165.699-95.45c.621-.355 1.203-.543 1.683-.543m-.001-1.597c-.746 0-1.583.243-2.475.752L141.85 121.608c-3.075 1.775-5.582 6.113-5.582 12.324V411.87c0-2.443.004-2.616.005-2.616v1.222c0 1.512.845 2.722 2.008 3.353l.238.158c.092.055.183.11.293.165.146.073.311.128.476.165a3.168 3.168 0 0 0 .792.092c.547 0 1.159-.182 1.77-.532l.146-.084c.004-.003.008-.003.012-.005l5.319-3.071 160.228-92.385c3.074-1.775 5.582-6.095 5.582-9.664V29.376c0-.238-.018-.476-.037-.696a2.285 2.285 0 0 0-.092-.512c.018-.037 0-.073-.018-.11a1.93 1.93 0 0 0-.128-.494 2.51 2.51 0 0 0-.33-.714c-.036-.109-.11-.201-.183-.292-.054-.073-.091-.146-.164-.202a1.764 1.764 0 0 0-.366-.366l-.037-.037a2.457 2.457 0 0 0-.476-.274 2.947 2.947 0 0 0-1.275-.276z" fill="#ba68c8"/>
        <path d="M311.308 25.679c-1.007-.476-2.306-.348-3.752.476L141.85 121.608c-3.075 1.775-5.582 6.113-5.582 9.664v10.817l-7.12-4.173v-10.688c0-3.55 2.489-7.87 5.564-9.645l165.724-95.454c1.592-.933 3.02-.952 4.045-.329 1.007.603 5.637 3.256 6.827 3.879z" fill="#ba68c8"/>
        <path d="M313.125 29.338c-.022-3.522-2.506-4.946-5.571-3.176l-165.707 95.452c-3.079 1.778-5.576 6.102-5.576 9.657l.006 10.825 176.848-101.87V29.338z" fill="#ba68c8"/>
        <path d="m307.552 26.16-165.699 95.453c-1.525.894-2.928 2.402-3.928 4.138l-7.085-4.103c.999-1.718 2.371-3.212 3.879-4.071L300.43 22.125c1.596-.93 3.017-.944 4.052-.33.999.614 5.629 3.244 6.804 3.875-.981-.475-2.296-.334-3.734.49z" fill="#ffffff" opacity=".2"/>
        <path d="m129.14 137.939.005-10.715c0-1.807.662-3.805 1.697-5.576l7.102 4.086c-1.035 1.754-1.666 3.735-1.666 5.541v10.822l-7.138-4.158z" opacity=".15"/>
        <path d="M288.911 42.42c-1.307.755-2.367 2.779-2.367 4.522 0 1.743 1.06 2.544 2.367 1.789 1.307-.755 2.367-2.779 2.367-4.522 0-1.743-1.06-2.544-2.367-1.789z" fill="#fafafa"/>
        <path d="M297.433 37.492c-1.307.755-2.367 2.78-2.367 4.523 0 1.743 1.06 2.544 2.367 1.789 1.307-.755 2.367-2.779 2.367-4.522-.001-1.743-1.06-2.545-2.367-1.79z" fill="#fafafa"/>
        <path d="M305.954 32.564c-1.307.755-2.367 2.78-2.367 4.523 0 1.743 1.059 2.544 2.367 1.79 1.307-.755 2.367-2.78 2.367-4.523s-1.06-2.544-2.367-1.79z" fill="#fafafa"/>
        <path d="m138.274 413.85-.289-.163-5.879-3.4c-1.592-.904-2.658-2.514-2.912-4.323a6.194 6.194 0 0 1-.054-.814V137.917l7.127 4.178v268.373c0 1.393.705 2.532 1.736 3.165.055.054.127.09.181.127.018.018.018.036.036.036l.054.054z" fill="#ba68c8"/>
        <path d="m138.274 413.85-.289-.163-5.879-3.4c-1.592-.904-2.658-2.514-2.912-4.323a6.194 6.194 0 0 1-.054-.814V137.917l7.127 4.178v268.373c0 1.393.705 2.532 1.736 3.165.055.054.127.09.181.127.018.018.018.036.036.036l.054.054z" opacity=".5" fill="#ffffff"/>
        <path d="M166.21 144.25v71.224c0 1.694-1.19 3.743-2.649 4.586l-99.583 57.487c-.304.174-.608.26-.877.252-.113 0-.226-.017-.339-.043a.959.959 0 0 1-.226-.078c-.052-.026-.112-.051-.234-.122-.241-.139-.507-.517-.695-.886-.167-.329-.278-.851-.278-1.338V204.75c0-1.685 1.19-3.743 2.649-4.586l99.583-57.443c.686-.391 1.303-.452 1.781-.226.078.035.156.078.226.13a.479.479 0 0 0 .018.017.844.844 0 0 1 .174.174c.035.026.052.061.078.096.035.043.07.087.087.139.069.104.122.217.156.339a.931.931 0 0 1 .061.234c.009.017.018.035.009.052.026.078.035.157.044.243.006.105.015.218.015.331z" opacity=".2"/>
        <path d="M178.406 151.772v71.224c0 1.694-1.19 3.743-2.649 4.586l-99.583 57.487c-.304.174-.608.261-.877.252a1.46 1.46 0 0 1-.565-.122c-.052-.026-.111-.051-.234-.122-.241-.139-.507-.517-.695-.886-.167-.329-.278-.851-.278-1.338v-70.581c0-1.685 1.19-3.743 2.649-4.586l99.583-57.443c.686-.391 1.303-.452 1.78-.226.078.035.156.078.226.13l.017.017a.82.82 0 0 1 .174.174c.035.026.052.061.078.096.035.043.07.087.087.139.07.104.122.217.156.339a.931.931 0 0 1 .061.234c.009.017.017.035.009.052.026.078.035.157.044.243.008.105.017.217.017.331z" fill="#ffffff"/>
        <path d="M176.932 150.826c.079 0 .146.013.204.041l.056.029.005.002.007.005.063.084.001.002.06.089-.007.012.095.286.004.036.025.05.001.004c.004.021.005.044.006.051.007.08.014.167.014.254v71.224c0 1.362-.998 3.09-2.179 3.772l-99.58 57.485c-.203.116-.332.128-.405.128h-.006a.719.719 0 0 1-.142-.021l-.049-.024-.008-.004a2.172 2.172 0 0 1-.107-.054c-.049-.038-.198-.214-.349-.512-.088-.172-.176-.541-.176-.912v-70.581c0-1.339 1.018-3.102 2.179-3.772l99.578-57.44c.339-.193.573-.234.71-.234m0-.94c-.354 0-.751.116-1.175.357l-99.583 57.443c-1.459.843-2.649 2.901-2.649 4.586v70.581c0 .486.111 1.008.278 1.338.188.369.454.747.695.886.123.071.182.095.234.122a1.507 1.507 0 0 0 .564.122l.037.001c.26 0 .551-.087.84-.253l99.583-57.487c1.459-.842 2.649-2.892 2.649-4.586v-71.224c0-.113-.009-.226-.018-.33-.009-.087-.017-.165-.044-.243.009-.017 0-.035-.009-.052a.931.931 0 0 0-.061-.234 1.216 1.216 0 0 0-.156-.339.451.451 0 0 0-.087-.139c-.026-.035-.043-.069-.078-.096a.864.864 0 0 0-.173-.174l-.018-.017a1.214 1.214 0 0 0-.226-.13 1.38 1.38 0 0 0-.603-.132z" fill="#e0e0e0"/>
        <path d="M177.537 150.017c-.478-.226-1.094-.165-1.78.226l-99.583 57.443c-1.459.843-2.649 2.901-2.649 4.586v8.651l-6.795-3.916v-8.59c0-1.685 1.181-3.735 2.641-4.577l99.591-57.443c.756-.443 1.433-.452 1.919-.156.478.286 6.092 3.481 6.656 3.776z" fill="#37474f"/>
        <path d="M178.4 151.754c-.01-1.671-1.189-2.347-2.644-1.508l-99.584 57.442c-1.461.844-2.646 2.896-2.646 4.583l.003 8.655L178.4 160.438v-8.684z" fill="#455a64"/>
        <path d="m66.726 217.018.002-8.603c0-.857.314-1.806.805-2.647l6.786 3.874c-.491.832-.79 1.773-.79 2.63v8.654l-6.803-3.908z" fill="#263238"/>
        <path d="M163.386 161.046c-.826.477-1.495 1.894-1.495 3.165 0 1.271.67 1.915 1.495 1.438.826-.477 1.495-1.894 1.495-3.165 0-1.271-.669-1.915-1.495-1.438z" fill="#fafafa"/>
        <path d="M168.769 157.932c-.826.477-1.495 1.894-1.495 3.165s.669 1.915 1.495 1.439c.825-.477 1.495-1.894 1.495-3.165 0-1.271-.67-1.915-1.495-1.439z" fill="#fafafa"/>
        <path d="M174.151 154.819c-.826.477-1.495 1.894-1.495 3.165 0 1.271.669 1.915 1.495 1.439.826-.477 1.495-1.894 1.495-3.165 0-1.272-.669-1.916-1.495-1.439z" fill="#fafafa"/>
        <path d="M74.498 285.077c-.096-.061-.208-.122-.33-.191-.243-.148-6.275-3.607-6.326-3.637-.418-.246-.712-.695-.807-.903a3.278 3.278 0 0 1-.304-1.398v-61.94l6.795 3.916v61.93c.026.521.101.973.278 1.338.289.595.667.867.694.885z" fill="#e0e0e0"/>
        <path fill="#e0e0e0" d="m173.196 192.712-94.461 54.503v-24.031l94.461-54.504v24.032z"/>
        <path fill="#e0e0e0" d="m143.355 239.197-64.62 37.246v-24.032l64.62-37.245v24.031z"/>
        <path fill="#e0e0e0" d="m173.196 221.734-24.342 14.026v-24.032l24.342-14.025v24.031z"/>
        <path d="m297.256 65.373 47.577-27.462c.772-.446 1.398-.084 1.398.807v41.413c0 .892-.626 1.976-1.398 2.422l-47.577 27.462c-.772.446-1.398.084-1.398-.808V67.795c-.001-.892.625-1.977 1.398-2.422z" opacity=".2"/>
        <path d="m342.846 44.321-41.757 24.086c-.851.491-1.542 1.687-1.542 2.67v38.708c0 .983.695 2.17 1.551 2.653l2.936 1.666c.856.483 2.241.477 3.092-.015l41.757-24.087c.851-.491 1.541-1.687 1.541-2.67V48.626c0-.983-.694-2.172-1.55-2.655l-2.936-1.666c-.857-.483-2.241-.476-3.092.016z" fill="#ba68c8"/>
        <path d="M307.125 114.089c-.821.476-2.32.493-3.094.018l-2.933-1.672c-.854-.477-1.551-1.668-1.551-2.65V71.077c0-.512.191-1.075.491-1.574l6.001 3.473c-.284.477-.455 1.025-.455 1.517v38.703c0 .9.634 1.419 1.541.893z" opacity=".2"/>
        <path d="M350.404 48.347c-.121-.776-.755-1.054-1.524-.612l-41.751 24.088c-.427.249-.811.669-1.09 1.153l-6.009-3.473c.278-.463.648-.862 1.061-1.096l41.759-24.088c.848-.491 2.229-.498 3.09-.014l2.933 1.664c.776.441 1.424 1.459 1.531 2.378z" fill="#ffffff" opacity=".2"/>
        <path d="M306.438 113.683c-.206 0-.237-.303-.237-.484V74.493c0-.758.576-1.756 1.233-2.136l41.757-24.086c.193-.112.321-.128.381-.128.205 0 .236.304.236.484v38.706c0 .759-.576 1.757-1.233 2.136l-41.757 24.086c-.194.111-.322.128-.38.128z" fill="#ffffff"/>
        <path d="M349.191 48.982v38.35c0 .539-.458 1.333-.924 1.602l-41.45 23.909V74.492c0-.539.458-1.332.925-1.602l41.449-23.908m.38-1.456c-.207 0-.441.068-.688.21l-41.757 24.087c-.851.492-1.542 1.687-1.542 2.67v38.706c0 .697.348 1.101.853 1.101.207 0 .441-.068.689-.211l41.757-24.086c.851-.491 1.541-1.687 1.541-2.67V48.626c0-.697-.347-1.1-.853-1.1z" fill="#ba68c8"/>
        <path fill="#ba68c8" d="m339.009 89.254-.001-26.83-2.395-1.382.001 26.829 2.395 1.383z"/>
        <path opacity=".2" d="m339.009 89.254-.001-26.83-2.395-1.382.001 26.829 2.395 1.383z"/>
        <path fill="#ba68c8" d="m339.009 89.254 6.947-4.012.001-26.829-6.949 4.011.001 26.83z"/>
        <path fill="#ba68c8" d="m345.957 58.413-2.394-1.382-6.95 4.011 2.395 1.382 6.949-4.011z"/>
        <path opacity=".25" fill="#ffffff" d="m345.957 58.413-2.394-1.382-6.95 4.011 2.395 1.382 6.949-4.011z"/>
        <path d="m345.957 58.413-6.95 3.907-2.394-1.278 2.301 1.533c-.055.782-.01 25.879.095 26.678.104-.799.148-25.947.097-26.705l6.851-4.135z" opacity=".3" fill="#ffffff"/>
        <path fill="#ba68c8" d="m325.981 96.775-.001-21.55-2.394-1.382.001 21.55 2.394 1.382z"/>
        <path opacity=".1" fill="#ffffff" d="m325.981 96.775-.001-21.55-2.394-1.382.001 21.55 2.394 1.382z"/>
        <path fill="#ba68c8" d="m325.981 96.775 6.948-4.012.001-21.549-6.95 4.011.001 21.55z"/>
        <path opacity=".3" fill="#ffffff" d="m325.981 96.775 6.948-4.012.001-21.549-6.95 4.011.001 21.55z"/>
        <path fill="#ba68c8" d="m332.93 71.214-2.395-1.382-6.949 4.011 2.394 1.382 6.95-4.011z"/>
        <path opacity=".55" fill="#ffffff" d="m332.93 71.214-2.395-1.382-6.949 4.011 2.394 1.382 6.95-4.011z"/>
        <path d="m326.073 75.278 6.857-4.064-6.949 3.909c-.757-.429-2.395-1.28-2.395-1.28s1.532.978 2.304 1.432c-.024.811.038 20.672.091 21.5.053-.828.115-20.712.092-21.497z" opacity=".3" fill="#ffffff"/>
        <path fill="#ba68c8" d="m312.954 104.296-.001-18.089-2.394-1.382v18.089l2.395 1.382z"/>
        <path opacity=".45" d="m312.954 104.296-.001-18.089-2.394-1.382v18.089l2.395 1.382z"/>
        <path fill="#ba68c8" d="m312.954 104.296 6.948-4.011.001-18.088-6.95 4.01.001 18.089z"/>
        <path opacity=".3" d="m312.954 104.296 6.948-4.011.001-18.088-6.95 4.01.001 18.089z"/>
        <path fill="#ba68c8" d="m319.903 82.197-2.395-1.383-6.949 4.011 2.394 1.382 6.95-4.01z"/>
        <path opacity=".15" d="m319.903 82.197-2.395-1.383-6.949 4.011 2.394 1.382 6.95-4.01z"/>
        <path d="m319.903 82.196-6.95 3.907-2.394-1.278 2.299 1.501s-.008 17.478.096 17.97c.104-.493.102-17.967.102-17.967l6.847-4.133z" opacity=".3" fill="#ffffff"/>
        <path d="m242.809 96.817 39.36-22.732c.772-.446 1.398-.084 1.398.808v41.412c0 .892-.626 1.976-1.398 2.422l-39.36 22.732c-.772.446-1.398.085-1.398-.807V99.24c0-.892.626-1.977 1.398-2.423z" opacity=".2"/>
        <path d="m280.182 80.495-33.54 19.356c-.851.491-1.542 1.687-1.542 2.67v38.708c0 .983.695 2.17 1.551 2.653l2.936 1.666c.856.483 2.24.477 3.092-.015l33.541-19.356c.851-.492 1.541-1.687 1.541-2.67V84.801c0-.983-.694-2.172-1.55-2.655l-2.936-1.666c-.857-.483-2.241-.476-3.093.015z" fill="#ba68c8"/>
        <path d="M252.679 145.533c-.821.476-2.319.493-3.094.018l-2.933-1.672c-.854-.477-1.551-1.668-1.551-2.65v-38.708c0-.512.191-1.075.491-1.574l6.002 3.473c-.285.477-.455 1.025-.455 1.517v38.702c-.002.902.632 1.421 1.54.894z" opacity=".2"/>
        <path d="M287.74 84.521c-.121-.776-.755-1.054-1.524-.612l-33.535 19.359c-.427.249-.811.669-1.089 1.153l-6.009-3.473c.278-.463.648-.861 1.061-1.096l33.542-19.359c.848-.491 2.229-.498 3.09-.014l2.933 1.665c.776.441 1.424 1.459 1.531 2.377z" fill="#ffffff" opacity=".2"/>
        <path d="M251.99 145.127c-.206 0-.237-.303-.237-.484v-38.706c0-.758.577-1.756 1.234-2.136l33.54-19.357c.192-.112.321-.128.38-.128.206 0 .237.303.237.484v38.706c0 .759-.577 1.757-1.234 2.136l-33.54 19.356c-.192.113-.321.129-.38.129z" fill="#ffffff"/>
        <path d="M286.527 85.157v38.35c0 .539-.458 1.333-.924 1.602l-33.232 19.179v-38.351c0-.539.458-1.332.925-1.602l33.231-19.178m.381-1.456c-.207 0-.441.068-.688.21l-33.54 19.357c-.851.492-1.542 1.687-1.542 2.67v38.707c0 .697.348 1.1.853 1.1.207 0 .441-.068.688-.211l33.54-19.356c.852-.492 1.541-1.687 1.541-2.67V84.801c0-.697-.347-1.1-.852-1.1z" fill="#ba68c8"/>
        <path d="m260.207 135.335 21.469-12.395-.351-3.093c-.222-1.958-1.004-3.324-2.125-3.97l-2.985-1.723c-1.116-.643-2.569-.574-4.142.334l-8.233 4.753c-3.152 1.82-5.824 6.456-6.267 10.873l-.351 3.497 2.985 1.724z" fill="#ba68c8"/>
        <path d="M275.588 102.723c1.057.61 1.711 1.919 1.711 3.782 0 3.725-2.616 8.256-5.842 10.118-1.613.932-3.074 1.02-4.131.409a4414.08 4414.08 0 0 0-2.933-1.693c-1.057-.61-1.711-1.92-1.711-3.782 0-3.726 2.616-8.256 5.842-10.118 1.613-.932 3.074-1.019 4.131-.409l2.933 1.693z" fill="#ba68c8"/>
        <path d="M281.325 119.847c-.222-1.958-1.004-3.324-2.125-3.97-1.116-.643-2.569-.574-4.142.334l-8.233 4.753c-3.153 1.82-5.824 6.456-6.267 10.873l-.35 3.497 21.468-12.395-.351-3.092zm-13.999-2.814c1.057.61 2.518.522 4.131-.409 3.226-1.863 5.842-6.393 5.842-10.118 0-1.863-.654-3.172-1.711-3.782-1.057-.61-2.518-.522-4.131.409-3.226 1.863-5.842 6.393-5.842 10.118 0 1.863.654 3.171 1.711 3.782z" fill="#ba68c8"/>
        <path d="M281.325 119.847c-.222-1.958-1.004-3.324-2.125-3.97-1.116-.643-2.569-.574-4.142.334l-8.233 4.753c-3.153 1.82-5.824 6.456-6.267 10.873l-.35 3.497 21.468-12.395-.351-3.092zm-13.999-2.814c1.057.61 2.518.522 4.131-.409 3.226-1.863 5.842-6.393 5.842-10.118 0-1.863-.654-3.172-1.711-3.782-1.057-.61-2.518-.522-4.131.409-3.226 1.863-5.842 6.393-5.842 10.118 0 1.863.654 3.171 1.711 3.782z" opacity=".5" fill="#ffffff"/>
        <path d="m188.806 127.987 39.36-22.732c.772-.446 1.399-.084 1.399.807v41.412c0 .892-.626 1.976-1.398 2.422l-39.36 22.732c-.772.446-1.398.084-1.398-.807v-41.412c-.002-.891.624-1.976 1.397-2.422z" opacity=".2"/>
        <path d="m226.179 111.665-33.54 19.356c-.851.491-1.542 1.687-1.542 2.67v38.708c0 .983.695 2.17 1.551 2.653l2.936 1.666c.856.483 2.24.477 3.092-.015l33.54-19.357c.851-.491 1.541-1.687 1.541-2.67V115.97c0-.983-.694-2.172-1.55-2.655l-2.936-1.666c-.856-.482-2.241-.476-3.092.016z" fill="#ba68c8"/>
        <path d="M198.676 176.703c-.821.476-2.32.493-3.094.018l-2.933-1.672c-.854-.477-1.551-1.668-1.551-2.65v-38.708c0-.512.191-1.075.491-1.574l6.002 3.473c-.285.477-.455 1.025-.455 1.517v38.702c-.002.901.632 1.42 1.54.894z" opacity=".2"/>
        <path d="M233.737 115.691c-.121-.776-.755-1.054-1.524-.612l-33.535 19.358c-.427.249-.812.669-1.09 1.153l-6.009-3.473c.278-.463.648-.861 1.061-1.096l33.541-19.358c.848-.491 2.229-.498 3.09-.014l2.933 1.664c.778.441 1.426 1.459 1.533 2.378z" fill="#ffffff" opacity=".2"/>
        <path d="M197.987 176.297c-.206 0-.236-.304-.236-.484v-38.706c0-.758.576-1.756 1.233-2.136l33.54-19.356c.193-.111.321-.128.38-.128.206 0 .236.303.236.484v38.706c0 .759-.576 1.757-1.233 2.136l-33.54 19.356c-.193.111-.321.128-.38.128z" fill="#ffffff"/>
        <path d="M232.524 116.327v38.35c0 .539-.458 1.333-.924 1.602l-33.233 19.179v-38.35c0-.539.458-1.332.925-1.602l33.232-19.179m.38-1.457c-.207 0-.441.068-.688.21l-33.54 19.357c-.851.492-1.542 1.687-1.542 2.67v38.706c0 .697.347 1.1.853 1.1.207 0 .441-.068.689-.211l33.54-19.356c.852-.492 1.541-1.687 1.541-2.67V115.97c0-.697-.347-1.1-.853-1.1z" fill="#ba68c8"/>
        <path d="m206.204 166.565 21.469-12.395-.351-3.092c-.222-1.958-1.004-3.324-2.125-3.97l-2.985-1.723c-1.116-.643-2.569-.574-4.142.334l-8.233 4.753c-3.152 1.82-5.824 6.456-6.267 10.873l-.351 3.497 2.985 1.723z" fill="#263238"/>
        <path d="M227.322 151.078c-.222-1.958-1.004-3.324-2.126-3.97-1.116-.643-2.569-.574-4.142.334l-8.233 4.753c-3.153 1.82-5.825 6.456-6.267 10.873l-.351 3.497 21.469-12.395-.35-3.092z" fill="#455a64"/>
        <path d="M221.585 133.954c1.057.61 1.711 1.919 1.711 3.782 0 3.725-2.616 8.256-5.842 10.118-1.613.932-3.074 1.02-4.131.409a4414.08 4414.08 0 0 0-2.933-1.693c-1.057-.61-1.711-1.92-1.711-3.782 0-3.726 2.616-8.256 5.842-10.118 1.613-.932 3.074-1.019 4.131-.409l2.933 1.693z" fill="#263238"/>
        <path d="M217.454 147.854c-1.613.931-3.074 1.02-4.131.409s-1.711-1.919-1.711-3.782c0-3.725 2.616-8.256 5.842-10.118 1.613-.931 3.074-1.02 4.131-.409 1.057.61 1.711 1.919 1.711 3.782 0 3.725-2.616 8.256-5.842 10.118z" fill="#455a64"/>
        <path d="M374.582 156.778v34.824c0 .539-.458 1.333-.924 1.602l-89.289 51.477v-34.824c0-.539.458-1.332.925-1.602l89.288-51.477m.381-1.456c-.207 0-.441.068-.688.21l-89.597 51.655c-.851.492-1.542 1.687-1.542 2.67v35.18c0 .697.348 1.1.853 1.1.207 0 .441-.068.689-.211l89.597-51.655c.851-.492 1.541-1.687 1.541-2.67v-35.179c0-.697-.347-1.1-.853-1.1z" fill="#455a64"/>
        <path d="m249.437 160.818 95.417-55.03c.772-.446 1.398-.084 1.398.807v71.994c0 .892-.626 1.976-1.398 2.422l-95.417 55.03c-.772.446-1.399.085-1.399-.807V163.24c0-.891.626-1.976 1.399-2.422z" opacity=".2"/>
        <path d="m342.866 112.198-89.596 51.655c-.851.491-1.542 1.687-1.542 2.67v69.289c0 .983.695 2.17 1.551 2.653l2.936 1.666c.856.483 2.241.477 3.092-.015l89.597-51.655c.851-.491 1.542-1.687 1.542-2.67v-69.287c0-.983-.694-2.172-1.55-2.655l-2.936-1.666c-.858-.483-2.242-.476-3.094.015z" fill="#ba68c8"/>
        <path d="M259.306 240.116c-.821.476-2.319.493-3.094.018l-2.933-1.672c-.854-.477-1.551-1.668-1.551-2.65v-69.289c0-.513.191-1.075.491-1.574l6.002 3.473c-.285.477-.455 1.025-.455 1.517v69.284c-.001.9.633 1.419 1.54.893z" opacity=".2"/>
        <path d="M350.424 116.224c-.121-.776-.755-1.054-1.524-.612l-89.591 51.657c-.427.249-.811.669-1.089 1.153l-6.009-3.473c.278-.463.648-.861 1.061-1.096l89.598-51.657c.848-.491 2.229-.498 3.09-.014l2.933 1.664c.776.442 1.424 1.46 1.531 2.378z" fill="#ffffff" opacity=".2"/>
        <path d="M258.618 239.71c-.206 0-.237-.303-.237-.484v-69.288c0-.758.577-1.756 1.234-2.136l89.596-51.655c.193-.111.321-.128.381-.128.205 0 .236.303.236.484v69.287c0 .759-.576 1.757-1.233 2.136l-89.596 51.654c-.193.113-.322.13-.381.13z" fill="#ffffff"/>
        <path d="M349.211 116.86v68.931c0 .539-.458 1.333-.924 1.602l-89.289 51.477v-68.932c0-.539.458-1.332.924-1.602l89.289-51.476m.381-1.457c-.207 0-.441.068-.688.211l-89.597 51.655c-.851.492-1.542 1.687-1.542 2.67v69.287c0 .697.348 1.101.853 1.101.207 0 .441-.068.689-.211l89.597-51.655c.851-.492 1.541-1.687 1.541-2.67v-69.287c-.001-.697-.348-1.101-.853-1.101z" fill="#ba68c8"/>
        <path d="M263.002 228.886a.208.208 0 0 1-.105-.389l81.346-46.965a.207.207 0 0 1 .285.076c.058.1.024.227-.076.285l-81.346 46.965a.208.208 0 0 1-.104.028z" fill="#455a64"/>
        <path d="M263.002 229.903a.209.209 0 0 1-.209-.209v-1.957a.209.209 0 1 1 .418 0v1.957a.21.21 0 0 1-.209.209z" fill="#455a64"/>
        <path d="M276.56 222.037a.209.209 0 0 1-.209-.209v-1.957a.209.209 0 1 1 .418 0v1.957a.21.21 0 0 1-.209.209z" fill="#455a64"/>
        <path d="M290.118 214.171a.209.209 0 0 1-.209-.209v-1.957a.209.209 0 1 1 .418 0v1.957a.21.21 0 0 1-.209.209z" fill="#455a64"/>
        <path d="M303.676 206.305a.209.209 0 0 1-.209-.209v-1.957a.209.209 0 1 1 .418 0v1.957a.21.21 0 0 1-.209.209z" fill="#455a64"/>
        <path d="M317.233 198.438a.209.209 0 0 1-.209-.209v-1.957a.209.209 0 1 1 .418 0v1.957a.208.208 0 0 1-.209.209z" fill="#455a64"/>
        <path d="M330.791 190.572a.209.209 0 0 1-.209-.209v-1.957a.209.209 0 1 1 .418 0v1.957a.209.209 0 0 1-.209.209z" fill="#455a64"/>
        <path d="M344.349 182.706a.209.209 0 0 1-.209-.209v-1.957a.209.209 0 1 1 .418 0v1.957a.208.208 0 0 1-.209.209z" fill="#455a64"/>
        <path d="M263.002 209.109c6.779-3.914 8.475 4.893 13.558 1.957 5.084-2.936 1.694-20.548 10.168-25.44 8.474-4.892 6.78 11.742 15.253 6.849 8.472-4.893 5.084-36.203 13.558-41.095s6.78 19.805 15.253 14.795c8.473-5.01 3.389-29.472 13.557-35.342l.002 46.965-81.348 46.965-.001-15.654z" opacity=".7" fill="#ba68c8"/>
        <path d="M344.35 139.686v38.112l-81.348 46.965v-5.87l5.983-6.045c.121.3.43.384.797.175.467-.271.847-.926.847-1.469 0-.25-.079-.43-.213-.521l5.507-8.741c.154.117.384.113.634-.033.28-.158.522-.455.676-.78l5.428 1.565a1.6 1.6 0 0 0-.171.684c0 .538.38.759.847.488.467-.271.847-.926.847-1.469a.796.796 0 0 0-.088-.384l5.261-6.079c.134.246.426.305.759.108.467-.267.847-.926.847-1.464 0-.221-.067-.392-.175-.488l5.432-7.839c.154.15.401.163.676.004.467-.271.847-.93.847-1.469a.906.906 0 0 0-.025-.221l5.136-4.452c.092.376.421.497.822.271.467-.271.847-.93.847-1.469a.752.752 0 0 0-.092-.384l5.265-6.083c.133.242.421.296.755.104.238-.134.446-.367.601-.63l5.578 3.221c-.15.267-.246.563-.246.834 0 .542.38.759.847.492.467-.271.847-.93.847-1.469a.906.906 0 0 0-.025-.221l5.136-4.452c.092.376.426.497.822.267.467-.267.847-.926.847-1.464 0-.309-.125-.513-.321-.576v-.004l5.724-11.561c.146.05.329.025.53-.092.467-.271.847-.922.847-1.464v-.004l5.082-2.933c0 .538.38.759.851.488.467-.271.847-.926.847-1.469 0-.309-.125-.513-.317-.58l5.699-11.519c.145.066.338.041.55-.08z" opacity=".7" fill="#ba68c8"/>
        <path d="M263.002 219.102a.209.209 0 0 1-.149-.355l5.986-6.048a.209.209 0 1 1 .297.293l-5.986 6.048a.208.208 0 0 1-.148.062z" fill="#455a64"/>
        <path d="M270.417 211.243a.209.209 0 0 1-.176-.32l5.507-8.743a.209.209 0 1 1 .353.223l-5.507 8.743a.213.213 0 0 1-.177.097z" fill="#455a64"/>
        <path d="M282.661 203.251a.193.193 0 0 1-.058-.008l-5.424-1.566a.209.209 0 0 1 .115-.401l5.424 1.566a.208.208 0 0 1-.057.409z" fill="#455a64"/>
        <path d="M284.092 202.576a.208.208 0 0 1-.158-.345l5.266-6.08a.208.208 0 0 1 .294-.021.208.208 0 0 1 .021.294l-5.266 6.08a.206.206 0 0 1-.157.072z" fill="#455a64"/>
        <path d="M290.795 194.641a.208.208 0 0 1-.171-.327l5.424-7.829a.209.209 0 0 1 .343.237l-5.424 7.829a.211.211 0 0 1-.172.09z" fill="#455a64"/>
        <path d="M297.718 185.123a.209.209 0 0 1-.137-.366l5.137-4.448a.209.209 0 0 1 .273.315l-5.137 4.448a.207.207 0 0 1-.136.051z" fill="#455a64"/>
        <path d="M304.432 179.09a.208.208 0 0 1-.157-.345l5.268-6.083a.209.209 0 0 1 .315.273l-5.268 6.082a.21.21 0 0 1-.158.073z" fill="#455a64"/>
        <path d="M316.632 175.703a.208.208 0 0 1-.104-.028l-5.58-3.222a.208.208 0 0 1-.076-.285.208.208 0 0 1 .285-.076l5.58 3.222a.208.208 0 0 1-.105.389z" fill="#455a64"/>
        <path d="M318.054 175.339a.21.21 0 0 1-.137-.366l5.133-4.445a.209.209 0 0 1 .273.315l-5.133 4.445a.206.206 0 0 1-.136.051z" fill="#455a64"/>
        <path d="M324.54 169.112a.209.209 0 0 1-.187-.3l5.709-11.537a.209.209 0 0 1 .374.185l-5.709 11.537a.21.21 0 0 1-.187.115z" fill="#455a64"/>
        <path d="M331.638 155.992a.208.208 0 0 1-.104-.389l5.084-2.935a.208.208 0 1 1 .209.361l-5.084 2.935a.212.212 0 0 1-.105.028z" fill="#455a64"/>
        <path d="M338.098 151.5a.21.21 0 0 1-.187-.302l5.703-11.523a.208.208 0 0 1 .279-.094.208.208 0 0 1 .095.279l-5.703 11.523a.21.21 0 0 1-.187.117z" fill="#455a64"/>
        <path d="M269.402 213.347a.639.639 0 0 1-.325-.085c-.227-.131-.352-.39-.352-.729 0-.616.418-1.34.952-1.648.293-.17.581-.19.808-.06.228.131.353.39.353.729 0 .616-.418 1.34-.952 1.648a.976.976 0 0 1-.484.145zm.483-2.101c-.403.233-.743.823-.743 1.287 0 .181.052.315.144.368.09.053.234.031.391-.059.403-.233.743-.822.743-1.287 0-.181-.053-.315-.144-.368-.091-.054-.235-.032-.391.059z" fill="#455a64"/>
        <path d="M276.181 202.584a.641.641 0 0 1-.325-.085c-.227-.131-.352-.39-.352-.729 0-.616.418-1.34.952-1.648.293-.17.581-.19.808-.059.227.131.353.39.353.729 0 .616-.418 1.34-.952 1.648a.985.985 0 0 1-.484.144zm.483-2.101c-.403.233-.743.823-.743 1.288 0 .181.053.315.144.368.092.052.234.031.391-.059.403-.233.743-.822.743-1.287 0-.181-.052-.315-.144-.368-.093-.054-.234-.033-.391.058z" fill="#455a64"/>
        <path d="M282.959 204.542a.641.641 0 0 1-.325-.085c-.227-.131-.352-.39-.352-.729 0-.616.418-1.34.952-1.648.294-.17.58-.191.808-.059.227.131.352.39.352.729 0 .616-.418 1.34-.952 1.648a.983.983 0 0 1-.483.144zm.758-2.19a.573.573 0 0 0-.274.088c-.403.233-.743.822-.743 1.287 0 .181.053.315.144.368.092.053.234.031.391-.059.403-.233.743-.822.743-1.287 0-.181-.053-.315-.144-.368a.236.236 0 0 0-.117-.029z" fill="#455a64"/>
        <path d="M289.739 196.72a.639.639 0 0 1-.325-.085c-.228-.131-.353-.39-.353-.729 0-.616.418-1.34.952-1.648.294-.17.581-.191.808-.059.227.131.352.39.352.729 0 .617-.418 1.34-.952 1.648a.972.972 0 0 1-.482.144zm.482-2.101c-.403.233-.743.822-.743 1.287 0 .181.053.315.144.368.091.053.234.031.39-.059.403-.233.743-.822.743-1.287 0-.181-.053-.315-.144-.368-.091-.054-.233-.031-.39.059z" fill="#455a64"/>
        <path d="M296.517 186.929a.638.638 0 0 1-.324-.085c-.227-.131-.352-.39-.352-.729 0-.617.418-1.34.951-1.648.293-.169.58-.19.808-.059.227.131.352.39.352.729 0 .617-.418 1.34-.952 1.648a.972.972 0 0 1-.483.144zm.483-2.101c-.402.233-.743.822-.743 1.287 0 .181.052.315.144.368.09.053.234.031.39-.059.403-.233.743-.822.743-1.287 0-.181-.053-.315-.144-.368-.091-.054-.233-.032-.39.059z" fill="#455a64"/>
        <path d="M303.296 181.059a.651.651 0 0 1-.325-.085c-.227-.131-.352-.39-.352-.729 0-.616.418-1.34.951-1.648.294-.17.581-.191.808-.059.227.131.352.39.352.729 0 .617-.418 1.341-.952 1.648a.976.976 0 0 1-.482.144zm.483-2.102c-.403.233-.743.822-.743 1.287 0 .181.053.315.144.368.092.053.234.031.39-.059.403-.233.743-.822.743-1.288 0-.181-.052-.315-.144-.367-.09-.053-.233-.031-.39.059z" fill="#455a64"/>
        <path d="M316.854 177.145a.651.651 0 0 1-.325-.085c-.227-.131-.352-.39-.352-.729 0-.616.418-1.34.952-1.648.294-.169.581-.191.808-.06.227.131.352.39.352.729 0 .616-.418 1.341-.952 1.648a.967.967 0 0 1-.483.145zm.758-2.189a.57.57 0 0 0-.274.088c-.403.233-.743.822-.743 1.287 0 .181.053.315.144.368.092.053.234.031.391-.059.403-.233.743-.822.743-1.287 0-.181-.053-.315-.144-.368a.226.226 0 0 0-.117-.029z" fill="#455a64"/>
        <path d="M323.633 171.274a.638.638 0 0 1-.324-.085c-.227-.131-.352-.39-.352-.729 0-.616.418-1.34.951-1.648.293-.17.581-.19.808-.059.227.131.353.39.353.729 0 .616-.418 1.34-.952 1.648a.995.995 0 0 1-.484.144zm.483-2.102c-.402.233-.743.823-.743 1.288 0 .181.053.315.144.367.091.053.234.031.39-.059.403-.233.743-.822.743-1.287 0-.181-.053-.315-.144-.368-.092-.053-.234-.031-.39.059z" fill="#455a64"/>
        <path d="M337.19 153.662a.644.644 0 0 1-.325-.085c-.227-.131-.352-.39-.352-.729 0-.616.418-1.34.952-1.648.293-.169.58-.19.808-.059.227.131.352.39.352.729 0 .617-.418 1.34-.952 1.648a.983.983 0 0 1-.483.144zm.483-2.102c-.403.233-.743.822-.743 1.287 0 .181.053.315.144.368.092.053.234.031.391-.059.403-.233.743-.822.743-1.287 0-.181-.052-.315-.144-.368-.092-.053-.235-.031-.391.059z" fill="#455a64"/>
        <path d="M330.412 157.576a.638.638 0 0 1-.324-.085c-.227-.131-.352-.39-.352-.729 0-.617.418-1.34.951-1.648.293-.17.58-.19.808-.06.227.131.352.39.352.729 0 .617-.418 1.34-.952 1.648a.974.974 0 0 1-.483.145zm.483-2.102c-.403.233-.743.822-.743 1.288 0 .181.053.315.144.367.091.053.234.031.39-.059.403-.233.743-.822.743-1.287 0-.181-.053-.315-.144-.368-.091-.053-.233-.031-.39.059z" fill="#455a64"/>
        <path d="M343.97 140.012a.644.644 0 0 1-.325-.085c-.227-.131-.352-.39-.352-.729 0-.616.418-1.34.952-1.648.294-.169.58-.191.808-.059.227.131.352.39.352.729 0 .616-.418 1.34-.952 1.648a.986.986 0 0 1-.483.144zm.757-2.189a.573.573 0 0 0-.274.088c-.403.233-.743.822-.743 1.287 0 .181.052.315.144.368.092.053.234.031.391-.059.403-.233.743-.822.743-1.287 0-.181-.053-.315-.144-.368a.223.223 0 0 0-.117-.029z" fill="#455a64"/>
        <path d="M310.075 173.231a.641.641 0 0 1-.325-.085c-.227-.131-.352-.39-.352-.729 0-.616.418-1.34.952-1.648.293-.169.58-.19.807-.059.227.131.353.39.353.729 0 .616-.418 1.34-.951 1.648a.99.99 0 0 1-.484.144zm.757-2.189a.57.57 0 0 0-.274.088c-.403.233-.743.822-.743 1.287 0 .181.052.315.144.368.091.053.234.031.391-.059.403-.233.743-.822.743-1.287 0-.181-.053-.315-.144-.368a.223.223 0 0 0-.117-.029zm-.378-.093h.004-.004z" fill="#455a64"/>
        <path d="M274.496 211.892c-1.403 0-2.575-.839-3.793-1.711-2.006-1.436-4.08-2.921-7.597-.891l-.209-.361c3.75-2.165 6.034-.53 8.048.913 1.753 1.256 3.268 2.339 5.51 1.044 2.132-1.231 2.721-5.204 3.403-9.804.892-6.013 1.902-12.829 6.765-15.636 4.418-2.551 6.194.526 7.912 3.501.822 1.423 1.671 2.894 2.797 3.662 1.25.854 2.695.754 4.544-.314 4.148-2.396 5.433-11.546 6.676-20.395 1.257-8.949 2.557-18.203 6.882-20.7 1.178-.68 2.256-.844 3.204-.489 2.252.843 3.507 4.496 4.72 8.029 1.18 3.437 2.4 6.991 4.461 7.75.843.31 1.78.149 2.866-.494 3.955-2.338 4.898-9.054 5.897-16.165 1.109-7.894 2.255-16.056 7.662-19.178l.209.361c-5.23 3.02-6.362 11.08-7.458 18.875-1.013 7.213-1.97 14.025-6.098 16.466-1.184.701-2.268.878-3.223.527-2.247-.828-3.5-4.477-4.712-8.006-1.182-3.441-2.403-7-4.471-7.774-.837-.313-1.77-.163-2.849.459-4.149 2.396-5.434 11.547-6.677 20.397-1.257 8.948-2.556 18.201-6.88 20.698-1.977 1.142-3.609 1.239-4.987.298-1.204-.822-2.078-2.335-2.923-3.798-1.689-2.926-3.283-5.691-7.342-3.349-4.688 2.706-5.682 9.416-6.56 15.336-.698 4.707-1.301 8.772-3.607 10.104-.795.458-1.508.645-2.17.645z" fill="#455a64"/>
        <path d="M316.023 149.622c.73-.421 1.322-.08 1.322.763s-.592 1.868-1.322 2.289c-.73.421-1.322.08-1.322-.763.001-.842.592-1.867 1.322-2.289z" fill="#455a64"/>
        <path d="M288.423 171.158a.208.208 0 0 1-.105-.389l13.49-7.789 1.669-4.819a.21.21 0 0 1 .093-.112l6.779-3.914a.208.208 0 1 1 .209.361l-6.712 3.875-1.669 4.819a.205.205 0 0 1-.093.112l-13.558 7.828a.213.213 0 0 1-.103.028z" fill="#455a64"/>
        <path d="M288.801 167.805c0-.54.404-1.212.903-1.5l10.056-5.806c.499-.288.903-.084.903.457s-.404 1.212-.903 1.5l-10.056 5.806c-.498.287-.903.083-.903-.457z" fill="#ba68c8"/>
        <path d="m249.437 280.501 82.499-47.621c.772-.446 1.398-.084 1.398.807v91.257c0 .892-.626 1.976-1.398 2.422l-82.499 47.621c-.772.446-1.399.085-1.399-.807v-91.257c0-.892.626-1.976 1.399-2.422z" opacity=".2"/>
        <path d="m329.949 239.29-76.679 44.246c-.851.491-1.542 1.687-1.542 2.67v88.552c0 .983.695 2.17 1.551 2.653l2.936 1.666c.856.483 2.241.477 3.092-.015l76.68-44.246c.851-.491 1.542-1.687 1.542-2.67v-88.551c0-.983-.694-2.172-1.55-2.655l-2.936-1.666c-.858-.482-2.243-.476-3.094.016z" fill="#ba68c8"/>
        <path d="m329.949 239.29-76.679 44.246c-.851.491-1.542 1.687-1.542 2.67v88.552c0 .983.695 2.17 1.551 2.653l2.936 1.666c.856.483 2.241.477 3.092-.015l76.68-44.246c.851-.491 1.542-1.687 1.542-2.67v-88.551c0-.983-.694-2.172-1.55-2.655l-2.936-1.666c-.858-.482-2.243-.476-3.094.016z" opacity=".8" fill="#ffffff"/>
        <path d="M337.507 243.316c-.121-.776-.755-1.054-1.524-.612l-76.674 44.248c-.427.249-.811.669-1.089 1.153l-6.009-3.473c.278-.463.648-.862 1.061-1.096l76.681-44.248c.847-.491 2.229-.498 3.09-.014l2.933 1.665c.776.44 1.424 1.458 1.531 2.377z" opacity=".3" fill="#ba68c8"/>
        <path d="M259.306 379.062c-.821.476-2.319.493-3.094.018l-2.933-1.672c-.854-.477-1.551-1.668-1.551-2.65v-88.552c0-.513.191-1.075.491-1.574l6.002 3.473c-.285.477-.455 1.025-.455 1.517v88.547c-.001.9.633 1.419 1.54.893z" opacity=".5" fill="#ba68c8"/>
        <path d="m335.986 242.705-76.68 44.246c-.851.491-1.542 1.687-1.542 2.67v88.55c0 .983.69 1.382 1.542.89l76.68-44.246c.852-.491 1.541-1.687 1.541-2.67v-88.55c0-.983-.69-1.381-1.541-.89z" fill="#ba68c8"/>
        <path d="m335.986 242.705-76.68 44.246c-.851.491-1.542 1.687-1.542 2.67v88.55c0 .983.69 1.382 1.542.89l76.68-44.246c.852-.491 1.541-1.687 1.541-2.67v-88.55c0-.983-.69-1.381-1.541-.89z" opacity=".8" fill="#ffffff"/>
        <path d="M336.294 243.951v88.195c0 .539-.458 1.333-.924 1.602l-76.372 44.068v-88.195c0-.539.458-1.332.925-1.602l76.371-44.068m.38-1.456c-.207 0-.441.068-.688.21l-76.68 44.246c-.851.491-1.542 1.687-1.542 2.67v88.55c0 .697.348 1.1.853 1.1.207 0 .441-.068.689-.211l76.68-44.246c.851-.491 1.541-1.687 1.541-2.67v-88.55c0-.696-.347-1.099-.853-1.099z" opacity=".3" fill="#ba68c8"/>
        <path d="M348.516 299.702c-.147-.084-.356-.084-.555.052l-1.153.765-.251.681c-.157.409.01.964.314 1.278.178.199.356.409.524.639.252.367.702.493 1.069.252l2.693-1.771c.199-.126.388-.147.534-.052l.01-.01-3.185-1.834zm-.901-3.039.01-.01-3.185-1.834a1.277 1.277 0 0 0-.21-.084l-2.022-.451c-.43-.094-.943.136-1.153.534l-1.897 3.625c-.147.272-.45.545-.765.702l.597 1.97c.126.43.555.608.964.44.419-.168.838-.304 1.247-.409.419-.105.943-.471 1.142-.87l1.907-3.625c.199-.388.712-.629 1.142-.524l2.022.451a.692.692 0 0 1 .201.085zm-6.8 9.776c.168.356.293.786.377 1.278.587 3.458-1.593 8.351-4.872 10.928-1.215.943-2.4 1.456-3.447 1.54 1.069 2.315 3.793 2.536 6.632.304 3.29-2.588 5.469-7.481 4.872-10.928-.366-2.179-1.76-3.269-3.562-3.122zm-1.991 23.553v-.01a.314.314 0 0 1-.084-.042l.084.052zm-.953-2.64c-.136-.419-.555-.597-.964-.43-.419.168-.838.304-1.247.409a1.233 1.233 0 0 0-.388.168l.084.283a.566.566 0 0 0 .262.356l3.122 1.802a.664.664 0 0 1-.189-.314l-.68-2.274zm-3.845-22.213-.178-2.892c-.031-.44.23-1.016.576-1.289l3.028-2.378c.21-.168.44-.189.608-.073v-.01l-3.196-1.844a.38.38 0 0 0-.22-.052.644.644 0 0 0-.377.136l-3.038 2.389c-.346.272-.597.849-.576 1.278l.189 2.892c.021.44-.199 1.058-.471 1.393a22.222 22.222 0 0 0-1.414 1.865c-.241.367-.797.65-1.237.629l-1.949-.105c-.44-.021-.933.293-1.111.691l-1.833 4.107a.766.766 0 0 0 .304.985v.01l2.169 1.247a.999.999 0 0 1 .042.555c-.147.66-.262 1.32-.335 1.959-.052.44-.335 1.037-.65 1.331l-2.693 2.473c-.325.293-.524.891-.45 1.32l.503 2.934a.568.568 0 0 0 .241.398l3.206 1.855v-.01c-.126-.063-.22-.199-.251-.398l-.503-2.934c-.073-.43.126-1.027.451-1.32l2.682-2.473c.325-.293.608-.891.66-1.331.073-.65.189-1.299.335-1.959.094-.43-.136-.911-.545-1.09l-1.572-.671a.785.785 0 0 1-.409-1.037l1.834-4.107c.178-.398.681-.712 1.121-.691l1.949.094c.44.021.985-.262 1.236-.618.44-.65.912-1.268 1.404-1.865.281-.335.501-.964.47-1.394zm-4.558 20.212c-.251-.356-.702-.482-1.079-.241l-1.52 1.006-1.121 3.018a.68.68 0 0 0 .262.828l3.175 1.823a.662.662 0 0 1-.241-.807l1.362-3.699c.157-.419-.01-.964-.314-1.278a5.428 5.428 0 0 1-.524-.65z" fill="#ba68c8"/>
        <path d="M348.516 299.702c-.147-.084-.356-.084-.555.052l-1.153.765-.251.681c-.157.409.01.964.314 1.278.178.199.356.409.524.639.252.367.702.493 1.069.252l2.693-1.771c.199-.126.388-.147.534-.052l.01-.01-3.185-1.834zm-.901-3.039.01-.01-3.185-1.834a1.277 1.277 0 0 0-.21-.084l-2.022-.451c-.43-.094-.943.136-1.153.534l-1.897 3.625c-.147.272-.45.545-.765.702l.597 1.97c.126.43.555.608.964.44.419-.168.838-.304 1.247-.409.419-.105.943-.471 1.142-.87l1.907-3.625c.199-.388.712-.629 1.142-.524l2.022.451a.692.692 0 0 1 .201.085zm-6.8 9.776c.168.356.293.786.377 1.278.587 3.458-1.593 8.351-4.872 10.928-1.215.943-2.4 1.456-3.447 1.54 1.069 2.315 3.793 2.536 6.632.304 3.29-2.588 5.469-7.481 4.872-10.928-.366-2.179-1.76-3.269-3.562-3.122zm-1.991 23.553v-.01a.314.314 0 0 1-.084-.042l.084.052zm-.953-2.64c-.136-.419-.555-.597-.964-.43-.419.168-.838.304-1.247.409a1.233 1.233 0 0 0-.388.168l.084.283a.566.566 0 0 0 .262.356l3.122 1.802a.664.664 0 0 1-.189-.314l-.68-2.274zm-3.845-22.213-.178-2.892c-.031-.44.23-1.016.576-1.289l3.028-2.378c.21-.168.44-.189.608-.073v-.01l-3.196-1.844a.38.38 0 0 0-.22-.052.644.644 0 0 0-.377.136l-3.038 2.389c-.346.272-.597.849-.576 1.278l.189 2.892c.021.44-.199 1.058-.471 1.393a22.222 22.222 0 0 0-1.414 1.865c-.241.367-.797.65-1.237.629l-1.949-.105c-.44-.021-.933.293-1.111.691l-1.833 4.107a.766.766 0 0 0 .304.985v.01l2.169 1.247a.999.999 0 0 1 .042.555c-.147.66-.262 1.32-.335 1.959-.052.44-.335 1.037-.65 1.331l-2.693 2.473c-.325.293-.524.891-.45 1.32l.503 2.934a.568.568 0 0 0 .241.398l3.206 1.855v-.01c-.126-.063-.22-.199-.251-.398l-.503-2.934c-.073-.43.126-1.027.451-1.32l2.682-2.473c.325-.293.608-.891.66-1.331.073-.65.189-1.299.335-1.959.094-.43-.136-.911-.545-1.09l-1.572-.671a.785.785 0 0 1-.409-1.037l1.834-4.107c.178-.398.681-.712 1.121-.691l1.949.094c.44.021.985-.262 1.236-.618.44-.65.912-1.268 1.404-1.865.281-.335.501-.964.47-1.394zm-4.558 20.212c-.251-.356-.702-.482-1.079-.241l-1.52 1.006-1.121 3.018a.68.68 0 0 0 .262.828l3.175 1.823a.662.662 0 0 1-.241-.807l1.362-3.699c.157-.419-.01-.964-.314-1.278a5.428 5.428 0 0 1-.524-.65z" opacity=".2"/>
        <path d="m327.718 307.183-1.949-.105c-.272-.01-.576.105-.807.293l3.195 1.844c.231-.189.535-.304.807-.293l1.949.094c.178.01.377-.031.566-.115l-3.196-1.844a1.413 1.413 0 0 1-.565.126zm6.549-10.447-3.038 2.389c-.22.168-.398.482-.492.786l3.185 1.844c.094-.314.283-.618.503-.796l3.028-2.378c.21-.168.44-.189.608-.073v-.01l-3.196-1.844c-.169-.096-.389-.075-.598.082zm-12.605 23.701c-.199.178-.335.472-.409.765l3.185 1.844c.073-.293.22-.587.419-.765l2.651-2.441-3.185-1.844-2.661 2.441zm26.854-20.735c-.147-.094-.356-.084-.555.052l-1.153.765-.251.681c-.094.262-.073.576.042.849.053.147.136.262.22.367.01.01.021.021.021.031.01.01.01.01.021.031a5.866 5.866 0 0 1 .534.639.818.818 0 0 0 .471.346.743.743 0 0 0 .304.01c.031.01.063 0 .094-.01a.699.699 0 0 0 .199-.094l2.693-1.771a.645.645 0 0 1 .335-.115c.052 0 .115.01.157.031.021.01.042.01.053.021l-3.185-1.833zm-.901-3.039.01-.01-3.185-1.834a1.277 1.277 0 0 0-.21-.084l-2.022-.451c-.43-.094-.943.136-1.153.534l-1.897 3.625a1.694 1.694 0 0 1-.44.482l3.196 1.844c.189-.136.335-.314.43-.492l1.907-3.625c.199-.388.712-.629 1.142-.524l2.022.451a.668.668 0 0 1 .2.084z" fill="#ba68c8"/>
        <path d="m327.718 307.183-1.949-.105c-.272-.01-.576.105-.807.293l3.195 1.844c.231-.189.535-.304.807-.293l1.949.094c.178.01.377-.031.566-.115l-3.196-1.844a1.413 1.413 0 0 1-.565.126zm6.549-10.447-3.038 2.389c-.22.168-.398.482-.492.786l3.185 1.844c.094-.314.283-.618.503-.796l3.028-2.378c.21-.168.44-.189.608-.073v-.01l-3.196-1.844c-.169-.096-.389-.075-.598.082zm-12.605 23.701c-.199.178-.335.472-.409.765l3.185 1.844c.073-.293.22-.587.419-.765l2.651-2.441-3.185-1.844-2.661 2.441zm26.854-20.735c-.147-.094-.356-.084-.555.052l-1.153.765-.251.681c-.094.262-.073.576.042.849.053.147.136.262.22.367.01.01.021.021.021.031.01.01.01.01.021.031a5.866 5.866 0 0 1 .534.639.818.818 0 0 0 .471.346.743.743 0 0 0 .304.01c.031.01.063 0 .094-.01a.699.699 0 0 0 .199-.094l2.693-1.771a.645.645 0 0 1 .335-.115c.052 0 .115.01.157.031.021.01.042.01.053.021l-3.185-1.833zm-.901-3.039.01-.01-3.185-1.834a1.277 1.277 0 0 0-.21-.084l-2.022-.451c-.43-.094-.943.136-1.153.534l-1.897 3.625a1.694 1.694 0 0 1-.44.482l3.196 1.844c.189-.136.335-.314.43-.492l1.907-3.625c.199-.388.712-.629 1.142-.524l2.022.451a.668.668 0 0 1 .2.084z" opacity=".2" fill="#ffffff"/>
        <path d="m352.457 304.874-.505-2.93c-.075-.433-.433-.589-.8-.347l-2.685 1.767c-.367.242-.825.117-1.078-.243a5.61 5.61 0 0 0-.523-.641c-.303-.318-.467-.866-.315-1.279l1.369-3.703a.677.677 0 0 0-.501-.92l-2.023-.452c-.429-.096-.943.142-1.147.531l-1.903 3.625c-.204.389-.724.756-1.15.865a9.805 9.805 0 0 0-1.246.412c-.408.165-.83-.016-.957-.437l-.684-2.271c-.127-.421-.51-.542-.855-.27l-3.032 2.384c-.346.272-.604.848-.576 1.287l.181 2.885c.027.439-.19 1.059-.472 1.396a23.94 23.94 0 0 0-1.408 1.864c-.248.363-.795.647-1.234.625l-1.949-.096c-.439-.022-.94.286-1.119.688l-1.833 4.109a.78.78 0 0 0 .408 1.039l1.575.672c.404.172.638.657.541 1.085-.15.661-.264 1.316-.338 1.96-.05.437-.333 1.034-.657 1.331l-2.687 2.47c-.324.298-.526.89-.451 1.323l.505 2.93c.075.433.433.589.8.347l2.685-1.767c.367-.242.826-.117 1.078.243.162.231.337.445.523.641.303.318.467.866.315 1.279l-1.369 3.703a.677.677 0 0 0 .501.92l2.023.452c.429.096.943-.142 1.147-.531l1.903-3.626c.204-.389.724-.756 1.15-.865.407-.103.823-.24 1.246-.412.408-.165.83.016.957.437l.684 2.271c.127.421.51.542.856.27l3.032-2.384c.346-.272.603-.848.576-1.287l-.181-2.885c-.027-.439.19-1.059.472-1.396a23.94 23.94 0 0 0 1.408-1.864c.248-.363.795-.647 1.234-.626l1.949.096c.439.022.94-.286 1.119-.688l1.833-4.109a.78.78 0 0 0-.408-1.039l-1.575-.672c-.404-.172-.638-.657-.54-1.085.15-.661.264-1.316.337-1.96.05-.437.333-1.034.657-1.331l2.687-2.471c.323-.294.525-.887.45-1.32zm-12.95 15.614c-3.286 2.584-6.433 1.88-7.027-1.572-.594-3.452 1.588-8.345 4.875-10.928 3.286-2.584 6.432-1.881 7.027 1.571.594 3.452-1.588 8.345-4.875 10.929z" fill="#ba68c8"/>
        <path d="M290.312 292.863c.355-.321.677-.975.723-1.456l.699-7.763c.046-.482.413-1.066.837-1.307l6.983-4.025c.195-.115.378-.126.527-.069l-3.405-1.961a.527.527 0 0 0-.229-.057.658.658 0 0 0-.333.103l-6.983 4.036c-.413.241-.791.826-.826 1.296l-.699 7.774c-.046.482-.379 1.124-.734 1.445a44.077 44.077 0 0 0-3.876 4.105c-.31.378-.917.55-1.376.39l-4.472-1.559a1.084 1.084 0 0 0-1.261.47l-5.137 8.887c-.241.413-.138 1.009.229 1.319l3.589 3.096c.367.321.516.94.355 1.387a42.246 42.246 0 0 0-1.617 5.412c-.103.47-.504 1.078-.894 1.353l-6.375 4.495c-.401.275-.711.883-.711 1.365v8.061c0 .252.092.436.241.527l3.44 1.984c-.149-.092-.253-.275-.253-.527v-8.061c0-.482.321-1.101.711-1.376l6.375-4.483c.401-.275.791-.883.894-1.353.413-1.8.952-3.623 1.617-5.412.172-.459.023-1.066-.344-1.387l-3.6-3.096c-.367-.31-.459-.906-.218-1.319l5.126-8.898c.241-.413.802-.619 1.261-.47l4.484 1.571c.447.161 1.066-.023 1.364-.39a41.32 41.32 0 0 1 3.888-4.107zm-13.508 36.968c-.149-.459-.596-.677-1.043-.47l-1.502.676c.161.31.321.619.493.894.252.413.309 1.078.092 1.514l-4.139 8.348a.937.937 0 0 0 .367 1.215l3.429 1.984a.953.953 0 0 1-.367-1.215l4.151-8.359c.207-.424.149-1.089-.103-1.502a13.764 13.764 0 0 1-1.378-3.085zm14.918 15.125-.677-6.777c-.046-.482-.459-.757-.929-.654-.803.172-1.583.287-2.339.321l.516 5.137c.023.229.126.39.264.47l3.44 1.984c-.149-.08-.252-.241-.275-.481zm27.955-55.406-.012.011c-.137-.092-.321-.092-.539 0l-4.701 2.121c.344.665.642 1.399.894 2.179.138.459.596.676 1.032.481l6.215-2.798c.218-.092.413-.092.55.012v-.023l-3.439-1.983zm-11.237-14.127-5.16 7.763c-.264.401-.871.688-1.353.677a9.695 9.695 0 0 0-1.021.012l.161 1.651c.057.482.47.757.94.654a14.492 14.492 0 0 1 3.36-.344c.481.023 1.078-.264 1.353-.665l5.16-7.763a.939.939 0 0 1 1.238-.287l-3.44-1.984a.943.943 0 0 0-1.238.286zm-5.55 21.385c.998 1.388 1.525 3.497 1.525 6.249 0 7.522-5.275 16.672-11.788 20.433-2.546 1.468-4.712 1.961-6.409 1.548 2.11 2.465 5.722 2.809 9.838.436 6.513-3.761 11.799-12.911 11.799-20.433 0-4.575-1.96-7.499-4.965-8.233z" fill="#ba68c8"/>
        <path d="M290.312 292.863c.355-.321.677-.975.723-1.456l.699-7.763c.046-.482.413-1.066.837-1.307l6.983-4.025c.195-.115.378-.126.527-.069l-3.405-1.961a.527.527 0 0 0-.229-.057.658.658 0 0 0-.333.103l-6.983 4.036c-.413.241-.791.826-.826 1.296l-.699 7.774c-.046.482-.379 1.124-.734 1.445a44.077 44.077 0 0 0-3.876 4.105c-.31.378-.917.55-1.376.39l-4.472-1.559a1.084 1.084 0 0 0-1.261.47l-5.137 8.887c-.241.413-.138 1.009.229 1.319l3.589 3.096c.367.321.516.94.355 1.387a42.246 42.246 0 0 0-1.617 5.412c-.103.47-.504 1.078-.894 1.353l-6.375 4.495c-.401.275-.711.883-.711 1.365v8.061c0 .252.092.436.241.527l3.44 1.984c-.149-.092-.253-.275-.253-.527v-8.061c0-.482.321-1.101.711-1.376l6.375-4.483c.401-.275.791-.883.894-1.353.413-1.8.952-3.623 1.617-5.412.172-.459.023-1.066-.344-1.387l-3.6-3.096c-.367-.31-.459-.906-.218-1.319l5.126-8.898c.241-.413.802-.619 1.261-.47l4.484 1.571c.447.161 1.066-.023 1.364-.39a41.32 41.32 0 0 1 3.888-4.107zm-13.508 36.968c-.149-.459-.596-.677-1.043-.47l-1.502.676c.161.31.321.619.493.894.252.413.309 1.078.092 1.514l-4.139 8.348a.937.937 0 0 0 .367 1.215l3.429 1.984a.953.953 0 0 1-.367-1.215l4.151-8.359c.207-.424.149-1.089-.103-1.502a13.764 13.764 0 0 1-1.378-3.085zm14.918 15.125-.677-6.777c-.046-.482-.459-.757-.929-.654-.803.172-1.583.287-2.339.321l.516 5.137c.023.229.126.39.264.47l3.44 1.984c-.149-.08-.252-.241-.275-.481zm27.955-55.406-.012.011c-.137-.092-.321-.092-.539 0l-4.701 2.121c.344.665.642 1.399.894 2.179.138.459.596.676 1.032.481l6.215-2.798c.218-.092.413-.092.55.012v-.023l-3.439-1.983zm-11.237-14.127-5.16 7.763c-.264.401-.871.688-1.353.677a9.695 9.695 0 0 0-1.021.012l.161 1.651c.057.482.47.757.94.654a14.492 14.492 0 0 1 3.36-.344c.481.023 1.078-.264 1.353-.665l5.16-7.763a.939.939 0 0 1 1.238-.287l-3.44-1.984a.943.943 0 0 0-1.238.286zm-5.55 21.385c.998 1.388 1.525 3.497 1.525 6.249 0 7.522-5.275 16.672-11.788 20.433-2.546 1.468-4.712 1.961-6.409 1.548 2.11 2.465 5.722 2.809 9.838.436 6.513-3.761 11.799-12.911 11.799-20.433 0-4.575-1.96-7.499-4.965-8.233z" opacity=".2"/>
        <path d="M323.359 300.119v-8.063c0-.481-.356-.711-.794-.513l-6.214 2.801c-.439.198-.89-.021-1.035-.479a13.858 13.858 0 0 0-1.386-3.081c-.251-.41-.308-1.075-.094-1.506l4.142-8.352a.94.94 0 0 0-.367-1.216l-4.495-2.595a.94.94 0 0 0-1.237.29l-5.162 7.763c-.266.401-.871.684-1.352.671a13.912 13.912 0 0 0-3.361.341c-.47.104-.884-.178-.932-.657l-.681-6.782c-.048-.479-.425-.672-.842-.431l-6.982 4.031c-.417.241-.789.824-.833 1.303l-.699 7.769c-.043.479-.372 1.125-.726 1.451a41.991 41.991 0 0 0-3.878 4.105c-.307.371-.918.547-1.372.389l-4.482-1.565a1.094 1.094 0 0 0-1.258.467l-5.133 8.891a1.093 1.093 0 0 0 .224 1.323l3.596 3.099c.365.314.517.932.349 1.383a42.066 42.066 0 0 0-1.616 5.412c-.105.47-.5 1.077-.893 1.354l-6.378 4.49c-.393.277-.712.892-.712 1.373v8.062c0 .481.356.711.794.513l6.215-2.801c.439-.198.89.021 1.035.479.361 1.142.827 2.17 1.385 3.081.251.41.308 1.075.094 1.506l-4.142 8.352a.94.94 0 0 0 .367 1.216l4.495 2.595a.94.94 0 0 0 1.237-.29l5.162-7.763c.266-.401.871-.684 1.352-.671a13.912 13.912 0 0 0 3.361-.341c.47-.104.884.178.932.657l.681 6.783c.048.479.425.672.842.431l6.982-4.031c.417-.241.789-.824.833-1.303l.699-7.769c.043-.479.372-1.125.726-1.451a41.979 41.979 0 0 0 3.878-4.104c.307-.371.918-.548 1.372-.389l4.482 1.565a1.093 1.093 0 0 0 1.258-.467l5.133-8.89a1.093 1.093 0 0 0-.224-1.323l-3.596-3.099c-.365-.314-.516-.932-.349-1.383a41.908 41.908 0 0 0 1.616-5.412c.105-.47.5-1.076.893-1.353l6.378-4.49c.393-.28.712-.895.712-1.376zm-27.301 25.351c-6.514 3.761-11.796.712-11.796-6.81s5.281-16.669 11.796-20.43c6.514-3.761 11.795-.712 11.795 6.81 0 7.523-5.281 16.669-11.795 20.43z" fill="#ba68c8"/>
        <path d="m275.887 294.285-5.137 8.887a1.04 1.04 0 0 0-.115.642l3.428 1.984a1.046 1.046 0 0 1 .126-.642l5.126-8.898a1.06 1.06 0 0 1 .871-.505l-3.406-1.995c-.354.011-.721.206-.893.527zm-3.474 21.454-6.375 4.495c-.16.115-.298.287-.424.482l3.417 1.972a1.78 1.78 0 0 1 .436-.482l6.375-4.483c.172-.115.344-.31.504-.516l-3.44-1.995a2.188 2.188 0 0 1-.493.527zm23.701-39.41-6.983 4.036c-.287.161-.539.493-.699.837l3.428 1.984c.149-.344.413-.676.711-.849l6.983-4.025c.195-.115.378-.126.527-.069l-3.405-1.961c-.149-.079-.344-.079-.562.047zm12.326-.906-5.16 7.763a1.19 1.19 0 0 1-.344.333l3.44 1.984c.138-.092.253-.206.344-.333l5.16-7.763a.939.939 0 0 1 1.238-.287l-3.44-1.984a.944.944 0 0 0-1.238.287zm14.643 16.099c.012.011.023.011.034.023v-.011l-.034-.012zm-3.417-1.961c-.137-.08-.333-.092-.539 0l-4.701 2.121c.195.378.367.768.516 1.17.137.321.264.665.367 1.009a.808.808 0 0 0 .287.401.714.714 0 0 0 .757.08l6.215-2.798a.704.704 0 0 1 .298-.069c.057 0 .115.011.172.034.012 0 .023 0 .046.012l-3.417-1.972v.012z" fill="#ba68c8"/>
        <path d="m275.887 294.285-5.137 8.887a1.04 1.04 0 0 0-.115.642l3.428 1.984a1.046 1.046 0 0 1 .126-.642l5.126-8.898a1.06 1.06 0 0 1 .871-.505l-3.406-1.995c-.354.011-.721.206-.893.527zm-3.474 21.454-6.375 4.495c-.16.115-.298.287-.424.482l3.417 1.972a1.78 1.78 0 0 1 .436-.482l6.375-4.483c.172-.115.344-.31.504-.516l-3.44-1.995a2.188 2.188 0 0 1-.493.527zm23.701-39.41-6.983 4.036c-.287.161-.539.493-.699.837l3.428 1.984c.149-.344.413-.676.711-.849l6.983-4.025c.195-.115.378-.126.527-.069l-3.405-1.961c-.149-.079-.344-.079-.562.047zm12.326-.906-5.16 7.763a1.19 1.19 0 0 1-.344.333l3.44 1.984c.138-.092.253-.206.344-.333l5.16-7.763a.939.939 0 0 1 1.238-.287l-3.44-1.984a.944.944 0 0 0-1.238.287zm14.643 16.099c.012.011.023.011.034.023v-.011l-.034-.012zm-3.417-1.961c-.137-.08-.333-.092-.539 0l-4.701 2.121c.195.378.367.768.516 1.17.137.321.264.665.367 1.009a.808.808 0 0 0 .287.401.714.714 0 0 0 .757.08l6.215-2.798a.704.704 0 0 1 .298-.069c.057 0 .115.011.172.034.012 0 .023 0 .046.012l-3.417-1.972v.012z" opacity=".2" fill="#ffffff"/>
        <path d="m149.336 256.421 79.824-46.049c.772-.446 1.398-.084 1.398.807v126.809c0 .892-.626 1.976-1.398 2.422l-79.824 46.049c-.772.446-1.398.085-1.398-.807v-126.81c0-.89.626-1.975 1.398-2.421z" opacity=".2"/>
        <path d="m227.173 216.782-74.003 42.674c-.851.491-1.542 1.687-1.542 2.67V386.23c0 .983.695 2.17 1.551 2.653l2.936 1.666c.856.483 2.24.477 3.092-.015l74.004-42.674c.851-.491 1.542-1.687 1.542-2.67V221.088c0-.983-.694-2.172-1.55-2.655l-2.936-1.666c-.858-.483-2.243-.477-3.094.015z" fill="#ba68c8"/>
        <path d="M159.206 390.534c-.821.476-2.319.493-3.094.018l-2.933-1.672c-.854-.477-1.551-1.668-1.551-2.65V262.125c0-.512.191-1.075.491-1.574l6.002 3.473c-.285.477-.455 1.025-.455 1.517v124.1c-.001.901.633 1.42 1.54.893z" opacity=".2"/>
        <path d="M234.731 220.808c-.121-.776-.755-1.054-1.524-.612l-73.998 42.676c-.427.249-.811.669-1.089 1.153l-6.009-3.473c.278-.463.648-.862 1.061-1.096l74.005-42.676c.848-.491 2.229-.498 3.09-.014l2.933 1.665c.776.44 1.424 1.459 1.531 2.377z" fill="#ffffff" opacity=".2"/>
        <path d="M158.518 390.128c-.206 0-.237-.303-.237-.484V265.542c0-.758.576-1.756 1.233-2.136l74.003-42.673c.193-.112.321-.128.38-.128.205 0 .236.304.236.484V345.19c0 .759-.576 1.757-1.233 2.137L158.898 390c-.193.112-.321.128-.38.128z" fill="#ffffff"/>
        <path d="M233.518 221.443V345.19c0 .539-.458 1.333-.924 1.602l-73.696 42.496V265.54c0-.539.458-1.332.924-1.602l73.696-42.495m.38-1.456c-.207 0-.441.068-.688.21l-74.004 42.674c-.851.492-1.542 1.687-1.542 2.67v124.103c0 .697.347 1.101.853 1.101.207 0 .441-.068.689-.211l74.004-42.674c.852-.492 1.541-1.687 1.541-2.67V221.088c0-.698-.347-1.101-.853-1.101z" fill="#ba68c8"/>
        <path d="M182.915 268.258v10.648c-4.607 2.66-8.339 9.795-8.339 15.932l-7.986 4.611c0-12.022 7.308-25.985 16.325-31.191z" fill="#ba68c8"/>
        <path d="m176.918 301.211-5.747 10.719c-3.008-2.415-4.58-6.706-4.58-12.479l7.986-4.611c-.001 3 .89 5.203 2.341 6.371z" fill="#ba68c8"/>
        <path d="m176.918 301.211-5.747 10.719c-3.008-2.415-4.58-6.706-4.58-12.479l7.986-4.611c-.001 3 .89 5.203 2.341 6.371z" opacity=".3"/>
        <path d="M199.24 280.599c0 12.022-7.308 25.991-16.325 31.197-4.69 2.708-8.486 2.748-11.745.133l5.747-10.719c1.512 1.219 3.641 1.293 5.997-.068 4.607-2.66 8.339-9.79 8.339-15.932 0-6.137-3.732-8.964-8.339-6.304v-10.648c9.018-5.206 16.326.319 16.326 12.341z" fill="#ba68c8"/>
        <path d="M199.24 280.599c0 12.022-7.308 25.991-16.325 31.197-4.69 2.708-8.486 2.748-11.745.133l5.747-10.719c1.512 1.219 3.641 1.293 5.997-.068 4.607-2.66 8.339-9.79 8.339-15.932 0-6.137-3.732-8.964-8.339-6.304v-10.648c9.018-5.206 16.326.319 16.326 12.341z" fill="#ffffff" opacity=".4"/>
        <path d="m209.285 261.645-4.759 2.746a.213.213 0 0 0-.096.166v5.496c0 .061.043.086.096.055l4.759-2.746a.211.211 0 0 0 .096-.166V261.7c-.001-.061-.044-.086-.096-.055z" fill="#ba68c8"/>
        <path d="m209.285 261.645-4.759 2.746a.213.213 0 0 0-.096.166v5.496c0 .061.043.086.096.055l4.759-2.746a.211.211 0 0 0 .096-.166V261.7c-.001-.061-.044-.086-.096-.055z" opacity=".4" fill="#ffffff"/>
        <path d="M212.799 261.577a.351.351 0 0 1-.306-.177.35.35 0 0 1 .13-.481l13.327-7.655a.35.35 0 0 1 .481.13.35.35 0 0 1-.13.481l-13.327 7.655a.346.346 0 0 1-.175.047z" fill="#455a64"/>
        <path d="M212.799 264.609a.351.351 0 0 1-.306-.177.35.35 0 0 1 .13-.481l13.327-7.655a.352.352 0 1 1 .351.612l-13.327 7.655a.355.355 0 0 1-.175.046z" fill="#455a64"/>
        <path d="m209.285 272.885-4.759 2.746a.211.211 0 0 0-.096.166v5.496c0 .061.043.086.096.055l4.759-2.746a.213.213 0 0 0 .096-.166v-5.496c-.001-.061-.044-.086-.096-.055z" fill="#ba68c8"/>
        <path d="M212.799 272.817a.353.353 0 0 1-.176-.659l13.327-7.655a.352.352 0 1 1 .351.612l-13.327 7.655a.346.346 0 0 1-.175.047z" fill="#455a64"/>
        <path d="M212.799 275.849a.352.352 0 0 1-.176-.659l13.327-7.655a.35.35 0 0 1 .481.13.35.35 0 0 1-.13.481l-13.327 7.655a.328.328 0 0 1-.175.048z" fill="#455a64"/>
        <path d="m209.285 284.125-4.759 2.746a.213.213 0 0 0-.096.166v5.496c0 .061.043.086.096.055l4.759-2.746a.211.211 0 0 0 .096-.166v-5.496c-.001-.061-.044-.085-.096-.055z" fill="#ba68c8"/>
        <path d="m209.285 284.125-4.759 2.746a.213.213 0 0 0-.096.166v5.496c0 .061.043.086.096.055l4.759-2.746a.211.211 0 0 0 .096-.166v-5.496c-.001-.061-.044-.085-.096-.055z" opacity=".3"/>
        <path d="M212.799 284.056a.353.353 0 0 1-.176-.658l13.327-7.654a.35.35 0 0 1 .481.13.35.35 0 0 1-.13.481l-13.327 7.654a.336.336 0 0 1-.175.047z" fill="#455a64"/>
        <path d="M212.799 287.088a.353.353 0 0 1-.176-.658l13.327-7.654a.35.35 0 0 1 .481.13.35.35 0 0 1-.13.481l-13.327 7.654a.336.336 0 0 1-.175.047z" fill="#455a64"/>
        <path d="M166.59 335.114a.353.353 0 0 1-.176-.658l59.536-34.331a.353.353 0 0 1 .352.612l-59.536 34.331a.359.359 0 0 1-.176.046z" fill="#455a64"/>
        <path d="M166.59 341.266a.354.354 0 0 1-.176-.659l59.536-34.331a.353.353 0 0 1 .352.612l-59.536 34.331a.36.36 0 0 1-.176.047z" fill="#455a64"/>
        <path d="M166.59 347.419a.353.353 0 0 1-.176-.659l59.536-34.332a.354.354 0 0 1 .352.612l-59.536 34.332a.36.36 0 0 1-.176.047z" fill="#455a64"/>
        <path d="M166.59 353.57a.353.353 0 0 1-.176-.658l59.536-34.331a.353.353 0 0 1 .352.612l-59.536 34.331a.359.359 0 0 1-.176.046z" fill="#455a64"/>
        <path d="M166.59 359.723a.353.353 0 0 1-.176-.658l59.536-34.332a.355.355 0 0 1 .482.129.355.355 0 0 1-.13.483l-59.536 34.332a.359.359 0 0 1-.176.046z" fill="#455a64"/>
        <path d="M166.59 365.874a.354.354 0 0 1-.176-.659l59.536-34.331a.353.353 0 0 1 .352.612l-59.536 34.331a.35.35 0 0 1-.176.047z" fill="#455a64"/>
        <path d="M86.417 57.798v43.184c0 .61-.499 1.475-1.027 1.78l-45.266 26.152V85.729c0-.61.499-1.474 1.028-1.78l45.265-26.151m.323-1.412c-.221 0-.47.072-.734.224L40.534 82.882c-.908.524-1.644 1.799-1.644 2.847v43.422c0 .744.371 1.174.91 1.174.221 0 .47-.072.734-.225l45.472-26.271c.908-.524 1.644-1.799 1.644-2.848V57.56c0-.744-.37-1.174-.91-1.174z" fill="#455a64"/>
        <path d="M173.354 25.376 56.367 92.93c-.908.524-1.645 1.799-1.645 2.847v41.281c0 1.049.741 2.314 1.654 2.83l3.131 1.776c.913.515 2.389.508 3.297-.016l116.988-67.554c.908-.524 1.644-1.799 1.644-2.848V29.968c0-1.048-.74-2.316-1.653-2.831l-3.132-1.777c-.913-.516-2.389-.509-3.297.016z" fill="#ba68c8"/>
        <path d="M173.354 25.376 56.367 92.93c-.908.524-1.645 1.799-1.645 2.847v41.281c0 1.049.741 2.314 1.654 2.83l3.131 1.776c.913.515 2.389.508 3.297-.016l116.988-67.554c.908-.524 1.644-1.799 1.644-2.848V29.968c0-1.048-.74-2.316-1.653-2.831l-3.132-1.777c-.913-.516-2.389-.509-3.297.016z" opacity=".8" fill="#ffffff"/>
        <path d="M62.805 141.648c-.875.508-2.474.525-3.3.019l-3.128-1.783c-.911-.509-1.654-1.778-1.654-2.827v-41.28c0-.547.204-1.147.523-1.678l6.401 3.704c-.303.509-.486 1.094-.486 1.617v41.276c-.001.96.676 1.514 1.644.952z" opacity=".5" fill="#ba68c8"/>
        <path d="M181.414 29.669c-.129-.828-.805-1.124-1.625-.653L62.808 96.573c-.455.266-.865.714-1.162 1.23l-6.408-3.704c.296-.493.691-.919 1.132-1.169l116.989-67.556c.904-.524 2.377-.531 3.296-.015l3.128 1.775c.826.47 1.517 1.556 1.631 2.535z" opacity=".3" fill="#ba68c8"/>
        <path d="M179.792 29.018 62.805 96.573c-.908.524-1.644 1.799-1.644 2.847v41.279c0 1.048.736 1.473 1.644.949l116.988-67.554c.908-.524 1.644-1.799 1.644-2.848V29.968c-.001-1.049-.737-1.474-1.645-.95z" fill="#ba68c8"/>
        <path d="M179.792 29.018 62.805 96.573c-.908.524-1.644 1.799-1.644 2.847v41.279c0 1.048.736 1.473 1.644.949l116.988-67.554c.908-.524 1.644-1.799 1.644-2.848V29.968c-.001-1.049-.737-1.474-1.645-.95z" opacity=".8" fill="#ffffff"/>
        <path d="M180.024 30.514v40.732c0 .547-.465 1.352-.938 1.625L62.572 140.153V99.421c0-.547.465-1.351.938-1.625l116.514-67.282m.502-1.72c-.221 0-.47.072-.734.224L62.805 96.573c-.908.524-1.644 1.799-1.644 2.847v41.279c0 .744.371 1.174.91 1.174.221 0 .47-.072.734-.225l116.988-67.554c.908-.524 1.644-1.799 1.644-2.848V29.968c-.001-.744-.371-1.174-.911-1.174z" fill="#ba68c8" opacity=".3"/>
        <path d="M94.681 87.762c1.436-.829 2.683-1.297 3.741-1.403 1.058-.105 1.94.103 2.648.625.709.522 1.253 1.335 1.631 2.437.379 1.101.606 2.445.685 4.03a71.484 71.484 0 0 1 0 5.746 24.955 24.955 0 0 1-.685 4.82 19.114 19.114 0 0 1-1.615 4.311 16.478 16.478 0 0 1-2.606 3.659 15.882 15.882 0 0 1-3.653 2.866l-7.337 4.236c-.214.124-.399.126-.554.009-.155-.117-.233-.317-.233-.603V93.416c0-.284.078-.575.233-.872.155-.296.34-.506.554-.63l7.191-4.152zm4.774 7.957c-.039-.804-.16-1.505-.364-2.099-.204-.593-.505-1.041-.902-1.342-.397-.301-.898-.426-1.5-.376-.601.05-1.319.316-2.153.797l-3.901 2.252v17.469l4.047-2.337a8.635 8.635 0 0 0 2.066-1.64 9.643 9.643 0 0 0 1.456-2.063 10.38 10.38 0 0 0 .888-2.376c.204-.842.325-1.688.364-2.54a71.918 71.918 0 0 0-.001-5.745z" fill="#ba68c8"/>
        <path d="M116.342 75.255c.311-.179.544-.204.699-.074.155.13.291.382.408.755l7.133 20.415a.96.96 0 0 1 .028.256c0 .285-.077.575-.232.872-.155.297-.34.507-.553.63l-2.097 1.21c-.388.224-.659.271-.815.141a.992.992 0 0 1-.319-.456l-1.253-3.585-9.199 5.312-1.253 5.032a4.032 4.032 0 0 1-.319.825c-.156.311-.428.577-.815.801l-2.097 1.21c-.214.124-.398.126-.554.009-.155-.117-.232-.318-.232-.603 0-.104.01-.2.029-.289l7.133-28.651c.116-.508.252-.916.407-1.226.156-.31.389-.554.699-.733l3.202-1.851zm1.602 16.118-3.203-9.214-3.203 12.913 6.406-3.699z" fill="#ba68c8"/>
        <path d="M138.761 62.312c.213-.123.397-.126.553-.009.155.118.233.319.233.603v2.757c0 .285-.078.575-.233.872-.155.297-.34.507-.553.63l-5.241 3.026v21.273c0 .285-.077.575-.232.872-.155.297-.34.507-.553.63l-2.359 1.362c-.214.123-.398.126-.553.009-.155-.117-.232-.318-.232-.603V72.46l-5.241 3.026c-.214.124-.398.126-.553.009-.156-.117-.233-.317-.233-.603v-2.757c0-.284.077-.575.233-.872.154-.296.339-.506.553-.63l14.411-8.321z" fill="#ba68c8"/>
        <path d="M149.97 55.841c.31-.179.543-.204.699-.074.154.13.291.382.407.755l7.133 20.415a.955.955 0 0 1 .029.256c0 .285-.078.575-.232.872-.156.297-.341.507-.554.63l-2.097 1.21c-.388.224-.659.271-.815.141a.992.992 0 0 1-.319-.456l-1.253-3.586-9.199 5.312-1.253 5.032a4.032 4.032 0 0 1-.319.825c-.156.311-.428.577-.815.801l-2.097 1.21c-.214.124-.398.126-.553.009-.156-.117-.232-.318-.232-.603 0-.104.009-.2.028-.289l7.133-28.651c.117-.508.252-.916.408-1.226.155-.31.388-.554.698-.733l3.203-1.85zm1.601 16.117-3.203-9.214-3.203 12.913 6.406-3.699z" fill="#ba68c8"/>
        <g>
            <path d="m109.248 397.562-60.892-.012 6.296 26.229h.008c.48 3.163 2.808 6.249 7 8.67 9.47 5.467 24.823 5.467 34.293 0 4.512-2.605 6.848-5.982 7.06-9.395l6.235-25.492z" fill="#37474f"/>
            <path d="M101.822 415.539a25.607 25.607 0 0 0 3.655-2.552l3.426-14.013c-1.564 1.762-3.61 3.419-6.16 4.894-12.846 7.415-33.433 7.602-46.715.603l1.548-6.248-.475-.66-8.741-.002 6.293 26.217h.008c.48 3.162 2.808 6.249 7 8.67 6.746 3.895 16.47 5 24.933 3.346-15.171 1.131-25.581-5.502-27.141-11.617-.623-2.44-1.709-7.839-1.709-7.839 12.67 6.437 31.972 6.183 44.078-.799z" fill="#263238"/>
            <path d="M112.415 389.803c-.314 1.61-.992 3.201-2.033 4.733-1.64 2.475-4.193 4.792-7.64 6.785-13.217 7.63-34.654 7.63-47.871 0-3.447-1.993-6-4.311-7.64-6.785-1.031-1.532-1.709-3.123-2.022-4.733h-.01c-1.178-5.735 2.053-11.715 9.673-16.114 13.217-7.64 34.654-7.64 47.871 0 7.619 4.399 10.85 10.379 9.672 16.114z" fill="#455a64"/>
            <path d="M110.382 394.536c-1.64 2.475-4.193 4.792-7.64 6.785-13.217 7.63-34.654 7.63-47.871 0-3.447-1.993-6-4.311-7.64-6.785-1.031-1.532-1.709-3.123-2.022-4.733h-.01l1.502 10.32c.687 4.154 3.781 8.199 9.299 11.381 12.599 7.267 33.014 7.267 45.613 0 5.44-3.142 8.533-7.139 9.27-11.234l.079-.53 1.453-9.938c-.314 1.611-.992 3.202-2.033 4.734z" fill="#37474f"/>
            <path d="M98.756 375.987c-11.018-6.363-28.88-6.363-39.888 0-6.236 3.603-8.936 8.465-8.121 13.158.629 3.604 3.339 7.109 8.121 9.869 11.008 6.363 28.87 6.363 39.888 0 4.772-2.759 7.483-6.265 8.111-9.859.825-4.704-1.876-9.565-8.111-13.168z" fill="#263238"/>
            <path d="M52.608 393.507c1.377 2.004 3.451 3.886 6.26 5.507 11.008 6.363 28.87 6.363 39.888 0 2.805-1.621 4.877-3.504 6.253-5.508-.081-3.81-2.632-7.601-7.666-10.51-10.237-5.912-26.834-5.912-37.062 0-5.037 2.911-7.588 6.704-7.673 10.511z" fill="#fafafa"/>
            <path d="m101.273 298.277-17.361 14.895 17.013-8.666s.461 8.697-2.374 16.525c0 0-8.333 5.417-13.116 10.083l13.076-5.76s1.248 8.716-1.876 22.208c-.818 3.534-4.488 10.361-6.777 15.446a57.268 57.268 0 0 1-3.599 6.809c-.076.141-.164.273-.25.415a186.535 186.535 0 0 0-9.662-4.685c-2.308-4.408-5.519-15.388-6.877-24.429-5.166-34.613 20.346-55.55 41.22-63.047-.001 0-6.909 9.386-9.417 20.206z" fill="#ba68c8"/>
            <path d="M86.354 300.31c-3.515 3.817-5.467 8.741-6.921 13.64-1.436 4.938-2.268 10.04-2.598 15.162-.673 10.241.905 20.657 4.959 30.036l.005.011a.504.504 0 1 1-.925.399l-.003-.008c-3.976-9.627-5.381-20.177-4.538-30.475.416-5.152 1.337-10.265 2.859-15.201 1.538-4.891 3.583-9.804 7.162-13.564z" fill="#ffffff"/>
            <path d="M24.316 315.217s.007.013.025.03c.403.622 7.01 10.819 16.285 30.217l18.791 5.48-14.451.705 6.092 12.976 14.98 4.138-11.631 2.679s2.296 14.892 12.097 22.206c5.41 4.037 7.926 4.431 10.149 3.453 2.715-1.194 4.433-5.172 6.221-11.201 1.788-6.028 1.201-18.731-3.101-31.535-1.143-3.406-2.833-6.622-4.932-9.633-12.02-17.289-37.459-28.076-50.525-29.515z" fill="#ba68c8"/>
            <path d="M24.316 315.217s.007.013.025.03c.403.622 7.01 10.819 16.285 30.217l18.791 5.48-14.451.705 6.092 12.976 14.98 4.138-11.631 2.679s2.296 14.892 12.097 22.206c5.41 4.037 7.926 4.431 10.149 3.453 2.715-1.194 4.433-5.172 6.221-11.201 1.788-6.028 1.201-18.731-3.101-31.535-1.143-3.406-2.833-6.622-4.932-9.633-12.02-17.289-37.459-28.076-50.525-29.515z" opacity=".1"/>
            <path d="M43.596 323.997c9.373 5.588 18.012 12.729 24.374 21.753 3.206 4.474 5.763 9.44 7.44 14.701 1.612 5.277 2.391 10.8 2.205 16.279a.054.054 0 0 1-.055.052c-.027-.001-.049-.024-.052-.051-.428-5.453-1.354-10.826-3.116-15.948-1.676-5.141-4.112-10.032-7.126-14.545-6.116-9.007-14.526-16.306-23.726-22.15a.054.054 0 0 1-.017-.074.054.054 0 0 1 .073-.017z" fill="#ffffff"/>
            <path d="M144.643 318.36c-1.71-.037-3.639.051-5.735.264-6.288.64-14.075 2.409-21.938 5.339a95.961 95.961 0 0 0-7.836 3.317 87.494 87.494 0 0 0-3.838 1.951c-6.319 3.414-12.197 7.645-16.808 12.709-2.279 2.496-4.225 5.214-5.787 8.131-.203.38-.424.75-.614 1.138l-.003.008a61.072 61.072 0 0 0-1.343 2.959c-4.846 10.956-5.256 18.561-4.951 26.995.237 6.541 2.461 14.019 3.734 15.246.174.168.367.304.569.423 1.865 1.189 4.83.495 10.374-2.605 11.109-6.212 15.47-21.95 15.47-21.95l-14.98-3.422 19.363-3.157 8.053-12.561-14.817-2.695 20.138-3.097c12.211-18.754 20.418-28.378 20.918-28.965.022-.016.031-.028.031-.028z" fill="#ba68c8"/>
            <path d="M138.908 318.624c-6.288.64-14.075 2.409-21.938 5.339a95.961 95.961 0 0 0-7.836 3.317 87.494 87.494 0 0 0-3.838 1.951c-6.319 3.414-12.197 7.645-16.808 12.709-2.279 2.496-4.225 5.214-5.787 8.131-.203.38-.424.75-.614 1.138l-.003.008a61.072 61.072 0 0 0-1.343 2.959c-4.846 10.956-5.256 18.561-4.951 26.995.237 6.541 2.461 14.019 3.734 15.246.174.168.367.304.569.423.358.228.773.364 1.223.45-1.369-10.142 3.619-35.857 11.172-46.434 7.858-11.004 26.499-26.962 52.125-32.468l-.021-.026c-1.697-.036-3.607.05-5.684.262z" fill="#ba68c8"/>
            <path d="M138.908 318.624c-6.288.64-14.075 2.409-21.938 5.339a95.961 95.961 0 0 0-7.836 3.317 87.494 87.494 0 0 0-3.838 1.951c-6.319 3.414-12.197 7.645-16.808 12.709-2.279 2.496-4.225 5.214-5.787 8.131-.203.38-.424.75-.614 1.138l-.003.008a61.072 61.072 0 0 0-1.343 2.959c-4.846 10.956-5.256 18.561-4.951 26.995.237 6.541 2.461 14.019 3.734 15.246.174.168.367.304.569.423.358.228.773.364 1.223.45-1.369-10.142 3.619-35.857 11.172-46.434 7.858-11.004 26.499-26.962 52.125-32.468l-.021-.026c-1.697-.036-3.607.05-5.684.262z" opacity=".2"/>
            <path d="M81.253 397.292c-.546-7.49.062-15.042 1.456-22.429 1.486-7.362 3.724-14.65 7.441-21.27 3.796-6.619 9.254-12.028 15.06-16.817 5.919-4.679 12.401-8.655 19.324-11.58a.063.063 0 0 1 .083.034c.013.03 0 .065-.029.08-6.591 3.569-12.876 7.649-18.579 12.445-2.88 2.356-5.638 4.868-8.163 7.596-2.553 2.697-4.945 5.565-6.823 8.753-3.745 6.411-6.099 13.605-7.694 20.887-1.549 7.304-2.326 14.808-1.949 22.295a.063.063 0 0 1-.059.067.067.067 0 0 1-.068-.061z" fill="#ffffff"/>
        </g>
        <g>
            <path d="M275.726 407.98c-.755.438-1.799.377-2.953-.286-2.309-1.326-4.185-4.56-4.191-7.222-.003-1.331.462-2.268 1.217-2.706h.001l51.951-32.856.003.006c1.064-.714 2.582-.676 4.275.297 3.227 1.853 5.85 6.373 5.859 10.095.004 1.953-.716 3.289-1.863 3.859l.007.013-54.306 28.8z" fill="#455a64"/>
            <path d="M268.582 400.473c-.006-2.663 1.861-3.746 4.17-2.42s4.185 4.56 4.191 7.222c.006 2.663-1.861 3.746-4.17 2.42s-4.185-4.56-4.191-7.222z" fill="#37474f"/>
            <path d="M262.444 411.795c-1.396-.802-2.531-2.757-2.534-4.367-.002-.805.279-1.371.736-1.636l-.001-.001 10.324-6.006.001.001c.456-.265 1.087-.228 1.785.173 1.396.802 2.531 2.757 2.534 4.367.002.805-.28 1.371-.736 1.636l-10.324 6.006c-.455.265-1.087.228-1.785-.173z" fill="#ba68c8"/>
            <path d="M262.444 411.795c-1.396-.802-2.531-2.757-2.534-4.367-.002-.805.279-1.371.736-1.636l-.001-.001 10.324-6.006.001.001c.456-.265 1.087-.228 1.785.173 1.396.802 2.531 2.757 2.534 4.367.002.805-.28 1.371-.736 1.636l-10.324 6.006c-.455.265-1.087.228-1.785-.173z" opacity=".2"/>
            <path d="M267.296 403.483c-.38-.294-.771-.586-1.174-.875l-5.444 3.163c2.402 1.48 4.429 3.072 6.055 4.742l4.981-2.894c-.138-.155-.259-.315-.402-.469a32.28 32.28 0 0 0-4.016-3.667z" opacity=".2"/>
            <path d="m274.715 399.75 53.447-32.837c-.664-.672-1.375-1.265-2.134-1.699-1.691-.97-3.21-1.013-4.277-.293l-.004-.008-51.945 32.85c.76-.441 1.797-.372 2.953.289.706.413 1.373 1.002 1.96 1.698z" opacity=".15"/>
            <path d="M182.251 415.805v11.822c0 6.418 4.24 12.835 12.721 17.732 16.962 9.793 44.462 9.793 61.425 0 8.481-4.896 12.721-11.314 12.722-17.732v-11.822c0-6.418-4.241-12.835-12.721-17.732-16.962-9.793-44.463-9.793-61.425 0-8.482 4.897-12.722 11.315-12.722 17.732zm82.667.001c0 5.134-3.772 10.139-10.621 14.094-7.576 4.374-17.737 6.782-28.612 6.782-10.876 0-21.037-2.409-28.612-6.782-6.849-3.954-10.621-8.96-10.621-14.094 0-5.135 3.771-10.14 10.621-14.094 7.575-4.373 17.736-6.782 28.612-6.782 10.876 0 21.037 2.409 28.612 6.782 6.849 3.954 10.621 8.959 10.621 14.094z" fill="#ba68c8"/>
            <path d="M256.4 398.074c-16.962-9.793-44.463-9.793-61.425 0-16.962 9.793-16.962 25.671 0 35.464s44.463 9.793 61.425 0c16.961-9.793 16.961-25.671 0-35.464zm-2.101 31.826c-7.575 4.374-17.736 6.782-28.612 6.782-10.875 0-21.037-2.409-28.612-6.782-6.849-3.954-10.621-8.96-10.621-14.094 0-5.135 3.771-10.14 10.621-14.094 7.575-4.373 17.736-6.782 28.612-6.782 10.876 0 21.038 2.409 28.612 6.782 6.85 3.954 10.621 8.96 10.621 14.094 0 5.134-3.772 10.139-10.621 14.094z" opacity=".3" fill="#ffffff"/>
            <path d="M264.923 415.805c0 2.016-.58 3.999-1.697 5.914-1.722-2.982-4.755-5.78-8.93-8.182-7.569-4.377-17.734-6.788-28.613-6.788-10.871 0-21.036 2.411-28.605 6.788-4.175 2.403-7.208 5.2-8.939 8.182-1.109-1.915-1.689-3.898-1.689-5.914 0-5.133 3.772-10.14 10.627-14.097 7.569-4.368 17.734-6.779 28.605-6.779 10.879 0 21.044 2.411 28.613 6.779 6.856 3.957 10.628 8.964 10.628 14.097z" fill="#ba68c8"/>
            <path d="M264.923 415.805c0 2.016-.58 3.999-1.697 5.914-1.722-2.982-4.755-5.78-8.93-8.182-7.569-4.377-17.734-6.788-28.613-6.788-10.871 0-21.036 2.411-28.605 6.788-4.175 2.403-7.208 5.2-8.939 8.182-1.109-1.915-1.689-3.898-1.689-5.914 0-5.133 3.772-10.14 10.627-14.097 7.569-4.368 17.734-6.779 28.605-6.779 10.879 0 21.044 2.411 28.613 6.779 6.856 3.957 10.628 8.964 10.628 14.097z" opacity=".1"/>
            <path d="M254.299 407.064c-7.575-4.374-17.736-6.782-28.612-6.782-10.876 0-21.037 2.409-28.612 6.782-5.652 3.263-9.201 7.242-10.272 11.418 1.071 4.176 4.62 8.155 10.272 11.418 7.576 4.374 17.737 6.782 28.612 6.782 10.876 0 21.038-2.409 28.612-6.782 5.651-3.263 9.201-7.242 10.272-11.418-1.071-4.176-4.62-8.155-10.272-11.418z" opacity=".6" fill="#ffffff"/>
            <path d="M235.921 440.184v11.812c7.502-1.042 14.618-3.251 20.473-6.637 8.485-4.898 12.727-11.316 12.727-17.734v-11.82c0-1.294-.176-2.588-.52-3.873h-.009c2.058 7.636-2.008 15.718-12.198 21.607-5.856 3.385-12.971 5.595-20.473 6.645z" opacity=".1"/>
        </g>
        <g>
            <path d="M410.336 399.126c-.016-.223.804-12.439.804-12.439s-3.158 1.909-10.483 1.865c-3.725-.022-9.033-3.03-9.033-3.03l.77 12.093c-.843-.239-1.048 1.825-2.449 2.62-2.425 1.375-7.032 1.645-11.39 1.919-1.157.073-2.471-.033-3.669.069l-.071.01c-3.633.757-6.673 3.964-2.163 6.147 4.511 2.183 10.951 1.739 16.876 1.284 7.128-.548 21.328-3.169 20.808-10.538z" fill="#b16668"/>
            <path d="M360.06 408.902s-.462 1.597.206 3.951c.388 1.37 4.574 5.444 10.959 7.173s13.662.476 17.238.815c3.576.339 7.054 1.747 11.234 1.961 4.308.221 9.819-.055 12.124-3.901.518-1.333.264-3.184-.022-3.403-.769-.589-51.739-6.596-51.739-6.596z" fill="#263238"/>
            <path d="M392.291 396.009c-.698-.334-1.576 2.009-2.517 2.33-2.784.949-7.004.912-11.402 1.263-5.548.441-12.029-.325-15.474 1.746-3.445 2.071-3.961 6.598 2.096 11.406 1.752 1.39 3.722 3.234 5.616 3.964 6.29 2.424 12.829.959 17.007 1.187 5.435.297 9.17 3.015 14.078 2.636 6.351-.491 9.619-2.004 10.273-5.775.637-3.678-1.115-7.47-1.054-11.724.041-2.917.649-4.242-.558-4.126 0 0-1.064 1.471-3.692 2.249-4.703 1.392-5.925-.496-10.488 4.745-1.401 1.609-2.421.884-2.684.606-.904-.955-1.313-2.509-1.203-5.116.035-.832.105-3.785.105-3.785l-.103-1.606z" fill="#37474f"/>
            <path d="M370.611 416.717s-2.401-14.672 5.54-16.995l1.036-.063s-.182-1.002-3.345-1.194c-6.077-.369-9.881.504-12.376 3.275-1.06 1.177-2.235 4.352-1.455 7.01.834 2.841 4.025 6.049 10.6 7.967z" fill="#fafafa"/>
            <path d="M374.588 407.908s.429-6.859 5.011-8.395c0 0 1.423-.451 2.358-.145 0 0-5.117 1.324-5.619 8.549 0 0-.108.511-.981.52-.294.003-.8.028-.769-.529z" fill="#fafafa"/>
            <path d="M385.601 399.115s-.083-.152-1.007-.069c-.732.065-1.164.238-1.164.238s-4.931 2.386-4.38 8.654c0 0-.083.529.783.403.962-.14.979-.577.979-.577s-.418-6.014 4.789-8.649z" fill="#fafafa"/>
            <path d="M388.965 398.574s-.22-.149-.952.002c-.922.19-1.09.417-1.09.417s-4.318 3.208-3.397 8.354c0 0 .057.557.929.368.903-.195.757-.715.757-.715s-1.015-5.152 3.753-8.426z" fill="#fafafa"/>
            <path d="M413.831 373.319c-.2 2.636-.523 5.007.459 7.907 1.409 4.161 4.389 6.067 6.138 7.709 1.749 1.642 3.697 4.068 5.098 6.438 1.245 2.106 1.736 4.566 5.32 6.929 3.19 2.104 9.022 2.219 12.61-.156 2.065-1.368 3.012-1.873 2.873-5.628-.136-3.668-15.075-4.23-15.075-4.23l-17.423-18.969z" fill="#263238"/>
            <path d="M444.917 385.323c.932.367 1.167 2.217 1.309 5.894.107 2.783 1.229 6.856-2.449 8.61-2.967 1.415-8.51 3.111-13.728-1.345-3.107-2.652-4.193-6.156-7.764-10.15-3.098-3.465-6.323-4.633-7.698-11.559-.885-4.452-.189-6.296 2.686-7.573 3.954-1.756 10.165 3.981 13.263 4.884 2.666.779 13.449 10.871 14.381 11.239z" fill="#37474f"/>
            <path d="M430.534 374.085a5.682 5.682 0 0 1-.526-.19c-5.705.517-7.986 4.611-8.559 5.849-.528 1.212 1.098 2.155 2.064 1.212 2.209-4.574 6.746-5.588 8.553-5.814-.584-.542-1.112-.935-1.532-1.057z" fill="#fafafa"/>
            <path d="M433.091 376.181c-5.271.737-7.399 4.605-7.952 5.8-.527 1.212 1.098 2.155 2.065 1.212 1.751-3.628 4.973-5.017 7.133-5.55a38.02 38.02 0 0 0-1.246-1.462z" fill="#fafafa"/>
            <path d="M416.4 381.899s.31-8.243 11.003-9.389l.613.362s-1.704-3.232-5.26-4.232c-3.557-.999-6.363-.042-8.229 2.464-1.865 2.506.026 9.189 1.873 10.795z" fill="#fafafa"/>
            <path d="M445.842 362.872s-.641 21.891-.817 23.262c-.176 1.37-.663 2.823-5.989 3.242-5.322.419-9.339-2.705-9.997-4.262-.658-1.556-2.334-22.649-2.334-22.649l19.137.407z" fill="#b16668"/>
            <path d="M449.065 332.999c.008-15.607-.911-21.404-.911-21.404s.675-20.71.549-42.626c-.175-30.419 1.796-36.483-3.211-53.111-8.211 7.108-41.611 9.688-59.866 5.243-.52 36.698.713 86.95 1.104 96.648.441 10.926.911 20.461 2.775 45.909a2840.126 2840.126 0 0 0 2.336 29.771c9.922 6.091 19.426-.226 19.426-.226s2.617-30.97 3.75-42.084c1.205-11.826-.375-28.88-.375-28.88s2.504-25.881 3.422-32.988c0 0 1.093 10.936 1.79 20.615.698 9.678 1.49 13.696 3.174 32.41 1.651 18.353 4.462 39.066 4.462 39.066 10.674 3.397 18.351 0 18.351 0s3.218-37.288 3.224-48.343z" fill="#455a64"/>
            <path d="m418.065 289.25 3.582-29.716s10.278.141 19.275-7.398c0 0-2.595 7.538-15.206 11.605l-5.081 25.58-.85 19.576-1.72-19.647z" fill="#37474f"/>
            <path fill="#b16668" d="m409.622 142.701 2.111 15.459 20.999-1.068-2.271-16.742-20.839 2.351z"/>
            <path d="M401.261 113.794c-1.613 2.051-6.637 8.243-6.828 9.43l4.101 2.51 2.727-11.94z" fill="#9a4a4d"/>
            <path d="M412.936 98.248c-6.489-.698-10.697 3.902-12.583 17.711-.074.541-.875 1.391-1.481 3.457-2.6 8.864-1.146 17.302.353 19.547 3.759 3.023 7.938 4.15 13.993 3.636 4.615-.392 16.382-1.794 22.351-8.024 7.02-7.33 10.564-18.376 5.578-24.107-7.017-8.067-24.636-11.835-28.211-12.22z" fill="#b16668"/>
            <path d="M399.225 138.963c.83 1.242 6.772 4.289 10.505 4.527l-.352-2.904c-.001 0-5.043-.02-10.153-1.623z" fill="#9a4a4d"/>
            <path d="M411.654 122.45c.451 1.056 1.52 1.15 2.167.358.776-.95 1.385-1.974 2.368-2.744 1.137-.891 2.571-1.465 4.011-1.356 5.447.414 4.118 7.59 1.444 10.087-4.376 4.087-6.703.557-6.703.557s-3.14 6.941 1.438 10.997c0 0 7.905 3.417 14.113 1.49 4.646-5.005 7.753-8.162 10.876-12.468 7.399-10.201 7.409-20.287 2.664-23.172.267-3.621-1.693-9.061-9.126-12.202-7.083-2.995-11.823-2.698-16.945-2.413-5.121.285-11.416 2.621-16.169-1.352-1.192 2.849-.887 6.277.788 8.871-1.512-.679-3.502.049-4.218 1.544-.716 1.495-.037 3.502 1.439 4.255-1.048.52-1.534 1.89-1.159 2.997s1.497 1.881 2.663 1.967c1.234.09 2.004-.028 3.219-.205 1.493 4.184 6.215 5.646 9.019 5.469-.078-.015-.441.573-.494.65a8.857 8.857 0 0 0-1.511 5.642c.031.355-.027.692.116 1.028z" fill="#263238"/>
            <path d="M435.667 148.959c7.805-.367 15.545 1.942 20.282 12.797 4.484 10.274 10.784 25.107 13.099 32.566 1.129 3.638 3.195 6.908-3.591 13.316-9.286 8.768-20.817 14.833-20.817 14.833l-6.823-14.609 10.663-10.23-4.704-9.772-8.109-38.901z" fill="#455a64"/>
            <path d="M448.48 197.632c1.12 1.846 3.697 4.413 6.322 5.339-2.998.727-6.29-2.501-7.297-4.404l.975-.935z" fill="#263238"/>
            <path d="M441.289 151.28c5.448 3.049 9.585 13.227 9.184 21.722-.254 5.377-2.144 19.259-3.754 31.534-.507 3.868 1.032 10.392 1.746 18.238.529 5.818.6 12.007.6 12.007s-7.3 9.037-27.341 10.216c-25.581 1.506-36.911-4.681-36.911-4.681s-.157-20.843.459-37.349c.914-24.477.966-31.638 4.792-39.97 1.265-2.463 2.59-7.948 6.757-9.031 3.302-.858 10.92-2.683 13.935-3.142 4.946 1.273 17.769 1.38 20.945-1.326l-.053-.712c5.505-.067 6.28.614 9.641 2.494z" fill="#ba68c8"/>
            <path d="M441.289 151.28c5.448 3.049 9.585 13.227 9.184 21.722-.254 5.377-2.144 19.259-3.754 31.534-.507 3.868 1.032 10.392 1.746 18.238.529 5.818.6 12.007.6 12.007s-7.3 9.037-27.341 10.216c-25.581 1.506-36.911-4.681-36.911-4.681s-.157-20.843.459-37.349c.914-24.477.966-31.638 4.792-39.97 1.265-2.463 2.59-7.948 6.757-9.031 3.302-.858 10.92-2.683 13.935-3.142 4.946 1.273 17.769 1.38 20.945-1.326l-.053-.712c5.505-.067 6.28.614 9.641 2.494z" fill="#ffffff" opacity=".4"/>
            <path d="M314.976 133.772c-2.813-3.526-4.31-4.997-5.818-5.886-1.509-.889-6.605-4.771-8.654-5.893-1.3-.712-2.445 1.353-1.073 3.339 1.056 1.53 4.199 3.997 5.531 5.258 1.332 1.261 3.412 5.773 3.412 5.773l6.602-2.591z" fill="#9a4a4d"/>
            <path d="M344.903 180.713c2.944 1.662 5.868 1.225 15.895.696 7.166-.378 17.066-.672 33.898-2.24 6.294-6.297 7.816-17.304 1.547-24.056-6.551-1.512-26.382 6.444-47.565 5.972 0 0-20.875-9.543-23.174-11.248-2.299-1.705-6.524-10.625-8.116-13.227-2.168-3.542-3.703-3.546-5.233-3.712-5.012-.543-6.177-.414-7.368-.034-1.191.381-1.431 1.631-1.431 1.631-1.323-.176-3.229-.719-4.028 1.32-.527 1.346-.519 1.665-.519 1.665s-.473-.075-.958.259c-1.39.954-.684 5.707.203 7.054.623.945 1.761 1.342 3.341 1.536 1.344.164 1.087-1.314 1.087-1.314l1.787.584c3.191 3.815 1.94 9.388 6.804 11.966 1.027.544 3.285 1.104 6.01 2.892 11.912 9.494 24.004 18.102 27.82 20.256z" fill="#b16668"/>
            <path d="m303.357 134.496 6.03.348-5.702-1.109c-.159.245-.27.499-.328.761z" fill="#9a4a4d"/>
            <path d="m298.81 137.481 6.816.875-6.623-1.642c-.09.231-.151.49-.193.767z" fill="#9a4a4d"/>
            <path d="M298.917 140.612c.111.391.377.735.685 1.003.305.279.653.494 1.026.681l-.071-.086c.085.391.184.779.287 1.165l.182-.14a1.384 1.384 0 0 0-1.115-.019c-.348.143-.61.417-.801.71.247-.253.548-.441.859-.542.313-.084.666-.063.936.071l.24.118-.058-.259c-.087-.391-.179-.78-.284-1.166l-.017-.061-.055-.025a6.498 6.498 0 0 1-1.015-.591c-.31-.234-.617-.495-.799-.859z" fill="#9a4a4d"/>
            <path d="M300.445 141.92c.62.308 2.342.794 2.342.794s-.073.484.487 1.482c.299.534.997 1.403.997 1.403l-1.787-.584s-.229-.927-1.781-1.668l-.258-1.427z" fill="#9a4a4d"/>
            <path d="M397.441 153.806c-3.464.159-7.409.319-12.849 1.809-3.897 1.068-18.162 3.752-22.247 4.14-4.085.388-13.685.883-13.685.883l-12.624-5.447s-2.232.754-4.495 5.447c-2.263 4.692-.773 10.883-.773 10.883s11.161 7.698 13.585 9.267c2.424 1.569 3.816 1.932 7.536 1.656 3.72-.276 28.651-1.812 31.488-1.49 2.838.321 3.625 1.327 5.215 2.245 1.59.918 5.836-.656 8.561-4.775 2.724-4.12 8.335-18.588.288-24.618z" fill="#455a64"/>
        </g>
        <g>
            <path d="m418.648 85.024 3.116-5.859-2.507-7.237v-4.43l7.672 4.43v4.43l-3.298 5.713a.48.48 0 0 1-.224.199l.002.003-4.761 2.751z" fill="#ba68c8"/>
            <path d="m418.648 85.024 3.116-5.859-2.507-7.237v-4.43l7.672 4.43v4.43l-3.298 5.713a.48.48 0 0 1-.224.199l.002.003-4.761 2.751z" opacity=".2"/>
            <path d="M400.326 32.285c0-1.467 1.03-3.25 2.3-3.984l1.873-1.081c1.27-.733 3.33-.733 4.6 0l28.724 16.613c1.271.734 2.301 2.517 2.301 3.984V79.42c0 1.467-1.03 3.251-2.301 3.984l-1.873 1.082c-1.27.733-3.33.733-4.601 0l-9.238-5.337-3.292 5.702a.491.491 0 0 1-.89-.085l-3.479-10.043-11.825-6.85c-1.27-.733-2.3-2.517-2.3-3.984l.001-31.604z" fill="#ba68c8"/>
            <path d="M440.123 79.42c0 1.467-1.03 3.251-2.3 3.984l-1.873 1.081c-1.148.663-2.935.72-4.208.185 1.083.41 1.907-.201 1.907-1.514V51.552c0-.733-.258-1.546-.673-2.267l6.473-3.737c.416.721.673 1.533.673 2.267V79.42z" opacity=".2"/>
            <path d="M400.401 31.631c.268-.977 1.159-1.288 2.221-.676l28.729 16.617c.633.365 1.212.987 1.62 1.717l6.471-3.734c-.419-.73-.988-1.352-1.621-1.717L409.104 27.22c-1.277-.729-3.337-.729-4.604 0l-1.878 1.084c-1.083.623-1.996 2.018-2.221 3.327z" opacity=".3" fill="#ffffff"/>
            <path d="M413.035 68.874a2.342 2.342 0 0 1-2.121-1.346l-3.768-7.94a2.343 2.343 0 1 1 4.242-1.994l2.228 4.663 10.768-12.537a2.348 2.348 0 0 1 3.306-.251 2.346 2.346 0 0 1 .251 3.306l-13.126 15.284a2.353 2.353 0 0 1-1.78.815z" fill="#fafafa"/>
        </g>
    </g>
</svg>
