<?xml version="1.0" encoding="UTF-8"?>
<svg data-bbox="0 54.952 500 372.609" viewBox="0 0 500 500" xmlns="http://www.w3.org/2000/svg" data-type="ugc">
    <g>
        <path fill="#ebebeb" d="M500 382.398v.25H0v-.25h500z"/>
        <path fill="#ebebeb" d="M449.901 398.494v.25h-33.122v-.25h33.122z"/>
        <path fill="#ebebeb" d="M331.22 401.208v.25h-8.693v-.25h8.693z"/>
        <path fill="#ebebeb" d="M415.778 389.208v.25h-19.192v-.25h19.192z"/>
        <path fill="#ebebeb" d="M95.652 390.888v.25H52.459v-.25h43.193z"/>
        <path fill="#ebebeb" d="M110.889 390.888v.25h-6.333v-.25h6.333z"/>
        <path fill="#ebebeb" d="M225.147 395.111v.25h-93.676v-.25h93.676z"/>
        <path d="M237.014 337.8H43.915a5.715 5.715 0 0 1-5.708-5.708V60.66a5.715 5.715 0 0 1 5.708-5.708h193.099a5.715 5.715 0 0 1 5.707 5.708v271.432a5.715 5.715 0 0 1-5.707 5.708zM43.915 55.203a5.464 5.464 0 0 0-5.458 5.458v271.432a5.464 5.464 0 0 0 5.458 5.458h193.099a5.463 5.463 0 0 0 5.457-5.458V60.66a5.464 5.464 0 0 0-5.457-5.458H43.915z" fill="#ebebeb"/>
        <path d="M453.31 337.8H260.212a5.714 5.714 0 0 1-5.707-5.708V60.66a5.715 5.715 0 0 1 5.707-5.708H453.31a5.714 5.714 0 0 1 5.708 5.708v271.432a5.714 5.714 0 0 1-5.708 5.708zM260.212 55.203a5.463 5.463 0 0 0-5.457 5.458v271.432a5.463 5.463 0 0 0 5.457 5.458H453.31a5.464 5.464 0 0 0 5.458-5.458V60.66a5.464 5.464 0 0 0-5.458-5.458H260.212z" fill="#ebebeb"/>
        <path d="M384.094 194.831a5.26 5.26 0 0 1 6.769-5.036 11.163 11.163 0 0 1-.118-1.615c0-6.15 4.986-11.136 11.136-11.136.701 0 1.386.068 2.051.192 1.711-2.801 4.788-4.678 8.311-4.678 5.332 0 9.658 4.285 9.737 9.598.054-.001.108-.008.162-.008a8.971 8.971 0 0 1 0 17.942h-32.945l.007-.007a5.255 5.255 0 0 1-5.11-5.252z" fill="#f0f0f0"/>
        <path d="M89.45 171.081a5.26 5.26 0 0 1 6.769-5.036 11.16 11.16 0 0 1-.118-1.614c0-6.15 4.986-11.136 11.136-11.136.701 0 1.386.068 2.051.192 1.712-2.801 4.788-4.678 8.312-4.678 5.332 0 9.658 4.285 9.737 9.598.054-.001.107-.008.162-.008a8.971 8.971 0 0 1 0 17.942H94.554l.007-.008a5.256 5.256 0 0 1-5.111-5.252z" fill="#f0f0f0"/>
        <path d="M224.688 94.976h-19.175c.051-.46.082-.925.082-1.399 0-6.971-5.651-12.621-12.622-12.621-.155 0-.306.018-.459.023-1.582-4.244-5.659-7.273-10.455-7.273-6.167 0-11.166 4.999-11.166 11.166l.001.025a10.645 10.645 0 0 0-10.133 10.078h-.507c-3.086 0-5.611 2.525-5.611 5.611s2.525 5.611 5.611 5.611h64.434c3.086 0 5.611-2.525 5.611-5.611.001-3.085-2.524-5.61-5.611-5.61z" fill="#f0f0f0"/>
        <path d="M366.716 102.988c-2.996-4.78-8.296-7.97-14.354-7.97-6.158 0-11.533 3.296-14.5 8.21a9.053 9.053 0 0 0-2.445-.343 9.078 9.078 0 0 0-9.078 9.078l.001.012h-4.786a4.547 4.547 0 0 0-4.533 4.533 4.547 4.547 0 0 0 4.533 4.533h16.516c3.007 4.724 8.277 7.867 14.292 7.867 4.743 0 9.025-1.954 12.101-5.094.286.023.573.044.865.044 5.791 0 10.486-4.695 10.486-10.486 0-5.32-3.964-9.703-9.098-10.384z" fill="#f0f0f0"/>
        <path d="M265.824 167.099c-2.996-4.78-8.296-7.97-14.354-7.97-6.158 0-11.533 3.296-14.5 8.21a9.053 9.053 0 0 0-2.445-.343 9.078 9.078 0 0 0-9.078 9.078l.001.012h-4.786a4.547 4.547 0 0 0-4.533 4.533 4.547 4.547 0 0 0 4.533 4.533h16.516c3.007 4.724 8.277 7.867 14.292 7.867 4.743 0 9.025-1.954 12.101-5.094.286.023.573.044.865.044 5.791 0 10.486-4.695 10.486-10.486 0-5.32-3.964-9.704-9.098-10.384z" fill="#f0f0f0"/>
        <path fill="#e6e6e6" d="M56.438 382.25v-47.797h4.087V311.68h5.974v-79.182h8.636v-10.217l18.439-8.599V203.38h2.554v29.118h3.576v79.182h3.576v-41.634h9.706V248.59h2.709v63.09h7.372v-24.01h4.853v-6.13h11.238v-20.945h6.155V245.78h7.566v-21.583h2.699v21.583h7.566v14.815h6.155v20.945h11.238v6.13h4.854v24.01h5.755v-30.14h11.239v-64.878h3.576v-7.152h24.01v7.152h5.108v46.998h20.435v4.598h7.662v3.576h-7.662v18.39h21.455v-61.302h4.598v-13.027h9.962v-46.232h2.809v46.232h7.152v13.027h41.929v-4.287h2.554v29.118h3.576v.511h2.148v29.118h3.576v7.918h7.558v-21.455h2.709v51.085h3.015v-21.456h2.709v33.461h1.647v-24.01h4.854v-6.13h11.238V281.85h6.155v-14.815h7.565v-21.583h2.7v21.583h7.566v14.815h6.154v20.945h11.239v6.13h4.853v23.499h.871v.511h2.403v49.315H56.438z"/>
        <path fill="#f0f0f0" d="M320.024 231.787v2.895h-2.895v-2.895h2.895z"/>
        <path fill="#f0f0f0" d="M320.024 236.64v2.895h-2.895v-2.895h2.895z"/>
        <path fill="#f0f0f0" d="M320.024 256.052v2.895h-2.895v-2.895h2.895z"/>
        <path fill="#f0f0f0" d="M320.024 260.905v2.895h-2.895v-2.895h2.895z"/>
        <path fill="#f0f0f0" d="M320.024 265.758v2.895h-2.895v-2.895h2.895z"/>
        <path fill="#f0f0f0" d="M320.024 280.318v2.895h-2.895v-2.895h2.895z"/>
        <path fill="#f0f0f0" d="M320.024 285.171v2.895h-2.895v-2.895h2.895z"/>
        <path fill="#f0f0f0" d="M315.427 251.199v2.895h-2.895v-2.895h2.895z"/>
        <path fill="#f0f0f0" d="M315.427 256.052v2.895h-2.895v-2.895h2.895z"/>
        <path fill="#f0f0f0" d="M315.427 260.905v2.895h-2.895v-2.895h2.895z"/>
        <path fill="#f0f0f0" d="M315.427 265.758v2.895h-2.895v-2.895h2.895z"/>
        <path fill="#f0f0f0" d="M315.427 270.611v2.895h-2.895v-2.895h2.895z"/>
        <path fill="#f0f0f0" d="M315.427 280.318v2.895h-2.895v-2.895h2.895z"/>
        <path fill="#f0f0f0" d="M315.427 285.171v2.895h-2.895v-2.895h2.895z"/>
        <path fill="#f0f0f0" d="M310.829 231.787v2.895h-2.895v-2.895h2.895z"/>
        <path fill="#f0f0f0" d="M310.829 236.64v2.895h-2.895v-2.895h2.895z"/>
        <path fill="#f0f0f0" d="M310.829 241.493v2.895h-2.895v-2.895h2.895z"/>
        <path fill="#f0f0f0" d="M310.829 246.346v2.895h-2.895v-2.895h2.895z"/>
        <path fill="#f0f0f0" d="M310.829 251.199v2.895h-2.895v-2.895h2.895z"/>
        <path fill="#f0f0f0" d="M310.829 256.052v2.895h-2.895v-2.895h2.895z"/>
        <path fill="#f0f0f0" d="M310.829 260.905v2.895h-2.895v-2.895h2.895z"/>
        <path fill="#f0f0f0" d="M310.829 265.758v2.895h-2.895v-2.895h2.895z"/>
        <path fill="#f0f0f0" d="M310.829 270.611v2.895h-2.895v-2.895h2.895z"/>
        <path fill="#f0f0f0" d="M310.829 275.465v2.895h-2.895v-2.895h2.895z"/>
        <path fill="#f0f0f0" d="M310.829 285.171v2.895h-2.895v-2.895h2.895z"/>
        <path fill="#f0f0f0" d="M306.231 231.787v2.895h-2.895v-2.895h2.895z"/>
        <path fill="#f0f0f0" d="M306.231 236.64v2.895h-2.895v-2.895h2.895z"/>
        <path fill="#f0f0f0" d="M306.231 241.493v2.895h-2.895v-2.895h2.895z"/>
        <path fill="#f0f0f0" d="M306.231 246.346v2.895h-2.895v-2.895h2.895z"/>
        <path fill="#f0f0f0" d="M306.231 251.199v2.895h-2.895v-2.895h2.895z"/>
        <path fill="#f0f0f0" d="M306.231 256.052v2.895h-2.895v-2.895h2.895z"/>
        <path fill="#f0f0f0" d="M306.231 260.905v2.895h-2.895v-2.895h2.895z"/>
        <path fill="#f0f0f0" d="M306.231 304.583v2.895h-2.895v-2.895h2.895z"/>
        <path fill="#f0f0f0" d="M301.634 231.787v2.895h-2.895v-2.895h2.895z"/>
        <path fill="#f0f0f0" d="M301.634 236.64v2.895h-2.895v-2.895h2.895z"/>
        <path fill="#f0f0f0" d="M301.634 241.493v2.895h-2.895v-2.895h2.895z"/>
        <path fill="#f0f0f0" d="M301.634 246.346v2.895h-2.895v-2.895h2.895z"/>
        <path fill="#f0f0f0" d="M301.634 251.199v2.895h-2.895v-2.895h2.895z"/>
        <path fill="#f0f0f0" d="M301.634 256.052v2.895h-2.895v-2.895h2.895z"/>
        <path fill="#f0f0f0" d="M301.634 260.905v2.895h-2.895v-2.895h2.895z"/>
        <path fill="#f0f0f0" d="M301.634 265.758v2.895h-2.895v-2.895h2.895z"/>
        <path fill="#f0f0f0" d="M301.634 294.877v2.895h-2.895v-2.895h2.895z"/>
        <path fill="#f0f0f0" d="M301.634 299.73v2.895h-2.895v-2.895h2.895z"/>
        <path fill="#f0f0f0" d="M301.634 304.583v2.895h-2.895v-2.895h2.895z"/>
        <path fill="#f0f0f0" d="M301.634 309.436v2.895h-2.895v-2.895h2.895z"/>
        <path fill="#f0f0f0" d="M301.634 328.849v2.895h-2.895v-2.895h2.895z"/>
        <path fill="#f0f0f0" d="M297.036 231.787v2.895h-2.895v-2.895h2.895z"/>
        <path fill="#f0f0f0" d="M297.036 236.64v2.895h-2.895v-2.895h2.895z"/>
        <path fill="#f0f0f0" d="M297.036 241.493v2.895h-2.895v-2.895h2.895z"/>
        <path fill="#f0f0f0" d="M297.036 246.346v2.895h-2.895v-2.895h2.895z"/>
        <path fill="#f0f0f0" d="M297.036 251.199v2.895h-2.895v-2.895h2.895z"/>
        <path fill="#f0f0f0" d="M297.036 256.052v2.895h-2.895v-2.895h2.895z"/>
        <path fill="#f0f0f0" d="M297.036 260.905v2.895h-2.895v-2.895h2.895z"/>
        <path fill="#f0f0f0" d="M297.036 265.758v2.895h-2.895v-2.895h2.895z"/>
        <path fill="#f0f0f0" d="M297.036 270.611v2.895h-2.895v-2.895h2.895z"/>
        <path fill="#f0f0f0" d="M297.036 275.465v2.895h-2.895v-2.895h2.895z"/>
        <path fill="#f0f0f0" d="M297.036 290.024v2.895h-2.895v-2.895h2.895z"/>
        <path fill="#f0f0f0" d="M297.036 294.877v2.895h-2.895v-2.895h2.895z"/>
        <path fill="#f0f0f0" d="M297.036 299.73v2.895h-2.895v-2.895h2.895z"/>
        <path fill="#f0f0f0" d="M297.036 304.583v2.895h-2.895v-2.895h2.895z"/>
        <path fill="#f0f0f0" d="M297.036 309.436v2.895h-2.895v-2.895h2.895z"/>
        <path fill="#f0f0f0" d="M297.036 328.849v2.895h-2.895v-2.895h2.895z"/>
        <path fill="#f0f0f0" d="M292.438 231.787v2.895h-2.895v-2.895h2.895z"/>
        <path fill="#f0f0f0" d="M292.438 236.64v2.895h-2.895v-2.895h2.895z"/>
        <path fill="#f0f0f0" d="M292.438 241.493v2.895h-2.895v-2.895h2.895z"/>
        <path fill="#f0f0f0" d="M292.438 246.346v2.895h-2.895v-2.895h2.895z"/>
        <path fill="#f0f0f0" d="M292.438 251.199v2.895h-2.895v-2.895h2.895z"/>
        <path fill="#f0f0f0" d="M292.438 256.052v2.895h-2.895v-2.895h2.895z"/>
        <path fill="#f0f0f0" d="M292.438 260.905v2.895h-2.895v-2.895h2.895z"/>
        <path fill="#f0f0f0" d="M292.438 265.758v2.895h-2.895v-2.895h2.895z"/>
        <path fill="#f0f0f0" d="M292.438 270.611v2.895h-2.895v-2.895h2.895z"/>
        <path fill="#f0f0f0" d="M292.438 275.465v2.895h-2.895v-2.895h2.895z"/>
        <path fill="#f0f0f0" d="M292.438 280.318v2.895h-2.895v-2.895h2.895z"/>
        <path fill="#f0f0f0" d="M292.438 285.171v2.895h-2.895v-2.895h2.895z"/>
        <path fill="#f0f0f0" d="M292.438 290.024v2.895h-2.895v-2.895h2.895z"/>
        <path fill="#f0f0f0" d="M292.438 294.877v2.895h-2.895v-2.895h2.895z"/>
        <path fill="#f0f0f0" d="M292.438 299.73v2.895h-2.895v-2.895h2.895z"/>
        <path fill="#f0f0f0" d="M292.438 304.583v2.895h-2.895v-2.895h2.895z"/>
        <path fill="#f0f0f0" d="M292.438 309.436v2.895h-2.895v-2.895h2.895z"/>
        <path fill="#f0f0f0" d="M292.438 314.289v2.895h-2.895v-2.895h2.895z"/>
        <path fill="#f0f0f0" d="M287.841 231.787v2.895h-2.895v-2.895h2.895z"/>
        <path fill="#f0f0f0" d="M287.841 236.64v2.895h-2.895v-2.895h2.895z"/>
        <path fill="#f0f0f0" d="M287.841 241.493v2.895h-2.895v-2.895h2.895z"/>
        <path fill="#f0f0f0" d="M287.841 246.346v2.895h-2.895v-2.895h2.895z"/>
        <path fill="#f0f0f0" d="M287.841 251.199v2.895h-2.895v-2.895h2.895z"/>
        <path fill="#f0f0f0" d="M287.841 256.052v2.895h-2.895v-2.895h2.895z"/>
        <path fill="#f0f0f0" d="M287.841 260.905v2.895h-2.895v-2.895h2.895z"/>
        <path fill="#f0f0f0" d="M287.841 265.758v2.895h-2.895v-2.895h2.895z"/>
        <path fill="#f0f0f0" d="M287.841 270.611v2.895h-2.895v-2.895h2.895z"/>
        <path fill="#f0f0f0" d="M287.841 275.465v2.895h-2.895v-2.895h2.895z"/>
        <path fill="#f0f0f0" d="M287.841 290.024v2.895h-2.895v-2.895h2.895z"/>
        <path fill="#f0f0f0" d="M287.841 294.877v2.895h-2.895v-2.895h2.895z"/>
        <path fill="#f0f0f0" d="M287.841 299.73v2.895h-2.895v-2.895h2.895z"/>
        <path fill="#f0f0f0" d="M287.841 304.583v2.895h-2.895v-2.895h2.895z"/>
        <path fill="#f0f0f0" d="M283.243 231.787v2.895h-2.895v-2.895h2.895z"/>
        <path fill="#f0f0f0" d="M283.243 236.64v2.895h-2.895v-2.895h2.895z"/>
        <path fill="#f0f0f0" d="M283.243 241.493v2.895h-2.895v-2.895h2.895z"/>
        <path fill="#f0f0f0" d="M283.243 246.346v2.895h-2.895v-2.895h2.895z"/>
        <path fill="#f0f0f0" d="M283.243 251.199v2.895h-2.895v-2.895h2.895z"/>
        <path fill="#f0f0f0" d="M283.243 256.052v2.895h-2.895v-2.895h2.895z"/>
        <path fill="#f0f0f0" d="M283.243 260.905v2.895h-2.895v-2.895h2.895z"/>
        <path fill="#f0f0f0" d="M283.243 265.758v2.895h-2.895v-2.895h2.895z"/>
        <path fill="#f0f0f0" d="M283.243 270.611v2.895h-2.895v-2.895h2.895z"/>
        <path fill="#f0f0f0" d="M283.243 275.465v2.895h-2.895v-2.895h2.895z"/>
        <path fill="#f0f0f0" d="M283.243 290.024v2.895h-2.895v-2.895h2.895z"/>
        <path fill="#f0f0f0" d="M283.243 294.877v2.895h-2.895v-2.895h2.895z"/>
        <path fill="#f0f0f0" d="M283.243 299.73v2.895h-2.895v-2.895h2.895z"/>
        <path fill="#f0f0f0" d="M231.477 219.186v2.895h-2.895v-2.895h2.895z"/>
        <path fill="#f0f0f0" d="M231.477 224.039v2.895h-2.895v-2.895h2.895z"/>
        <path fill="#f0f0f0" d="M231.477 228.892v2.895h-2.895v-2.895h2.895z"/>
        <path fill="#f0f0f0" d="M231.477 233.745v2.895h-2.895v-2.895h2.895z"/>
        <path fill="#f0f0f0" d="M231.477 238.598v2.895h-2.895v-2.895h2.895z"/>
        <path fill="#f0f0f0" d="M231.477 243.451v2.895h-2.895v-2.895h2.895z"/>
        <path fill="#f0f0f0" d="M231.477 248.305v2.895h-2.895v-2.895h2.895z"/>
        <path fill="#f0f0f0" d="M231.477 253.157v2.895h-2.895v-2.895h2.895z"/>
        <path fill="#f0f0f0" d="M231.477 267.717v2.895h-2.895v-2.895h2.895z"/>
        <path fill="#f0f0f0" d="M231.477 272.57v2.895h-2.895v-2.895h2.895z"/>
        <path fill="#f0f0f0" d="M226.879 219.186v2.895h-2.895v-2.895h2.895z"/>
        <path fill="#f0f0f0" d="M226.879 224.039v2.895h-2.895v-2.895h2.895z"/>
        <path fill="#f0f0f0" d="M226.879 228.892v2.895h-2.895v-2.895h2.895z"/>
        <path fill="#f0f0f0" d="M226.879 233.745v2.895h-2.895v-2.895h2.895z"/>
        <path fill="#f0f0f0" d="M226.879 238.598v2.895h-2.895v-2.895h2.895z"/>
        <path fill="#f0f0f0" d="M226.879 243.451v2.895h-2.895v-2.895h2.895z"/>
        <path fill="#f0f0f0" d="M226.879 248.305v2.895h-2.895v-2.895h2.895z"/>
        <path fill="#f0f0f0" d="M226.879 253.157v2.895h-2.895v-2.895h2.895z"/>
        <path fill="#f0f0f0" d="M226.879 272.57v2.895h-2.895v-2.895h2.895z"/>
        <path fill="#f0f0f0" d="M222.282 219.186v2.895h-2.895v-2.895h2.895z"/>
        <path fill="#f0f0f0" d="M222.282 224.039v2.895h-2.895v-2.895h2.895z"/>
        <path fill="#f0f0f0" d="M222.282 228.892v2.895h-2.895v-2.895h2.895z"/>
        <path fill="#f0f0f0" d="M222.282 233.745v2.895h-2.895v-2.895h2.895z"/>
        <path fill="#f0f0f0" d="M222.282 238.598v2.895h-2.895v-2.895h2.895z"/>
        <path fill="#f0f0f0" d="M222.282 243.451v2.895h-2.895v-2.895h2.895z"/>
        <path fill="#f0f0f0" d="M222.282 248.305v2.895h-2.895v-2.895h2.895z"/>
        <path fill="#f0f0f0" d="M222.282 253.157v2.895h-2.895v-2.895h2.895z"/>
        <path fill="#f0f0f0" d="M217.684 219.186v2.895h-2.895v-2.895h2.895z"/>
        <path fill="#f0f0f0" d="M217.684 224.039v2.895h-2.895v-2.895h2.895z"/>
        <path fill="#f0f0f0" d="M217.684 228.892v2.895h-2.895v-2.895h2.895z"/>
        <path fill="#f0f0f0" d="M217.684 233.745v2.895h-2.895v-2.895h2.895z"/>
        <path fill="#f0f0f0" d="M217.684 238.598v2.895h-2.895v-2.895h2.895z"/>
        <path fill="#f0f0f0" d="M217.684 243.451v2.895h-2.895v-2.895h2.895z"/>
        <path fill="#f0f0f0" d="M217.684 253.157v2.895h-2.895v-2.895h2.895z"/>
        <path fill="#f0f0f0" d="M217.684 258.01v2.895h-2.895v-2.895h2.895z"/>
        <path fill="#f0f0f0" d="M217.684 272.57v2.895h-2.895v-2.895h2.895z"/>
        <path fill="#f0f0f0" d="M217.684 277.423v2.895h-2.895v-2.895h2.895z"/>
        <path fill="#f0f0f0" d="M217.684 282.276v2.895h-2.895v-2.895h2.895z"/>
        <path fill="#f0f0f0" d="M217.684 287.129v2.895h-2.895v-2.895h2.895z"/>
        <path fill="#f0f0f0" d="M217.684 291.982v2.895h-2.895v-2.895h2.895z"/>
        <path fill="#f0f0f0" d="M217.684 296.835v2.895h-2.895v-2.895h2.895z"/>
        <path fill="#f0f0f0" d="M217.684 301.688v2.895h-2.895v-2.895h2.895z"/>
        <path fill="#f0f0f0" d="M213.086 219.186v2.895h-2.895v-2.895h2.895z"/>
        <path fill="#f0f0f0" d="M213.086 224.039v2.895h-2.895v-2.895h2.895z"/>
        <path fill="#f0f0f0" d="M213.086 228.892v2.895h-2.895v-2.895h2.895z"/>
        <path fill="#f0f0f0" d="M213.086 233.745v2.895h-2.895v-2.895h2.895z"/>
        <path fill="#f0f0f0" d="M213.086 238.598v2.895h-2.895v-2.895h2.895z"/>
        <path fill="#f0f0f0" d="M213.086 243.451v2.895h-2.895v-2.895h2.895z"/>
        <path fill="#f0f0f0" d="M213.086 258.01v2.895h-2.895v-2.895h2.895z"/>
        <path fill="#f0f0f0" d="M213.086 262.863v2.895h-2.895v-2.895h2.895z"/>
        <path fill="#f0f0f0" d="M213.086 267.717v2.895h-2.895v-2.895h2.895z"/>
        <path fill="#f0f0f0" d="M213.086 272.57v2.895h-2.895v-2.895h2.895z"/>
        <path fill="#f0f0f0" d="M213.086 277.423v2.895h-2.895v-2.895h2.895z"/>
        <path fill="#f0f0f0" d="M213.086 282.276v2.895h-2.895v-2.895h2.895z"/>
        <path fill="#f0f0f0" d="M213.086 287.129v2.895h-2.895v-2.895h2.895z"/>
        <path fill="#f0f0f0" d="M213.086 291.982v2.895h-2.895v-2.895h2.895z"/>
        <path fill="#f0f0f0" d="M213.086 296.835v2.895h-2.895v-2.895h2.895z"/>
        <path fill="#f0f0f0" d="M213.086 301.688v2.895h-2.895v-2.895h2.895z"/>
        <path fill="#f0f0f0" d="M213.086 306.541v2.895h-2.895v-2.895h2.895z"/>
        <path fill="#f0f0f0" d="M213.086 316.248v2.895h-2.895v-2.895h2.895z"/>
        <path fill="#f0f0f0" d="M208.489 219.186v2.895h-2.895v-2.895h2.895z"/>
        <path fill="#f0f0f0" d="M208.489 224.039v2.895h-2.895v-2.895h2.895z"/>
        <path fill="#f0f0f0" d="M208.489 228.892v2.895h-2.895v-2.895h2.895z"/>
        <path fill="#f0f0f0" d="M208.489 233.745v2.895h-2.895v-2.895h2.895z"/>
        <path fill="#f0f0f0" d="M208.489 238.598v2.895h-2.895v-2.895h2.895z"/>
        <path fill="#f0f0f0" d="M208.489 243.451v2.895h-2.895v-2.895h2.895z"/>
        <path fill="#f0f0f0" d="M208.489 258.01v2.895h-2.895v-2.895h2.895z"/>
        <path fill="#f0f0f0" d="M208.489 262.863v2.895h-2.895v-2.895h2.895z"/>
        <path fill="#f0f0f0" d="M208.489 267.717v2.895h-2.895v-2.895h2.895z"/>
        <path fill="#f0f0f0" d="M208.489 272.57v2.895h-2.895v-2.895h2.895z"/>
        <path fill="#f0f0f0" d="M208.489 287.129v2.895h-2.895v-2.895h2.895z"/>
        <path fill="#f0f0f0" d="M208.489 291.982v2.895h-2.895v-2.895h2.895z"/>
        <path fill="#f0f0f0" d="M208.489 296.835v2.895h-2.895v-2.895h2.895z"/>
        <path fill="#f0f0f0" d="M208.489 301.688v2.895h-2.895v-2.895h2.895z"/>
        <path fill="#f0f0f0" d="M208.489 306.541v2.895h-2.895v-2.895h2.895z"/>
        <path fill="#f0f0f0" d="M208.489 316.248v2.895h-2.895v-2.895h2.895z"/>
        <path fill="#f0f0f0" d="M208.489 321.101v2.895h-2.895v-2.895h2.895z"/>
        <path fill="#f0f0f0" d="M166.769 264.311v2.895h-2.895v-2.895h2.895z"/>
        <path fill="#f0f0f0" d="M166.769 269.164v2.895h-2.895v-2.895h2.895z"/>
        <path fill="#f0f0f0" d="M166.769 274.017v2.895h-2.895v-2.895h2.895z"/>
        <path fill="#f0f0f0" d="M166.769 278.87v2.895h-2.895v-2.895h2.895z"/>
        <path fill="#f0f0f0" d="M166.769 283.724v2.895h-2.895v-2.895h2.895z"/>
        <path fill="#f0f0f0" d="M166.769 288.577v2.895h-2.895v-2.895h2.895z"/>
        <path fill="#f0f0f0" d="M166.769 293.43v2.895h-2.895v-2.895h2.895z"/>
        <path fill="#f0f0f0" d="M166.769 307.989v2.895h-2.895v-2.895h2.895z"/>
        <path fill="#f0f0f0" d="M166.769 312.842v2.895h-2.895v-2.895h2.895z"/>
        <path fill="#f0f0f0" d="M166.769 317.695v2.895h-2.895v-2.895h2.895z"/>
        <path fill="#f0f0f0" d="M162.172 264.311v2.895h-2.895v-2.895h2.895z"/>
        <path fill="#f0f0f0" d="M162.172 269.164v2.895h-2.895v-2.895h2.895z"/>
        <path fill="#f0f0f0" d="M162.172 274.017v2.895h-2.895v-2.895h2.895z"/>
        <path fill="#f0f0f0" d="M162.172 278.87v2.895h-2.895v-2.895h2.895z"/>
        <path fill="#f0f0f0" d="M162.172 283.724v2.895h-2.895v-2.895h2.895z"/>
        <path fill="#f0f0f0" d="M162.172 288.577v2.895h-2.895v-2.895h2.895z"/>
        <path fill="#f0f0f0" d="M162.172 293.43v2.895h-2.895v-2.895h2.895z"/>
        <path fill="#f0f0f0" d="M157.574 264.311v2.895h-2.895v-2.895h2.895z"/>
        <path fill="#f0f0f0" d="M157.574 269.164v2.895h-2.895v-2.895h2.895z"/>
        <path fill="#f0f0f0" d="M157.574 274.017v2.895h-2.895v-2.895h2.895z"/>
        <path fill="#f0f0f0" d="M157.574 278.87v2.895h-2.895v-2.895h2.895z"/>
        <path fill="#f0f0f0" d="M157.574 283.724v2.895h-2.895v-2.895h2.895z"/>
        <path fill="#f0f0f0" d="M157.574 288.577v2.895h-2.895v-2.895h2.895z"/>
        <path fill="#f0f0f0" d="M157.574 293.43v2.895h-2.895v-2.895h2.895z"/>
        <path fill="#f0f0f0" d="M152.976 264.311v2.895h-2.895v-2.895h2.895z"/>
        <path fill="#f0f0f0" d="M152.976 269.164v2.895h-2.895v-2.895h2.895z"/>
        <path fill="#f0f0f0" d="M152.976 274.017v2.895h-2.895v-2.895h2.895z"/>
        <path fill="#f0f0f0" d="M152.976 278.87v2.895h-2.895v-2.895h2.895z"/>
        <path fill="#f0f0f0" d="M152.976 283.724v2.895h-2.895v-2.895h2.895z"/>
        <path fill="#f0f0f0" d="M152.976 288.577v2.895h-2.895v-2.895h2.895z"/>
        <path fill="#f0f0f0" d="M152.976 293.43v2.895h-2.895v-2.895h2.895z"/>
        <path fill="#f0f0f0" d="M152.976 298.283v2.895h-2.895v-2.895h2.895z"/>
        <path fill="#f0f0f0" d="M152.976 303.136v2.895h-2.895v-2.895h2.895z"/>
        <path fill="#f0f0f0" d="M152.976 307.989v2.895h-2.895v-2.895h2.895z"/>
        <path fill="#f0f0f0" d="M152.976 312.842v2.895h-2.895v-2.895h2.895z"/>
        <path fill="#f0f0f0" d="M148.379 264.311v2.895h-2.895v-2.895h2.895z"/>
        <path fill="#f0f0f0" d="M148.379 269.164v2.895h-2.895v-2.895h2.895z"/>
        <path fill="#f0f0f0" d="M148.379 274.017v2.895h-2.895v-2.895h2.895z"/>
        <path fill="#f0f0f0" d="M148.379 278.87v2.895h-2.895v-2.895h2.895z"/>
        <path fill="#f0f0f0" d="M148.379 283.724v2.895h-2.895v-2.895h2.895z"/>
        <path fill="#f0f0f0" d="M148.379 288.577v2.895h-2.895v-2.895h2.895z"/>
        <path fill="#f0f0f0" d="M148.379 293.43v2.895h-2.895v-2.895h2.895z"/>
        <path fill="#f0f0f0" d="M148.379 298.283v2.895h-2.895v-2.895h2.895z"/>
        <path fill="#f0f0f0" d="M148.379 303.136v2.895h-2.895v-2.895h2.895z"/>
        <path fill="#f0f0f0" d="M148.379 307.989v2.895h-2.895v-2.895h2.895z"/>
        <path fill="#f0f0f0" d="M148.379 312.842v2.895h-2.895v-2.895h2.895z"/>
        <path fill="#f0f0f0" d="M148.379 317.695v2.895h-2.895v-2.895h2.895z"/>
        <path fill="#f0f0f0" d="M148.379 332.254v2.895h-2.895v-2.895h2.895z"/>
        <path fill="#f0f0f0" d="M148.379 337.107v2.895h-2.895v-2.895h2.895z"/>
        <path fill="#f0f0f0" d="M143.781 264.311v2.895h-2.895v-2.895h2.895z"/>
        <path fill="#f0f0f0" d="M143.781 269.164v2.895h-2.895v-2.895h2.895z"/>
        <path fill="#f0f0f0" d="M143.781 274.017v2.895h-2.895v-2.895h2.895z"/>
        <path fill="#f0f0f0" d="M143.781 288.577v2.895h-2.895v-2.895h2.895z"/>
        <path fill="#f0f0f0" d="M143.781 293.43v2.895h-2.895v-2.895h2.895z"/>
        <path fill="#f0f0f0" d="M143.781 298.283v2.895h-2.895v-2.895h2.895z"/>
        <path fill="#f0f0f0" d="M143.781 303.136v2.895h-2.895v-2.895h2.895z"/>
        <path fill="#f0f0f0" d="M143.781 307.989v2.895h-2.895v-2.895h2.895z"/>
        <path fill="#f0f0f0" d="M143.781 312.842v2.895h-2.895v-2.895h2.895z"/>
        <path fill="#f0f0f0" d="M143.781 317.695v2.895h-2.895v-2.895h2.895z"/>
        <path fill="#f0f0f0" d="M143.781 332.254v2.895h-2.895v-2.895h2.895z"/>
        <path fill="#f0f0f0" d="M143.781 337.107v2.895h-2.895v-2.895h2.895z"/>
        <path fill="#f0f0f0" d="M143.781 341.96v2.895h-2.895v-2.895h2.895z"/>
        <path fill="#f0f0f0" d="M95.591 235.193v2.895h-2.895v-2.895h2.895z"/>
        <path fill="#f0f0f0" d="M95.591 240.046v2.895h-2.895v-2.895h2.895z"/>
        <path fill="#f0f0f0" d="M95.591 244.899v2.895h-2.895v-2.895h2.895z"/>
        <path fill="#f0f0f0" d="M95.591 249.752v2.895h-2.895v-2.895h2.895z"/>
        <path fill="#f0f0f0" d="M95.591 254.605v2.895h-2.895v-2.895h2.895z"/>
        <path fill="#f0f0f0" d="M95.591 259.458v2.895h-2.895v-2.895h2.895z"/>
        <path fill="#f0f0f0" d="M95.591 264.311v2.895h-2.895v-2.895h2.895z"/>
        <path fill="#f0f0f0" d="M95.591 269.164v2.895h-2.895v-2.895h2.895z"/>
        <path fill="#f0f0f0" d="M95.591 274.017v2.895h-2.895v-2.895h2.895z"/>
        <path fill="#f0f0f0" d="M95.591 278.87v2.895h-2.895v-2.895h2.895z"/>
        <path fill="#f0f0f0" d="M95.591 283.724v2.895h-2.895v-2.895h2.895z"/>
        <path fill="#f0f0f0" d="M95.591 288.577v2.895h-2.895v-2.895h2.895z"/>
        <path fill="#f0f0f0" d="M95.591 293.43v2.895h-2.895v-2.895h2.895z"/>
        <path fill="#f0f0f0" d="M95.591 298.283v2.895h-2.895v-2.895h2.895z"/>
        <path fill="#f0f0f0" d="M95.591 303.136v2.895h-2.895v-2.895h2.895z"/>
        <path fill="#f0f0f0" d="M95.591 307.989v2.895h-2.895v-2.895h2.895z"/>
        <path fill="#f0f0f0" d="M95.591 312.842v2.895h-2.895v-2.895h2.895z"/>
        <path fill="#f0f0f0" d="M95.591 317.695v2.895h-2.895v-2.895h2.895z"/>
        <path fill="#f0f0f0" d="M95.591 322.548v2.895h-2.895v-2.895h2.895z"/>
        <path fill="#f0f0f0" d="M95.591 327.401v2.895h-2.895v-2.895h2.895z"/>
        <path fill="#f0f0f0" d="M95.591 332.254v2.895h-2.895v-2.895h2.895z"/>
        <path fill="#f0f0f0" d="M95.591 337.107v2.895h-2.895v-2.895h2.895z"/>
        <path fill="#f0f0f0" d="M95.591 341.96v2.895h-2.895v-2.895h2.895z"/>
        <path fill="#f0f0f0" d="M90.993 235.193v2.895h-2.895v-2.895h2.895z"/>
        <path fill="#f0f0f0" d="M90.993 240.046v2.895h-2.895v-2.895h2.895z"/>
        <path fill="#f0f0f0" d="M90.993 244.899v2.895h-2.895v-2.895h2.895z"/>
        <path fill="#f0f0f0" d="M90.993 249.752v2.895h-2.895v-2.895h2.895z"/>
        <path fill="#f0f0f0" d="M90.993 254.605v2.895h-2.895v-2.895h2.895z"/>
        <path fill="#f0f0f0" d="M90.993 259.458v2.895h-2.895v-2.895h2.895z"/>
        <path fill="#f0f0f0" d="M90.993 264.311v2.895h-2.895v-2.895h2.895z"/>
        <path fill="#f0f0f0" d="M90.993 269.164v2.895h-2.895v-2.895h2.895z"/>
        <path fill="#f0f0f0" d="M90.993 274.017v2.895h-2.895v-2.895h2.895z"/>
        <path fill="#f0f0f0" d="M90.993 278.87v2.895h-2.895v-2.895h2.895z"/>
        <path fill="#f0f0f0" d="M90.993 283.724v2.895h-2.895v-2.895h2.895z"/>
        <path fill="#f0f0f0" d="M90.993 288.577v2.895h-2.895v-2.895h2.895z"/>
        <path fill="#f0f0f0" d="M90.993 293.43v2.895h-2.895v-2.895h2.895z"/>
        <path fill="#f0f0f0" d="M90.993 298.283v2.895h-2.895v-2.895h2.895z"/>
        <path fill="#f0f0f0" d="M90.993 303.136v2.895h-2.895v-2.895h2.895z"/>
        <path fill="#f0f0f0" d="M90.993 307.989v2.895h-2.895v-2.895h2.895z"/>
        <path fill="#f0f0f0" d="M90.993 312.842v2.895h-2.895v-2.895h2.895z"/>
        <path fill="#f0f0f0" d="M90.993 317.695v2.895h-2.895v-2.895h2.895z"/>
        <path fill="#f0f0f0" d="M90.993 322.548v2.895h-2.895v-2.895h2.895z"/>
        <path fill="#f0f0f0" d="M86.396 235.193v2.895h-2.895v-2.895h2.895z"/>
        <path fill="#f0f0f0" d="M86.396 240.046v2.895h-2.895v-2.895h2.895z"/>
        <path fill="#f0f0f0" d="M86.396 244.899v2.895h-2.895v-2.895h2.895z"/>
        <path fill="#f0f0f0" d="M86.396 249.752v2.895h-2.895v-2.895h2.895z"/>
        <path fill="#f0f0f0" d="M86.396 254.605v2.895h-2.895v-2.895h2.895z"/>
        <path fill="#f0f0f0" d="M86.396 259.458v2.895h-2.895v-2.895h2.895z"/>
        <path fill="#f0f0f0" d="M86.396 264.311v2.895h-2.895v-2.895h2.895z"/>
        <path fill="#f0f0f0" d="M86.396 269.164v2.895h-2.895v-2.895h2.895z"/>
        <path fill="#f0f0f0" d="M86.396 274.017v2.895h-2.895v-2.895h2.895z"/>
        <path fill="#f0f0f0" d="M86.396 278.87v2.895h-2.895v-2.895h2.895z"/>
        <path fill="#f0f0f0" d="M86.396 283.724v2.895h-2.895v-2.895h2.895z"/>
        <path fill="#f0f0f0" d="M86.396 288.577v2.895h-2.895v-2.895h2.895z"/>
        <path fill="#f0f0f0" d="M86.396 293.43v2.895h-2.895v-2.895h2.895z"/>
        <path fill="#f0f0f0" d="M86.396 298.283v2.895h-2.895v-2.895h2.895z"/>
        <path fill="#f0f0f0" d="M86.396 303.136v2.895h-2.895v-2.895h2.895z"/>
        <path fill="#f0f0f0" d="M86.396 307.989v2.895h-2.895v-2.895h2.895z"/>
        <path fill="#f0f0f0" d="M86.396 312.842v2.895h-2.895v-2.895h2.895z"/>
        <path fill="#f0f0f0" d="M86.396 317.695v2.895h-2.895v-2.895h2.895z"/>
        <path fill="#f0f0f0" d="M86.396 322.548v2.895h-2.895v-2.895h2.895z"/>
        <path fill="#f0f0f0" d="M81.798 235.193v2.895h-2.895v-2.895h2.895z"/>
        <path fill="#f0f0f0" d="M81.798 240.046v2.895h-2.895v-2.895h2.895z"/>
        <path fill="#f0f0f0" d="M81.798 244.899v2.895h-2.895v-2.895h2.895z"/>
        <path fill="#f0f0f0" d="M81.798 249.752v2.895h-2.895v-2.895h2.895z"/>
        <path fill="#f0f0f0" d="M81.798 254.605v2.895h-2.895v-2.895h2.895z"/>
        <path fill="#f0f0f0" d="M81.798 259.458v2.895h-2.895v-2.895h2.895z"/>
        <path fill="#f0f0f0" d="M81.798 264.311v2.895h-2.895v-2.895h2.895z"/>
        <path fill="#f0f0f0" d="M81.798 269.164v2.895h-2.895v-2.895h2.895z"/>
        <path fill="#f0f0f0" d="M81.798 274.017v2.895h-2.895v-2.895h2.895z"/>
        <path fill="#f0f0f0" d="M81.798 278.87v2.895h-2.895v-2.895h2.895z"/>
        <path fill="#f0f0f0" d="M81.798 283.724v2.895h-2.895v-2.895h2.895z"/>
        <path fill="#f0f0f0" d="M81.798 288.577v2.895h-2.895v-2.895h2.895z"/>
        <path fill="#f0f0f0" d="M81.798 293.43v2.895h-2.895v-2.895h2.895z"/>
        <path fill="#f0f0f0" d="M81.798 298.283v2.895h-2.895v-2.895h2.895z"/>
        <path fill="#f0f0f0" d="M81.798 303.136v2.895h-2.895v-2.895h2.895z"/>
        <path fill="#f0f0f0" d="M77.2 235.193v2.895h-2.895v-2.895H77.2z"/>
        <path fill="#f0f0f0" d="M77.2 240.046v2.895h-2.895v-2.895H77.2z"/>
        <path fill="#f0f0f0" d="M77.2 244.899v2.895h-2.895v-2.895H77.2z"/>
        <path fill="#f0f0f0" d="M77.2 249.752v2.895h-2.895v-2.895H77.2z"/>
        <path fill="#f0f0f0" d="M77.2 254.605v2.895h-2.895v-2.895H77.2z"/>
        <path fill="#f0f0f0" d="M77.2 259.458v2.895h-2.895v-2.895H77.2z"/>
        <path fill="#f0f0f0" d="M77.2 264.311v2.895h-2.895v-2.895H77.2z"/>
        <path fill="#f0f0f0" d="M77.2 269.164v2.895h-2.895v-2.895H77.2z"/>
        <path fill="#f0f0f0" d="M77.2 274.017v2.895h-2.895v-2.895H77.2z"/>
        <path fill="#f0f0f0" d="M77.2 278.87v2.895h-2.895v-2.895H77.2z"/>
        <path fill="#f0f0f0" d="M77.2 283.724v2.895h-2.895v-2.895H77.2z"/>
        <path fill="#f0f0f0" d="M77.2 288.577v2.895h-2.895v-2.895H77.2z"/>
        <path fill="#f0f0f0" d="M77.2 293.43v2.895h-2.895v-2.895H77.2z"/>
        <path fill="#f0f0f0" d="M72.602 235.193v2.895h-2.895v-2.895h2.895z"/>
        <path fill="#f0f0f0" d="M72.602 240.046v2.895h-2.895v-2.895h2.895z"/>
        <path fill="#f0f0f0" d="M72.602 244.899v2.895h-2.895v-2.895h2.895z"/>
        <path fill="#f0f0f0" d="M72.602 249.752v2.895h-2.895v-2.895h2.895z"/>
        <path fill="#f0f0f0" d="M72.602 254.605v2.895h-2.895v-2.895h2.895z"/>
        <path fill="#f0f0f0" d="M72.602 259.458v2.895h-2.895v-2.895h2.895z"/>
        <path fill="#f0f0f0" d="M72.602 264.311v2.895h-2.895v-2.895h2.895z"/>
        <path fill="#f0f0f0" d="M72.602 269.164v2.895h-2.895v-2.895h2.895z"/>
        <path fill="#f0f0f0" d="M72.602 274.017v2.895h-2.895v-2.895h2.895z"/>
        <path fill="#f0f0f0" d="M72.602 278.87v2.895h-2.895v-2.895h2.895z"/>
        <path fill="#f0f0f0" d="M72.602 283.724v2.895h-2.895v-2.895h2.895z"/>
        <path fill="#f0f0f0" d="M72.602 288.577v2.895h-2.895v-2.895h2.895z"/>
        <path fill="#f0f0f0" d="M410.445 270.611v2.895h-2.895v-2.895h2.895z"/>
        <path fill="#f0f0f0" d="M410.445 275.465v2.895h-2.895v-2.895h2.895z"/>
        <path fill="#f0f0f0" d="M410.445 280.318v2.895h-2.895v-2.895h2.895z"/>
        <path fill="#f0f0f0" d="M410.445 285.171v2.895h-2.895v-2.895h2.895z"/>
        <path fill="#f0f0f0" d="M410.445 290.024v2.895h-2.895v-2.895h2.895z"/>
        <path fill="#f0f0f0" d="M410.445 294.877v2.895h-2.895v-2.895h2.895z"/>
        <path fill="#f0f0f0" d="M410.445 299.73v2.895h-2.895v-2.895h2.895z"/>
        <path fill="#f0f0f0" d="M410.445 304.583v2.895h-2.895v-2.895h2.895z"/>
        <path fill="#f0f0f0" d="M410.445 309.436v2.895h-2.895v-2.895h2.895z"/>
        <path fill="#f0f0f0" d="M410.445 314.289v2.895h-2.895v-2.895h2.895z"/>
        <path fill="#f0f0f0" d="M410.445 319.142v2.895h-2.895v-2.895h2.895z"/>
        <path fill="#f0f0f0" d="M410.445 323.995v2.895h-2.895v-2.895h2.895z"/>
        <path fill="#f0f0f0" d="M410.445 328.849v2.895h-2.895v-2.895h2.895z"/>
        <path fill="#f0f0f0" d="M410.445 333.702v2.895h-2.895v-2.895h2.895z"/>
        <path fill="#f0f0f0" d="M410.445 338.555v2.895h-2.895v-2.895h2.895z"/>
        <path fill="#f0f0f0" d="M410.445 343.408v2.895h-2.895v-2.895h2.895z"/>
        <path fill="#f0f0f0" d="M410.445 348.261v2.895h-2.895v-2.895h2.895z"/>
        <path fill="#f0f0f0" d="M410.445 353.114v2.895h-2.895v-2.895h2.895z"/>
        <path fill="#f0f0f0" d="M410.445 357.967v2.895h-2.895v-2.895h2.895z"/>
        <path fill="#f0f0f0" d="M410.445 362.82v2.895h-2.895v-2.895h2.895z"/>
        <path fill="#f0f0f0" d="M405.847 270.611v2.895h-2.895v-2.895h2.895z"/>
        <path fill="#f0f0f0" d="M405.847 275.465v2.895h-2.895v-2.895h2.895z"/>
        <path fill="#f0f0f0" d="M405.847 280.318v2.895h-2.895v-2.895h2.895z"/>
        <path fill="#f0f0f0" d="M405.847 285.171v2.895h-2.895v-2.895h2.895z"/>
        <path fill="#f0f0f0" d="M405.847 290.024v2.895h-2.895v-2.895h2.895z"/>
        <path fill="#f0f0f0" d="M405.847 294.877v2.895h-2.895v-2.895h2.895z"/>
        <path fill="#f0f0f0" d="M405.847 299.73v2.895h-2.895v-2.895h2.895z"/>
        <path fill="#f0f0f0" d="M405.847 304.583v2.895h-2.895v-2.895h2.895z"/>
        <path fill="#f0f0f0" d="M405.847 309.436v2.895h-2.895v-2.895h2.895z"/>
        <path fill="#f0f0f0" d="M405.847 314.289v2.895h-2.895v-2.895h2.895z"/>
        <path fill="#f0f0f0" d="M405.847 319.142v2.895h-2.895v-2.895h2.895z"/>
        <path fill="#f0f0f0" d="M405.847 323.995v2.895h-2.895v-2.895h2.895z"/>
        <path fill="#f0f0f0" d="M405.847 328.849v2.895h-2.895v-2.895h2.895z"/>
        <path fill="#f0f0f0" d="M405.847 333.702v2.895h-2.895v-2.895h2.895z"/>
        <path fill="#f0f0f0" d="M405.847 338.555v2.895h-2.895v-2.895h2.895z"/>
        <path fill="#f0f0f0" d="M405.847 343.408v2.895h-2.895v-2.895h2.895z"/>
        <path fill="#f0f0f0" d="M405.847 348.261v2.895h-2.895v-2.895h2.895z"/>
        <path fill="#f0f0f0" d="M405.847 353.114v2.895h-2.895v-2.895h2.895z"/>
        <path fill="#f0f0f0" d="M401.25 270.611v2.895h-2.895v-2.895h2.895z"/>
        <path fill="#f0f0f0" d="M401.25 275.465v2.895h-2.895v-2.895h2.895z"/>
        <path fill="#f0f0f0" d="M401.25 280.318v2.895h-2.895v-2.895h2.895z"/>
        <path fill="#f0f0f0" d="M401.25 285.171v2.895h-2.895v-2.895h2.895z"/>
        <path fill="#f0f0f0" d="M401.25 290.024v2.895h-2.895v-2.895h2.895z"/>
        <path fill="#f0f0f0" d="M401.25 294.877v2.895h-2.895v-2.895h2.895z"/>
        <path fill="#f0f0f0" d="M401.25 299.73v2.895h-2.895v-2.895h2.895z"/>
        <path fill="#f0f0f0" d="M401.25 304.583v2.895h-2.895v-2.895h2.895z"/>
        <path fill="#f0f0f0" d="M401.25 309.436v2.895h-2.895v-2.895h2.895z"/>
        <path fill="#f0f0f0" d="M401.25 314.289v2.895h-2.895v-2.895h2.895z"/>
        <path fill="#f0f0f0" d="M401.25 319.142v2.895h-2.895v-2.895h2.895z"/>
        <path fill="#f0f0f0" d="M401.25 323.995v2.895h-2.895v-2.895h2.895z"/>
        <path fill="#f0f0f0" d="M401.25 328.849v2.895h-2.895v-2.895h2.895z"/>
        <path fill="#f0f0f0" d="M401.25 333.702v2.895h-2.895v-2.895h2.895z"/>
        <path fill="#f0f0f0" d="M401.25 338.555v2.895h-2.895v-2.895h2.895z"/>
        <path fill="#f0f0f0" d="M401.25 343.408v2.895h-2.895v-2.895h2.895z"/>
        <path fill="#f0f0f0" d="M401.25 348.261v2.895h-2.895v-2.895h2.895z"/>
        <path fill="#f0f0f0" d="M401.25 353.114v2.895h-2.895v-2.895h2.895z"/>
        <path fill="#f0f0f0" d="M427.644 306.03v2.895h-2.895v-2.895h2.895z"/>
        <path fill="#f0f0f0" d="M427.644 310.884v2.895h-2.895v-2.895h2.895z"/>
        <path fill="#f0f0f0" d="M427.644 315.737v2.895h-2.895v-2.895h2.895z"/>
        <path fill="#f0f0f0" d="M427.644 320.59v2.895h-2.895v-2.895h2.895z"/>
        <path fill="#f0f0f0" d="M427.644 325.443v2.895h-2.895v-2.895h2.895z"/>
        <path fill="#f0f0f0" d="M427.644 330.296v2.895h-2.895v-2.895h2.895z"/>
        <path fill="#f0f0f0" d="M427.644 335.149v2.895h-2.895v-2.895h2.895z"/>
        <path fill="#f0f0f0" d="M427.644 340.002v2.895h-2.895v-2.895h2.895z"/>
        <path fill="#f0f0f0" d="M427.644 344.855v2.895h-2.895v-2.895h2.895z"/>
        <path fill="#f0f0f0" d="M427.644 349.708v2.895h-2.895v-2.895h2.895z"/>
        <path fill="#f0f0f0" d="M427.644 354.561v2.895h-2.895v-2.895h2.895z"/>
        <path fill="#f0f0f0" d="M427.644 359.414v2.895h-2.895v-2.895h2.895z"/>
        <path fill="#f0f0f0" d="M427.644 364.267v2.895h-2.895v-2.895h2.895z"/>
        <path fill="#f0f0f0" d="M423.046 306.03v2.895h-2.895v-2.895h2.895z"/>
        <path fill="#f0f0f0" d="M423.046 310.884v2.895h-2.895v-2.895h2.895z"/>
        <path fill="#f0f0f0" d="M423.046 315.737v2.895h-2.895v-2.895h2.895z"/>
        <path fill="#f0f0f0" d="M423.046 320.59v2.895h-2.895v-2.895h2.895z"/>
        <path fill="#f0f0f0" d="M423.046 325.443v2.895h-2.895v-2.895h2.895z"/>
        <path fill="#f0f0f0" d="M423.046 330.296v2.895h-2.895v-2.895h2.895z"/>
        <path fill="#f0f0f0" d="M423.046 335.149v2.895h-2.895v-2.895h2.895z"/>
        <path fill="#f0f0f0" d="M423.046 340.002v2.895h-2.895v-2.895h2.895z"/>
        <path fill="#f0f0f0" d="M423.046 344.855v2.895h-2.895v-2.895h2.895z"/>
        <path fill="#f0f0f0" d="M423.046 349.708v2.895h-2.895v-2.895h2.895z"/>
        <path fill="#f0f0f0" d="M423.046 354.561v2.895h-2.895v-2.895h2.895z"/>
        <path fill="#f0f0f0" d="M423.046 359.414v2.895h-2.895v-2.895h2.895z"/>
        <path fill="#f0f0f0" d="M423.046 364.267v2.895h-2.895v-2.895h2.895z"/>
        <path fill="#f0f0f0" d="M418.448 306.03v2.895h-2.895v-2.895h2.895z"/>
        <path fill="#f0f0f0" d="M418.448 310.884v2.895h-2.895v-2.895h2.895z"/>
        <path fill="#f0f0f0" d="M418.448 315.737v2.895h-2.895v-2.895h2.895z"/>
        <path fill="#f0f0f0" d="M418.448 320.59v2.895h-2.895v-2.895h2.895z"/>
        <path fill="#f0f0f0" d="M418.448 325.443v2.895h-2.895v-2.895h2.895z"/>
        <path fill="#f0f0f0" d="M418.448 330.296v2.895h-2.895v-2.895h2.895z"/>
        <path fill="#f0f0f0" d="M418.448 335.149v2.895h-2.895v-2.895h2.895z"/>
        <path fill="#f0f0f0" d="M418.448 340.002v2.895h-2.895v-2.895h2.895z"/>
        <path fill="#f0f0f0" d="M418.448 344.855v2.895h-2.895v-2.895h2.895z"/>
        <path fill="#f0f0f0" d="M418.448 349.708v2.895h-2.895v-2.895h2.895z"/>
        <path fill="#f0f0f0" d="M418.448 354.561v2.895h-2.895v-2.895h2.895z"/>
        <path fill="#f0f0f0" d="M418.448 359.414v2.895h-2.895v-2.895h2.895z"/>
        <path fill="#f0f0f0" d="M418.448 364.267v2.895h-2.895v-2.895h2.895z"/>
        <path fill="#f0f0f0" d="M418.448 369.121v2.895h-2.895v-2.895h2.895z"/>
        <path fill="#f0f0f0" d="M392.906 307.478v2.895h-2.895v-2.895h2.895z"/>
        <path fill="#f0f0f0" d="M392.906 312.331v2.895h-2.895v-2.895h2.895z"/>
        <path fill="#f0f0f0" d="M392.906 317.184v2.895h-2.895v-2.895h2.895z"/>
        <path fill="#f0f0f0" d="M392.906 322.037v2.895h-2.895v-2.895h2.895z"/>
        <path fill="#f0f0f0" d="M392.906 326.89v2.895h-2.895v-2.895h2.895z"/>
        <path fill="#f0f0f0" d="M392.906 331.743v2.895h-2.895v-2.895h2.895z"/>
        <path fill="#f0f0f0" d="M392.906 336.596v2.895h-2.895v-2.895h2.895z"/>
        <path fill="#f0f0f0" d="M392.906 341.449v2.895h-2.895v-2.895h2.895z"/>
        <path fill="#f0f0f0" d="M392.906 346.302v2.895h-2.895v-2.895h2.895z"/>
        <path fill="#f0f0f0" d="M392.906 351.156v2.895h-2.895v-2.895h2.895z"/>
        <path fill="#f0f0f0" d="M392.906 365.715v2.895h-2.895v-2.895h2.895z"/>
        <path fill="#f0f0f0" d="M388.308 307.478v2.895h-2.895v-2.895h2.895z"/>
        <path fill="#f0f0f0" d="M388.308 312.331v2.895h-2.895v-2.895h2.895z"/>
        <path fill="#f0f0f0" d="M388.308 317.184v2.895h-2.895v-2.895h2.895z"/>
        <path fill="#f0f0f0" d="M388.308 322.037v2.895h-2.895v-2.895h2.895z"/>
        <path fill="#f0f0f0" d="M388.308 326.89v2.895h-2.895v-2.895h2.895z"/>
        <path fill="#f0f0f0" d="M388.308 331.743v2.895h-2.895v-2.895h2.895z"/>
        <path fill="#f0f0f0" d="M388.308 336.596v2.895h-2.895v-2.895h2.895z"/>
        <path fill="#f0f0f0" d="M388.308 341.449v2.895h-2.895v-2.895h2.895z"/>
        <path fill="#f0f0f0" d="M388.308 346.302v2.895h-2.895v-2.895h2.895z"/>
        <path fill="#f0f0f0" d="M388.308 360.862v2.895h-2.895v-2.895h2.895z"/>
        <path fill="#f0f0f0" d="M388.308 365.715v2.895h-2.895v-2.895h2.895z"/>
        <path fill="#f0f0f0" d="M383.71 307.478v2.895h-2.895v-2.895h2.895z"/>
        <path fill="#f0f0f0" d="M383.71 312.331v2.895h-2.895v-2.895h2.895z"/>
        <path fill="#f0f0f0" d="M383.71 317.184v2.895h-2.895v-2.895h2.895z"/>
        <path fill="#f0f0f0" d="M383.71 322.037v2.895h-2.895v-2.895h2.895z"/>
        <path fill="#f0f0f0" d="M383.71 326.89v2.895h-2.895v-2.895h2.895z"/>
        <path fill="#f0f0f0" d="M383.71 331.743v2.895h-2.895v-2.895h2.895z"/>
        <path fill="#f0f0f0" d="M383.71 336.596v2.895h-2.895v-2.895h2.895z"/>
        <path fill="#f0f0f0" d="M383.71 341.449v2.895h-2.895v-2.895h2.895z"/>
        <path fill="#f0f0f0" d="M383.71 356.009v2.895h-2.895v-2.895h2.895z"/>
        <path fill="#f0f0f0" d="M383.71 360.862v2.895h-2.895v-2.895h2.895z"/>
        <path fill="#f0f0f0" d="M383.71 365.715v2.895h-2.895v-2.895h2.895z"/>
        <path fill="#f0f0f0" d="M340.969 233.745v2.895h-2.895v-2.895h2.895z"/>
        <path fill="#f0f0f0" d="M340.969 238.598v2.895h-2.895v-2.895h2.895z"/>
        <path fill="#f0f0f0" d="M340.969 243.451v2.895h-2.895v-2.895h2.895z"/>
        <path fill="#f0f0f0" d="M340.969 248.305v2.895h-2.895v-2.895h2.895z"/>
        <path fill="#f0f0f0" d="M340.969 253.157v2.895h-2.895v-2.895h2.895z"/>
        <path fill="#f0f0f0" d="M340.969 258.01v2.895h-2.895v-2.895h2.895z"/>
        <path fill="#f0f0f0" d="M340.969 262.863v2.895h-2.895v-2.895h2.895z"/>
        <path fill="#f0f0f0" d="M340.969 267.717v2.895h-2.895v-2.895h2.895z"/>
        <path fill="#f0f0f0" d="M340.969 272.57v2.895h-2.895v-2.895h2.895z"/>
        <path fill="#f0f0f0" d="M340.969 277.423v2.895h-2.895v-2.895h2.895z"/>
        <path fill="#f0f0f0" d="M340.969 282.276v2.895h-2.895v-2.895h2.895z"/>
        <path fill="#f0f0f0" d="M340.969 287.129v2.895h-2.895v-2.895h2.895z"/>
        <path fill="#f0f0f0" d="M340.969 291.982v2.895h-2.895v-2.895h2.895z"/>
        <path fill="#f0f0f0" d="M340.969 296.835v2.895h-2.895v-2.895h2.895z"/>
        <path fill="#f0f0f0" d="M340.969 301.688v2.895h-2.895v-2.895h2.895z"/>
        <path fill="#f0f0f0" d="M340.969 306.541v2.895h-2.895v-2.895h2.895z"/>
        <path fill="#f0f0f0" d="M340.969 311.394v2.895h-2.895v-2.895h2.895z"/>
        <path fill="#f0f0f0" d="M340.969 321.101v2.895h-2.895v-2.895h2.895z"/>
        <path fill="#f0f0f0" d="M340.969 325.954v2.895h-2.895v-2.895h2.895z"/>
        <path fill="#f0f0f0" d="M340.969 330.807v2.895h-2.895v-2.895h2.895z"/>
        <path fill="#f0f0f0" d="M340.969 335.66v2.895h-2.895v-2.895h2.895z"/>
        <path fill="#f0f0f0" d="M340.969 340.513v2.895h-2.895v-2.895h2.895z"/>
        <path fill="#f0f0f0" d="M336.372 233.745v2.895h-2.895v-2.895h2.895z"/>
        <path fill="#f0f0f0" d="M336.372 238.598v2.895h-2.895v-2.895h2.895z"/>
        <path fill="#f0f0f0" d="M336.372 243.451v2.895h-2.895v-2.895h2.895z"/>
        <path fill="#f0f0f0" d="M336.372 248.305v2.895h-2.895v-2.895h2.895z"/>
        <path fill="#f0f0f0" d="M336.372 253.157v2.895h-2.895v-2.895h2.895z"/>
        <path fill="#f0f0f0" d="M336.372 258.01v2.895h-2.895v-2.895h2.895z"/>
        <path fill="#f0f0f0" d="M336.372 262.863v2.895h-2.895v-2.895h2.895z"/>
        <path fill="#f0f0f0" d="M336.372 267.717v2.895h-2.895v-2.895h2.895z"/>
        <path fill="#f0f0f0" d="M336.372 272.57v2.895h-2.895v-2.895h2.895z"/>
        <path fill="#f0f0f0" d="M336.372 277.423v2.895h-2.895v-2.895h2.895z"/>
        <path fill="#f0f0f0" d="M336.372 282.276v2.895h-2.895v-2.895h2.895z"/>
        <path fill="#f0f0f0" d="M336.372 287.129v2.895h-2.895v-2.895h2.895z"/>
        <path fill="#f0f0f0" d="M336.372 291.982v2.895h-2.895v-2.895h2.895z"/>
        <path fill="#f0f0f0" d="M336.372 296.835v2.895h-2.895v-2.895h2.895z"/>
        <path fill="#f0f0f0" d="M336.372 301.688v2.895h-2.895v-2.895h2.895z"/>
        <path fill="#f0f0f0" d="M336.372 306.541v2.895h-2.895v-2.895h2.895z"/>
        <path fill="#f0f0f0" d="M336.372 335.66v2.895h-2.895v-2.895h2.895z"/>
        <path fill="#f0f0f0" d="M336.372 340.513v2.895h-2.895v-2.895h2.895z"/>
        <path fill="#f0f0f0" d="M331.774 233.745v2.895h-2.895v-2.895h2.895z"/>
        <path fill="#f0f0f0" d="M331.774 238.598v2.895h-2.895v-2.895h2.895z"/>
        <path fill="#f0f0f0" d="M331.774 243.451v2.895h-2.895v-2.895h2.895z"/>
        <path fill="#f0f0f0" d="M331.774 248.305v2.895h-2.895v-2.895h2.895z"/>
        <path fill="#f0f0f0" d="M331.774 253.157v2.895h-2.895v-2.895h2.895z"/>
        <path fill="#f0f0f0" d="M331.774 258.01v2.895h-2.895v-2.895h2.895z"/>
        <path fill="#f0f0f0" d="M331.774 262.863v2.895h-2.895v-2.895h2.895z"/>
        <path fill="#f0f0f0" d="M331.774 267.717v2.895h-2.895v-2.895h2.895z"/>
        <path fill="#f0f0f0" d="M331.774 272.57v2.895h-2.895v-2.895h2.895z"/>
        <path fill="#f0f0f0" d="M331.774 277.423v2.895h-2.895v-2.895h2.895z"/>
        <path fill="#f0f0f0" d="M331.774 282.276v2.895h-2.895v-2.895h2.895z"/>
        <path fill="#f0f0f0" d="M331.774 287.129v2.895h-2.895v-2.895h2.895z"/>
        <path fill="#f0f0f0" d="M331.774 291.982v2.895h-2.895v-2.895h2.895z"/>
        <path fill="#f0f0f0" d="M331.774 296.835v2.895h-2.895v-2.895h2.895z"/>
        <path fill="#f0f0f0" d="M331.774 301.688v2.895h-2.895v-2.895h2.895z"/>
        <path fill="#f0f0f0" d="M331.774 306.541v2.895h-2.895v-2.895h2.895z"/>
        <path fill="#f0f0f0" d="M331.774 316.248v2.895h-2.895v-2.895h2.895z"/>
        <path fill="#f0f0f0" d="M331.774 321.101v2.895h-2.895v-2.895h2.895z"/>
        <path fill="#f0f0f0" d="M331.774 325.954v2.895h-2.895v-2.895h2.895z"/>
        <path fill="#f0f0f0" d="M331.774 330.807v2.895h-2.895v-2.895h2.895z"/>
        <path fill="#f0f0f0" d="M331.774 340.513v2.895h-2.895v-2.895h2.895z"/>
        <path fill="#f0f0f0" d="M357.657 294.877v2.895h-2.895v-2.895h2.895z"/>
        <path fill="#f0f0f0" d="M357.657 299.73v2.895h-2.895v-2.895h2.895z"/>
        <path fill="#f0f0f0" d="M357.657 304.583v2.895h-2.895v-2.895h2.895z"/>
        <path fill="#f0f0f0" d="M357.657 309.436v2.895h-2.895v-2.895h2.895z"/>
        <path fill="#f0f0f0" d="M357.657 314.289v2.895h-2.895v-2.895h2.895z"/>
        <path fill="#f0f0f0" d="M357.657 319.142v2.895h-2.895v-2.895h2.895z"/>
        <path fill="#f0f0f0" d="M357.657 323.995v2.895h-2.895v-2.895h2.895z"/>
        <path fill="#f0f0f0" d="M357.657 333.702v2.895h-2.895v-2.895h2.895z"/>
        <path fill="#f0f0f0" d="M357.657 338.555v2.895h-2.895v-2.895h2.895z"/>
        <path fill="#f0f0f0" d="M357.657 343.408v2.895h-2.895v-2.895h2.895z"/>
        <path fill="#f0f0f0" d="M357.657 348.261v2.895h-2.895v-2.895h2.895z"/>
        <path fill="#f0f0f0" d="M357.657 353.114v2.895h-2.895v-2.895h2.895z"/>
        <path fill="#f0f0f0" d="M357.657 357.967v2.895h-2.895v-2.895h2.895z"/>
        <path fill="#f0f0f0" d="M357.657 362.82v2.895h-2.895v-2.895h2.895z"/>
        <path fill="#f0f0f0" d="M357.657 367.673v2.895h-2.895v-2.895h2.895z"/>
        <path fill="#f0f0f0" d="M353.059 294.877v2.895h-2.895v-2.895h2.895z"/>
        <path fill="#f0f0f0" d="M353.059 299.73v2.895h-2.895v-2.895h2.895z"/>
        <path fill="#f0f0f0" d="M353.059 304.583v2.895h-2.895v-2.895h2.895z"/>
        <path fill="#f0f0f0" d="M353.059 309.436v2.895h-2.895v-2.895h2.895z"/>
        <path fill="#f0f0f0" d="M353.059 314.289v2.895h-2.895v-2.895h2.895z"/>
        <path fill="#f0f0f0" d="M353.059 319.142v2.895h-2.895v-2.895h2.895z"/>
        <path fill="#f0f0f0" d="M353.059 333.702v2.895h-2.895v-2.895h2.895z"/>
        <path fill="#f0f0f0" d="M353.059 338.555v2.895h-2.895v-2.895h2.895z"/>
        <path fill="#f0f0f0" d="M353.059 343.408v2.895h-2.895v-2.895h2.895z"/>
        <path fill="#f0f0f0" d="M353.059 348.261v2.895h-2.895v-2.895h2.895z"/>
        <path fill="#f0f0f0" d="M353.059 353.114v2.895h-2.895v-2.895h2.895z"/>
        <path fill="#f0f0f0" d="M353.059 357.967v2.895h-2.895v-2.895h2.895z"/>
        <path fill="#f0f0f0" d="M353.059 362.82v2.895h-2.895v-2.895h2.895z"/>
        <path fill="#f0f0f0" d="M353.059 367.673v2.895h-2.895v-2.895h2.895z"/>
        <path fill="#f0f0f0" d="M348.462 294.877v2.895h-2.895v-2.895h2.895z"/>
        <path fill="#f0f0f0" d="M348.462 299.73v2.895h-2.895v-2.895h2.895z"/>
        <path fill="#f0f0f0" d="M348.462 304.583v2.895h-2.895v-2.895h2.895z"/>
        <path fill="#f0f0f0" d="M348.462 309.436v2.895h-2.895v-2.895h2.895z"/>
        <path fill="#f0f0f0" d="M348.462 314.289v2.895h-2.895v-2.895h2.895z"/>
        <path fill="#f0f0f0" d="M348.462 319.142v2.895h-2.895v-2.895h2.895z"/>
        <path fill="#f0f0f0" d="M348.462 328.849v2.895h-2.895v-2.895h2.895z"/>
        <path fill="#f0f0f0" d="M348.462 333.702v2.895h-2.895v-2.895h2.895z"/>
        <path fill="#f0f0f0" d="M348.462 338.555v2.895h-2.895v-2.895h2.895z"/>
        <path fill="#f0f0f0" d="M348.462 343.408v2.895h-2.895v-2.895h2.895z"/>
        <path fill="#f0f0f0" d="M348.462 348.261v2.895h-2.895v-2.895h2.895z"/>
        <path fill="#f0f0f0" d="M348.462 353.114v2.895h-2.895v-2.895h2.895z"/>
        <path fill="#f0f0f0" d="M348.462 357.967v2.895h-2.895v-2.895h2.895z"/>
        <path fill="#f0f0f0" d="M348.462 362.82v2.895h-2.895v-2.895h2.895z"/>
        <path fill="#f0f0f0" d="M348.462 367.673v2.895h-2.895v-2.895h2.895z"/>
        <path fill="#f0f0f0" d="M251.57 267.717v2.895h-2.895v-2.895h2.895z"/>
        <path fill="#f0f0f0" d="M251.57 272.57v2.895h-2.895v-2.895h2.895z"/>
        <path fill="#f0f0f0" d="M251.57 277.423v2.895h-2.895v-2.895h2.895z"/>
        <path fill="#f0f0f0" d="M251.57 282.276v2.895h-2.895v-2.895h2.895z"/>
        <path fill="#f0f0f0" d="M251.57 287.129v2.895h-2.895v-2.895h2.895z"/>
        <path fill="#f0f0f0" d="M251.57 291.982v2.895h-2.895v-2.895h2.895z"/>
        <path fill="#f0f0f0" d="M251.57 296.835v2.895h-2.895v-2.895h2.895z"/>
        <path fill="#f0f0f0" d="M251.57 301.688v2.895h-2.895v-2.895h2.895z"/>
        <path fill="#f0f0f0" d="M251.57 306.541v2.895h-2.895v-2.895h2.895z"/>
        <path fill="#f0f0f0" d="M251.57 311.394v2.895h-2.895v-2.895h2.895z"/>
        <path fill="#f0f0f0" d="M251.57 316.248v2.895h-2.895v-2.895h2.895z"/>
        <path fill="#f0f0f0" d="M251.57 321.101v2.895h-2.895v-2.895h2.895z"/>
        <path fill="#f0f0f0" d="M251.57 325.954v2.895h-2.895v-2.895h2.895z"/>
        <path fill="#f0f0f0" d="M251.57 335.66v2.895h-2.895v-2.895h2.895z"/>
        <path fill="#f0f0f0" d="M251.57 340.513v2.895h-2.895v-2.895h2.895z"/>
        <path fill="#f0f0f0" d="M251.57 345.366v2.895h-2.895v-2.895h2.895z"/>
        <path fill="#f0f0f0" d="M251.57 350.219v2.895h-2.895v-2.895h2.895z"/>
        <path fill="#f0f0f0" d="M251.57 359.925v2.895h-2.895v-2.895h2.895z"/>
        <path fill="#f0f0f0" d="M251.57 364.778v2.895h-2.895v-2.895h2.895z"/>
        <path fill="#f0f0f0" d="M251.57 369.632v2.895h-2.895v-2.895h2.895z"/>
        <path fill="#f0f0f0" d="M246.973 267.717v2.895h-2.895v-2.895h2.895z"/>
        <path fill="#f0f0f0" d="M246.973 272.57v2.895h-2.895v-2.895h2.895z"/>
        <path fill="#f0f0f0" d="M246.973 277.423v2.895h-2.895v-2.895h2.895z"/>
        <path fill="#f0f0f0" d="M246.973 282.276v2.895h-2.895v-2.895h2.895z"/>
        <path fill="#f0f0f0" d="M246.973 287.129v2.895h-2.895v-2.895h2.895z"/>
        <path fill="#f0f0f0" d="M246.973 291.982v2.895h-2.895v-2.895h2.895z"/>
        <path fill="#f0f0f0" d="M246.973 296.835v2.895h-2.895v-2.895h2.895z"/>
        <path fill="#f0f0f0" d="M246.973 301.688v2.895h-2.895v-2.895h2.895z"/>
        <path fill="#f0f0f0" d="M246.973 306.541v2.895h-2.895v-2.895h2.895z"/>
        <path fill="#f0f0f0" d="M246.973 311.394v2.895h-2.895v-2.895h2.895z"/>
        <path fill="#f0f0f0" d="M246.973 316.248v2.895h-2.895v-2.895h2.895z"/>
        <path fill="#f0f0f0" d="M246.973 321.101v2.895h-2.895v-2.895h2.895z"/>
        <path fill="#f0f0f0" d="M246.973 325.954v2.895h-2.895v-2.895h2.895z"/>
        <path fill="#f0f0f0" d="M246.973 340.513v2.895h-2.895v-2.895h2.895z"/>
        <path fill="#f0f0f0" d="M246.973 345.366v2.895h-2.895v-2.895h2.895z"/>
        <path fill="#f0f0f0" d="M246.973 355.072v2.895h-2.895v-2.895h2.895z"/>
        <path fill="#f0f0f0" d="M246.973 359.925v2.895h-2.895v-2.895h2.895z"/>
        <path fill="#f0f0f0" d="M246.973 364.778v2.895h-2.895v-2.895h2.895z"/>
        <path fill="#f0f0f0" d="M246.973 369.632v2.895h-2.895v-2.895h2.895z"/>
        <path fill="#f0f0f0" d="M242.375 267.717v2.895h-2.895v-2.895h2.895z"/>
        <path fill="#f0f0f0" d="M242.375 272.57v2.895h-2.895v-2.895h2.895z"/>
        <path fill="#f0f0f0" d="M242.375 277.423v2.895h-2.895v-2.895h2.895z"/>
        <path fill="#f0f0f0" d="M242.375 282.276v2.895h-2.895v-2.895h2.895z"/>
        <path fill="#f0f0f0" d="M242.375 287.129v2.895h-2.895v-2.895h2.895z"/>
        <path fill="#f0f0f0" d="M242.375 291.982v2.895h-2.895v-2.895h2.895z"/>
        <path fill="#f0f0f0" d="M242.375 296.835v2.895h-2.895v-2.895h2.895z"/>
        <path fill="#f0f0f0" d="M242.375 301.688v2.895h-2.895v-2.895h2.895z"/>
        <path fill="#f0f0f0" d="M242.375 306.541v2.895h-2.895v-2.895h2.895z"/>
        <path fill="#f0f0f0" d="M242.375 311.394v2.895h-2.895v-2.895h2.895z"/>
        <path fill="#f0f0f0" d="M242.375 316.248v2.895h-2.895v-2.895h2.895z"/>
        <path fill="#f0f0f0" d="M242.375 321.101v2.895h-2.895v-2.895h2.895z"/>
        <path fill="#f0f0f0" d="M242.375 325.954v2.895h-2.895v-2.895h2.895z"/>
        <path fill="#f0f0f0" d="M242.375 330.807v2.895h-2.895v-2.895h2.895z"/>
        <path fill="#f0f0f0" d="M242.375 340.513v2.895h-2.895v-2.895h2.895z"/>
        <path fill="#f0f0f0" d="M242.375 350.219v2.895h-2.895v-2.895h2.895z"/>
        <path fill="#f0f0f0" d="M242.375 355.072v2.895h-2.895v-2.895h2.895z"/>
        <path fill="#f0f0f0" d="M242.375 359.925v2.895h-2.895v-2.895h2.895z"/>
        <path fill="#f0f0f0" d="M242.375 364.778v2.895h-2.895v-2.895h2.895z"/>
        <path fill="#f0f0f0" d="M242.375 369.632v2.895h-2.895v-2.895h2.895z"/>
        <path fill="#f0f0f0" d="M270.301 295.388v2.895h-2.895v-2.895h2.895z"/>
        <path fill="#f0f0f0" d="M270.301 300.241v2.895h-2.895v-2.895h2.895z"/>
        <path fill="#f0f0f0" d="M270.301 305.094v2.895h-2.895v-2.895h2.895z"/>
        <path fill="#f0f0f0" d="M270.301 309.947v2.895h-2.895v-2.895h2.895z"/>
        <path fill="#f0f0f0" d="M270.301 314.8v2.895h-2.895V314.8h2.895z"/>
        <path fill="#f0f0f0" d="M270.301 319.653v2.895h-2.895v-2.895h2.895z"/>
        <path fill="#f0f0f0" d="M270.301 334.212v2.895h-2.895v-2.895h2.895z"/>
        <path fill="#f0f0f0" d="M270.301 339.066v2.895h-2.895v-2.895h2.895z"/>
        <path fill="#f0f0f0" d="M270.301 343.919v2.895h-2.895v-2.895h2.895z"/>
        <path fill="#f0f0f0" d="M270.301 348.772v2.895h-2.895v-2.895h2.895z"/>
        <path fill="#f0f0f0" d="M270.301 353.625v2.895h-2.895v-2.895h2.895z"/>
        <path fill="#f0f0f0" d="M270.301 358.478v2.895h-2.895v-2.895h2.895z"/>
        <path fill="#f0f0f0" d="M270.301 363.331v2.895h-2.895v-2.895h2.895z"/>
        <path fill="#f0f0f0" d="M265.704 295.388v2.895h-2.895v-2.895h2.895z"/>
        <path fill="#f0f0f0" d="M265.704 300.241v2.895h-2.895v-2.895h2.895z"/>
        <path fill="#f0f0f0" d="M265.704 305.094v2.895h-2.895v-2.895h2.895z"/>
        <path fill="#f0f0f0" d="M265.704 309.947v2.895h-2.895v-2.895h2.895z"/>
        <path fill="#f0f0f0" d="M265.704 314.8v2.895h-2.895V314.8h2.895z"/>
        <path fill="#f0f0f0" d="M265.704 319.653v2.895h-2.895v-2.895h2.895z"/>
        <path fill="#f0f0f0" d="M265.704 334.212v2.895h-2.895v-2.895h2.895z"/>
        <path fill="#f0f0f0" d="M265.704 339.066v2.895h-2.895v-2.895h2.895z"/>
        <path fill="#f0f0f0" d="M265.704 343.919v2.895h-2.895v-2.895h2.895z"/>
        <path fill="#f0f0f0" d="M265.704 348.772v2.895h-2.895v-2.895h2.895z"/>
        <path fill="#f0f0f0" d="M265.704 353.625v2.895h-2.895v-2.895h2.895z"/>
        <path fill="#f0f0f0" d="M265.704 358.478v2.895h-2.895v-2.895h2.895z"/>
        <path fill="#f0f0f0" d="M265.704 368.184v2.895h-2.895v-2.895h2.895z"/>
        <path fill="#f0f0f0" d="M112.96 274.017v2.895h-2.895v-2.895h2.895z"/>
        <path fill="#f0f0f0" d="M112.96 278.87v2.895h-2.895v-2.895h2.895z"/>
        <path fill="#f0f0f0" d="M112.96 283.724v2.895h-2.895v-2.895h2.895z"/>
        <path fill="#f0f0f0" d="M112.96 288.577v2.895h-2.895v-2.895h2.895z"/>
        <path fill="#f0f0f0" d="M112.96 293.43v2.895h-2.895v-2.895h2.895z"/>
        <path fill="#f0f0f0" d="M112.96 298.283v2.895h-2.895v-2.895h2.895z"/>
        <path fill="#f0f0f0" d="M112.96 303.136v2.895h-2.895v-2.895h2.895z"/>
        <path fill="#f0f0f0" d="M112.96 307.989v2.895h-2.895v-2.895h2.895z"/>
        <path fill="#f0f0f0" d="M112.96 312.842v2.895h-2.895v-2.895h2.895z"/>
        <path fill="#f0f0f0" d="M112.96 317.695v2.895h-2.895v-2.895h2.895z"/>
        <path fill="#f0f0f0" d="M112.96 322.548v2.895h-2.895v-2.895h2.895z"/>
        <path fill="#f0f0f0" d="M112.96 332.254v2.895h-2.895v-2.895h2.895z"/>
        <path fill="#f0f0f0" d="M112.96 337.107v2.895h-2.895v-2.895h2.895z"/>
        <path fill="#f0f0f0" d="M112.96 341.96v2.895h-2.895v-2.895h2.895z"/>
        <path fill="#f0f0f0" d="M112.96 346.813v2.895h-2.895v-2.895h2.895z"/>
        <path fill="#f0f0f0" d="M112.96 351.667v2.895h-2.895v-2.895h2.895z"/>
        <path fill="#f0f0f0" d="M112.96 356.52v2.895h-2.895v-2.895h2.895z"/>
        <path fill="#f0f0f0" d="M112.96 361.373v2.895h-2.895v-2.895h2.895z"/>
        <path fill="#f0f0f0" d="M112.96 366.226v2.895h-2.895v-2.895h2.895z"/>
        <path fill="#f0f0f0" d="M108.362 274.017v2.895h-2.895v-2.895h2.895z"/>
        <path fill="#f0f0f0" d="M108.362 278.87v2.895h-2.895v-2.895h2.895z"/>
        <path fill="#f0f0f0" d="M108.362 283.724v2.895h-2.895v-2.895h2.895z"/>
        <path fill="#f0f0f0" d="M108.362 288.577v2.895h-2.895v-2.895h2.895z"/>
        <path fill="#f0f0f0" d="M108.362 293.43v2.895h-2.895v-2.895h2.895z"/>
        <path fill="#f0f0f0" d="M108.362 298.283v2.895h-2.895v-2.895h2.895z"/>
        <path fill="#f0f0f0" d="M108.362 303.136v2.895h-2.895v-2.895h2.895z"/>
        <path fill="#f0f0f0" d="M108.362 307.989v2.895h-2.895v-2.895h2.895z"/>
        <path fill="#f0f0f0" d="M108.362 312.842v2.895h-2.895v-2.895h2.895z"/>
        <path fill="#f0f0f0" d="M108.362 317.695v2.895h-2.895v-2.895h2.895z"/>
        <path fill="#f0f0f0" d="M108.362 322.548v2.895h-2.895v-2.895h2.895z"/>
        <path fill="#f0f0f0" d="M108.362 327.401v2.895h-2.895v-2.895h2.895z"/>
        <path fill="#f0f0f0" d="M108.362 332.254v2.895h-2.895v-2.895h2.895z"/>
        <path fill="#f0f0f0" d="M108.362 337.107v2.895h-2.895v-2.895h2.895z"/>
        <path fill="#f0f0f0" d="M108.362 341.96v2.895h-2.895v-2.895h2.895z"/>
        <path fill="#f0f0f0" d="M108.362 346.813v2.895h-2.895v-2.895h2.895z"/>
        <path fill="#f0f0f0" d="M108.362 351.667v2.895h-2.895v-2.895h2.895z"/>
        <path fill="#f0f0f0" d="M108.362 356.52v2.895h-2.895v-2.895h2.895z"/>
        <path fill="#f0f0f0" d="M108.362 361.373v2.895h-2.895v-2.895h2.895z"/>
        <path fill="#f0f0f0" d="M108.362 366.226v2.895h-2.895v-2.895h2.895z"/>
        <path fill="#f0f0f0" d="M135.607 292.919v2.895h-2.895v-2.895h2.895z"/>
        <path fill="#f0f0f0" d="M135.607 297.772v2.895h-2.895v-2.895h2.895z"/>
        <path fill="#f0f0f0" d="M135.607 302.625v2.895h-2.895v-2.895h2.895z"/>
        <path fill="#f0f0f0" d="M135.607 307.478v2.895h-2.895v-2.895h2.895z"/>
        <path fill="#f0f0f0" d="M135.607 312.331v2.895h-2.895v-2.895h2.895z"/>
        <path fill="#f0f0f0" d="M135.607 317.184v2.895h-2.895v-2.895h2.895z"/>
        <path fill="#f0f0f0" d="M135.607 322.037v2.895h-2.895v-2.895h2.895z"/>
        <path fill="#f0f0f0" d="M135.607 326.89v2.895h-2.895v-2.895h2.895z"/>
        <path fill="#f0f0f0" d="M135.607 331.743v2.895h-2.895v-2.895h2.895z"/>
        <path fill="#f0f0f0" d="M135.607 336.596v2.895h-2.895v-2.895h2.895z"/>
        <path fill="#f0f0f0" d="M131.01 292.919v2.895h-2.895v-2.895h2.895z"/>
        <path fill="#f0f0f0" d="M131.01 297.772v2.895h-2.895v-2.895h2.895z"/>
        <path fill="#f0f0f0" d="M131.01 302.625v2.895h-2.895v-2.895h2.895z"/>
        <path fill="#f0f0f0" d="M131.01 307.478v2.895h-2.895v-2.895h2.895z"/>
        <path fill="#f0f0f0" d="M131.01 312.331v2.895h-2.895v-2.895h2.895z"/>
        <path fill="#f0f0f0" d="M131.01 317.184v2.895h-2.895v-2.895h2.895z"/>
        <path fill="#f0f0f0" d="M131.01 322.037v2.895h-2.895v-2.895h2.895z"/>
        <path fill="#f0f0f0" d="M131.01 326.89v2.895h-2.895v-2.895h2.895z"/>
        <path fill="#f0f0f0" d="M131.01 331.743v2.895h-2.895v-2.895h2.895z"/>
        <path fill="#f5f5f5" d="M443.889 416.238c0 6.254-86.807 11.323-193.889 11.323-107.082 0-193.889-5.07-193.889-11.323 0-6.254 86.807-11.323 193.889-11.323 107.082 0 193.889 5.07 193.889 11.323z"/>
        <path fill="#407bff" d="m245.471 235.109 1.683 2.083L87.422 364.424l6.804 8.423.933 1.156 159.732-127.232 1.682 2.083 2.992-13.773-14.094.028z"/>
        <path opacity=".7" fill="#ffffff" d="m245.471 235.109 1.683 2.083L87.422 364.424l6.804 8.423.933 1.156 159.732-127.232 1.682 2.083 2.992-13.773-14.094.028z"/>
        <path d="M63.913 373.322a5.26 5.26 0 0 1 6.769-5.036 11.16 11.16 0 0 1-.118-1.614c0-6.15 4.986-11.136 11.136-11.136.701 0 1.386.068 2.051.192 1.712-2.802 4.788-4.678 8.312-4.678 5.332 0 9.658 4.285 9.737 9.598.054-.001.107-.008.162-.008a8.971 8.971 0 0 1 0 17.942H69.017l.007-.008a5.255 5.255 0 0 1-5.111-5.252z" fill="#407bff"/>
        <path d="M63.913 373.322a5.26 5.26 0 0 1 6.769-5.036 11.16 11.16 0 0 1-.118-1.614c0-6.15 4.986-11.136 11.136-11.136.701 0 1.386.068 2.051.192 1.712-2.802 4.788-4.678 8.312-4.678 5.332 0 9.658 4.285 9.737 9.598.054-.001.107-.008.162-.008a8.971 8.971 0 0 1 0 17.942H69.017l.007-.008a5.255 5.255 0 0 1-5.111-5.252z" opacity=".8" fill="#ffffff"/>
        <path fill="#407bff" d="m398.751 315.71 3.989 4.939-74.246 59.975 16.131 19.971 2.214 2.741 74.246-59.975 3.99 4.939 7.094-32.656-33.418.066z"/>
        <path opacity=".5" fill="#ffffff" d="m398.751 315.71 3.989 4.939-74.246 59.975 16.131 19.971 2.214 2.741 74.246-59.975 3.99 4.939 7.094-32.656-33.418.066z"/>
        <path d="M358.61 378.466c-2.996-4.78-8.296-7.97-14.354-7.97-6.158 0-11.534 3.296-14.5 8.21a9.053 9.053 0 0 0-2.445-.343 9.078 9.078 0 0 0-9.078 9.078l.001.012h-4.786a4.547 4.547 0 0 0-4.533 4.533 4.547 4.547 0 0 0 4.533 4.533h16.516c3.007 4.724 8.277 7.867 14.292 7.867 4.743 0 9.025-1.954 12.101-5.094.286.023.573.044.865.044 5.791 0 10.486-4.695 10.486-10.486 0-5.32-3.964-9.703-9.098-10.384z" fill="#407bff"/>
        <path d="M358.61 378.466c-2.996-4.78-8.296-7.97-14.354-7.97-6.158 0-11.534 3.296-14.5 8.21a9.053 9.053 0 0 0-2.445-.343 9.078 9.078 0 0 0-9.078 9.078l.001.012h-4.786a4.547 4.547 0 0 0-4.533 4.533 4.547 4.547 0 0 0 4.533 4.533h16.516c3.007 4.724 8.277 7.867 14.292 7.867 4.743 0 9.025-1.954 12.101-5.094.286.023.573.044.865.044 5.791 0 10.486-4.695 10.486-10.486 0-5.32-3.964-9.703-9.098-10.384z" opacity=".8" fill="#ffffff"/>
        <path d="m247.141 175.552-1.442-1.519a1.652 1.652 0 0 0-1.51-.485l-2.157.414a1.652 1.652 0 0 0-1.329 1.422l-1.105 9.039 3.346 1.283c4.073-1.772 3.862-7.153 3.862-7.153l.586-1.071a1.653 1.653 0 0 0-.251-1.93z" fill="#ffb573"/>
        <path d="M206.774 202.639s3.203.194 5.082.148c1.894-.026 3.78-.06 5.633-.166 1.846-.118 3.68-.248 5.363-.481.834-.117 1.644-.267 2.282-.441.299-.086.588-.177.721-.231.215-.099-.023.075.098.007.313-.266.92-.989 1.451-1.66.548-.696 1.1-1.446 1.646-2.209 1.097-1.53 2.186-3.12 3.273-4.719l6.532-9.692 5.104 2.718c-.75 1.867-1.564 3.666-2.379 5.487a291.585 291.585 0 0 1-2.591 5.393 114.916 114.916 0 0 1-2.854 5.347 70.105 70.105 0 0 1-1.626 2.691c-.606.929-1.163 1.797-2.216 2.945-.567.631-1.606 1.396-2.276 1.726-.738.403-1.372.654-2 .891-1.228.443-2.34.723-3.435.968-2.181.486-4.258.775-6.327.973a99.844 99.844 0 0 1-12.272.472l.791-10.167z" fill="#407bff"/>
        <path d="M243.954 185.917c-.75 1.86-1.56 3.66-2.37 5.48-.85 1.8-1.71 3.6-2.6 5.4-.9 1.78-1.83 3.56-2.85 5.34-.51.89-1.04 1.78-1.63 2.69-.6.93-1.16 1.8-2.21 2.95-.57.63-1.61 1.39-2.28 1.72-.74.41-1.37.66-2 .9-1.23.44-2.34.72-3.43.96-2.18.49-4.26.78-6.33.98-.89.09-1.77.16-2.64.23-3.21.23-6.37.31-9.63.24l.16-2.1.63-8.07s3.2.2 5.08.15c1.9-.03 3.78-.06 5.64-.17 1.84-.11 3.68-.24 5.36-.48.83-.11 1.64-.26 2.28-.44.3-.08.59-.17.72-.23.22-.1-.02.08.1.01.31-.27.92-.99 1.45-1.66.55-.7 1.1-1.45 1.64-2.21 1.1-1.53 2.19-3.12 3.28-4.72l6.53-9.69 5.1 2.72z" opacity=".7" fill="#ffffff"/>
        <path d="M215.614 212.567c-3.21.23-6.37.31-9.63.24l.16-2.1.78-1.84s5.24-.07 8.69 3.7z" opacity=".1"/>
        <path d="M153.29 382.03s-9.053-6.228-8.498-10.412c.055-.411-.186-.774-.621-.84l-7.674-1.161a1.01 1.01 0 0 0-.953.407l-4.534 6.354 2.037.737 1.093-.767.514 1.348c11.055 3.999 15.875 5.61 18.312 5.712.673-.861.324-1.378.324-1.378z"/>
        <path d="M204.274 264.397s-.46 1.2-1.27 3.28c-.87 2.25-2.15 5.53-3.69 9.43-1.03 2.6-2.17 5.48-3.4 8.51-5.65 14.04-12.95 31.41-17.78 40.18-9.25 16.78-33.35 48.65-33.35 48.65l-9.63-3.52s17.34-32.82 26.09-49.45c2.67-5.07 5.74-12.53 8.78-20.67 1.45-3.87 2.89-7.9 4.28-11.89.63-1.8 1.25-3.6 1.85-5.37 1.59-4.68 3.08-9.19 4.39-13.21.16-.5.32-1 .48-1.48.53-1.65 1.03-3.21 1.48-4.65 1.88-5.92 3.05-9.82 3.09-9.97h.01l8.59 4.68 10.08 5.48z" fill="#263238"/>
        <path d="M203.004 267.677c-.87 2.25-2.15 5.53-3.69 9.43-1.03 2.6-2.17 5.48-3.4 8.51-7.86 1.58-15.86 2.65-21.61 3.3.63-1.8 1.25-3.6 1.85-5.37 1.59-4.68 3.08-9.19 4.39-13.21.16-.5.32-1 .48-1.48.53-1.65 1.03-3.21 1.48-4.65 5.78.79 13.51 1.97 20.5 3.47z" opacity=".3"/>
        <path d="M173.499 207.964c0 .008.007.015.007.022 1.386 4.652 2.199 10.058 2.653 15.388.35 4.146.483 8.229.501 11.891.014 3.69-.097 6.956-.217 9.457-.161 3.212-.351 5.191-.351 5.191l30.383 1.561c9.117-33.039.301-48.836.301-48.836s-3.786-.382-8.147-.187c-.562.017-1.133.061-1.718.106-3.716.31-9.636 1.485-13.589 2.378-.815.179-1.633.391-2.432.607-3.97 1.083-7.391 2.422-7.391 2.422z" fill="#407bff"/>
        <path d="m206.474 251.477-30.38-1.56s.19-1.98.35-5.2c.04-.94.08-2.01.12-3.17.06-1.87.1-3.99.1-6.28a210.1 210.1 0 0 0-.06-3.44c0-.19-.01-.38-.01-.57-.05-1.87-.14-3.81-.27-5.78-.06-.7-.11-1.4-.17-2.1-.04-.55-.09-1.11-.14-1.66-.15-1.4-.31-2.8-.51-4.18-.05-.38-.11-.76-.17-1.13-.09-.63-.19-1.24-.3-1.86-.41-2.28-.91-4.5-1.52-6.57 0 0-.01-.01-.02-.01 0 0 3.43-1.34 7.4-2.43.79-.21 1.61-.42 2.42-.6 3.96-.89 9.88-2.07 13.59-2.38.59-.04 1.16-.09 1.73-.1 4.35-.2 8.14.18 8.14.18s8.82 15.79-.3 48.84z" opacity=".7" fill="#ffffff"/>
        <path d="M225.265 330.541s-8.68-6.738-7.885-10.883c.078-.407-.141-.783-.571-.874l-7.594-1.6a1.01 1.01 0 0 0-.975.351l-4.891 6.083 1.991.853 1.136-.702.436 1.375c10.807 4.629 15.526 6.513 17.954 6.756.717-.823.399-1.359.399-1.359z"/>
        <path d="M190.622 277.288c.456.024.71.025.71.025l36.424 5.295-20.734 34.397 10.382 3.952s37.543-40.479 29.156-49.709c-6.898-7.591-40.697-12.209-40.697-12.209l1.109-7.923-31.263-6.155c-13.365 29.255 10.439 32.053 14.913 32.327z" fill="#263238"/>
        <path fill="#263238" d="m175.338 248.071-.663-.128.606-2.107.59.114-.533 2.121z"/>
        <path fill="#263238" d="m199.93 252.83-13.347-2.583.521-2.119 13.292 2.578-.466 2.124z"/>
        <path fill="#263238" d="m201.425 250.906 5.643 1.094-.376 2.139-5.713-1.106.446-2.127z"/>
        <path fill="#263238" d="m176.901 246.15 9.177 1.78-.542 2.115-9.147-1.77.512-2.125z"/>
        <g opacity=".2">
            <path fill="#ffffff" d="m175.338 248.071-.663-.128.606-2.107.59.114-.533 2.121z"/>
            <path fill="#ffffff" d="m199.93 252.83-13.347-2.583.521-2.119 13.292 2.578-.466 2.124z"/>
            <path fill="#ffffff" d="m201.425 250.906 5.643 1.094-.376 2.139-5.713-1.106.446-2.127z"/>
            <path fill="#ffffff" d="m176.901 246.15 9.177 1.78-.542 2.115-9.147-1.77.512-2.125z"/>
        </g>
        <path d="m196.225 250.316-.301 1.29a.396.396 0 0 1-.455.3l-3.342-.593a.396.396 0 0 1-.315-.486l.335-1.339a.397.397 0 0 1 .46-.293l3.307.641a.397.397 0 0 1 .311.48z" fill="none" stroke="#ffffff" stroke-width=".589" stroke-miterlimit="10"/>
        <path fill="none" stroke="#ffffff" stroke-width=".589" stroke-linecap="round" stroke-linejoin="round" stroke-miterlimit="10" d="m193.457 250.421-1.02-.179"/>
        <path d="m186.469 191.15 7.936 6.578c-.776 3.22.571 6.189 2.135 6.739 0 0 1.159 2.761-1.072 3.226-4.523.943-9.683-3.438-9.683-3.438 2.392-2.572 1.527-8.995.684-13.105z" fill="#ebb376"/>
        <path d="m189.704 193.834 4.697 3.89c-.186.762-.33 1.534-.378 2.283-1.762-.222-4.195-2.108-4.396-3.944-.101-.917-.07-1.799.077-2.229z" opacity=".2"/>
        <path d="M193.475 178.152c1.92 1.197 4.522 4.806 1.295 5.674-3.228.867-4.596-7.731-1.295-5.674z" fill="#263238"/>
        <path d="M183.563 190.486c3.358 4.428 5.099 7.194 8.999 7.986 5.866 1.193 10.132-4.782 8.159-10.139-1.776-4.823-6.968-11.254-12.691-10.034-5.64 1.204-7.825 7.759-4.467 12.187z" fill="#ffb573"/>
        <path d="m184.554 185.665-4.033-4.706s-5.328 3.92-2.909 6.293c-1.596 3.753 4.742 8.991 10.282 7.915.642-3.385-4.293-9.166-4.293-9.166.305-.092.626-.209.953-.336z" fill="#263238"/>
        <path d="M184.343 195.521c1.16.943 2.647 1.255 3.866 1.1 1.833-.233 2.046-2.06.947-3.427-.989-1.231-3.135-2.593-4.692-1.671-1.533.91-1.448 2.92-.121 3.998z" fill="#ffb573"/>
        <path d="M191.394 187.037c.25.376.652.546.896.38.245-.166.24-.606-.01-.982s-.652-.546-.896-.38c-.245.166-.24.605.01.982z" fill="#263238"/>
        <path d="M195.625 184.16c.25.376.652.546.896.38.245-.166.24-.606-.01-.982s-.652-.546-.896-.38c-.245.166-.241.606.01.982z" fill="#263238"/>
        <path d="M194.404 185.262s2.263 1.496 3.884 1.868c-.262 1.032-1.577 1.512-1.577 1.512l-2.307-3.38z" fill="#ed893e"/>
        <path d="M193.229 191.191a4.29 4.29 0 0 0-.499.316.134.134 0 0 0-.03.186c.043.06.127.072.184.03 1.608-1.169 3.16-.589 3.175-.583a.132.132 0 0 0 .171-.077.134.134 0 0 0-.075-.173c-.062-.024-1.401-.524-2.926.301z" fill="#263238"/>
        <path d="M188.5 185.801a.268.268 0 0 0 .239-.123c.643-1.001 1.621-1.026 1.631-1.026a.27.27 0 0 0 .265-.269.264.264 0 0 0-.267-.262c-.052 0-1.278.031-2.076 1.274a.265.265 0 0 0 .079.367c.04.024.084.037.129.039z" fill="#263238"/>
        <path d="M195.674 180.746a.269.269 0 0 0-.325-.34c-1.412.391-1.778 1.557-1.801 1.607a.27.27 0 0 0 .175.335.263.263 0 0 0 .331-.171c.013-.049.306-.943 1.44-1.257a.264.264 0 0 0 .18-.174z" fill="#263238"/>
        <path d="M183.602 186s10.558-4.436 11.205-9.5c.647-5.064-3.814-2.989-3.814-2.989s2.065-.141 1.863 1.363c0 0-3.566-2.433-6.964-.342 0 0 1.588-.031 2.424 1.147 0 0-3.227.63-6.848 3.314-3.62 2.684-10.123 12.293 2.134 7.007z" fill="#263238"/>
        <path d="m205.863 259.039-17.209-1.976s6.813-1.119 17.587-.724l-.378 2.7z" opacity=".3"/>
        <path d="M176.324 225.477c-.06-.7-.11-1.4-.17-2.1-.04-.55-.09-1.11-.14-1.66-.15-1.4-.31-2.8-.51-4.18-.05-.38-.11-.76-.17-1.13.46-.37.97-.71 1.51-1.01 0 0 .98 5.05-.52 10.08z" opacity=".1"/>
        <path d="m147.646 250.045-2.99 7.018 6.475 1.601s2.78-4.612.066-8.129l-3.551-.49z" fill="#ebb376"/>
        <path fill="#ebb376" d="m145.121 262.473 5.112.038.897-3.847-6.475-1.601.466 5.41z"/>
        <path d="M176.761 212.821c.445 4.401-1.057 6.19-1.057 6.19s-4.262 2.678-6.111 4.05a133.783 133.783 0 0 0-4.574 3.593 45.19 45.19 0 0 0-2.058 1.826c-.632.6-1.224 1.225-1.598 1.709-.167.193-.335.507-.514.787-.182.294-.372.734-.569 1.09-.391.807-.779 1.66-1.147 2.556a110.298 110.298 0 0 0-2.103 5.539c-1.385 3.759-2.675 7.635-4.003 11.446l-5.906-1.404c.601-4.149 1.412-8.193 2.348-12.289a113.473 113.473 0 0 1 1.669-6.152c.312-1.035.667-2.09 1.067-3.172.239-.569.431-1.082.73-1.691.315-.617.605-1.221 1.039-1.86.8-1.196 1.585-2.098 2.375-2.968.79-.86 1.583-1.653 2.382-2.418 1.59-1.527 3.222-2.918 4.875-4.257a132.77 132.77 0 0 1 10.195-7.524c.001.001 2.557.966 2.96 4.949z" fill="#407bff"/>
        <path d="M176.761 212.821c.445 4.401-1.057 6.19-1.057 6.19s-4.262 2.678-6.111 4.05a133.783 133.783 0 0 0-4.574 3.593 45.19 45.19 0 0 0-2.058 1.826c-.632.6-1.224 1.225-1.598 1.709-.167.193-.335.507-.514.787-.182.294-.372.734-.569 1.09-.391.807-.779 1.66-1.147 2.556a110.298 110.298 0 0 0-2.103 5.539c-1.385 3.759-2.675 7.635-4.003 11.446l-5.906-1.404c.601-4.149 1.412-8.193 2.348-12.289a113.473 113.473 0 0 1 1.669-6.152c.312-1.035.667-2.09 1.067-3.172.239-.569.431-1.082.73-1.691.315-.617.605-1.221 1.039-1.86.8-1.196 1.585-2.098 2.375-2.968.79-.86 1.583-1.653 2.382-2.418 1.59-1.527 3.222-2.918 4.875-4.257a132.77 132.77 0 0 1 10.195-7.524c.001.001 2.557.966 2.96 4.949z" opacity=".7" fill="#ffffff"/>
        <path d="m190.188 206.921 2.224 3.493s-7.753 9.396-22.59 12.496l-.99 3.02 3.155.826s16.025-4.147 22.419-16.167l3.303-3.679-3.893-1.307-3.628 1.318z" fill="#407bff"/>
        <path fill="#407bff" d="m183.003 204.817 3.613-3.161 7.199 3.948.832-4.317 3.801 2.187 1.088 5.583-5.304-2.295-4.747 4.233-6.482-6.178z"/>
        <path opacity=".6" fill="#ffffff" d="m183.003 204.817 3.613-3.161 7.199 3.948.832-4.317 3.801 2.187 1.088 5.583-5.304-2.295-4.747 4.233-6.482-6.178z"/>
        <path d="M282.189 142.272s-6.724 8.341-13.548 7.648c-6.824-.692-10.312 2.077-10.312 2.077l-.666 3.329 3.659-.494s0-2.638 7.121-2.341c7.121.297 12.461-5.825 14.538-8.6l-.792-1.619z" fill="#407bff"/>
        <path d="m330.493 128.408-.142-.656c-.072-.26-.033-.294-.279-.942a6.397 6.397 0 0 0-1.63-2.372c-1.204-1.076-2.195-1.456-3.059-1.797-1.711-.606-3.074-.797-4.423-.962a43.91 43.91 0 0 0-3.849-.251c-2.489-.072-4.888.052-7.266.201-4.769.315-9.356.878-14.072 1.693l1.716 9.852c4.312-.687 8.808-1.316 13.159-1.767a93.685 93.685 0 0 1 6.444-.425 34.997 34.997 0 0 1 3.007.035c.663.039 1.319.114 1.811.199.031.339.044.71.032 1.104-.063 1.7-.489 3.69-1.07 5.673-1.174 3.983-3.015 8.12-4.921 11.985l4.745 3.165c3.032-3.834 5.527-7.817 7.593-12.399.987-2.31 1.86-4.748 2.256-7.609.191-1.434.259-2.997-.052-4.727z" fill="#407bff"/>
        <path d="M330.544 133.137c-.32 2.36-.98 4.44-1.75 6.39-.16.41-.33.82-.5 1.22-2.07 4.58-4.57 8.56-7.6 12.39l-4.74-3.16c1.9-3.87 3.74-8 4.92-11.99.4-1.37.73-2.75.91-4.03.09-.57.14-1.12.16-1.64.01-.39 0-.76-.03-1.1-.49-.09-1.15-.16-1.81-.2-.95-.06-1.97-.06-3.01-.04-.08 0-.15.01-.23.01-2.02.07-4.11.21-6.22.42-4.22.44-8.56 1.04-12.75 1.71l-.4.06-1.72-9.86c4.72-.81 9.3-1.37 14.07-1.69 2.38-.15 4.78-.27 7.27-.2 1.25.03 2.51.1 3.85.25 1.35.17 2.71.36 4.42.96.86.34 1.85.72 3.06 1.8.58.52 1.24 1.36 1.63 2.37.24.65.21.68.28.94l.14.66c.31 1.73.24 3.29.05 4.73z" opacity=".7" fill="#ffffff"/>
        <path d="M316.864 130.987c-2.02.07-4.11.21-6.22.42-4.22.44-8.56 1.04-12.75 1.71 1.53-3.76 3.1-7.56 3.1-7.56s7 .67 15.87 5.43z" opacity=".1"/>
        <path d="M328.794 139.527c-.16.41-.33.82-.5 1.22-2.07 4.58-4.57 8.56-7.6 12.39l-4.74-3.16c1.9-3.87 3.74-8 4.92-11.99.4-1.37.73-2.75.91-4.03 2.31 1.55 4.67 3.39 7.01 5.57z" opacity=".1"/>
        <path d="M264.883 130.389c.273.346.311.771.085.949-.226.179-.631.043-.904-.303s-.311-.771-.085-.949c.226-.178.631-.043.904.303z" fill="#263238"/>
        <path d="M265.226 131.135s.789 2.616.684 4.262c1.063.088 1.896-.995 1.896-.995l-2.58-3.267z" fill="#de5753"/>
        <path d="M264.632 127.469a.258.258 0 0 0-.209-.426c-1.43.063-2.048 1.084-2.075 1.129a.258.258 0 0 0 .091.354c.123.072.282.03.354-.09.02-.034.512-.825 1.653-.876a.257.257 0 0 0 .186-.091z" fill="#263238"/>
        <path d="M274.842 125.039c3.304 2.381 9.631 6.149 13.221 4.721 0 0 3.227 2.686.127 9.433-3.409 7.419-5.312 1.853-5.312 1.853.894-4.493-2.158-5.77-5.304-6.361l-2.732-9.646z" fill="#e4897b"/>
        <path d="M275.836 120.547c3.094 4.452 5.13 6.901 4.707 10.774-.636 5.827-7.413 8.022-11.775 4.584-3.926-3.095-8.325-9.856-5.504-14.829 2.78-4.899 9.478-4.982 12.572-.529z" fill="#e4897b"/>
        <path d="M280.806 127.895c-.464 2.523-8.956 5.975-12.81.535 0 0-4.836-.039-7.745-2.954s-2.285-6.077.322-7.797c2.298-1.516 8.238-12.684 15.156-4.714 7.51-.306 5.656 11.781 5.077 14.93z" fill="#263238"/>
        <path d="M266.458 116.477s-4.46-.216-7.031 1.828c-2.571 2.044-1.846 8.314-.857 9.498.989 1.183 2.044 1.183 2.044 1.183s-1.516-.786-1.516-1.943c0 0 .659 1.547 3.692 1.943 0 0-.865-.691-.729-1.565 0 0 1.643 2.127 5.439 0 3.794-2.127-1.042-10.944-1.042-10.944z" fill="#263238"/>
        <path d="M270.252 127.493c.82 1.16 1.14 2.612 1.066 3.788-.11 1.768-1.59 1.907-2.754.792-1.047-1.004-2.252-3.134-1.568-4.609.676-1.453 2.319-1.297 3.256.029z" fill="#e4897b"/>
        <path d="M279.131 142.272s-.831-10.068 5.743-15.722l7.828.717c0 .001-4.511 11.009-13.571 15.005z" fill="#407bff"/>
        <path d="M279.131 142.272s-.831-10.068 5.743-15.722l7.828.717c0 .001-4.511 11.009-13.571 15.005z" opacity=".6" fill="#ffffff"/>
        <path d="M301.701 164.917s-11.839-11.624-24.926-19.761c0 0 8.719-20.466 19.756-22.293 0 0 28.534 8.617 36.813 31.969l-31.643 10.085z" fill="#407bff"/>
        <path fill="#e4897b" d="m303.205 235.823-5.109 2.167-5.528-11.613 5.108-2.168 5.529 11.614z"/>
        <path d="m333.343 154.832-3.014 31.966c-1.656 1.226-4.295 2.179-7.48 2.922-6.237 1.452-14.559 2.111-21.746 2.496-8.072.44-14.701.524-15.3.988-1.404 1.092 16.369 37.8 16.369 37.8l-8.483 1.057s-22.294-30.576-25.18-41.199c-1.063-3.921-2.134-8.832 5.066-13.421 6.338-4.04 29.94-7.072 29.94-7.072l-1.816-5.453 31.644-10.084z" fill="#263238"/>
        <path d="M322.85 189.72c-6.237 1.452-14.559 2.111-21.746 2.496-.973-11.796 4.963-23.115 4.963-23.115l8.441-2.166 8.342 22.785z" opacity=".2"/>
        <path fill="#e4897b" d="m377.592 231.115.904 5.475-12.59 2.638-.903-5.475 12.589-2.638z"/>
        <path d="M378.765 236.791a.13.13 0 0 0-.227.094c.003.095.079 2.326.777 2.98a.655.655 0 0 0 .48.193c.313-.01.442-.164.495-.292.151-.364-.126-1.001-.499-1.608a9.81 9.81 0 0 0-1.026-1.367zm.058.465c.665.802 1.394 2.001 1.224 2.409-.022.053-.073.124-.261.131a.401.401 0 0 1-.292-.123 1.007 1.007 0 0 1-.159-.201c-.34-.552-.467-1.639-.512-2.216z" fill="#407bff"/>
        <path d="M378.719 236.759a.132.132 0 0 0-.13.016c-.051.039-1.245.95-1.368 1.855a.964.964 0 0 0 .19.739c.221.288.431.281.57.224.587-.243.914-2.002.818-2.73a.153.153 0 0 0-.018-.052.144.144 0 0 0-.062-.052zm-1.238 1.907c.081-.594.739-1.232 1.073-1.521.009.797-.322 2.059-.674 2.205-.029.012-.116.048-.26-.141a.703.703 0 0 1-.139-.543z" fill="#407bff"/>
        <path d="m377.812 236.716-3.178-5.16a.484.484 0 0 1 .075-.601l3.625-3.52a.807.807 0 0 1 1.259.162c1.115 1.881 2.662 4.638 4.103 6.977 1.685 2.736 3.289 5.006 5.265 8.214 1.195 1.94-.435 3.686-1.112 2.983-3.085-3.198-5.031-6.163-8.967-8.144-.428-.215-.818-.503-1.07-.911z" fill="#263238"/>
        <path d="M333.343 154.832s10.165 26.132-6.985 36.272c0 0-.218 30.195 4.117 33.734 5.275 4.306 43.909 6.497 43.909 6.497l-.336 9.594s-41.36 3.385-53.882-1.107c-14.663-5.261-17.928-74.451-17.928-74.451l31.105-10.539z" fill="#263238"/>
        <path d="m321.591 170.874 6.174-1.868s.849 5.312.837 8.155l-2.863 2.459-2.709-.863c-.001.001-.74-5.678-1.439-7.883z" opacity=".2"/>
        <path fill="#263238" d="m303.736 164.938.799 2.54-2.283.708-.804-2.518 2.288-.73z"/>
        <path fill="#263238" d="m314.272 161.558.86 2.635-9.455 2.931-.835-2.544 9.43-3.022z"/>
        <path fill="#263238" d="m326.039 157.787.858 2.757-10.569 3.274-.839-2.65 10.55-3.381z"/>
        <path fill="#263238" d="m334.638 158.14-6.509 2.018-.007.001-.873-2.762 6.461-2.071.928 2.814z"/>
        <g opacity=".2">
            <path fill="#ffffff" d="m303.736 164.938.799 2.54-2.283.708-.804-2.518 2.288-.73z"/>
            <path fill="#ffffff" d="m314.272 161.558.86 2.635-9.455 2.931-.835-2.544 9.43-3.022z"/>
            <path fill="#ffffff" d="m326.039 157.787.858 2.757-10.569 3.274-.839-2.65 10.55-3.381z"/>
            <path fill="#ffffff" d="m334.638 158.14-6.509 2.018-.007.001-.873-2.762 6.461-2.071.928 2.814z"/>
        </g>
        <path d="M296.528 236.368a.132.132 0 0 0 .034-.244c-.083-.045-2.048-1.104-2.966-.831a.655.655 0 0 0-.409.317c-.149.275-.081.465.003.575.238.314.928.396 1.64.379a9.649 9.649 0 0 0 1.698-.196zm-.431-.184c-1.028.17-2.43.195-2.697-.157-.035-.046-.07-.126.019-.291a.397.397 0 0 1 .253-.19.99.99 0 0 1 .253-.036c.648-.016 1.651.422 2.172.674z" fill="#407bff"/>
        <path d="M296.579 236.345a.13.13 0 0 0 .051-.12c-.008-.063-.193-1.554-.912-2.117a.957.957 0 0 0-.734-.208c-.36.045-.46.231-.481.379-.087.63 1.268 1.798 1.945 2.083a.126.126 0 0 0 .054.01.138.138 0 0 0 .077-.027zm-1.023-2.03c.473.369.691 1.259.773 1.693-.693-.394-1.616-1.316-1.564-1.694.004-.031.017-.124.253-.154a.7.7 0 0 1 .538.155z" fill="#407bff"/>
        <path d="m297.073 235.584 6.058-.143a.483.483 0 0 1 .481.368l1.213 4.905a.808.808 0 0 1-.775 1.006c-2.186.015-5.347-.039-8.094.026-3.212.076-5.982.317-9.748.406-2.277.054-2.964-2.234-2.016-2.465 4.318-1.052 7.859-1.238 11.554-3.639.403-.261.849-.453 1.327-.464z" fill="#263238"/>
        <path d="m333.344 154.837-31.64 10.08s-5.58-5.47-13.31-11.54c-1.47-1.15-3.01-2.32-4.61-3.48-2.25-1.64-4.61-3.25-7.01-4.74 0 0 8.72-20.47 19.76-22.29 0 0 28.53 8.61 36.81 31.97z" opacity=".7" fill="#ffffff"/>
        <path d="M288.394 153.377c-1.47-1.15-3.01-2.32-4.61-3.48l.62-1.87s2.66 2.24 3.99 5.35z" opacity=".1"/>
        <path d="m242.677 174.257-2.181.52c-.544.13-.957.574-1.046 1.126l-.493 3.037a1.386 1.386 0 0 0 .854 1.509l1.594.636s4.602 3.32 8.493 1.176l-1.681-4.451-3.29-2.977a2.494 2.494 0 0 0-2.25-.576z" fill="#e4897b"/>
        <path d="M282.387 145.964c2.796 1.678 3.04 5.138 3.04 5.138s-2.197 5.961-3.472 8.927c-.866 2.013-1.765 4.033-2.811 6.042-1.081 2.026-2.12 4.012-3.885 6.206l-.344.415-.41.441c-.247.278-.613.609-.969.916-.151.142-.428.336-.661.499-.227.156-.543.366-.635.401l-.846.439c-1.101.555-2.132.988-3.167 1.414-2.055.842-4.089 1.574-6.129 2.275-4.092 1.369-8.163 2.62-12.342 3.673l-1.984-5.348c3.749-1.921 7.57-3.74 11.3-5.615a256.984 256.984 0 0 0 5.514-2.798c.88-.475 1.757-.961 2.514-1.421l.538-.34c.145-.083.034-.044.024-.038-.022.003-.069.061-.036.012.031-.054.064-.071.155-.202l.12-.15.144-.211c.809-1.176 1.726-2.975 2.517-4.739a123.915 123.915 0 0 0 2.316-5.576c1.452-3.802 2.847-7.767 4.147-11.608-.002.001 2.395-.532 5.362 1.248z" fill="#407bff"/>
        <path d="M282.387 145.964c2.796 1.678 3.04 5.138 3.04 5.138s-2.197 5.961-3.472 8.927c-.866 2.013-1.765 4.033-2.811 6.042-1.081 2.026-2.12 4.012-3.885 6.206l-.344.415-.41.441c-.247.278-.613.609-.969.916-.151.142-.428.336-.661.499-.227.156-.543.366-.635.401l-.846.439c-1.101.555-2.132.988-3.167 1.414-2.055.842-4.089 1.574-6.129 2.275-4.092 1.369-8.163 2.62-12.342 3.673l-1.984-5.348c3.749-1.921 7.57-3.74 11.3-5.615a256.984 256.984 0 0 0 5.514-2.798c.88-.475 1.757-.961 2.514-1.421l.538-.34c.145-.083.034-.044.024-.038-.022.003-.069.061-.036.012.031-.054.064-.071.155-.202l.12-.15.144-.211c.809-1.176 1.726-2.975 2.517-4.739a123.915 123.915 0 0 0 2.316-5.576c1.452-3.802 2.847-7.767 4.147-11.608-.002.001 2.395-.532 5.362 1.248z" opacity=".7" fill="#ffffff"/>
        <path fill="#407bff" d="M99.506 411.316h168.883l89.377-72.197 3.919 4.852h22.014l22.426-103.231-22.023.044.01-.044-105.64.21 12.612 15.612L99.506 411.316z"/>
        <path opacity=".2" fill="#ffffff" d="M99.506 411.316h146.87l102.698-82.957 12.611 15.612 22.427-103.231-105.64.21 12.612 15.612L99.506 411.316z"/>
        <path d="M96.068 405.358h121.259a14.135 14.135 0 0 1-.091-1.562c0-7.786 6.312-14.097 14.097-14.097.173 0 .341.02.513.026 1.767-4.741 6.321-8.124 11.677-8.124 6.888 0 12.472 5.584 12.472 12.472l-.001.028c6.107.285 11 5.158 11.318 11.257h.567c3.447 0 6.268 2.82 6.268 6.268 0 3.447-2.82 6.267-6.268 6.267H96.068c-3.447 0-6.267-2.82-6.267-6.267 0-3.448 2.82-6.268 6.267-6.268z" fill="#407bff"/>
        <path d="M96.068 405.358h121.259a14.135 14.135 0 0 1-.091-1.562c0-7.786 6.312-14.097 14.097-14.097.173 0 .341.02.513.026 1.767-4.741 6.321-8.124 11.677-8.124 6.888 0 12.472 5.584 12.472 12.472l-.001.028c6.107.285 11 5.158 11.318 11.257h.567c3.447 0 6.268 2.82 6.268 6.268 0 3.447-2.82 6.267-6.268 6.267H96.068c-3.447 0-6.267-2.82-6.267-6.267 0-3.448 2.82-6.268 6.267-6.268z" opacity=".7" fill="#ffffff"/>
    </g>
</svg>
