<?xml version="1.0" encoding="UTF-8"?>
<svg data-bbox="0 55 500 372.56" viewBox="0 0 500 500" xmlns="http://www.w3.org/2000/svg" data-type="ugc">
    <g>
        <path fill="#ebebeb" d="M500 382.4v.25H0v-.25h500z"/>
        <path fill="#ebebeb" d="M449.9 398.49v.25h-33.12v-.25h33.12z"/>
        <path fill="#ebebeb" d="M331.22 401.21v.25h-8.69v-.25h8.69z"/>
        <path fill="#ebebeb" d="M415.78 389.21v.25h-19.19v-.25h19.19z"/>
        <path fill="#ebebeb" d="M95.65 390.89v.25H52.46v-.25h43.19z"/>
        <path fill="#ebebeb" d="M110.89 390.89v.25h-6.33v-.25h6.33z"/>
        <path fill="#ebebeb" d="M225.15 395.11v.25h-93.68v-.25h93.68z"/>
        <path d="M237 337.8H43.91a5.71 5.71 0 0 1-5.7-5.71V60.66a5.71 5.71 0 0 1 5.7-5.66H237a5.71 5.71 0 0 1 5.71 5.71v271.38a5.71 5.71 0 0 1-5.71 5.71ZM43.91 55.2a5.46 5.46 0 0 0-5.45 5.46v271.43a5.46 5.46 0 0 0 5.45 5.46H237a5.47 5.47 0 0 0 5.46-5.46V60.66A5.47 5.47 0 0 0 237 55.2Z" fill="#ebebeb"/>
        <path d="M453.31 337.8h-193.1a5.72 5.72 0 0 1-5.71-5.71V60.66a5.72 5.72 0 0 1 5.71-5.66h193.1a5.71 5.71 0 0 1 5.69 5.66v271.43a5.71 5.71 0 0 1-5.69 5.71ZM260.21 55.2a5.47 5.47 0 0 0-5.46 5.46v271.43a5.47 5.47 0 0 0 5.46 5.46h193.1a5.47 5.47 0 0 0 5.46-5.46V60.66a5.47 5.47 0 0 0-5.46-5.46Z" fill="#ebebeb"/>
        <path fill="#e0e0e0" d="M445.42 117.18v233.54H203.14V117.18h242.28z"/>
        <path fill="#f5f5f5" d="M445.42 121.42v225.22H207.03V121.42h238.39z"/>
        <path fill="#e6e6e6" d="M208.79 292.1v-67.75h7.03v-8.95l15.84-7.4v-9.16h2.64v25.51h2.64v67.75h3.52v-35.2h7.92v-18.47h2.64v53.67h6.15v-20.24h4.4v-5.28h9.68v-18.47h5.28v-12.32h6.16v-18.48h2.64v18.48h6.16v12.32h5.27v18.47h9.68v5.28h4.4v20.24h5.28v-25.52h9.68v-56.3h2.64v-6.16h21.11v6.16h4.4v40.47h17.6v4.39h6.15v2.64h-6.15v15.84h18.47v-52.79h3.52v-10.55h8.8v-40.47h2.64v40.47h6.16v10.55h34.28v125.81H207.03V292.1h1.76z"/>
        <path fill="#f0f0f0" d="M427.1 223.59v2.49h-2.49v-2.49h2.49z"/>
        <path fill="#f0f0f0" d="M427.1 227.77v2.49h-2.49v-2.49h2.49z"/>
        <path fill="#f0f0f0" d="M427.1 244.49v2.49h-2.49v-2.49h2.49z"/>
        <path fill="#f0f0f0" d="M427.1 248.66v2.49h-2.49v-2.49h2.49z"/>
        <path fill="#f0f0f0" d="M427.1 252.84v2.49h-2.49v-2.49h2.49z"/>
        <path fill="#f0f0f0" d="M427.1 265.38v2.49h-2.49v-2.49h2.49z"/>
        <path fill="#f0f0f0" d="M427.1 269.56v2.49h-2.49v-2.49h2.49z"/>
        <path fill="#f0f0f0" d="M423.14 240.31v2.49h-2.49v-2.49h2.49z"/>
        <path fill="#f0f0f0" d="M423.14 244.49v2.49h-2.49v-2.49h2.49z"/>
        <path fill="#f0f0f0" d="M423.14 248.66v2.49h-2.49v-2.49h2.49z"/>
        <path fill="#f0f0f0" d="M423.14 252.84v2.49h-2.49v-2.49h2.49z"/>
        <path fill="#f0f0f0" d="M423.14 257.02v2.49h-2.49v-2.49h2.49z"/>
        <path fill="#f0f0f0" d="M423.14 265.38v2.49h-2.49v-2.49h2.49z"/>
        <path fill="#f0f0f0" d="M423.14 269.56v2.49h-2.49v-2.49h2.49z"/>
        <path fill="#f0f0f0" d="M419.18 223.59v2.49h-2.49v-2.49h2.49z"/>
        <path fill="#f0f0f0" d="M419.18 227.77v2.49h-2.49v-2.49h2.49z"/>
        <path fill="#f0f0f0" d="M419.18 231.95v2.49h-2.49v-2.49h2.49z"/>
        <path fill="#f0f0f0" d="M419.18 236.13v2.49h-2.49v-2.49h2.49z"/>
        <path fill="#f0f0f0" d="M419.18 240.31v2.49h-2.49v-2.49h2.49z"/>
        <path fill="#f0f0f0" d="M419.18 244.49v2.49h-2.49v-2.49h2.49z"/>
        <path fill="#f0f0f0" d="M419.18 248.66v2.49h-2.49v-2.49h2.49z"/>
        <path fill="#f0f0f0" d="M419.18 252.84v2.49h-2.49v-2.49h2.49z"/>
        <path fill="#f0f0f0" d="M419.18 257.02v2.49h-2.49v-2.49h2.49z"/>
        <path fill="#f0f0f0" d="M419.18 261.2v2.49h-2.49v-2.49h2.49z"/>
        <path fill="#f0f0f0" d="M419.18 269.56v2.49h-2.49v-2.49h2.49z"/>
        <path fill="#f0f0f0" d="M415.22 223.59v2.49h-2.49v-2.49h2.49z"/>
        <path fill="#f0f0f0" d="M415.22 227.77v2.49h-2.49v-2.49h2.49z"/>
        <path fill="#f0f0f0" d="M415.22 231.95v2.49h-2.49v-2.49h2.49z"/>
        <path fill="#f0f0f0" d="M415.22 236.13v2.49h-2.49v-2.49h2.49z"/>
        <path fill="#f0f0f0" d="M415.22 240.31v2.49h-2.49v-2.49h2.49z"/>
        <path fill="#f0f0f0" d="M415.22 244.49v2.49h-2.49v-2.49h2.49z"/>
        <path fill="#f0f0f0" d="M415.22 248.66v2.49h-2.49v-2.49h2.49z"/>
        <path fill="#f0f0f0" d="M415.22 286.28v2.49h-2.49v-2.49h2.49z"/>
        <path fill="#f0f0f0" d="M411.26 223.59v2.49h-2.49v-2.49h2.49z"/>
        <path fill="#f0f0f0" d="M411.26 227.77v2.49h-2.49v-2.49h2.49z"/>
        <path fill="#f0f0f0" d="M411.26 231.95v2.49h-2.49v-2.49h2.49z"/>
        <path fill="#f0f0f0" d="M411.26 236.13v2.49h-2.49v-2.49h2.49z"/>
        <path fill="#f0f0f0" d="M411.26 240.31v2.49h-2.49v-2.49h2.49z"/>
        <path fill="#f0f0f0" d="M411.26 244.49v2.49h-2.49v-2.49h2.49z"/>
        <path fill="#f0f0f0" d="M411.26 248.66v2.49h-2.49v-2.49h2.49z"/>
        <path fill="#f0f0f0" d="M411.26 252.84v2.49h-2.49v-2.49h2.49z"/>
        <path fill="#f0f0f0" d="M411.26 277.92v2.49h-2.49v-2.49h2.49z"/>
        <path fill="#f0f0f0" d="M411.26 282.1v2.49h-2.49v-2.49h2.49z"/>
        <path fill="#f0f0f0" d="M411.26 286.28v2.49h-2.49v-2.49h2.49z"/>
        <path fill="#f0f0f0" d="M411.26 290.45v2.49h-2.49v-2.49h2.49z"/>
        <path fill="#f0f0f0" d="M411.26 307.17v2.49h-2.49v-2.49h2.49z"/>
        <path fill="#f0f0f0" d="M407.3 223.59v2.49h-2.49v-2.49h2.49z"/>
        <path fill="#f0f0f0" d="M407.3 227.77v2.49h-2.49v-2.49h2.49z"/>
        <path fill="#f0f0f0" d="M407.3 231.95v2.49h-2.49v-2.49h2.49z"/>
        <path fill="#f0f0f0" d="M407.3 236.13v2.49h-2.49v-2.49h2.49z"/>
        <path fill="#f0f0f0" d="M407.3 240.31v2.49h-2.49v-2.49h2.49z"/>
        <path fill="#f0f0f0" d="M407.3 244.49v2.49h-2.49v-2.49h2.49z"/>
        <path fill="#f0f0f0" d="M407.3 248.66v2.49h-2.49v-2.49h2.49z"/>
        <path fill="#f0f0f0" d="M407.3 252.84v2.49h-2.49v-2.49h2.49z"/>
        <path fill="#f0f0f0" d="M407.3 257.02v2.49h-2.49v-2.49h2.49z"/>
        <path fill="#f0f0f0" d="M407.3 261.2v2.49h-2.49v-2.49h2.49z"/>
        <path fill="#f0f0f0" d="M407.3 273.74v2.49h-2.49v-2.49h2.49z"/>
        <path fill="#f0f0f0" d="M407.3 277.92v2.49h-2.49v-2.49h2.49z"/>
        <path fill="#f0f0f0" d="M407.3 282.1v2.49h-2.49v-2.49h2.49z"/>
        <path fill="#f0f0f0" d="M407.3 286.28v2.49h-2.49v-2.49h2.49z"/>
        <path fill="#f0f0f0" d="M407.3 290.45v2.49h-2.49v-2.49h2.49z"/>
        <path fill="#f0f0f0" d="M407.3 307.17v2.49h-2.49v-2.49h2.49z"/>
        <path fill="#f0f0f0" d="M403.34 223.59v2.49h-2.49v-2.49h2.49z"/>
        <path fill="#f0f0f0" d="M403.34 227.77v2.49h-2.49v-2.49h2.49z"/>
        <path fill="#f0f0f0" d="M403.34 231.95v2.49h-2.49v-2.49h2.49z"/>
        <path fill="#f0f0f0" d="M403.34 236.13v2.49h-2.49v-2.49h2.49z"/>
        <path fill="#f0f0f0" d="M403.34 240.31v2.49h-2.49v-2.49h2.49z"/>
        <path fill="#f0f0f0" d="M403.34 244.49v2.49h-2.49v-2.49h2.49z"/>
        <path fill="#f0f0f0" d="M403.34 248.66v2.49h-2.49v-2.49h2.49z"/>
        <path fill="#f0f0f0" d="M403.34 252.84v2.49h-2.49v-2.49h2.49z"/>
        <path fill="#f0f0f0" d="M403.34 257.02v2.49h-2.49v-2.49h2.49z"/>
        <path fill="#f0f0f0" d="M403.34 261.2v2.49h-2.49v-2.49h2.49z"/>
        <path fill="#f0f0f0" d="M403.34 265.38v2.49h-2.49v-2.49h2.49z"/>
        <path fill="#f0f0f0" d="M403.34 269.56v2.49h-2.49v-2.49h2.49z"/>
        <path fill="#f0f0f0" d="M403.34 273.74v2.49h-2.49v-2.49h2.49z"/>
        <path fill="#f0f0f0" d="M403.34 277.92v2.49h-2.49v-2.49h2.49z"/>
        <path fill="#f0f0f0" d="M403.34 282.1v2.49h-2.49v-2.49h2.49z"/>
        <path fill="#f0f0f0" d="M403.34 286.28v2.49h-2.49v-2.49h2.49z"/>
        <path fill="#f0f0f0" d="M403.34 290.45v2.49h-2.49v-2.49h2.49z"/>
        <path fill="#f0f0f0" d="M403.34 294.63v2.49h-2.49v-2.49h2.49z"/>
        <path fill="#f0f0f0" d="M399.38 223.59v2.49h-2.49v-2.49h2.49z"/>
        <path fill="#f0f0f0" d="M399.38 227.77v2.49h-2.49v-2.49h2.49z"/>
        <path fill="#f0f0f0" d="M399.38 231.95v2.49h-2.49v-2.49h2.49z"/>
        <path fill="#f0f0f0" d="M399.38 236.13v2.49h-2.49v-2.49h2.49z"/>
        <path fill="#f0f0f0" d="M399.38 240.31v2.49h-2.49v-2.49h2.49z"/>
        <path fill="#f0f0f0" d="M399.38 244.49v2.49h-2.49v-2.49h2.49z"/>
        <path fill="#f0f0f0" d="M399.38 248.66v2.49h-2.49v-2.49h2.49z"/>
        <path fill="#f0f0f0" d="M399.38 252.84v2.49h-2.49v-2.49h2.49z"/>
        <path fill="#f0f0f0" d="M399.38 257.02v2.49h-2.49v-2.49h2.49z"/>
        <path fill="#f0f0f0" d="M399.38 261.2v2.49h-2.49v-2.49h2.49z"/>
        <path fill="#f0f0f0" d="M399.38 273.74v2.49h-2.49v-2.49h2.49z"/>
        <path fill="#f0f0f0" d="M399.38 277.92v2.49h-2.49v-2.49h2.49z"/>
        <path fill="#f0f0f0" d="M399.38 282.1v2.49h-2.49v-2.49h2.49z"/>
        <path fill="#f0f0f0" d="M399.38 286.28v2.49h-2.49v-2.49h2.49z"/>
        <path fill="#f0f0f0" d="M395.43 223.59v2.49h-2.49v-2.49h2.49z"/>
        <path fill="#f0f0f0" d="M395.43 227.77v2.49h-2.49v-2.49h2.49z"/>
        <path fill="#f0f0f0" d="M395.43 231.95v2.49h-2.49v-2.49h2.49z"/>
        <path fill="#f0f0f0" d="M395.43 236.13v2.49h-2.49v-2.49h2.49z"/>
        <path fill="#f0f0f0" d="M395.43 240.31v2.49h-2.49v-2.49h2.49z"/>
        <path fill="#f0f0f0" d="M395.43 244.49v2.49h-2.49v-2.49h2.49z"/>
        <path fill="#f0f0f0" d="M395.43 248.66v2.49h-2.49v-2.49h2.49z"/>
        <path fill="#f0f0f0" d="M395.43 252.84v2.49h-2.49v-2.49h2.49z"/>
        <path fill="#f0f0f0" d="M395.43 257.02v2.49h-2.49v-2.49h2.49z"/>
        <path fill="#f0f0f0" d="M395.43 261.2v2.49h-2.49v-2.49h2.49z"/>
        <path fill="#f0f0f0" d="M395.43 273.74v2.49h-2.49v-2.49h2.49z"/>
        <path fill="#f0f0f0" d="M395.43 277.92v2.49h-2.49v-2.49h2.49z"/>
        <path fill="#f0f0f0" d="M395.43 282.1v2.49h-2.49v-2.49h2.49z"/>
        <path fill="#f0f0f0" d="M350.85 212.74v2.49h-2.49v-2.49h2.49z"/>
        <path fill="#f0f0f0" d="M350.85 216.92v2.49h-2.49v-2.49h2.49z"/>
        <path fill="#f0f0f0" d="M350.85 221.1v2.49h-2.49v-2.49h2.49z"/>
        <path fill="#f0f0f0" d="M350.85 225.28v2.49h-2.49v-2.49h2.49z"/>
        <path fill="#f0f0f0" d="M350.85 229.46v2.49h-2.49v-2.49h2.49z"/>
        <path fill="#f0f0f0" d="M350.85 233.64v2.49h-2.49v-2.49h2.49z"/>
        <path fill="#f0f0f0" d="M350.85 237.81v2.49h-2.49v-2.49h2.49z"/>
        <path fill="#f0f0f0" d="M350.85 241.99v2.49h-2.49v-2.49h2.49z"/>
        <path fill="#f0f0f0" d="M350.85 254.53v2.49h-2.49v-2.49h2.49z"/>
        <path fill="#f0f0f0" d="M350.85 258.71v2.49h-2.49v-2.49h2.49z"/>
        <path fill="#f0f0f0" d="M346.89 212.74v2.49h-2.49v-2.49h2.49z"/>
        <path fill="#f0f0f0" d="M346.89 216.92v2.49h-2.49v-2.49h2.49z"/>
        <path fill="#f0f0f0" d="M346.89 221.1v2.49h-2.49v-2.49h2.49z"/>
        <path fill="#f0f0f0" d="M346.89 225.28v2.49h-2.49v-2.49h2.49z"/>
        <path fill="#f0f0f0" d="M346.89 229.46v2.49h-2.49v-2.49h2.49z"/>
        <path fill="#f0f0f0" d="M346.89 233.64v2.49h-2.49v-2.49h2.49z"/>
        <path fill="#f0f0f0" d="M346.89 237.81v2.49h-2.49v-2.49h2.49z"/>
        <path fill="#f0f0f0" d="M346.89 241.99v2.49h-2.49v-2.49h2.49z"/>
        <path fill="#f0f0f0" d="M346.89 258.71v2.49h-2.49v-2.49h2.49z"/>
        <path fill="#f0f0f0" d="M342.93 212.74v2.49h-2.49v-2.49h2.49z"/>
        <path fill="#f0f0f0" d="M342.93 216.92v2.49h-2.49v-2.49h2.49z"/>
        <path fill="#f0f0f0" d="M342.93 221.1v2.49h-2.49v-2.49h2.49z"/>
        <path fill="#f0f0f0" d="M342.93 225.28v2.49h-2.49v-2.49h2.49z"/>
        <path fill="#f0f0f0" d="M342.93 229.46v2.49h-2.49v-2.49h2.49z"/>
        <path fill="#f0f0f0" d="M342.93 233.64v2.49h-2.49v-2.49h2.49z"/>
        <path fill="#f0f0f0" d="M342.93 237.81v2.49h-2.49v-2.49h2.49z"/>
        <path fill="#f0f0f0" d="M342.93 241.99v2.49h-2.49v-2.49h2.49z"/>
        <path fill="#f0f0f0" d="M338.97 212.74v2.49h-2.49v-2.49h2.49z"/>
        <path fill="#f0f0f0" d="M338.97 216.92v2.49h-2.49v-2.49h2.49z"/>
        <path fill="#f0f0f0" d="M338.97 221.1v2.49h-2.49v-2.49h2.49z"/>
        <path fill="#f0f0f0" d="M338.97 225.28v2.49h-2.49v-2.49h2.49z"/>
        <path fill="#f0f0f0" d="M338.97 229.46v2.49h-2.49v-2.49h2.49z"/>
        <path fill="#f0f0f0" d="M338.97 233.64v2.49h-2.49v-2.49h2.49z"/>
        <path fill="#f0f0f0" d="M338.97 241.99v2.49h-2.49v-2.49h2.49z"/>
        <path fill="#f0f0f0" d="M338.97 246.17v2.49h-2.49v-2.49h2.49z"/>
        <path fill="#f0f0f0" d="M338.97 258.71v2.49h-2.49v-2.49h2.49z"/>
        <path fill="#f0f0f0" d="M338.97 262.89v2.49h-2.49v-2.49h2.49z"/>
        <path fill="#f0f0f0" d="M338.97 267.07v2.49h-2.49v-2.49h2.49z"/>
        <path fill="#f0f0f0" d="M338.97 271.25v2.49h-2.49v-2.49h2.49z"/>
        <path fill="#f0f0f0" d="M338.97 275.43v2.49h-2.49v-2.49h2.49z"/>
        <path fill="#f0f0f0" d="M338.97 279.6v2.49h-2.49v-2.49h2.49z"/>
        <path fill="#f0f0f0" d="M338.97 283.78v2.49h-2.49v-2.49h2.49z"/>
        <path fill="#f0f0f0" d="M335.01 212.74v2.49h-2.49v-2.49h2.49z"/>
        <path fill="#f0f0f0" d="M335.01 216.92v2.49h-2.49v-2.49h2.49z"/>
        <path fill="#f0f0f0" d="M335.01 221.1v2.49h-2.49v-2.49h2.49z"/>
        <path fill="#f0f0f0" d="M335.01 225.28v2.49h-2.49v-2.49h2.49z"/>
        <path fill="#f0f0f0" d="M335.01 229.46v2.49h-2.49v-2.49h2.49z"/>
        <path fill="#f0f0f0" d="M335.01 233.64v2.49h-2.49v-2.49h2.49z"/>
        <path fill="#f0f0f0" d="M335.01 246.17v2.49h-2.49v-2.49h2.49z"/>
        <path fill="#f0f0f0" d="M335.01 250.35v2.49h-2.49v-2.49h2.49z"/>
        <path fill="#f0f0f0" d="M335.01 254.53v2.49h-2.49v-2.49h2.49z"/>
        <path fill="#f0f0f0" d="M335.01 258.71v2.49h-2.49v-2.49h2.49z"/>
        <path fill="#f0f0f0" d="M335.01 262.89v2.49h-2.49v-2.49h2.49z"/>
        <path fill="#f0f0f0" d="M335.01 267.07v2.49h-2.49v-2.49h2.49z"/>
        <path fill="#f0f0f0" d="M335.01 271.25v2.49h-2.49v-2.49h2.49z"/>
        <path fill="#f0f0f0" d="M335.01 275.43v2.49h-2.49v-2.49h2.49z"/>
        <path fill="#f0f0f0" d="M335.01 279.6v2.49h-2.49v-2.49h2.49z"/>
        <path fill="#f0f0f0" d="M335.01 283.78v2.49h-2.49v-2.49h2.49z"/>
        <path fill="#f0f0f0" d="M335.01 287.96v2.49h-2.49v-2.49h2.49z"/>
        <path fill="#f0f0f0" d="M335.01 296.32v2.49h-2.49v-2.49h2.49z"/>
        <path fill="#f0f0f0" d="M331.05 212.74v2.49h-2.49v-2.49h2.49z"/>
        <path fill="#f0f0f0" d="M331.05 216.92v2.49h-2.49v-2.49h2.49z"/>
        <path fill="#f0f0f0" d="M331.05 221.1v2.49h-2.49v-2.49h2.49z"/>
        <path fill="#f0f0f0" d="M331.05 225.28v2.49h-2.49v-2.49h2.49z"/>
        <path fill="#f0f0f0" d="M331.05 229.46v2.49h-2.49v-2.49h2.49z"/>
        <path fill="#f0f0f0" d="M331.05 233.64v2.49h-2.49v-2.49h2.49z"/>
        <path fill="#f0f0f0" d="M331.05 246.17v2.49h-2.49v-2.49h2.49z"/>
        <path fill="#f0f0f0" d="M331.05 250.35v2.49h-2.49v-2.49h2.49z"/>
        <path fill="#f0f0f0" d="M331.05 254.53v2.49h-2.49v-2.49h2.49z"/>
        <path fill="#f0f0f0" d="M331.05 258.71v2.49h-2.49v-2.49h2.49z"/>
        <path fill="#f0f0f0" d="M331.05 271.25v2.49h-2.49v-2.49h2.49z"/>
        <path fill="#f0f0f0" d="M331.05 275.43v2.49h-2.49v-2.49h2.49z"/>
        <path fill="#f0f0f0" d="M331.05 279.6v2.49h-2.49v-2.49h2.49z"/>
        <path fill="#f0f0f0" d="M331.05 283.78v2.49h-2.49v-2.49h2.49z"/>
        <path fill="#f0f0f0" d="M331.05 287.96v2.49h-2.49v-2.49h2.49z"/>
        <path fill="#f0f0f0" d="M331.05 296.32v2.49h-2.49v-2.49h2.49z"/>
        <path fill="#f0f0f0" d="M331.05 300.5v2.49h-2.49v-2.49h2.49z"/>
        <path fill="#f0f0f0" d="M295.13 251.6v2.49h-2.49v-2.49h2.49z"/>
        <path fill="#f0f0f0" d="M295.13 255.78v2.49h-2.49v-2.49h2.49z"/>
        <path fill="#f0f0f0" d="M295.13 259.96v2.49h-2.49v-2.49h2.49z"/>
        <path fill="#f0f0f0" d="M295.13 264.13v2.49h-2.49v-2.49h2.49z"/>
        <path fill="#f0f0f0" d="M295.13 268.31v2.49h-2.49v-2.49h2.49z"/>
        <path fill="#f0f0f0" d="M295.13 272.49v2.49h-2.49v-2.49h2.49z"/>
        <path fill="#f0f0f0" d="M295.13 276.67v2.49h-2.49v-2.49h2.49z"/>
        <path fill="#f0f0f0" d="M295.13 289.21v2.49h-2.49v-2.49h2.49z"/>
        <path fill="#f0f0f0" d="M295.13 293.39v2.49h-2.49v-2.49h2.49z"/>
        <path fill="#f0f0f0" d="M295.13 297.57v2.49h-2.49v-2.49h2.49z"/>
        <path fill="#f0f0f0" d="M291.17 251.6v2.49h-2.49v-2.49h2.49z"/>
        <path fill="#f0f0f0" d="M291.17 255.78v2.49h-2.49v-2.49h2.49z"/>
        <path fill="#f0f0f0" d="M291.17 259.96v2.49h-2.49v-2.49h2.49z"/>
        <path fill="#f0f0f0" d="M291.17 264.13v2.49h-2.49v-2.49h2.49z"/>
        <path fill="#f0f0f0" d="M291.17 268.31v2.49h-2.49v-2.49h2.49z"/>
        <path fill="#f0f0f0" d="M291.17 272.49v2.49h-2.49v-2.49h2.49z"/>
        <path fill="#f0f0f0" d="M291.17 276.67v2.49h-2.49v-2.49h2.49z"/>
        <path fill="#f0f0f0" d="M287.21 251.6v2.49h-2.49v-2.49h2.49z"/>
        <path fill="#f0f0f0" d="M287.21 255.78v2.49h-2.49v-2.49h2.49z"/>
        <path fill="#f0f0f0" d="M287.21 259.96v2.49h-2.49v-2.49h2.49z"/>
        <path fill="#f0f0f0" d="M287.21 264.13v2.49h-2.49v-2.49h2.49z"/>
        <path fill="#f0f0f0" d="M287.21 268.31v2.49h-2.49v-2.49h2.49z"/>
        <path fill="#f0f0f0" d="M287.21 272.49v2.49h-2.49v-2.49h2.49z"/>
        <path fill="#f0f0f0" d="M287.21 276.67v2.49h-2.49v-2.49h2.49z"/>
        <path fill="#f0f0f0" d="M283.25 251.6v2.49h-2.49v-2.49h2.49z"/>
        <path fill="#f0f0f0" d="M283.25 255.78v2.49h-2.49v-2.49h2.49z"/>
        <path fill="#f0f0f0" d="M283.25 259.96v2.49h-2.49v-2.49h2.49z"/>
        <path fill="#f0f0f0" d="M283.25 264.13v2.49h-2.49v-2.49h2.49z"/>
        <path fill="#f0f0f0" d="M283.25 268.31v2.49h-2.49v-2.49h2.49z"/>
        <path fill="#f0f0f0" d="M283.25 272.49v2.49h-2.49v-2.49h2.49z"/>
        <path fill="#f0f0f0" d="M283.25 276.67v2.49h-2.49v-2.49h2.49z"/>
        <path fill="#f0f0f0" d="M283.25 280.85v2.49h-2.49v-2.49h2.49z"/>
        <path fill="#f0f0f0" d="M283.25 285.03v2.49h-2.49v-2.49h2.49z"/>
        <path fill="#f0f0f0" d="M283.25 289.21v2.49h-2.49v-2.49h2.49z"/>
        <path fill="#f0f0f0" d="M283.25 293.39v2.49h-2.49v-2.49h2.49z"/>
        <path fill="#f0f0f0" d="M279.29 251.6v2.49h-2.49v-2.49h2.49z"/>
        <path fill="#f0f0f0" d="M279.29 255.78v2.49h-2.49v-2.49h2.49z"/>
        <path fill="#f0f0f0" d="M279.29 259.96v2.49h-2.49v-2.49h2.49z"/>
        <path fill="#f0f0f0" d="M279.29 264.13v2.49h-2.49v-2.49h2.49z"/>
        <path fill="#f0f0f0" d="M279.29 268.31v2.49h-2.49v-2.49h2.49z"/>
        <path fill="#f0f0f0" d="M279.29 272.49v2.49h-2.49v-2.49h2.49z"/>
        <path fill="#f0f0f0" d="M279.29 276.67v2.49h-2.49v-2.49h2.49z"/>
        <path fill="#f0f0f0" d="M279.29 280.85v2.49h-2.49v-2.49h2.49z"/>
        <path fill="#f0f0f0" d="M279.29 285.03v2.49h-2.49v-2.49h2.49z"/>
        <path fill="#f0f0f0" d="M279.29 289.21v2.49h-2.49v-2.49h2.49z"/>
        <path fill="#f0f0f0" d="M279.29 293.39v2.49h-2.49v-2.49h2.49z"/>
        <path fill="#f0f0f0" d="M279.29 297.57v2.49h-2.49v-2.49h2.49z"/>
        <path fill="#f0f0f0" d="M279.29 310.1v2.49h-2.49v-2.49h2.49z"/>
        <path fill="#f0f0f0" d="M279.29 314.28v2.49h-2.49v-2.49h2.49z"/>
        <path fill="#f0f0f0" d="M275.33 251.6v2.49h-2.49v-2.49h2.49z"/>
        <path fill="#f0f0f0" d="M275.33 255.78v2.49h-2.49v-2.49h2.49z"/>
        <path fill="#f0f0f0" d="M275.33 259.96v2.49h-2.49v-2.49h2.49z"/>
        <path fill="#f0f0f0" d="M275.33 272.49v2.49h-2.49v-2.49h2.49z"/>
        <path fill="#f0f0f0" d="M275.33 276.67v2.49h-2.49v-2.49h2.49z"/>
        <path fill="#f0f0f0" d="M275.33 280.85v2.49h-2.49v-2.49h2.49z"/>
        <path fill="#f0f0f0" d="M275.33 285.03v2.49h-2.49v-2.49h2.49z"/>
        <path fill="#f0f0f0" d="M275.33 289.21v2.49h-2.49v-2.49h2.49z"/>
        <path fill="#f0f0f0" d="M275.33 293.39v2.49h-2.49v-2.49h2.49z"/>
        <path fill="#f0f0f0" d="M275.33 297.57v2.49h-2.49v-2.49h2.49z"/>
        <path fill="#f0f0f0" d="M275.33 310.1v2.49h-2.49v-2.49h2.49z"/>
        <path fill="#f0f0f0" d="M275.33 314.28v2.49h-2.49v-2.49h2.49z"/>
        <path fill="#f0f0f0" d="M275.33 318.46v2.49h-2.49v-2.49h2.49z"/>
        <path fill="#f0f0f0" d="M233.84 226.52v2.49h-2.49v-2.49h2.49z"/>
        <path fill="#f0f0f0" d="M233.84 230.7v2.49h-2.49v-2.49h2.49z"/>
        <path fill="#f0f0f0" d="M233.84 234.88v2.49h-2.49v-2.49h2.49z"/>
        <path fill="#f0f0f0" d="M233.84 239.06v2.49h-2.49v-2.49h2.49z"/>
        <path fill="#f0f0f0" d="M233.84 243.24v2.49h-2.49v-2.49h2.49z"/>
        <path fill="#f0f0f0" d="M233.84 247.42v2.49h-2.49v-2.49h2.49z"/>
        <path fill="#f0f0f0" d="M233.84 251.6v2.49h-2.49v-2.49h2.49z"/>
        <path fill="#f0f0f0" d="M233.84 255.78v2.49h-2.49v-2.49h2.49z"/>
        <path fill="#f0f0f0" d="M233.84 259.96v2.49h-2.49v-2.49h2.49z"/>
        <path fill="#f0f0f0" d="M233.84 264.13v2.49h-2.49v-2.49h2.49z"/>
        <path fill="#f0f0f0" d="M233.84 268.31v2.49h-2.49v-2.49h2.49z"/>
        <path fill="#f0f0f0" d="M233.84 272.49v2.49h-2.49v-2.49h2.49z"/>
        <path fill="#f0f0f0" d="M233.84 276.67v2.49h-2.49v-2.49h2.49z"/>
        <path fill="#f0f0f0" d="M233.84 280.85v2.49h-2.49v-2.49h2.49z"/>
        <path fill="#f0f0f0" d="M233.84 285.03v2.49h-2.49v-2.49h2.49z"/>
        <path fill="#f0f0f0" d="M233.84 289.21v2.49h-2.49v-2.49h2.49z"/>
        <path fill="#f0f0f0" d="M233.84 293.39v2.49h-2.49v-2.49h2.49z"/>
        <path fill="#f0f0f0" d="M233.84 297.57v2.49h-2.49v-2.49h2.49z"/>
        <path fill="#f0f0f0" d="M233.84 301.75v2.49h-2.49v-2.49h2.49z"/>
        <path fill="#f0f0f0" d="M233.84 305.92v2.49h-2.49v-2.49h2.49z"/>
        <path fill="#f0f0f0" d="M233.84 310.1v2.49h-2.49v-2.49h2.49z"/>
        <path fill="#f0f0f0" d="M233.84 314.28v2.49h-2.49v-2.49h2.49z"/>
        <path fill="#f0f0f0" d="M233.84 318.46v2.49h-2.49v-2.49h2.49z"/>
        <path fill="#f0f0f0" d="M229.88 226.52v2.49h-2.49v-2.49h2.49z"/>
        <path fill="#f0f0f0" d="M229.88 230.7v2.49h-2.49v-2.49h2.49z"/>
        <path fill="#f0f0f0" d="M229.88 234.88v2.49h-2.49v-2.49h2.49z"/>
        <path fill="#f0f0f0" d="M229.88 239.06v2.49h-2.49v-2.49h2.49z"/>
        <path fill="#f0f0f0" d="M229.88 243.24v2.49h-2.49v-2.49h2.49z"/>
        <path fill="#f0f0f0" d="M229.88 247.42v2.49h-2.49v-2.49h2.49z"/>
        <path fill="#f0f0f0" d="M229.88 251.6v2.49h-2.49v-2.49h2.49z"/>
        <path fill="#f0f0f0" d="M229.88 255.78v2.49h-2.49v-2.49h2.49z"/>
        <path fill="#f0f0f0" d="M229.88 259.96v2.49h-2.49v-2.49h2.49z"/>
        <path fill="#f0f0f0" d="M229.88 264.13v2.49h-2.49v-2.49h2.49z"/>
        <path fill="#f0f0f0" d="M229.88 268.31v2.49h-2.49v-2.49h2.49z"/>
        <path fill="#f0f0f0" d="M229.88 272.49v2.49h-2.49v-2.49h2.49z"/>
        <path fill="#f0f0f0" d="M229.88 276.67v2.49h-2.49v-2.49h2.49z"/>
        <path fill="#f0f0f0" d="M229.88 280.85v2.49h-2.49v-2.49h2.49z"/>
        <path fill="#f0f0f0" d="M229.88 285.03v2.49h-2.49v-2.49h2.49z"/>
        <path fill="#f0f0f0" d="M229.88 289.21v2.49h-2.49v-2.49h2.49z"/>
        <path fill="#f0f0f0" d="M229.88 293.39v2.49h-2.49v-2.49h2.49z"/>
        <path fill="#f0f0f0" d="M229.88 297.57v2.49h-2.49v-2.49h2.49z"/>
        <path fill="#f0f0f0" d="M229.88 301.75v2.49h-2.49v-2.49h2.49z"/>
        <path fill="#f0f0f0" d="M225.92 226.52v2.49h-2.49v-2.49h2.49z"/>
        <path fill="#f0f0f0" d="M225.92 230.7v2.49h-2.49v-2.49h2.49z"/>
        <path fill="#f0f0f0" d="M225.92 234.88v2.49h-2.49v-2.49h2.49z"/>
        <path fill="#f0f0f0" d="M225.92 239.06v2.49h-2.49v-2.49h2.49z"/>
        <path fill="#f0f0f0" d="M225.92 243.24v2.49h-2.49v-2.49h2.49z"/>
        <path fill="#f0f0f0" d="M225.92 247.42v2.49h-2.49v-2.49h2.49z"/>
        <path fill="#f0f0f0" d="M225.92 251.6v2.49h-2.49v-2.49h2.49z"/>
        <path fill="#f0f0f0" d="M225.92 255.78v2.49h-2.49v-2.49h2.49z"/>
        <path fill="#f0f0f0" d="M225.92 259.96v2.49h-2.49v-2.49h2.49z"/>
        <path fill="#f0f0f0" d="M225.92 264.13v2.49h-2.49v-2.49h2.49z"/>
        <path fill="#f0f0f0" d="M225.92 268.31v2.49h-2.49v-2.49h2.49z"/>
        <path fill="#f0f0f0" d="M225.92 272.49v2.49h-2.49v-2.49h2.49z"/>
        <path fill="#f0f0f0" d="M225.92 276.67v2.49h-2.49v-2.49h2.49z"/>
        <path fill="#f0f0f0" d="M225.92 280.85v2.49h-2.49v-2.49h2.49z"/>
        <path fill="#f0f0f0" d="M225.92 285.03v2.49h-2.49v-2.49h2.49z"/>
        <path fill="#f0f0f0" d="M225.92 289.21v2.49h-2.49v-2.49h2.49z"/>
        <path fill="#f0f0f0" d="M225.92 293.39v2.49h-2.49v-2.49h2.49z"/>
        <path fill="#f0f0f0" d="M225.92 297.57v2.49h-2.49v-2.49h2.49z"/>
        <path fill="#f0f0f0" d="M225.92 301.75v2.49h-2.49v-2.49h2.49z"/>
        <path fill="#f0f0f0" d="M221.96 226.52v2.49h-2.49v-2.49h2.49z"/>
        <path fill="#f0f0f0" d="M221.96 230.7v2.49h-2.49v-2.49h2.49z"/>
        <path fill="#f0f0f0" d="M221.96 234.88v2.49h-2.49v-2.49h2.49z"/>
        <path fill="#f0f0f0" d="M221.96 239.06v2.49h-2.49v-2.49h2.49z"/>
        <path fill="#f0f0f0" d="M221.96 243.24v2.49h-2.49v-2.49h2.49z"/>
        <path fill="#f0f0f0" d="M221.96 247.42v2.49h-2.49v-2.49h2.49z"/>
        <path fill="#f0f0f0" d="M221.96 251.6v2.49h-2.49v-2.49h2.49z"/>
        <path fill="#f0f0f0" d="M221.96 255.78v2.49h-2.49v-2.49h2.49z"/>
        <path fill="#f0f0f0" d="M221.96 259.96v2.49h-2.49v-2.49h2.49z"/>
        <path fill="#f0f0f0" d="M221.96 264.13v2.49h-2.49v-2.49h2.49z"/>
        <path fill="#f0f0f0" d="M221.96 268.31v2.49h-2.49v-2.49h2.49z"/>
        <path fill="#f0f0f0" d="M221.96 272.49v2.49h-2.49v-2.49h2.49z"/>
        <path fill="#f0f0f0" d="M221.96 276.67v2.49h-2.49v-2.49h2.49z"/>
        <path fill="#f0f0f0" d="M221.96 280.85v2.49h-2.49v-2.49h2.49z"/>
        <path fill="#f0f0f0" d="M221.96 285.03v2.49h-2.49v-2.49h2.49z"/>
        <path fill="#f0f0f0" d="M218 226.52v2.49h-2.49v-2.49H218z"/>
        <path fill="#f0f0f0" d="M218 230.7v2.49h-2.49v-2.49H218z"/>
        <path fill="#f0f0f0" d="M218 234.88v2.49h-2.49v-2.49H218z"/>
        <path fill="#f0f0f0" d="M218 239.06v2.49h-2.49v-2.49H218z"/>
        <path fill="#f0f0f0" d="M218 243.24v2.49h-2.49v-2.49H218z"/>
        <path fill="#f0f0f0" d="M218 247.42v2.49h-2.49v-2.49H218z"/>
        <path fill="#f0f0f0" d="M218 251.6v2.49h-2.49v-2.49H218z"/>
        <path fill="#f0f0f0" d="M218 255.78v2.49h-2.49v-2.49H218z"/>
        <path fill="#f0f0f0" d="M218 259.96v2.49h-2.49v-2.49H218z"/>
        <path fill="#f0f0f0" d="M218 264.13v2.49h-2.49v-2.49H218z"/>
        <path fill="#f0f0f0" d="M218 268.31v2.49h-2.49v-2.49H218z"/>
        <path fill="#f0f0f0" d="M218 272.49v2.49h-2.49v-2.49H218z"/>
        <path fill="#f0f0f0" d="M218 276.67v2.49h-2.49v-2.49H218z"/>
        <path fill="#f0f0f0" d="M214.04 226.52v2.49h-2.49v-2.49h2.49z"/>
        <path fill="#f0f0f0" d="M214.04 230.7v2.49h-2.49v-2.49h2.49z"/>
        <path fill="#f0f0f0" d="M214.04 234.88v2.49h-2.49v-2.49h2.49z"/>
        <path fill="#f0f0f0" d="M214.04 239.06v2.49h-2.49v-2.49h2.49z"/>
        <path fill="#f0f0f0" d="M214.04 243.24v2.49h-2.49v-2.49h2.49z"/>
        <path fill="#f0f0f0" d="M214.04 247.42v2.49h-2.49v-2.49h2.49z"/>
        <path fill="#f0f0f0" d="M214.04 251.6v2.49h-2.49v-2.49h2.49z"/>
        <path fill="#f0f0f0" d="M214.04 255.78v2.49h-2.49v-2.49h2.49z"/>
        <path fill="#f0f0f0" d="M214.04 259.96v2.49h-2.49v-2.49h2.49z"/>
        <path fill="#f0f0f0" d="M214.04 264.13v2.49h-2.49v-2.49h2.49z"/>
        <path fill="#f0f0f0" d="M214.04 268.31v2.49h-2.49v-2.49h2.49z"/>
        <path fill="#f0f0f0" d="M214.04 272.49v2.49h-2.49v-2.49h2.49z"/>
        <path fill="#f0f0f0" d="M445.13 225.28v2.49h-2.49v-2.49h2.49z"/>
        <path fill="#f0f0f0" d="M445.13 229.46v2.49h-2.49v-2.49h2.49z"/>
        <path fill="#f0f0f0" d="M445.13 233.64v2.49h-2.49v-2.49h2.49z"/>
        <path fill="#f0f0f0" d="M445.13 237.81v2.49h-2.49v-2.49h2.49z"/>
        <path fill="#f0f0f0" d="M445.13 241.99v2.49h-2.49v-2.49h2.49z"/>
        <path fill="#f0f0f0" d="M445.13 246.17v2.49h-2.49v-2.49h2.49z"/>
        <path fill="#f0f0f0" d="M445.13 250.35v2.49h-2.49v-2.49h2.49z"/>
        <path fill="#f0f0f0" d="M445.13 254.53v2.49h-2.49v-2.49h2.49z"/>
        <path fill="#f0f0f0" d="M445.13 258.71v2.49h-2.49v-2.49h2.49z"/>
        <path fill="#f0f0f0" d="M445.13 262.89v2.49h-2.49v-2.49h2.49z"/>
        <path fill="#f0f0f0" d="M445.13 267.07v2.49h-2.49v-2.49h2.49z"/>
        <path fill="#f0f0f0" d="M445.13 271.25v2.49h-2.49v-2.49h2.49z"/>
        <path fill="#f0f0f0" d="M445.13 275.43v2.49h-2.49v-2.49h2.49z"/>
        <path fill="#f0f0f0" d="M445.13 279.6v2.49h-2.49v-2.49h2.49z"/>
        <path fill="#f0f0f0" d="M445.13 283.78v2.49h-2.49v-2.49h2.49z"/>
        <path fill="#f0f0f0" d="M445.13 287.96v2.49h-2.49v-2.49h2.49z"/>
        <path fill="#f0f0f0" d="M445.13 292.14v2.49h-2.49v-2.49h2.49z"/>
        <path fill="#f0f0f0" d="M445.13 300.5v2.49h-2.49v-2.49h2.49z"/>
        <path fill="#f0f0f0" d="M445.13 304.68v2.49h-2.49v-2.49h2.49z"/>
        <path fill="#f0f0f0" d="M445.13 308.86v2.49h-2.49v-2.49h2.49z"/>
        <path fill="#f0f0f0" d="M445.13 313.04v2.49h-2.49v-2.49h2.49z"/>
        <path fill="#f0f0f0" d="M445.13 317.21v2.49h-2.49v-2.49h2.49z"/>
        <path fill="#f0f0f0" d="M441.17 225.28v2.49h-2.49v-2.49h2.49z"/>
        <path fill="#f0f0f0" d="M441.17 229.46v2.49h-2.49v-2.49h2.49z"/>
        <path fill="#f0f0f0" d="M441.17 233.64v2.49h-2.49v-2.49h2.49z"/>
        <path fill="#f0f0f0" d="M441.17 237.81v2.49h-2.49v-2.49h2.49z"/>
        <path fill="#f0f0f0" d="M441.17 241.99v2.49h-2.49v-2.49h2.49z"/>
        <path fill="#f0f0f0" d="M441.17 246.17v2.49h-2.49v-2.49h2.49z"/>
        <path fill="#f0f0f0" d="M441.17 250.35v2.49h-2.49v-2.49h2.49z"/>
        <path fill="#f0f0f0" d="M441.17 254.53v2.49h-2.49v-2.49h2.49z"/>
        <path fill="#f0f0f0" d="M441.17 258.71v2.49h-2.49v-2.49h2.49z"/>
        <path fill="#f0f0f0" d="M441.17 262.89v2.49h-2.49v-2.49h2.49z"/>
        <path fill="#f0f0f0" d="M441.17 267.07v2.49h-2.49v-2.49h2.49z"/>
        <path fill="#f0f0f0" d="M441.17 271.25v2.49h-2.49v-2.49h2.49z"/>
        <path fill="#f0f0f0" d="M441.17 275.43v2.49h-2.49v-2.49h2.49z"/>
        <path fill="#f0f0f0" d="M441.17 279.6v2.49h-2.49v-2.49h2.49z"/>
        <path fill="#f0f0f0" d="M441.17 283.78v2.49h-2.49v-2.49h2.49z"/>
        <path fill="#f0f0f0" d="M441.17 287.96v2.49h-2.49v-2.49h2.49z"/>
        <path fill="#f0f0f0" d="M441.17 313.04v2.49h-2.49v-2.49h2.49z"/>
        <path fill="#f0f0f0" d="M441.17 317.21v2.49h-2.49v-2.49h2.49z"/>
        <path fill="#f0f0f0" d="M437.22 225.28v2.49h-2.49v-2.49h2.49z"/>
        <path fill="#f0f0f0" d="M437.22 229.46v2.49h-2.49v-2.49h2.49z"/>
        <path fill="#f0f0f0" d="M437.22 233.64v2.49h-2.49v-2.49h2.49z"/>
        <path fill="#f0f0f0" d="M437.22 237.81v2.49h-2.49v-2.49h2.49z"/>
        <path fill="#f0f0f0" d="M437.22 241.99v2.49h-2.49v-2.49h2.49z"/>
        <path fill="#f0f0f0" d="M437.22 246.17v2.49h-2.49v-2.49h2.49z"/>
        <path fill="#f0f0f0" d="M437.22 250.35v2.49h-2.49v-2.49h2.49z"/>
        <path fill="#f0f0f0" d="M437.22 254.53v2.49h-2.49v-2.49h2.49z"/>
        <path fill="#f0f0f0" d="M437.22 258.71v2.49h-2.49v-2.49h2.49z"/>
        <path fill="#f0f0f0" d="M437.22 262.89v2.49h-2.49v-2.49h2.49z"/>
        <path fill="#f0f0f0" d="M437.22 267.07v2.49h-2.49v-2.49h2.49z"/>
        <path fill="#f0f0f0" d="M437.22 271.25v2.49h-2.49v-2.49h2.49z"/>
        <path fill="#f0f0f0" d="M437.22 275.43v2.49h-2.49v-2.49h2.49z"/>
        <path fill="#f0f0f0" d="M437.22 279.6v2.49h-2.49v-2.49h2.49z"/>
        <path fill="#f0f0f0" d="M437.22 283.78v2.49h-2.49v-2.49h2.49z"/>
        <path fill="#f0f0f0" d="M437.22 287.96v2.49h-2.49v-2.49h2.49z"/>
        <path fill="#f0f0f0" d="M437.22 296.32v2.49h-2.49v-2.49h2.49z"/>
        <path fill="#f0f0f0" d="M437.22 300.5v2.49h-2.49v-2.49h2.49z"/>
        <path fill="#f0f0f0" d="M437.22 304.68v2.49h-2.49v-2.49h2.49z"/>
        <path fill="#f0f0f0" d="M437.22 308.86v2.49h-2.49v-2.49h2.49z"/>
        <path fill="#f0f0f0" d="M437.22 317.21v2.49h-2.49v-2.49h2.49z"/>
        <path fill="#f0f0f0" d="M368.15 254.53v2.49h-2.49v-2.49h2.49z"/>
        <path fill="#f0f0f0" d="M368.15 258.71v2.49h-2.49v-2.49h2.49z"/>
        <path fill="#f0f0f0" d="M368.15 262.89v2.49h-2.49v-2.49h2.49z"/>
        <path fill="#f0f0f0" d="M368.15 267.07v2.49h-2.49v-2.49h2.49z"/>
        <path fill="#f0f0f0" d="M368.15 271.25v2.49h-2.49v-2.49h2.49z"/>
        <path fill="#f0f0f0" d="M368.15 275.43v2.49h-2.49v-2.49h2.49z"/>
        <path fill="#f0f0f0" d="M368.15 279.6v2.49h-2.49v-2.49h2.49z"/>
        <path fill="#f0f0f0" d="M368.15 283.78v2.49h-2.49v-2.49h2.49z"/>
        <path fill="#f0f0f0" d="M368.15 287.96v2.49h-2.49v-2.49h2.49z"/>
        <path fill="#f0f0f0" d="M368.15 292.14v2.49h-2.49v-2.49h2.49z"/>
        <path fill="#f0f0f0" d="M368.15 296.32v2.49h-2.49v-2.49h2.49z"/>
        <path fill="#f0f0f0" d="M368.15 300.5v2.49h-2.49v-2.49h2.49z"/>
        <path fill="#f0f0f0" d="M368.15 304.68v2.49h-2.49v-2.49h2.49z"/>
        <path fill="#f0f0f0" d="M368.15 313.04v2.49h-2.49v-2.49h2.49z"/>
        <path fill="#f0f0f0" d="M368.15 317.21v2.49h-2.49v-2.49h2.49z"/>
        <path fill="#f0f0f0" d="M368.15 321.39v2.49h-2.49v-2.49h2.49z"/>
        <path fill="#f0f0f0" d="M368.15 325.57v2.49h-2.49v-2.49h2.49z"/>
        <path fill="#f0f0f0" d="M368.15 333.93v2.49h-2.49v-2.49h2.49z"/>
        <path fill="#f0f0f0" d="M368.15 338.11v2.49h-2.49v-2.49h2.49z"/>
        <path fill="#f0f0f0" d="M368.15 342.29v2.49h-2.49v-2.49h2.49z"/>
        <path fill="#f0f0f0" d="M364.19 254.53v2.49h-2.49v-2.49h2.49z"/>
        <path fill="#f0f0f0" d="M364.19 258.71v2.49h-2.49v-2.49h2.49z"/>
        <path fill="#f0f0f0" d="M364.19 262.89v2.49h-2.49v-2.49h2.49z"/>
        <path fill="#f0f0f0" d="M364.19 267.07v2.49h-2.49v-2.49h2.49z"/>
        <path fill="#f0f0f0" d="M364.19 271.25v2.49h-2.49v-2.49h2.49z"/>
        <path fill="#f0f0f0" d="M364.19 275.43v2.49h-2.49v-2.49h2.49z"/>
        <path fill="#f0f0f0" d="M364.19 279.6v2.49h-2.49v-2.49h2.49z"/>
        <path fill="#f0f0f0" d="M364.19 283.78v2.49h-2.49v-2.49h2.49z"/>
        <path fill="#f0f0f0" d="M364.19 287.96v2.49h-2.49v-2.49h2.49z"/>
        <path fill="#f0f0f0" d="M364.19 292.14v2.49h-2.49v-2.49h2.49z"/>
        <path fill="#f0f0f0" d="M364.19 296.32v2.49h-2.49v-2.49h2.49z"/>
        <path fill="#f0f0f0" d="M364.19 300.5v2.49h-2.49v-2.49h2.49z"/>
        <path fill="#f0f0f0" d="M364.19 304.68v2.49h-2.49v-2.49h2.49z"/>
        <path fill="#f0f0f0" d="M364.19 317.21v2.49h-2.49v-2.49h2.49z"/>
        <path fill="#f0f0f0" d="M364.19 321.39v2.49h-2.49v-2.49h2.49z"/>
        <path fill="#f0f0f0" d="M364.19 329.75v2.49h-2.49v-2.49h2.49z"/>
        <path fill="#f0f0f0" d="M364.19 333.93v2.49h-2.49v-2.49h2.49z"/>
        <path fill="#f0f0f0" d="M364.19 338.11v2.49h-2.49v-2.49h2.49z"/>
        <path fill="#f0f0f0" d="M364.19 342.29v2.49h-2.49v-2.49h2.49z"/>
        <path fill="#f0f0f0" d="M360.23 254.53v2.49h-2.49v-2.49h2.49z"/>
        <path fill="#f0f0f0" d="M360.23 258.71v2.49h-2.49v-2.49h2.49z"/>
        <path fill="#f0f0f0" d="M360.23 262.89v2.49h-2.49v-2.49h2.49z"/>
        <path fill="#f0f0f0" d="M360.23 267.07v2.49h-2.49v-2.49h2.49z"/>
        <path fill="#f0f0f0" d="M360.23 271.25v2.49h-2.49v-2.49h2.49z"/>
        <path fill="#f0f0f0" d="M360.23 275.43v2.49h-2.49v-2.49h2.49z"/>
        <path fill="#f0f0f0" d="M360.23 279.6v2.49h-2.49v-2.49h2.49z"/>
        <path fill="#f0f0f0" d="M360.23 283.78v2.49h-2.49v-2.49h2.49z"/>
        <path fill="#f0f0f0" d="M360.23 287.96v2.49h-2.49v-2.49h2.49z"/>
        <path fill="#f0f0f0" d="M360.23 292.14v2.49h-2.49v-2.49h2.49z"/>
        <path fill="#f0f0f0" d="M360.23 296.32v2.49h-2.49v-2.49h2.49z"/>
        <path fill="#f0f0f0" d="M360.23 300.5v2.49h-2.49v-2.49h2.49z"/>
        <path fill="#f0f0f0" d="M360.23 304.68v2.49h-2.49v-2.49h2.49z"/>
        <path fill="#f0f0f0" d="M360.23 308.86v2.49h-2.49v-2.49h2.49z"/>
        <path fill="#f0f0f0" d="M360.23 317.21v2.49h-2.49v-2.49h2.49z"/>
        <path fill="#f0f0f0" d="M360.23 325.57v2.49h-2.49v-2.49h2.49z"/>
        <path fill="#f0f0f0" d="M360.23 329.75v2.49h-2.49v-2.49h2.49z"/>
        <path fill="#f0f0f0" d="M360.23 333.93v2.49h-2.49v-2.49h2.49z"/>
        <path fill="#f0f0f0" d="M360.23 338.11v2.49h-2.49v-2.49h2.49z"/>
        <path fill="#f0f0f0" d="M360.23 342.29v2.49h-2.49v-2.49h2.49z"/>
        <path fill="#f0f0f0" d="M384.28 278.36v2.49h-2.49v-2.49h2.49z"/>
        <path fill="#f0f0f0" d="M384.28 282.54v2.49h-2.49v-2.49h2.49z"/>
        <path fill="#f0f0f0" d="M384.28 286.72v2.49h-2.49v-2.49h2.49z"/>
        <path fill="#f0f0f0" d="M384.28 290.89v2.49h-2.49v-2.49h2.49z"/>
        <path fill="#f0f0f0" d="M384.28 295.07v2.49h-2.49v-2.49h2.49z"/>
        <path fill="#f0f0f0" d="M384.28 299.25v2.49h-2.49v-2.49h2.49z"/>
        <path fill="#f0f0f0" d="M384.28 311.79v2.49h-2.49v-2.49h2.49z"/>
        <path fill="#f0f0f0" d="M384.28 315.97v2.49h-2.49v-2.49h2.49z"/>
        <path fill="#f0f0f0" d="M384.28 320.15v2.49h-2.49v-2.49h2.49z"/>
        <path fill="#f0f0f0" d="M384.28 324.33v2.49h-2.49v-2.49h2.49z"/>
        <path fill="#f0f0f0" d="M384.28 328.51V331h-2.49v-2.49h2.49z"/>
        <path fill="#f0f0f0" d="M384.28 332.68v2.49h-2.49v-2.49h2.49z"/>
        <path fill="#f0f0f0" d="M384.28 336.86v2.49h-2.49v-2.49h2.49z"/>
        <path fill="#f0f0f0" d="M380.32 278.36v2.49h-2.49v-2.49h2.49z"/>
        <path fill="#f0f0f0" d="M380.32 282.54v2.49h-2.49v-2.49h2.49z"/>
        <path fill="#f0f0f0" d="M380.32 286.72v2.49h-2.49v-2.49h2.49z"/>
        <path fill="#f0f0f0" d="M380.32 290.89v2.49h-2.49v-2.49h2.49z"/>
        <path fill="#f0f0f0" d="M380.32 295.07v2.49h-2.49v-2.49h2.49z"/>
        <path fill="#f0f0f0" d="M380.32 299.25v2.49h-2.49v-2.49h2.49z"/>
        <path fill="#f0f0f0" d="M380.32 311.79v2.49h-2.49v-2.49h2.49z"/>
        <path fill="#f0f0f0" d="M380.32 315.97v2.49h-2.49v-2.49h2.49z"/>
        <path fill="#f0f0f0" d="M380.32 320.15v2.49h-2.49v-2.49h2.49z"/>
        <path fill="#f0f0f0" d="M380.32 324.33v2.49h-2.49v-2.49h2.49z"/>
        <path fill="#f0f0f0" d="M380.32 328.51V331h-2.49v-2.49h2.49z"/>
        <path fill="#f0f0f0" d="M380.32 332.68v2.49h-2.49v-2.49h2.49z"/>
        <path fill="#f0f0f0" d="M380.32 341.04v2.49h-2.49v-2.49h2.49z"/>
        <path fill="#f0f0f0" d="M248.79 259.96v2.49h-2.49v-2.49h2.49z"/>
        <path fill="#f0f0f0" d="M248.79 264.13v2.49h-2.49v-2.49h2.49z"/>
        <path fill="#f0f0f0" d="M248.79 268.31v2.49h-2.49v-2.49h2.49z"/>
        <path fill="#f0f0f0" d="M248.79 272.49v2.49h-2.49v-2.49h2.49z"/>
        <path fill="#f0f0f0" d="M248.79 276.67v2.49h-2.49v-2.49h2.49z"/>
        <path fill="#f0f0f0" d="M248.79 280.85v2.49h-2.49v-2.49h2.49z"/>
        <path fill="#f0f0f0" d="M248.79 285.03v2.49h-2.49v-2.49h2.49z"/>
        <path fill="#f0f0f0" d="M248.79 289.21v2.49h-2.49v-2.49h2.49z"/>
        <path fill="#f0f0f0" d="M248.79 293.39v2.49h-2.49v-2.49h2.49z"/>
        <path fill="#f0f0f0" d="M248.79 297.57v2.49h-2.49v-2.49h2.49z"/>
        <path fill="#f0f0f0" d="M248.79 301.75v2.49h-2.49v-2.49h2.49z"/>
        <path fill="#f0f0f0" d="M248.79 310.1v2.49h-2.49v-2.49h2.49z"/>
        <path fill="#f0f0f0" d="M248.79 314.28v2.49h-2.49v-2.49h2.49z"/>
        <path fill="#f0f0f0" d="M248.79 318.46v2.49h-2.49v-2.49h2.49z"/>
        <path fill="#f0f0f0" d="M248.79 322.64v2.49h-2.49v-2.49h2.49z"/>
        <path fill="#f0f0f0" d="M248.79 326.82v2.49h-2.49v-2.49h2.49z"/>
        <path fill="#f0f0f0" d="M248.79 331v2.49h-2.49V331h2.49z"/>
        <path fill="#f0f0f0" d="M248.79 335.18v2.49h-2.49v-2.49h2.49z"/>
        <path fill="#f0f0f0" d="M248.79 339.36v2.49h-2.49v-2.49h2.49z"/>
        <path fill="#f0f0f0" d="M244.84 259.96v2.49h-2.49v-2.49h2.49z"/>
        <path fill="#f0f0f0" d="M244.84 264.13v2.49h-2.49v-2.49h2.49z"/>
        <path fill="#f0f0f0" d="M244.84 268.31v2.49h-2.49v-2.49h2.49z"/>
        <path fill="#f0f0f0" d="M244.84 272.49v2.49h-2.49v-2.49h2.49z"/>
        <path fill="#f0f0f0" d="M244.84 276.67v2.49h-2.49v-2.49h2.49z"/>
        <path fill="#f0f0f0" d="M244.84 280.85v2.49h-2.49v-2.49h2.49z"/>
        <path fill="#f0f0f0" d="M244.84 285.03v2.49h-2.49v-2.49h2.49z"/>
        <path fill="#f0f0f0" d="M244.84 289.21v2.49h-2.49v-2.49h2.49z"/>
        <path fill="#f0f0f0" d="M244.84 293.39v2.49h-2.49v-2.49h2.49z"/>
        <path fill="#f0f0f0" d="M244.84 297.57v2.49h-2.49v-2.49h2.49z"/>
        <path fill="#f0f0f0" d="M244.84 301.75v2.49h-2.49v-2.49h2.49z"/>
        <path fill="#f0f0f0" d="M244.84 305.92v2.49h-2.49v-2.49h2.49z"/>
        <path fill="#f0f0f0" d="M244.84 310.1v2.49h-2.49v-2.49h2.49z"/>
        <path fill="#f0f0f0" d="M244.84 314.28v2.49h-2.49v-2.49h2.49z"/>
        <path fill="#f0f0f0" d="M244.84 318.46v2.49h-2.49v-2.49h2.49z"/>
        <path fill="#f0f0f0" d="M244.84 322.64v2.49h-2.49v-2.49h2.49z"/>
        <path fill="#f0f0f0" d="M244.84 326.82v2.49h-2.49v-2.49h2.49z"/>
        <path fill="#f0f0f0" d="M244.84 331v2.49h-2.49V331h2.49z"/>
        <path fill="#f0f0f0" d="M244.84 335.18v2.49h-2.49v-2.49h2.49z"/>
        <path fill="#f0f0f0" d="M244.84 339.36v2.49h-2.49v-2.49h2.49z"/>
        <path fill="#f0f0f0" d="M268.3 276.23v2.49h-2.49v-2.49h2.49z"/>
        <path fill="#f0f0f0" d="M268.3 280.41v2.49h-2.49v-2.49h2.49z"/>
        <path fill="#f0f0f0" d="M268.3 284.59v2.49h-2.49v-2.49h2.49z"/>
        <path fill="#f0f0f0" d="M268.3 288.77v2.49h-2.49v-2.49h2.49z"/>
        <path fill="#f0f0f0" d="M268.3 292.95v2.49h-2.49v-2.49h2.49z"/>
        <path fill="#f0f0f0" d="M268.3 297.13v2.49h-2.49v-2.49h2.49z"/>
        <path fill="#f0f0f0" d="M268.3 301.31v2.49h-2.49v-2.49h2.49z"/>
        <path fill="#f0f0f0" d="M268.3 305.48v2.49h-2.49v-2.49h2.49z"/>
        <path fill="#f0f0f0" d="M268.3 309.66v2.49h-2.49v-2.49h2.49z"/>
        <path fill="#f0f0f0" d="M268.3 313.84v2.49h-2.49v-2.49h2.49z"/>
        <path fill="#f0f0f0" d="M264.34 276.23v2.49h-2.49v-2.49h2.49z"/>
        <path fill="#f0f0f0" d="M264.34 280.41v2.49h-2.49v-2.49h2.49z"/>
        <path fill="#f0f0f0" d="M264.34 284.59v2.49h-2.49v-2.49h2.49z"/>
        <path fill="#f0f0f0" d="M264.34 288.77v2.49h-2.49v-2.49h2.49z"/>
        <path fill="#f0f0f0" d="M264.34 292.95v2.49h-2.49v-2.49h2.49z"/>
        <path fill="#f0f0f0" d="M264.34 297.13v2.49h-2.49v-2.49h2.49z"/>
        <path fill="#f0f0f0" d="M264.34 301.31v2.49h-2.49v-2.49h2.49z"/>
        <path fill="#f0f0f0" d="M264.34 305.48v2.49h-2.49v-2.49h2.49z"/>
        <path fill="#f0f0f0" d="M264.34 309.66v2.49h-2.49v-2.49h2.49z"/>
        <path fill="#e0e0e0" d="M287.89 117.64v233.08h-4.18V117.64h4.18z"/>
        <path fill="#e0e0e0" d="M366.6 117.64v233.08h-4.18V117.64h4.18z"/>
        <path fill="#e0e0e0" d="M445.3 117.64v233.08h-4.18V117.64h4.18z"/>
        <path d="M147.82 328h25.78a4.41 4.41 0 0 1 4.41 4.41v49.83h-34.59v-49.79a4.41 4.41 0 0 1 4.4-4.45Z" fill="#f0f0f0"/>
        <path fill="#e6e6e6" d="M178.01 335.38v3.89h-34.59v-3.89h34.59z"/>
        <path d="M163.09 375.71h8.62a2.37 2.37 0 0 1 2.37 2.37v4.2h-13.37v-4.2a2.37 2.37 0 0 1 2.38-2.37Z" fill="#e0e0e0"/>
        <path d="M174.12 382.28h-9.58a1.54 1.54 0 0 1-1.54-1.54 1.54 1.54 0 0 1 1.54-1.53h9.58a1.54 1.54 0 0 1 1.54 1.53 1.54 1.54 0 0 1-1.54 1.54Z" fill="#e6e6e6"/>
        <path fill="#e0e0e0" d="M345.224 78.375c2.988 12.658-4.852 25.342-17.51 28.33s-25.343-4.853-28.33-17.51 4.852-25.343 17.51-28.33 25.343 4.852 28.33 17.51z"/>
        <path fill="#f0f0f0" d="M342.07 80.548c1.772 10.919-5.643 21.208-16.563 22.98-10.919 1.773-21.208-5.643-22.98-16.562-1.772-10.919 5.643-21.208 16.562-22.98 10.919-1.773 21.208 5.643 22.98 16.562z"/>
        <path fill="#f0f0f0" d="M323.25 70.03v14l9.27-5.25"/>
        <path d="M323.25 85a1 1 0 0 1-.51-.14 1 1 0 0 1-.49-.86V70a1 1 0 1 1 2 0v12.31l7.78-4.4a1 1 0 0 1 1.36.38 1 1 0 0 1-.37 1.36l-9.28 5.25a1.09 1.09 0 0 1-.49.1Z" fill="#e0e0e0"/>
        <path d="M96.93 313.64c-1.8-3-4.76-.39-4.76-.39.42-5.68-4.8-9.56-4.8-9.56s6.07 0 6.91-5.79-2.11-3.1-4.89-3.14-5.69 8.08-2 12.65 2.68 12.37-5.79 19.87a16.64 16.64 0 0 0-4.42 6.9c.64-6.89 1-16.6-1-23.08-3.44-11 3.12-14 5-19.48s-5-10.16-5-10.16 6.51-3 3.33-6.35-9.74-2.93-9.74 1.5 4.45 6.12 4.45 6.12 5.08 5.29 5.08 8-5.08 8.68-5.08 8.68 2.33-5.07-2.33-5.28-6.14 5.92-4.23 8.67 5.08.43 5.08.43a54 54 0 0 0 1.45 9.52c.48 1.59.26 7.8-.14 14.26a16.11 16.11 0 0 0-4.13-6.12c-8.47-7.5-9.45-15.3-5.78-19.87s.76-12.69-2-12.65-5.75-2.66-4.9 3.13 6.92 5.8 6.92 5.8-5.23 3.88-4.81 9.56c0 0-3-2.58-4.76.39-3.21 5.29 4.24 8.57 5.49 6 0 0 15.79 11.18 12 27.27l.88 1.31c-.11 1.3-.18 2.08-.18 2.08l1.23-.53 1.41 2.07a48.41 48.41 0 0 0 .36 7l3.77-5.58c-3.81-16.09 12-27.27 12-27.27 1.15 2.62 8.59-.67 5.38-5.96Z" fill="#e0e0e0"/>
        <path style="isolation:isolate" d="M96.93 313.64c-1.8-3-4.76-.39-4.76-.39.42-5.68-4.8-9.56-4.8-9.56s6.07 0 6.91-5.79-2.11-3.1-4.89-3.14-5.69 8.08-2 12.65 2.68 12.37-5.79 19.87a16.64 16.64 0 0 0-4.42 6.9c.64-6.89 1-16.6-1-23.08-3.44-11 3.12-14 5-19.48s-5-10.16-5-10.16 6.51-3 3.33-6.35-9.74-2.93-9.74 1.5 4.45 6.12 4.45 6.12 5.08 5.29 5.08 8-5.08 8.68-5.08 8.68 2.33-5.07-2.33-5.28-6.14 5.92-4.23 8.67 5.08.43 5.08.43a54 54 0 0 0 1.45 9.52c.48 1.59.26 7.8-.14 14.26a16.11 16.11 0 0 0-4.13-6.12c-8.47-7.5-9.45-15.3-5.78-19.87s.76-12.69-2-12.65-5.75-2.66-4.9 3.13 6.92 5.8 6.92 5.8-5.23 3.88-4.81 9.56c0 0-3-2.58-4.76.39-3.21 5.29 4.24 8.57 5.49 6 0 0 15.79 11.18 12 27.27l.88 1.31c-.11 1.3-.18 2.08-.18 2.08l1.23-.53 1.41 2.07a48.41 48.41 0 0 0 .36 7l3.77-5.58c-3.81-16.09 12-27.27 12-27.27 1.15 2.62 8.59-.67 5.38-5.96Z" fill="#e0e0e0" opacity=".2"/>
        <path fill="#e6e6e6" d="M93.84 382.28H57.67l-3.9-39.6h43.98l-3.91 39.6z"/>
        <path fill="#f0f0f0" d="M99.67 338.31v8.74H51.83v-8.74h47.84z"/>
        <path fill="#f5f5f5" d="M443.89 416.24c0 6.252-86.808 11.32-193.89 11.32-107.082 0-193.89-5.068-193.89-11.32 0-6.252 86.808-11.32 193.89-11.32 107.082 0 193.89 5.068 193.89 11.32z"/>
        <path d="M410.45 384.72c.15-1 3.65-25.17-3.36-33.51a7.59 7.59 0 0 0-5.82-2.87c-14.16-.33-16.09 11-16.11 11.15l1.67.26c.06-.41 1.74-10 14.4-9.72a5.92 5.92 0 0 1 4.57 2.26c6.52 7.77 3 31.93 3 32.18Z" fill="#407bff"/>
        <path d="m411.3 383.62 1.69-.06c0-.22-.56-22.25 10.29-26.8 10.64-4.45 15.43 4.71 15.62 5.1l1.51-.76c-.05-.11-5.67-11-17.78-5.89-11.92 4.99-11.36 27.45-11.33 28.41Z" fill="#407bff"/>
        <path d="M411.25 385.35c0-.35.11-35.19 6.9-45.38 6.52-9.79 17-5.18 17.49-5l.69-1.54c-.12-.05-12.26-5.41-19.59 5.58-7.07 10.61-7.17 44.86-7.17 46.32Z" fill="#407bff"/>
        <path d="M399.24 349.18s6.18 2.28 4.34 7.65-21.37 14.23-21.37 14.23-8.19-7.5-.67-19.7 17.53-6.03 17.7-2.18Z" fill="#407bff"/>
        <path d="M418.45 338.13s-4.38-.47-4-3.14 17.06-9.55 26.91 1.57c0 0-6.31 10.84-15.43 11s-7.48-9.43-7.48-9.43Z" fill="#407bff"/>
        <path d="M423 356s-3-2.44.24-3.63 19.3-.86 19.46 15c0 0-18.67 3.11-21-2.94S423 356 423 356Z" fill="#407bff"/>
        <path style="isolation:isolate" d="M399.24 349.18s6.18 2.28 4.34 7.65-21.37 14.23-21.37 14.23-8.19-7.5-.67-19.7 17.53-6.03 17.7-2.18Z" opacity=".2"/>
        <path style="isolation:isolate" d="M418.45 338.13s-4.38-.47-4-3.14 17.06-9.55 26.91 1.57c0 0-6.31 10.84-15.43 11s-7.48-9.43-7.48-9.43Z" opacity=".2"/>
        <path style="isolation:isolate" d="M423 356s-3-2.44.24-3.63 19.3-.86 19.46 15c0 0-18.67 3.11-21-2.94S423 356 423 356Z" opacity=".2"/>
        <path fill="#407bff" d="M395.92 417.07h28.98l3.12-31.72H392.8l3.12 31.72z"/>
        <path style="isolation:isolate" fill="#ffffff" opacity=".5" d="M395.92 417.07h28.98l3.12-31.72H392.8l3.12 31.72z"/>
        <path fill="#407bff" d="M391.25 388.84v-7h38.32v7h-38.32z"/>
        <path style="isolation:isolate" transform="rotate(180 410.41 385.345)" fill="#ffffff" opacity=".2" d="M429.57 381.85v7h-38.32v-7h38.32z"/>
        <path d="m363.12 394.33-28.81-2.83V351h-11.42v40.48L294 394.33a5.61 5.61 0 0 0-5.06 5.58v4.33h79.28v-4.33a5.6 5.6 0 0 0-5.1-5.58Z" fill="#263238"/>
        <path style="isolation:isolate" d="m363.12 394.33-28.81-2.83V351h-11.42v40.48L294 394.33a5.61 5.61 0 0 0-5.06 5.58v4.33h79.28v-4.33a5.6 5.6 0 0 0-5.1-5.58Z" fill="#ffffff" opacity=".2"/>
        <path fill="#263238" d="M299.42 409.61a7.47 7.47 0 1 1-14.94 0 7.47 7.47 0 0 1 14.94 0z"/>
        <path fill="#263238" d="M372.61 409.61a7.47 7.47 0 1 1-14.94 0 7.47 7.47 0 0 1 14.94 0z"/>
        <path d="M320.93 323.64h15.35v31.93a4.13 4.13 0 0 1-4.13 4.13h-7.09a4.13 4.13 0 0 1-4.13-4.13v-31.93Z" fill="#263238"/>
        <path style="isolation:isolate" d="M320.93 323.64h15.35v31.93a4.13 4.13 0 0 1-4.13 4.13h-7.09a4.13 4.13 0 0 1-4.13-4.13v-31.93Z" fill="#ffffff" opacity=".3"/>
        <path d="M355.9 260.35s2.18 54-12.86 63.29h17.17s13.3-18.39 9.54-63.29Z" fill="#263238"/>
        <path style="isolation:isolate" d="M355.9 260.35s2.18 54-12.86 63.29h17.17s13.3-18.39 9.54-63.29Z" fill="#ffffff" opacity=".3"/>
        <path d="M366.05 327.78h-76.92v-6.69a5 5 0 0 1 5-5h66.92a5 5 0 0 1 5 5v6.69Z" fill="#263238"/>
        <path fill="#263238" d="M285.92 325.77v-1.82c0-1.11.9-2.01 2.01-2.01h79.31c1.11 0 2.01.9 2.01 2.01v1.82c0 1.11-.9 2.01-2.01 2.01h-79.31c-1.11 0-2.01-.9-2.01-2.01z"/>
        <path style="isolation:isolate" transform="rotate(180 327.59 324.86)" fill="#ffffff" opacity=".6" d="M369.26 323.95v1.82c0 1.11-.9 2.01-2.01 2.01h-79.31c-1.11 0-2.01-.9-2.01-2.01v-1.82c0-1.11.9-2.01 2.01-2.01h79.31c1.11 0 2.01.9 2.01 2.01z"/>
        <path fill="#263238" d="M388.54 245.98v10.76c0 8.052-6.528 14.58-14.58 14.58h-27.5c-8.052 0-14.58-6.528-14.58-14.58v-10.76c0-8.052 6.528-14.58 14.58-14.58h27.5c8.052 0 14.58 6.528 14.58 14.58z"/>
        <path d="m263.05 187.28-5.49-14.47s2.36-2.18.74-4.39-11.74-8.42-13.58-7.33-5.95 5.21-3.73 7.5 12 6.1 12 6.1l4.86 19Z" fill="#e4897b"/>
        <path d="M301.38 214.79s-25-5.13-27.67-6.36S261 177.77 261 177.77l-7.71 3.6s6.2 29.54 12.54 36.56 33.4 13 33.4 13Z" fill="#407bff"/>
        <path style="isolation:isolate" d="m299.17 230.9-.46-.11c-1.36-.31-5.63-1.31-10.7-2.8-8.23-2.39-18.61-6-22.23-10.05-6.33-7-12.54-36.57-12.54-36.57l7.7-3.6s10.05 29.44 12.77 30.66 27.67 6.36 27.67 6.36Z" opacity=".2"/>
        <path fill="#407bff" d="m261.07 177.19 1.59 3.07-9.9 3.41.38-3.75 7.93-2.73z"/>
        <path style="isolation:isolate" d="M299.36 230.49c-1.38-.2-5.71-.87-10.89-2 2.95-5.1 11.59-7.72 11.59-7.72Z" opacity=".2"/>
        <path d="M336.58 194.41s1.47 13.83-3.65 17.23-30.33-.58-33.19-6.15 7.9-20.67 7.9-20.67Z" fill="#263238"/>
        <path fill="#e4897b" d="m234.59 376.39 6.58 1.59 3.33-9.08 3.02-8.26-7.49-3.19-2.88 10.02-2.56 8.92z"/>
        <path style="isolation:isolate" opacity=".2" d="m237.15 367.47 7.35 1.43 3.02-8.26-7.49-3.19-2.88 10.02z"/>
        <path d="m237.81 362.68 9.12 3.39s24.33-60.83 29.33-61 55.91 23.19 68.67 10.21-5.69-44.28-5.69-44.28-30.69-4.38-33 2.55a48.61 48.61 0 0 0-1.3 6.22c-.35 2.12-.59 3.9-.59 3.9-.95-.24-31.76-8.19-43.9 0-12.35 8.33-22.64 79.01-22.64 79.01Z" fill="#407bff"/>
        <path style="isolation:isolate" d="m237.81 362.68 9.12 3.39s24.33-60.83 29.33-61 55.91 23.19 68.67 10.21-5.69-44.28-5.69-44.28-30.69-4.38-33 2.55a48.61 48.61 0 0 0-1.3 6.22c-.35 2.12-.59 3.9-.59 3.9-.95-.24-31.76-8.19-43.9 0-12.35 8.33-22.64 79.01-22.64 79.01Z" fill="#ffffff" opacity=".6"/>
        <path fill="#e4897b" d="m290.27 402.34 6.55-1.67-1.26-9.41-1.17-8.62-8.1.73 2.1 10.05 1.88 8.92z"/>
        <path style="isolation:isolate" opacity=".2" d="m288.44 393.62 7.16-2.18-1.19-8.71-8.11.69 2.14 10.2z"/>
        <path fill="#407bff" d="m250.7 362.69-13.29-4.51-.57 5.44 10.08 3.56 3.78-4.49z"/>
        <path d="M322.89 318.36s-2.08.05-34.27-1.45c0 0 4.81 40.24 7.44 70.37l-9.63 1.64s-23-64.51-22.75-74.76 12-13.25 12-13.25 22.93 13.25 47.21 17.45Z" fill="#407bff"/>
        <path style="isolation:isolate" d="M322.89 318.36s-2.08.05-34.27-1.45c0 0 4.81 40.24 7.44 70.37l-9.63 1.64s-23-64.51-22.75-74.76 12-13.25 12-13.25 22.93 13.25 47.21 17.45Z" fill="#ffffff" opacity=".6"/>
        <path style="isolation:isolate" d="M322.89 318.36s-2.08.05-34.27-1.45c0 0 4.81 40.24 7.44 70.37l-9.63 1.64s-23-64.51-22.75-74.76 12-13.25 12-13.25 22.93 13.25 47.21 17.45Z" opacity=".1"/>
        <path fill="#407bff" d="m297.46 384.36-13.23 1.51 2.56 5.18 10.71-1.37-.04-5.32z"/>
        <path style="isolation:isolate" d="m304.35 283.67 17.95 3.74s-9.92-5.48-17.36-7.64c-.35 2.12-.59 3.9-.59 3.9Z" opacity=".1"/>
        <path fill="#263238" d="m338.5 266.23.74 4.77-33 2.55-.87-5.65 33.13-1.67z"/>
        <path style="isolation:isolate" opacity=".2" d="m338.5 266.23.74 4.77-33 2.55-.87-5.65 33.13-1.67z"/>
        <path fill="#407bff" d="m328.091 274.222-.854-8.306 1.632-.168.854 8.306-1.632.168z"/>
        <path fill="#ffffff" d="m313.432 273.393-.352-5.479 7.225-.465.352 5.479-7.225.465z"/>
        <path fill="#407bff" d="m307.844 275.095-.854-8.306 1.632-.168.854 8.307-1.632.167z"/>
        <path style="isolation:isolate" transform="rotate(174.13 328.48 269.985)" fill="#ffffff" opacity=".6" d="M329.3 265.81v8.35h-1.64v-8.35h1.64z"/>
        <path style="isolation:isolate" transform="rotate(174.13 308.227 270.867)" fill="#ffffff" opacity=".6" d="M309.04 266.7v8.35h-1.64v-8.35h1.64z"/>
        <path d="M300.78 214.34a60 60 0 0 0 19 2.09C330.38 215.89 343 221 343 221l-4.54 45.2-33.14 1.67s-11.09-37.71-4.54-53.53Z" fill="#407bff"/>
        <path d="M306.11 188.81s1.86-21.94 20.2-14c23 10 4.72 36.74-6.53 31.26s-13.67-17.26-13.67-17.26Z" fill="#263238"/>
        <path style="isolation:isolate" d="m311.25 217.66.53 12.4 4.11-5.83s-1.47 13.71-.61 21.18c0 0 .79-13.39 2.65-21.18l4.37 5.83 6.27-12.32s-10.15-3.65-17.32-.08Z" opacity=".2"/>
        <path d="m316.93 220 9.49-2.68c-5.85-4-2.9-13-2.9-13l-9.4 3.3a27.67 27.67 0 0 1 1 4c1 5.86-1.66 6.33-1.66 6.33Z" fill="#e4897b"/>
        <path style="isolation:isolate" d="M314.12 207.57a27.67 27.67 0 0 1 1 4c4.5-1.81 8.39-7.32 8.39-7.32Z" opacity=".2"/>
        <path d="M320.26 179.45c-8.33-1.84-12 2-14.5 10.46-3.13 10.55-2.44 18.69 8.47 18.71 14.82.02 19.85-26.11 6.03-29.17Z" fill="#e4897b"/>
        <path d="M311.24 190.64a17.72 17.72 0 0 1-3.18 2.91 2.34 2.34 0 0 0 2 1.43Z" fill="#de5753"/>
        <path d="M316.49 191.08c-.17.68.06 1.33.52 1.44s.95-.35 1.12-1-.06-1.32-.52-1.44-.95.32-1.12 1Z" fill="#263238"/>
        <path d="m317.79 190.13-1.33-.94s.43 1.43 1.33.94Z" fill="#263238"/>
        <path d="M308.07 188.86c-.17.68.06 1.33.52 1.44s1-.35 1.12-1-.06-1.32-.52-1.44-.95.32-1.12 1Z" fill="#263238"/>
        <path d="M309.37 187.91 308 187s.47 1.39 1.37.91Z" fill="#263238"/>
        <path d="M321.18 187.77a.37.37 0 0 1-.33-.19 4.09 4.09 0 0 0-3-1.86.38.38 0 0 1-.33-.4.37.37 0 0 1 .4-.33 4.79 4.79 0 0 1 3.62 2.26.36.36 0 0 1-.16.49.45.45 0 0 1-.2.03Z" fill="#263238"/>
        <path d="M311.87 184a.35.35 0 0 1-.19-.06 3.64 3.64 0 0 0-3.15 0 .35.35 0 0 1-.46-.2.36.36 0 0 1 .2-.47 4.31 4.31 0 0 1 3.8.08.36.36 0 0 1 .11.5.37.37 0 0 1-.31.15Z" fill="#263238"/>
        <path d="M326.25 195.49s-2.38-7.7-.62-12.85c0 0-15-10.39-19.52 6.17 0 0 1.67-15.22 16.06-12.38s9.68 23.75.91 28.35c0 0 4.63-4.48 3.17-9.29Z" fill="#263238"/>
        <path d="M324.5 197a3.74 3.74 0 0 1 4.67-2.47c2.52.85 2.57 6.42-4.12 6.27-.97-.07-1.29-1.08-.55-3.8Z" fill="#e4897b"/>
        <path d="M308.55 198.14a21.29 21.29 0 0 1 .44 3.1h.54c2.49.21 3.71-.52 4.31-1.38a3.17 3.17 0 0 0 .52-1.43 3 3 0 0 0 0-.87 11.84 11.84 0 0 1-5 .59c-.48.03-.81-.01-.81-.01Z" fill="#263238"/>
        <path d="m309.4 198.2.15.91c2.34.19 4 0 4.81-.63a3 3 0 0 0 0-.87 11.84 11.84 0 0 1-4.96.59Z" fill="#ffffff"/>
        <path d="M309.53 201.29c2.49.21 3.71-.52 4.31-1.38a8.07 8.07 0 0 0-2.8.31 3 3 0 0 0-1.51 1.07Z" fill="#de5753"/>
        <path d="M320.29 180.12s.32 14.43 9 16.17-.8-18.56-.8-18.56-12.9-8.42-21.5-2.48-.86 13.56-.86 13.56 1.79-10.72 14.16-8.69Z" fill="#263238"/>
        <path d="M323.6 193.33a.25.25 0 0 1-.16-.06c-6.16-4.84-3.12-14.1-3.09-14.19a.26.26 0 0 1 .32-.16.25.25 0 0 1 .15.32c0 .09-2.95 9 2.93 13.64a.24.24 0 0 1 0 .35.22.22 0 0 1-.15.1Z" fill="#263238"/>
        <path d="M331.8 199.25c-1.1 2.94-3.93 4.59-6.32 3.7s-3.43-4-2.33-6.94 3.93-4.59 6.32-3.69 3.43 4 2.33 6.93Z" fill="#407bff"/>
        <path style="isolation:isolate" d="M331.8 199.25c-1.1 2.94-3.93 4.59-6.32 3.7s-3.43-4-2.33-6.94 3.93-4.59 6.32-3.69 3.43 4 2.33 6.93Z" opacity=".4"/>
        <path d="M329 194.44s3.59-16.07-4.46-20.28a22.24 22.24 0 0 1 2.72.53c1 .3 7.47 6.82 4.22 21.26Z" fill="#407bff"/>
        <path style="isolation:isolate" d="M329 194.44s3.59-16.07-4.46-20.28a22.24 22.24 0 0 1 2.72.53c1 .3 7.47 6.82 4.22 21.26Z" opacity=".2"/>
        <path d="m314 203.64-.6-.09.16-1a18.34 18.34 0 0 0 12.69-2.69l.59.8a18.85 18.85 0 0 1-12.84 2.98Z" fill="#407bff"/>
        <path d="m314 203.64-.6-.09.16-1a18.34 18.34 0 0 0 12.69-2.69l.59.8a18.85 18.85 0 0 1-12.84 2.98Z" opacity=".2"/>
        <path d="M331.46 198.85c-.72 1.94-2.6 3-4.17 2.44s-2.27-2.64-1.54-4.58 2.6-3 4.17-2.44 2.27 2.64 1.54 4.58Z" fill="#407bff"/>
        <path d="m313.06 204-.81-.11a1.08 1.08 0 0 1-.93-1.22 1.08 1.08 0 0 1 1.22-.94l.8.11a1.1 1.1 0 0 1 .94 1.22 1.1 1.1 0 0 1-1.22.94Z" fill="#407bff"/>
        <path style="isolation:isolate" d="m313.06 204-.81-.11a1.08 1.08 0 0 1-.93-1.22 1.08 1.08 0 0 1 1.22-.94l.8.11a1.1 1.1 0 0 1 .94 1.22 1.1 1.1 0 0 1-1.22.94Z" opacity=".4"/>
        <path fill="#407bff" d="m323.87 213.85-5.94 5.83 2.38 7.16 8.26-9.1-4.7-3.89z"/>
        <path fill="#407bff" d="m315.28 215.07.96 4.49-3.07 6.35-1.92-8.25 4.03-2.59z"/>
        <path d="m322.6 218.91 3.45-12.63s-1.67-3.14-1.31-3.8 2.16-9.14 3.44-10.06 6.55.65 7.08 1.51-5.05 12.35-5.05 12.35l-2 13.69Z" fill="#e4897b"/>
        <path d="M343 221c9.5 9.72-9.53 31.74-20.44 30.8s.28-40.86.28-40.86l7 1.15s-2.45 17.28-1.68 18.63S339.85 217.77 343 221Z" fill="#407bff"/>
        <path style="isolation:isolate" d="M343 221c9.5 9.72-9.53 31.74-20.44 30.8s.28-40.86.28-40.86l7 1.15s-2.45 17.28-1.68 18.63S339.85 217.77 343 221Z" opacity=".2"/>
        <path fill="#407bff" d="m322.3 209.69-1.03 3.3 9.73.86v-2.88l-8.7-1.28z"/>
        <path style="isolation:isolate" fill="#ffffff" opacity=".6" d="M308.34 236.59v7.44a.79.79 0 0 1-.79.79h-3.94a.79.79 0 0 1-.79-.79v-7.44a.79.79 0 0 1 .79-.79h3.94a.79.79 0 0 1 .79.79z"/>
        <path style="isolation:isolate" opacity=".2" d="M307.63 236.4v6.13h-4.48v-6.13h4.48z"/>
        <path fill="#263238" d="M305.99 233.63v3.61H305v-3.61h.99z"/>
        <path d="M223.71 389.17a8.88 8.88 0 0 1 3.17-.81s3.8-2.23 7.56-10.92h4.23a3.48 3.48 0 0 1 3.26 2.33 1.87 1.87 0 0 1 .12.58 26.08 26.08 0 0 1-.33 3.05 84.35 84.35 0 0 1-2.47 10l-.72-.18 1.3-6.32c.44-2.14-1.82-.07-2.86 2.09s-2.65 4.35-7.33 3.28c-5.45-1.34-7.64-2.12-5.93-3.1Z" fill="#407bff"/>
        <path d="M235.21 375.17s-5.29 11.06-8.33 13.19c0 0 4.08 2.43 8.33-3 5.49-7 6.84-5.05 6.84-5.05a20.1 20.1 0 0 0-.67-3.57c-.82-2.24-6.17-1.57-6.17-1.57Z" fill="#e4897b"/>
        <path d="M281.93 415.52a9.25 9.25 0 0 1 2.89-1.54s3.16-3.07 4.75-12.4l4.11-1a3.49 3.49 0 0 1 3.71 1.5 2.07 2.07 0 0 1 .26.54 23.88 23.88 0 0 1 .41 3 84.1 84.1 0 0 1-.05 10.26h-.74l-.23-6.44c-.09-2.19-1.78.36-2.29 2.71s-1.54 4.84-6.34 4.91c-5.59.06-7.91-.18-6.48-1.54Z" fill="#407bff"/>
        <path d="M289.78 399.19s-2.51 12-5 14.79c0 0 4.54 1.4 7.38-4.87 3.68-8.1 5.45-6.52 5.45-6.52a20 20 0 0 0-1.49-3.31c-1.3-2-6.34-.09-6.34-.09Z" fill="#e4897b"/>
        <path fill="#407bff" d="M387.83 162.22v14.93c0 2.8-2.27 5.07-5.07 5.07h-34.91a5.07 5.07 0 0 1-5.07-5.07v-14.93c0-2.8 2.27-5.07 5.07-5.07h34.91c2.8 0 5.07 2.27 5.07 5.07z"/>
        <path fill="#407bff" d="m354.85 179.36-10.52 14.3 16.97-13.34-6.45-.96z"/>
        <path d="M355.24 169.68a1.48 1.48 0 1 1-1.47-1.47 1.47 1.47 0 0 1 1.47 1.47Z" fill="#ffffff"/>
        <path d="M362.93 169.68a1.48 1.48 0 1 1-1.47-1.47 1.47 1.47 0 0 1 1.47 1.47Z" fill="#ffffff"/>
        <path d="M370.62 169.68a1.48 1.48 0 1 1-1.47-1.47 1.47 1.47 0 0 1 1.47 1.47Z" fill="#ffffff"/>
        <path d="M378.31 169.68a1.48 1.48 0 1 1-1.47-1.47 1.47 1.47 0 0 1 1.47 1.47Z" fill="#ffffff"/>
        <path fill="#407bff" d="m252.234 147.197-7.948 14.756a1.38 1.38 0 0 1-1.87.56l-24.906-13.416a1.38 1.38 0 0 1-.56-1.87l7.948-14.755a1.38 1.38 0 0 1 1.87-.56l24.906 13.416a1.38 1.38 0 0 1 .56 1.87z"/>
        <path style="isolation:isolate" transform="rotate(28.31 234.594 147.185)" fill="#ffffff" opacity=".7" d="M250.13 138.83v16.76a1.38 1.38 0 0 1-1.38 1.38h-28.29a1.38 1.38 0 0 1-1.38-1.38v-16.76c0-.762.618-1.38 1.38-1.38h28.29c.762 0 1.38.618 1.38 1.38z"/>
        <path style="isolation:isolate" d="m224.25 133.69 7.75 14.55a3.18 3.18 0 0 0 3.12 1.66l16.21-1.6-16.5 2.43a3.38 3.38 0 0 1-3.56-1.92Z" opacity=".2"/>
        <path d="M205.34 131c.27-5.56 4.39-16.77 9.4-20.2s1.71 1.32 1.71 1.32 4.75-4.62 7.25-4.48 0 3 0 3 5.15-3.17 7.52-3 0 2.91 0 2.91 4.22-3 5.93-1.59-21.89 17-24.52 23.34-7.56 4.31-7.29-1.3Z" fill="#407bff"/>
        <path style="isolation:isolate" d="M205.34 131c.27-5.56 4.39-16.77 9.4-20.2s1.71 1.32 1.71 1.32 4.75-4.62 7.25-4.48 0 3 0 3 5.15-3.17 7.52-3 0 2.91 0 2.91 4.22-3 5.93-1.59-21.89 17-24.52 23.34-7.56 4.31-7.29-1.3Z" fill="#ffffff" opacity=".4"/>
        <path d="m225.62 130.16 3.15 2a.26.26 0 0 1-.16.48l-3.31-.26.28 2.54a.28.28 0 0 1-.49.22l-1.91-2.14Z" fill="#407bff"/>
        <path style="isolation:isolate" d="m225.62 130.16 3.15 2a.26.26 0 0 1-.16.48l-3.31-.26.28 2.54a.28.28 0 0 1-.49.22l-1.91-2.14Z" fill="#ffffff" opacity=".3"/>
        <path d="M181.37 117.64s4.36-3 10.95-1.06c0 0 1.89 8.71 7.08 11.61 2.85 1.59 9.82 1.45 15.34-.33 6.55-2.12 9.75-2.12 10.94.33s-.13 5-5.14 6.19-9 9.89-18.07 10-13.89-9-11.6-17a24.16 24.16 0 0 0-9.5-9.74Z" fill="#407bff"/>
        <path style="isolation:isolate" d="M181.37 117.64s4.36-3 10.95-1.06c0 0 1.89 8.71 7.08 11.61 2.85 1.59 9.82 1.45 15.34-.33 6.55-2.12 9.75-2.12 10.94.33s-.13 5-5.14 6.19-9 9.89-18.07 10-13.89-9-11.6-17a24.16 24.16 0 0 0-9.5-9.74Z" fill="#ffffff" opacity=".5"/>
        <path d="M223.18 129.84a.45.45 0 1 1-.45-.45.45.45 0 0 1 .45.45Z" fill="#263238"/>
        <path d="M200.36 137.16c-5.37 1.46-17.31 1-22.11-2.7s.72-2 .72-2-5.85-3.09-6.5-5.51 2.88-.94 2.88-.94-4.6-3.91-5.2-6.21 2.76-.9 2.76-.9-4.19-3.08-3.34-5.15 22.94 15.57 29.77 16.12 6.46 5.81 1.02 7.29Z" fill="#407bff"/>
        <path style="isolation:isolate" d="M200.36 137.16c-5.37 1.46-17.31 1-22.11-2.7s.72-2 .72-2-5.85-3.09-6.5-5.51 2.88-.94 2.88-.94-4.6-3.91-5.2-6.21 2.76-.9 2.76-.9-4.19-3.08-3.34-5.15 22.94 15.57 29.77 16.12 6.46 5.81 1.02 7.29Z" fill="#ffffff" opacity=".4"/>
        <path d="M165.16 112.83a.25.25 0 0 1-.12 0c-.93-.33-1.88-.64-2.84-.93a.38.38 0 0 1-.25-.47.38.38 0 0 1 .47-.25c1 .29 1.93.61 2.87 1a.37.37 0 0 1-.13.72Z" fill="#407bff"/>
        <path d="M104.72 194a.38.38 0 0 1-.38-.37.38.38 0 0 1 .37-.38 35.8 35.8 0 0 0 5.93-.58.38.38 0 0 1 .44.3.37.37 0 0 1-.3.44 36.3 36.3 0 0 1-6.06.59Zm-6-.32a51.69 51.69 0 0 1-6-1 .38.38 0 0 1-.29-.45.38.38 0 0 1 .45-.28 55.76 55.76 0 0 0 5.9 1 .38.38 0 0 1 0 .75Zm17.77-2a.37.37 0 0 1-.34-.22.37.37 0 0 1 .19-.5 19.44 19.44 0 0 0 5-3.13.38.38 0 0 1 .5.57 20.54 20.54 0 0 1-5.19 3.25.4.4 0 0 1-.18.05ZM87 191a.25.25 0 0 1-.12 0c-1.9-.63-3.81-1.37-5.66-2.18a.38.38 0 0 1 .31-.69c1.82.8 3.7 1.53 5.59 2.16a.38.38 0 0 1 .23.48.37.37 0 0 1-.35.23Zm-11-4.86a.31.31 0 0 1-.18 0c-1.79-1-3.53-2.08-5.15-3.21a.37.37 0 1 1 .43-.61c1.6 1.11 3.31 2.18 5.09 3.17a.37.37 0 0 1 .14.51.39.39 0 0 1-.4.17Zm49.44-2.29a.31.31 0 0 1-.18 0 .37.37 0 0 1-.14-.51c.31-.54.6-1.1.86-1.68a20.62 20.62 0 0 0 1.3-3.81.39.39 0 0 1 .46-.28.38.38 0 0 1 .27.46 22.33 22.33 0 0 1-1.35 3.94c-.27.6-.57 1.19-.89 1.75a.38.38 0 0 1-.4.16Zm-59.3-4.62a.38.38 0 0 1-.24-.09 43.51 43.51 0 0 1-4.27-4.34.38.38 0 0 1 0-.53.37.37 0 0 1 .52 0 42.93 42.93 0 0 0 4.19 4.25.38.38 0 0 1 0 .53.37.37 0 0 1-.27.21Zm62.18-6.94a.37.37 0 0 1-.37-.38 35 35 0 0 0-.55-5.93.38.38 0 0 1 .3-.44.39.39 0 0 1 .44.31 35.49 35.49 0 0 1 .56 6.06.38.38 0 0 1-.38.38Zm-2-11.86a.38.38 0 0 1-.36-.27c-.51-1.75-1.14-3.61-1.91-5.69a.37.37 0 0 1 .22-.49.38.38 0 0 1 .48.22c.78 2.1 1.41 4 1.93 5.74a.38.38 0 0 1-.25.47Zm-4.14-11.35a.36.36 0 0 1-.33-.21c-.64-1.6-1.51-3.44-2.42-5.39v-.1a.38.38 0 0 1 .68-.32v.1c.92 2 1.78 3.81 2.42 5.38a.39.39 0 0 1-.2.51Zm-5-11a.37.37 0 0 1-.35-.22c-.9-2.09-1.62-3.94-2.19-5.65a.38.38 0 0 1 .23-.48.38.38 0 0 1 .48.24c.56 1.69 1.27 3.52 2.17 5.59a.37.37 0 0 1-.2.49.32.32 0 0 1-.12.08Zm-3.66-11.46a.38.38 0 0 1-.37-.32 20.66 20.66 0 0 1-.26-3.24 14.79 14.79 0 0 1 .26-2.89.38.38 0 0 1 .74.15 14 14 0 0 0-.25 2.74 20.56 20.56 0 0 0 .25 3.13.39.39 0 0 1-.31.43Zm2.61-11.36a.37.37 0 0 1-.24-.08.38.38 0 0 1 0-.53 16 16 0 0 1 4.81-3.81.38.38 0 0 1 .51.15.39.39 0 0 1-.16.51 15.24 15.24 0 0 0-4.58 3.63.37.37 0 0 1-.32.18Zm40.32-4.9h-.08c-1.92-.4-3.91-.74-5.92-1a.37.37 0 0 1-.32-.42.37.37 0 0 1 .42-.32c2 .26 4 .6 6 1a.38.38 0 0 1-.07.75Zm-30-.85a.37.37 0 0 1-.08-.74 39.56 39.56 0 0 1 6-.87.38.38 0 0 1 .4.35.37.37 0 0 1-.35.4 38 38 0 0 0-5.9.85Zm18-.7c-1.74-.12-3.81-.25-6-.29a.38.38 0 0 1-.37-.38.37.37 0 0 1 .38-.37c2.21.05 4.3.17 6 .29a.37.37 0 0 1 .35.4.38.38 0 0 1-.29.4Z" fill="#407bff"/>
        <path d="M58.36 170a.37.37 0 0 1-.33-.19 24.54 24.54 0 0 1-1.35-2.72.37.37 0 0 1 .2-.49.38.38 0 0 1 .49.2 25.88 25.88 0 0 0 1.31 2.64.36.36 0 0 1-.32.56Z" fill="#407bff"/>
        <path fill="#ffffff" d="M179.81 249.04v7.78h-37.96v-7.78h37.96z"/>
        <path style="isolation:isolate" opacity=".1" d="M179.81 249.04v7.78h-37.96v-7.78h37.96z"/>
        <path style="isolation:isolate" opacity=".1" d="M157.84 249.04v7.78h-15.99v-7.78h15.99z"/>
        <path style="isolation:isolate" opacity=".1" d="M141.85 250.16h33.79l-33.79.96v-.96z"/>
        <path style="isolation:isolate" opacity=".1" d="m179.81 251.51-29.29.73h29.29v-.73z"/>
        <path style="isolation:isolate" opacity=".1" d="m143.4 253.69 14.44-.59 21.23.59-21.23.33-14.44-.33z"/>
        <path style="isolation:isolate" opacity=".1" d="M141.85 255.34h25.02l-25.02.59v-.59z"/>
        <path style="isolation:isolate" opacity=".1" d="m179.75 255.93-16.71.31h16.77l-.06-.31z"/>
        <path fill="#ffffff" d="M174.53 241.26v7.78h-37.96v-7.78h37.96z"/>
        <path style="isolation:isolate" opacity=".1" d="M174.53 241.26v7.78h-37.96v-7.78h37.96z"/>
        <path style="isolation:isolate" opacity=".1" d="M152.56 241.26v7.78h-15.99v-7.78h15.99z"/>
        <path style="isolation:isolate" opacity=".1" d="M136.57 242.38h33.79l-33.79.95v-.95z"/>
        <path style="isolation:isolate" opacity=".1" d="m174.53 243.73-29.29.73h29.29v-.73z"/>
        <path style="isolation:isolate" opacity=".1" d="m138.11 245.91 14.44-.6 21.23.6-21.23.33-14.44-.33z"/>
        <path style="isolation:isolate" opacity=".1" d="M136.57 247.55h25.02l-25.02.6v-.6z"/>
        <path style="isolation:isolate" opacity=".1" d="m174.47 248.15-16.71.31h16.77l-.06-.31z"/>
        <path fill="#ffffff" d="M178.86 233.47v7.78H140.9v-7.78h37.96z"/>
        <path style="isolation:isolate" opacity=".1" d="M178.86 233.47v7.78H140.9v-7.78h37.96z"/>
        <path style="isolation:isolate" opacity=".1" d="M156.89 233.47v7.78H140.9v-7.78h15.99z"/>
        <path style="isolation:isolate" opacity=".1" d="M140.9 234.59h33.79l-33.79.96v-.96z"/>
        <path style="isolation:isolate" opacity=".1" d="m178.86 235.94-29.29.73h29.29v-.73z"/>
        <path style="isolation:isolate" opacity=".1" d="m142.45 238.12 14.44-.59 21.23.59-21.23.33-14.44-.33z"/>
        <path style="isolation:isolate" opacity=".1" d="M140.9 239.77h25.02l-25.02.59v-.59z"/>
        <path style="isolation:isolate" opacity=".1" d="m178.81 240.36-16.71.31h16.76l-.05-.31z"/>
        <path fill="#263238" d="m204.15 256.66.98-3.73h40.56l18.67 1.87.71 1.86h-60.92z"/>
        <path style="isolation:isolate" opacity=".4" d="M245.69 252.93v3.73h-41.54l.98-3.73h40.56z"/>
        <path d="M237.54 235.08a3.19 3.19 0 0 1-3.22 3.57H172.2a4 4 0 0 1-3.89-3.57l-3.69-39.77a3.41 3.41 0 0 1 .08-1.16 3.17 3.17 0 0 1 3.14-2.41H230a4 4 0 0 1 3.89 3.57Z" fill="#263238"/>
        <path style="isolation:isolate" d="M234.1 238.65h-61.9a4 4 0 0 1-3.89-3.57l-3.69-39.77a3.41 3.41 0 0 1 .08-1.16h61.9a4 4 0 0 1 3.89 3.57l3.69 39.77a3.41 3.41 0 0 1-.08 1.16Z" opacity=".4"/>
        <path fill="#263238" d="M191.42 214.26h12.85l-3.42 36.79 20.32 3.05v2.56h-42.8v-2.56l8.77-3.05 4.28-36.79z"/>
        <path style="isolation:isolate" fill="#ffffff" opacity=".1" d="m204.27 214.26-9.52 41.82-7.61-.23 4.28-41.59h12.85z"/>
        <path fill="#263238" d="M204.21 417.07h-6.12l-11.01-153.25h8.13l9 153.25z"/>
        <path style="isolation:isolate" fill="#ffffff" opacity=".4" d="M204.22 417.07h-6.13l-10.47-145.63-.54-7.37h8.13l.44 7.37 8.57 145.63z"/>
        <path style="isolation:isolate" opacity=".2" d="M195.65 271.07h-8.03l-.54-7h8.13l.44 7z"/>
        <path fill="#263238" d="M249.17 417.07h-6.12l-1-153.25h8.12l-1 153.25z"/>
        <path style="isolation:isolate" fill="#ffffff" opacity=".5" d="m250.18 264.07-.16 24.73-.84 128.27h-6.13l-.84-128.27-.16-24.73h8.13z"/>
        <path style="isolation:isolate" opacity=".2" d="m250.18 264.07-.16 25h-7.81l-.16-25h8.13z"/>
        <path fill="#263238" d="M314.21 417.07h-6.12l-11.01-153.25h8.13l9 153.25z"/>
        <path style="isolation:isolate" fill="#ffffff" opacity=".5" d="M314.22 417.07h-6.13l-10.47-145.63-.54-7.37h8.13l.44 7.37 8.57 145.63z"/>
        <path style="isolation:isolate" opacity=".2" d="M305.65 271.07h-8.03l-.54-7h8.13l.44 7z"/>
        <path fill="#263238" d="M134.13 417.07h-6.12l9-153.25h8.13l-11.01 153.25z"/>
        <path style="isolation:isolate" fill="#ffffff" opacity=".5" d="m145.14 264.07-.54 7.37-10.47 145.63h-6.12l8.56-145.63.44-7.37h8.13z"/>
        <path style="isolation:isolate" opacity=".2" d="M137.01 264.07h8.13l-.54 7h-8.03l.44-7z"/>
        <path d="M130.57 260h181.08v5.51a2.16 2.16 0 0 1-2.16 2.16H132.73a2.16 2.16 0 0 1-2.16-2.16V260Z" fill="#407bff"/>
        <path style="isolation:isolate" d="M130.57 260h181.08v5.51a2.16 2.16 0 0 1-2.16 2.16H132.73a2.16 2.16 0 0 1-2.16-2.16V260Z" fill="#ffffff" opacity=".6"/>
        <path style="isolation:isolate" opacity=".2" d="M311.65 259.99v3.84H130.57v-3.84h181.08z"/>
        <path d="M315.45 261H126.77a2.16 2.16 0 0 1-2.16-2.16 2.17 2.17 0 0 1 2.16-2.17h188.68a2.17 2.17 0 0 1 2.16 2.17 2.16 2.16 0 0 1-2.16 2.16Z" fill="#407bff"/>
        <path style="isolation:isolate" d="M315.45 261H126.77a2.16 2.16 0 0 1-2.16-2.16 2.17 2.17 0 0 1 2.16-2.17h188.68a2.17 2.17 0 0 1 2.16 2.17 2.16 2.16 0 0 1-2.16 2.16Z" fill="#ffffff" opacity=".6"/>
        <path d="m270.81 250 2.32-3.48a2.5 2.5 0 0 1 2.08-1.11h2.94a2.46 2.46 0 0 1 .72.11l10.49 3.18a2.47 2.47 0 0 1 1.42 1.11l1.51 2.53Z" fill="#407bff"/>
        <path style="isolation:isolate" d="M292.29 252.34 277 250.68l-6.21-.68 2.32-3.48a2.5 2.5 0 0 1 2.08-1.11h2.94a2.58 2.58 0 0 1 .73.11l.23.07 10.25 3.11a2.48 2.48 0 0 1 1.43 1.11Z" opacity=".2"/>
        <path style="isolation:isolate" d="M292.29 252.34 277 250.68l2.09-5.09 10.25 3.11a2.48 2.48 0 0 1 1.43 1.11Z" opacity=".2"/>
        <path d="M299.55 256.33v.33h-32.42l1.2-4.69a4 4 0 0 1 3.89-3h14.38a3.94 3.94 0 0 1 1.4.25l1.8.67 7.14 2.66a4 4 0 0 1 2.61 3.78Z" fill="#407bff"/>
        <path style="isolation:isolate" d="M299.55 256.33v.33h-13.31l.71-5.07a2.13 2.13 0 0 1 2.85-1.69l7.14 2.66a4 4 0 0 1 2.61 3.77Z" opacity=".2"/>
        <path d="m288.31 253.22 4.24-12.71a.93.93 0 0 1 1.32-.54 1 1 0 0 1 .48 1.08l-3.57 13.56s-2.37.96-2.47-1.39Z" fill="#263238"/>
        <path style="isolation:isolate" opacity=".2" d="M270.81 255.61h-1.88l.36-1.85h1.88l-.36 1.85z"/>
        <path style="isolation:isolate" opacity=".2" d="M273.61 255.54h-1.88l.36-1.85h1.88l-.36 1.85z"/>
    </g>
</svg>
