<?xml version="1.0" encoding="UTF-8"?>
<svg data-bbox="0 54.952 500 372.609" viewBox="0 0 500 500" xmlns="http://www.w3.org/2000/svg" data-type="ugc">
    <g>
        <path fill="#ebebeb" d="M500 382.398v.25H0v-.25h500z"/>
        <path fill="#ebebeb" d="M429.708 389.208v.25h-97.597v-.25h97.597z"/>
        <path fill="#ebebeb" d="M335.667 394.986v.25H289v-.25h46.667z"/>
        <path fill="#ebebeb" d="M449.901 398.494v.25h-19.192v-.25h19.192z"/>
        <path fill="#ebebeb" d="M219 395.111v.25h-92.527v-.25H219z"/>
        <path fill="#ebebeb" d="M117.57 395.111v.25H97.667v-.25h19.903z"/>
        <path fill="#ebebeb" d="M90.654 390.888v.25H57.792v-.25h32.862z"/>
        <path d="M237.014 337.8H43.915a5.715 5.715 0 0 1-5.708-5.708V60.66a5.715 5.715 0 0 1 5.708-5.708h193.099a5.715 5.715 0 0 1 5.707 5.708v271.432a5.715 5.715 0 0 1-5.707 5.708zM43.915 55.203a5.464 5.464 0 0 0-5.458 5.458v271.432a5.464 5.464 0 0 0 5.458 5.458h193.099a5.463 5.463 0 0 0 5.457-5.458V60.66a5.464 5.464 0 0 0-5.457-5.458H43.915z" fill="#ebebeb"/>
        <path d="M453.31 337.8H260.212a5.714 5.714 0 0 1-5.707-5.708V60.66a5.715 5.715 0 0 1 5.707-5.708H453.31a5.714 5.714 0 0 1 5.708 5.708v271.432a5.714 5.714 0 0 1-5.708 5.708zM260.212 55.203a5.463 5.463 0 0 0-5.457 5.458v271.432a5.463 5.463 0 0 0 5.457 5.458H453.31a5.464 5.464 0 0 0 5.458-5.458V60.66a5.464 5.464 0 0 0-5.458-5.458H260.212z" fill="#ebebeb"/>
        <path fill="#f0f0f0" d="M391.073 373.195H89.034L71.023 168.31h302.039l18.011 204.885z"/>
        <path fill="#e0e0e0" d="m83.697 379.721 5.337-6.526L71.023 168.31l-5.328 6.627 18.002 204.784z"/>
        <path d="M93.025 365.416 76.434 176.685a3.402 3.402 0 0 1 3.389-3.7h285.859a3.402 3.402 0 0 1 3.389 3.104l16.591 188.731a3.402 3.402 0 0 1-3.389 3.7H96.414a3.403 3.403 0 0 1-3.389-3.104z" fill="#fafafa"/>
        <path fill="#e0e0e0" d="M131.486 373.195H85.979l-3.218 9.203h45.507l3.218-9.203z"/>
        <path fill="#f5f5f5" d="M131.486 373.195h299.223l-3.219 9.203H128.268l3.218-9.203z"/>
        <path fill="#e0e0e0" d="M254.702 373.195h57.358l-.617 6.026h-57.358l.617-6.026z"/>
        <path d="M341.617 154.864h72.47c6.005 39.756-21.767 72.47-61.523 72.47-12.72 0-25.725-3.349-37.701-9.709l26.754-62.761z" fill="#e0e0e0"/>
        <path d="m341.617 154.864 38.197-55.515c9.134 6.802 16.936 15.298 22.856 24.888 5.921 9.59 9.818 20.045 11.416 30.627h-72.469z" fill="#ebebeb"/>
        <path d="m341.617 154.864-10.947-72.47c8.454 0 17.066 1.479 25.446 4.37 8.381 2.891 16.401 7.15 23.697 12.584l-38.196 55.516z" fill="#e6e6e6"/>
        <path d="m341.617 154.864-26.755 62.76c-24.347-12.929-41.809-36.902-45.715-62.76-6.005-39.756 21.767-72.47 61.523-72.47l10.947 72.47z" fill="#f0f0f0"/>
        <path d="M252.155 284.19h64.285c.849 5.618.957 11.212.323 16.638-.634 5.426-2.006 10.639-4.08 15.504l-60.528-32.142z" fill="#ebebeb"/>
        <path d="m252.155 284.19 1.6-63.308c15.277 2.624 29.942 10.412 41.403 21.987 11.461 11.575 18.999 26.212 21.282 41.322h-64.285z" fill="#e0e0e0"/>
        <path d="m252.155 284.19-57.087 21.987c-3.629-7.047-6.065-14.488-7.198-21.987-5.327-35.266 19.309-64.285 54.575-64.285 3.742 0 7.527.327 11.311.977l-1.601 63.308z" fill="#f0f0f0"/>
        <path d="m252.155 284.19 60.528 32.143c-8.469 19.865-27.879 32.142-50.817 32.142-26.962 0-53.749-16.962-66.797-42.298l57.086-21.987z" fill="#ffffff"/>
        <path fill="#f5f5f5" d="M443.889 416.238c0 6.254-86.807 11.323-193.889 11.323-107.082 0-193.889-5.07-193.889-11.323 0-6.254 86.807-11.323 193.889-11.323 107.082 0 193.889 5.07 193.889 11.323z"/>
        <path d="M240.585 239.387H150.51c-5.716 0-10.774-4.677-11.24-10.393l-4.509-55.386c-.465-5.716 3.831-10.393 9.547-10.393h90.075c5.716 0 10.774 4.677 11.239 10.393l4.509 55.386c.467 5.716-3.83 10.393-9.546 10.393z" fill="#ffffff"/>
        <path d="M240.585 239.819H150.51c-5.951 0-11.187-4.84-11.671-10.79l-4.509-55.386c-.235-2.894.681-5.621 2.58-7.682 1.891-2.051 4.519-3.18 7.399-3.18h90.075c5.951 0 11.186 4.841 11.671 10.791l4.509 55.386c.235 2.893-.681 5.62-2.58 7.681-1.891 2.051-4.518 3.18-7.399 3.18zm-96.276-76.171c-2.636 0-5.038 1.031-6.762 2.901-1.733 1.881-2.569 4.375-2.354 7.024l4.509 55.386c.449 5.511 5.297 9.995 10.808 9.995h90.075c2.636 0 5.038-1.031 6.762-2.901 1.733-1.881 2.569-4.375 2.354-7.023l-4.509-55.386c-.449-5.512-5.297-9.996-10.808-9.996h-90.075z" fill="#407bff"/>
        <path d="M216.14 223.216c-3.532 3.846-8.097 6.608-13.24 8.02l-1.491-4.27c11.09-3.031 18.598-13.373 17.597-25.663-.597-7.336-4.109-13.979-9.307-18.786l2.872-3.127c13.002 12.023 14.612 31.805 3.569 43.826z" fill="#e0e0e0"/>
        <path d="m212.572 179.391-2.872 3.127c-5.198-4.807-12.083-7.778-19.419-7.778s-13.736 2.979-18.143 7.786l-3.391-3.135c5.339-5.812 12.963-9.077 21.174-9.077 8.219 0 16.367 3.265 22.651 9.077z" fill="#263238"/>
        <path d="M202.901 231.236c-10.447 2.858-22.129-.208-30.586-8.02-12.992-12.022-14.602-31.803-3.568-43.825l3.391 3.135c-4.416 4.807-6.846 11.441-6.249 18.777 1.194 14.663 14.053 26.555 28.717 26.555 2.373 0 4.66-.312 6.804-.892l1.491 4.27z" fill="#407bff"/>
        <path fill="#407bff" d="M117.888 73.688v.865h-7.222v-.865h7.222z"/>
        <path fill="#407bff" d="M103.666 73.688v.865H87.222v-.865h16.444z"/>
        <path d="M180.144 153.294H90.069c-5.716 0-10.774-4.677-11.24-10.393L74.32 87.515c-.465-5.716 3.831-10.393 9.547-10.393h90.075c5.716 0 10.774 4.677 11.239 10.393l4.509 55.386c.466 5.716-3.83 10.393-9.546 10.393z" fill="#ffffff"/>
        <path d="M180.144 153.727H90.068c-5.951 0-11.187-4.841-11.671-10.791L73.889 87.55c-.236-2.893.68-5.621 2.58-7.681 1.891-2.052 4.519-3.181 7.399-3.181h90.075c5.951 0 11.187 4.841 11.671 10.791l4.509 55.386c.235 2.894-.681 5.621-2.58 7.682-1.891 2.051-4.519 3.18-7.399 3.18zM83.867 77.554c-2.636 0-5.037 1.031-6.762 2.902-1.733 1.88-2.569 4.374-2.353 7.023l4.509 55.386c.449 5.512 5.297 9.996 10.808 9.996h90.076c2.635 0 5.037-1.03 6.762-2.901 1.733-1.881 2.569-4.375 2.353-7.025l-4.509-55.386c-.449-5.512-5.298-9.996-10.808-9.996H83.867z" fill="#407bff"/>
        <path fill="#e0e0e0" d="M82.467 93.014h47.732l-.384-4.715H82.083l.384 4.715z"/>
        <path fill="#407bff" d="M177.931 93.014h-47.732l-.384-4.715h47.732l.384 4.715z"/>
        <path fill="#e0e0e0" d="M83.466 105.29h13.617l-.384-4.716H83.082l.384 4.716z"/>
        <path fill="#407bff" d="M178.93 105.29H97.083l-.384-4.716h81.847l.384 4.716z"/>
        <path fill="#e0e0e0" d="M84.465 117.565h42.488l-.384-4.715H84.081l.384 4.715z"/>
        <path fill="#407bff" d="M179.93 117.565h-52.977l-.384-4.715h52.977l.384 4.715z"/>
        <path fill="#e0e0e0" d="M85.465 129.841h72.512l-.384-4.716H85.081l.384 4.716z"/>
        <path fill="#407bff" d="M180.929 129.841h-22.952l-.384-4.716h22.952l.384 4.716z"/>
        <path fill="#e0e0e0" d="M86.464 142.116h33.538l-.384-4.715H86.08l.384 4.715z"/>
        <path fill="#407bff" d="M181.928 142.116h-61.926l-.384-4.715h61.926l.384 4.715z"/>
        <path d="M303.281 153.294h-90.075c-5.716 0-10.774-4.677-11.239-10.393l-4.509-55.386c-.465-5.716 3.831-10.393 9.547-10.393h90.075c5.716 0 10.774 4.677 11.24 10.393l4.509 55.386c.465 5.716-3.832 10.393-9.548 10.393z" fill="#ffffff"/>
        <path d="M303.281 153.727h-90.075c-5.951 0-11.187-4.841-11.671-10.791l-4.509-55.386c-.235-2.893.681-5.621 2.58-7.682 1.891-2.051 4.518-3.18 7.398-3.18h90.076c5.951 0 11.186 4.841 11.671 10.791l4.509 55.386c.236 2.893-.68 5.621-2.58 7.681-1.89 2.052-4.518 3.181-7.399 3.181zm-96.277-76.173c-2.635 0-5.037 1.03-6.762 2.901-1.733 1.881-2.569 4.375-2.354 7.024l4.509 55.386c.449 5.512 5.298 9.996 10.808 9.996h90.075c2.636 0 5.037-1.031 6.762-2.902 1.733-1.88 2.569-4.374 2.353-7.023l-4.509-55.386c-.449-5.512-5.297-9.996-10.808-9.996h-90.074z" fill="#407bff"/>
        <path fill="#e0e0e0" d="M258.129 142.116h-1.59l-4.382-53.817h1.59l4.382 53.817z"/>
        <path fill="#407bff" d="M260.529 119.753h-10.032l-1.712-21.027h10.032l1.712 21.027z"/>
        <path fill="#e0e0e0" d="M238.385 142.116h-1.59l-4.381-53.817h1.59l4.381 53.817z"/>
        <path fill="#407bff" d="M241.166 124.423h-10.032l-1.501-18.431h10.032l1.501 18.431z"/>
        <path fill="#e0e0e0" d="M218.642 142.116h-1.59l-4.381-53.817h1.589l4.382 53.817z"/>
        <path fill="#263238" d="M220.188 109.259h-10.032l-1.03-12.654h10.032l1.03 12.654z"/>
        <path fill="#e0e0e0" d="M277.872 142.116h-1.59l-4.381-53.817h1.59l4.381 53.817z"/>
        <path fill="#263238" d="M281.244 131.689h-10.032l-2.683-32.963h10.031l2.684 32.963z"/>
        <path fill="#e0e0e0" d="M297.615 142.116h-1.59l-4.381-53.817h1.59l4.381 53.817z"/>
        <path fill="#407bff" d="M301.309 135.639h-10.032l-2.149-26.399h10.032l2.149 26.399z"/>
        <path d="M206.889 324.772h-90.075c-5.716 0-10.774-4.677-11.239-10.393l-4.509-55.386c-.465-5.716 3.831-10.393 9.547-10.393h90.075c5.716 0 10.774 4.677 11.239 10.393l4.509 55.386c.466 5.716-3.831 10.393-9.547 10.393z" fill="#ffffff"/>
        <path d="M206.889 325.204h-90.075c-5.951 0-11.187-4.84-11.671-10.79l-4.509-55.386c-.235-2.893.681-5.621 2.58-7.682 1.891-2.051 4.519-3.18 7.399-3.18h90.075c5.951 0 11.186 4.841 11.671 10.791l4.509 55.386c.236 2.892-.68 5.62-2.579 7.681-1.891 2.051-4.519 3.18-7.4 3.18zm-96.276-76.172c-2.636 0-5.038 1.031-6.762 2.901-1.733 1.881-2.569 4.375-2.354 7.024l4.509 55.386c.449 5.511 5.298 9.995 10.808 9.995h90.075c2.636 0 5.038-1.031 6.762-2.902 1.733-1.88 2.569-4.374 2.353-7.022l-4.509-55.386c-.449-5.512-5.297-9.996-10.808-9.996h-90.074z" fill="#407bff"/>
        <path fill="#407bff" d="m122.799 285.364 19.414 22.43 22.263-34.341 13.768 17.746 3.359-5.182 22.504 26.972-86.432-.033 5.124-27.592z"/>
        <path fill="#e0e0e0" d="m187.609 286.756-9.023 19.321-28.779-45.694-13.552 29.018-4.342-6.895-14.236 30.482 86.427-.043-16.495-26.189z"/>
        <path d="M372.88 159.06c2.409 4.521 4.479 8.989 6.428 13.643 1.9 4.656 3.657 9.386 5.03 14.384.35 1.24.654 2.519.944 3.804.115.436.398 1.828.396 2.712.046.982-.03 1.867-.152 2.713-.542 3.325-1.706 5.873-2.974 8.281-2.591 4.767-5.715 8.717-9.348 12.448a2.829 2.829 0 0 1-4.54-3.271l.071-.135c2.144-4.139 4.267-8.506 5.701-12.65.69-2.053 1.238-4.154 1.235-5.701-.012-.369-.023-.709-.079-.945-.023-.123-.046-.234-.085-.295l-.185-.588a65.01 65.01 0 0 0-1.076-3.241c-1.514-4.342-3.387-8.702-5.332-13.027a390.785 390.785 0 0 0-6.083-12.865l-.042-.085a5.673 5.673 0 0 1 2.571-7.599c2.753-1.362 6.082-.273 7.52 2.417z" fill="#407bff"/>
        <path d="m369.751 213.213-4.772 1.503 5.617 6.577s2.168-1.908 2.949-4.67c.264-.932-.122-1.929-.907-2.496l-.796-.576a2.359 2.359 0 0 0-2.091-.338z" fill="#7f3e3b"/>
        <path fill="#7f3e3b" d="m358.404 218.77 6.019 4.776 6.173-2.254-5.617-6.576-6.575 4.054z"/>
        <path d="M337.85 125.613c-.12.592-.531 1.007-.918.929-.387-.079-.603-.622-.482-1.214.12-.592.531-1.007.918-.929.387.08.603.623.482 1.214z" fill="#263238"/>
        <path d="M337.374 126.632s-2.039 3.14-3.855 4.486c.848 1.19 2.718 1.105 2.718 1.105l1.137-5.591z" fill="#630f0f"/>
        <path d="M340.684 122.768a.354.354 0 0 0 .26-.595c-1.331-1.441-2.947-1.185-3.016-1.173a.355.355 0 0 0 .118.699c.053-.008 1.316-.194 2.378.955.07.076.165.114.26.114z" fill="#263238"/>
        <path d="M354.28 136.381c-1.074 5.476-1.721 13.062 2.109 16.716 0 0-1.497 5.554-11.672 5.554-11.188 0-5.382-4.875-5.382-4.875 4.65-1.443 4.61-6.741 3.546-10.995l11.399-6.4z" fill="#7f3e3b"/>
        <path d="M337.374 152.921s1.631-3.866 3.298-4.532c1.667-.667 12.278-2.411 14.722-.872 2.444 1.539 4.095 6.484 4.095 6.484l-22.115-1.08z" fill="#407bff"/>
        <path d="M348.588 408.979c-.961 0-1.888-.132-2.199-.564-.109-.151-.194-.408.015-.775a.883.883 0 0 1 .562-.415c1.246-.339 3.861 1.152 3.972 1.216a.177.177 0 0 1-.053.327c-.478.096-1.402.211-2.297.211zm-1.187-1.452c-.125 0-.24.013-.343.041a.534.534 0 0 0-.347.248c-.125.22-.08.329-.034.392.348.484 2.24.495 3.632.298-.694-.356-2.033-.979-2.908-.979z" fill="#407bff"/>
        <path d="M350.849 408.772a.172.172 0 0 1-.073-.016c-.904-.405-2.693-2.024-2.556-2.87.032-.199.173-.446.66-.496.364-.037.693.066.983.304.952.782 1.154 2.798 1.162 2.884a.178.178 0 0 1-.176.194zm-1.826-3.034c-.035 0-.071.002-.106.005-.319.032-.339.158-.346.199-.082.508 1.134 1.78 2.056 2.334-.096-.589-.363-1.795-.988-2.308a.94.94 0 0 0-.616-.23z" fill="#407bff"/>
        <path fill="#7f3e3b" d="M359.08 408.595h-7.485l-.746-17.334h7.485l.746 17.334z"/>
        <path d="M351.644 407.728h8.174c.306 0 .571.212.637.511l1.479 6.653a1.089 1.089 0 0 1-1.077 1.331c-2.949-.05-7.209-.223-10.915-.223-4.333 0-4.858.236-9.939.236-3.073 0-3.926-3.107-2.639-3.388 5.855-1.281 7.418-1.418 12.478-4.538.549-.338 1.156-.582 1.802-.582z" fill="#263238"/>
        <path d="M369.791 153.123c7.015 1.608 11.644 20.54 11.644 20.54l-11.713 8.799s-6.39-3.959-8.691-12.917c-2.411-9.387 1.588-18.066 8.76-16.422z" fill="#263238"/>
        <path d="M363.779 166.293c3.81 3.77 6.273 9.721 6.568 15.691l-.621.479s-6.395-3.965-8.698-12.92a25.748 25.748 0 0 1-.367-1.671l3.118-1.579z" opacity=".2"/>
        <path fill="#407bff" d="m395.012 181.295 16.888 42.262-56.826 22.708-16.888-42.262 56.826-22.708z"/>
        <path opacity=".5" fill="#ffffff" d="m394.178 181.628 16.888 42.262-55.991 22.374-16.888-42.261 55.99-22.375z"/>
        <g opacity=".5">
            <path fill="#407bff" d="m348.445 204.24 1.5 3.758-5.3 2.118-1.502-3.757 5.302-2.118z"/>
            <path fill="#407bff" d="m357.198 200.743 1.501 3.757-5.301 2.119-1.502-3.757 5.302-2.119z"/>
            <path fill="#407bff" d="m365.951 197.245 1.501 3.757-5.301 2.119-1.501-3.758 5.301-2.118z"/>
            <path fill="#407bff" d="m374.704 193.747 1.501 3.757-5.301 2.119-1.501-3.758 5.301-2.118z"/>
            <path fill="#407bff" d="m383.457 190.249 1.501 3.757-5.301 2.119-1.501-3.758 5.301-2.118z"/>
            <path fill="#407bff" d="m392.21 186.757 1.5 3.757-5.3 2.119-1.502-3.757 5.301-2.119z"/>
            <path fill="#407bff" d="m350.924 210.443 1.502 3.758-5.302 2.118-1.501-3.758 5.3-2.118z"/>
            <path fill="#407bff" d="m359.677 206.947 1.501 3.758-5.301 2.119-1.502-3.758 5.302-2.119z"/>
            <path fill="#407bff" d="m368.43 203.45 1.501 3.757-5.301 2.119-1.502-3.758 5.302-2.119z"/>
            <path fill="#407bff" d="m377.183 199.951 1.501 3.757-5.301 2.119-1.501-3.757 5.301-2.119z"/>
            <path fill="#407bff" d="m385.936 196.453 1.502 3.758-5.302 2.119-1.501-3.758 5.301-2.119z"/>
            <path fill="#407bff" d="m394.689 192.955 1.501 3.757-5.301 2.119-1.501-3.757 5.301-2.119z"/>
            <path fill="#407bff" d="m353.404 216.65 1.501 3.757-5.301 2.119-1.502-3.757 5.302-2.119z"/>
            <path fill="#407bff" d="m362.157 213.15 1.502 3.757-5.302 2.118-1.501-3.757 5.301-2.118z"/>
            <path fill="#407bff" d="m370.91 209.654 1.501 3.757-5.301 2.119-1.501-3.757 5.301-2.119z"/>
            <path fill="#407bff" d="m379.663 206.156 1.501 3.757-5.301 2.119-1.501-3.757 5.301-2.119z"/>
            <path fill="#407bff" d="m388.415 202.664 1.501 3.757-5.301 2.119-1.501-3.757 5.301-2.119z"/>
            <path fill="#407bff" d="m397.168 199.166 1.502 3.759-5.302 2.118-1.501-3.758 5.301-2.119z"/>
            <path fill="#407bff" d="m355.883 222.854 1.501 3.758-5.301 2.119-1.502-3.758 5.302-2.119z"/>
            <path fill="#407bff" d="m364.636 219.356 1.501 3.758-5.301 2.119-1.502-3.758 5.302-2.119z"/>
            <path fill="#407bff" d="m373.39 215.856 1.5 3.757-5.3 2.119-1.502-3.758 5.301-2.118z"/>
            <path fill="#407bff" d="m382.142 212.36 1.502 3.759-5.302 2.118-1.501-3.758 5.301-2.118z"/>
            <path fill="#407bff" d="m390.895 208.863 1.501 3.757-5.3 2.118-1.502-3.757 5.301-2.118z"/>
            <path fill="#407bff" d="m399.648 205.365 1.501 3.757-5.3 2.118-1.502-3.757 5.301-2.118z"/>
            <path fill="#407bff" d="m358.363 229.057 1.502 3.757-5.302 2.118-1.501-3.757 5.301-2.118z"/>
            <path fill="#407bff" d="m367.116 225.561 1.501 3.758-5.301 2.118-1.502-3.757 5.302-2.119z"/>
            <path fill="#407bff" d="m375.869 222.063 1.501 3.757-5.301 2.119-1.501-3.757 5.301-2.119z"/>
            <path fill="#407bff" d="m384.621 218.569 1.501 3.757-5.301 2.118-1.501-3.757 5.301-2.118z"/>
            <path fill="#407bff" d="m393.374 215.074 1.501 3.758-5.3 2.118-1.503-3.758 5.302-2.118z"/>
            <path fill="#407bff" d="m402.128 211.568 1.501 3.758-5.301 2.119-1.502-3.758 5.302-2.119z"/>
            <path fill="#407bff" d="m360.841 235.264 1.502 3.758-5.301 2.118-1.502-3.758 5.301-2.118z"/>
            <path fill="#407bff" d="m369.595 231.766 1.501 3.758-5.3 2.118-1.503-3.758 5.302-2.118z"/>
            <path fill="#407bff" d="m378.348 228.268 1.501 3.758-5.3 2.118-1.503-3.758 5.302-2.118z"/>
            <path fill="#407bff" d="m387.1 224.77 1.502 3.757-5.301 2.118-1.502-3.757 5.302-2.118z"/>
            <path fill="#407bff" d="m395.854 221.269 1.502 3.757-5.302 2.118-1.501-3.757 5.301-2.118z"/>
            <path fill="#407bff" d="m404.608 217.773 1.501 3.757-5.301 2.119-1.501-3.757 5.301-2.119z"/>
        </g>
        <path d="M390.31 194.701a1.586 1.586 0 1 1 2.946-1.177 1.586 1.586 0 0 1-2.946 1.177z" fill="#ffffff"/>
        <path d="M388.995 216.813a1.586 1.586 0 1 1 2.946-1.177 1.586 1.586 0 0 1-2.946 1.177z" fill="#ffffff"/>
        <path d="M369.01 217.604a1.586 1.586 0 1 1 2.946-1.177 1.586 1.586 0 0 1-2.946 1.177z" fill="#ffffff"/>
        <path d="M356.463 237.01a1.586 1.586 0 1 1 2.946-1.177 1.586 1.586 0 0 1-2.946 1.177z" fill="#ffffff"/>
        <path d="M357.935 237.009a.587.587 0 0 1-.493-.908l12.547-19.405a.587.587 0 0 1 .47-.268l19.454-.771 1.282-21.58a.599.599 0 0 1 .622-.552c.324.02.571.298.552.622l-1.314 22.111a.588.588 0 0 1-.564.552l-19.681.78-12.381 19.149a.585.585 0 0 1-.494.27z" fill="#ffffff"/>
        <path d="M325.461 160.628c-1.53 8.086-2.487 24.692 1.955 57.576h40.034c-.723-5.703-3.586-36.124 2.342-65.081 0 0-6.862-1.377-13.402-1.692-5.115-.247-12.521-.41-17.018.001-1.877.171-3.72.442-5.361.733a10.59 10.59 0 0 0-8.55 8.463z" fill="#263238"/>
        <path d="m331.757 173.08-7.52.6c-.27 9.73.4 23.93 3.18 44.52h.36c4.51-14.83 10.49-36.03 3.98-45.12z" opacity=".2"/>
        <path opacity=".2" d="m350.851 391.266.383 8.934h7.488l-.383-8.934h-7.488z"/>
        <path d="M357.838 128.37c-1.923 7.175-2.684 11.473-7.112 14.456-6.66 4.488-14.953-.663-15.212-8.268-.234-6.845 2.95-17.429 10.65-18.875 7.587-1.425 13.597 5.512 11.674 12.687z" fill="#7f3e3b"/>
        <path d="m341.039 128.417-3.889 1.011 3.619-9.386c-.392-.716-1.423-3.978-.333-7.24a2.13 2.13 0 0 1 1.983-1.46c8.062-.157 16.487 4.369 20.735 7.79a2.088 2.088 0 0 1 .471 2.716c-.93 1.522-2.134 2.687-3.651 4.231-.08 2.628-4.371 14.503-6.746 15.836-2.375 1.333-6.917.792-8.125-1.375-1.209-2.165-5.293-5.04-4.064-12.123z" fill="#263238"/>
        <path d="M344.638 128.566c-.437 1.896-1.63 3.548-2.898 4.547-1.908 1.502-3.401.116-3.322-2.092.071-1.987 1.148-5.162 3.28-5.808 2.1-.637 3.44 1.185 2.94 3.353z" fill="#7f3e3b"/>
        <path d="M413.082 406.395c-.006-.961.12-1.889.55-2.203.15-.11.407-.197.775.01a.88.88 0 0 1 .418.559c.347 1.244-1.127 3.869-1.19 3.98a.177.177 0 0 1-.328-.051c-.099-.477-.219-1.4-.225-2.295zm1.444-1.196a1.296 1.296 0 0 0-.043-.342.54.54 0 0 0-.25-.346c-.221-.124-.33-.077-.392-.032-.482.351-.481 2.243-.275 3.634.352-.697.965-2.04.96-2.914z" fill="#407bff"/>
        <path d="M413.303 408.655c0-.025.005-.049.015-.073.4-.906 2.007-2.706 2.854-2.574.199.031.447.17.5.657.039.363-.061.693-.298.985-.776.957-2.791 1.172-2.876 1.181a.177.177 0 0 1-.195-.176zm3.023-1.846a.942.942 0 0 0-.006-.106c-.034-.319-.16-.338-.202-.345-.508-.079-1.773 1.145-2.321 2.071.588-.1 1.793-.374 2.302-1.003a.942.942 0 0 0 .227-.617z" fill="#407bff"/>
        <path fill="#7f3e3b" d="m413.416 408.704-7.304.517-4.103-17.472 7.304-.517 4.103 17.472z"/>
        <path d="m413.392 407.026-8.142-.721a.653.653 0 0 0-.68.453l-2.059 6.497a1.09 1.09 0 0 0 .955 1.421c2.941.21 7.201.413 10.892.74 4.316.382 1.521.372 6.583.82 3.061.271 4.184-2.748 2.928-3.142-5.72-1.792-6.755-3.03-8.732-5.329-.422-.489-1.102-.682-1.745-.739z" fill="#263238"/>
        <path opacity=".2" d="m402.012 391.754 2.113 9.006 7.307-.517-2.113-9.007-7.307.518z"/>
        <path d="M341.617 218.203s17.217 57.493 23.75 78.834c7.153 23.371 34.372 100.904 34.372 100.904l13.197-2.901s-18.644-66.615-26.375-99.207c-5.939-25.035-19.111-77.63-19.111-77.63h-25.833z" fill="#407bff"/>
        <path d="M397.421 393.86c-.06.007 1.298 5.155 1.298 5.155l15.874-1.705-.072-4.717-17.1 1.267z" fill="#263238"/>
        <path d="M351.154 244.849c9.526 1.256 13.32 34.457 14.747 53.941-.181-.617-.371-1.203-.537-1.756-3.565-11.652-10.316-34.106-15.714-52.079.447-.148.956-.18 1.504-.106z" opacity=".3"/>
        <path d="M327.416 218.203s5.775 55.993 8.262 78.788c2.587 23.71 12.3 101.479 12.3 101.479h12.68s-1.537-76.35-2.048-99.667c-.557-25.419-4.878-80.6-4.878-80.6h-26.316z" fill="#407bff"/>
        <path d="M346.005 393.42c-.059 0 .715 5.264.715 5.264h15.424l.417-4.698-16.556-.566z" fill="#263238"/>
        <path d="M273.266 270.884c6.608 10.482 20.466 13.621 30.948 7.013 10.482-6.609 13.623-20.464 7.014-30.946s-20.465-13.625-30.947-7.017-13.623 20.467-7.015 30.95zm34.959-22.04c5.562 8.823 2.919 20.486-5.904 26.049-8.825 5.564-20.489 2.92-26.051-5.903-5.564-8.826-2.92-20.489 5.905-26.053 8.823-5.562 20.486-2.919 26.05 5.907z" fill="#263238"/>
        <path d="M309.127 262.743c-2.113 9.322-11.384 15.166-20.705 13.053-9.324-2.113-15.169-11.384-13.056-20.706 2.113-9.324 11.384-15.169 20.708-13.056 9.322 2.114 15.167 11.385 13.053 20.709z" opacity=".2" fill="#407bff"/>
        <path d="m311.845 244.229 2.104 3.337a1.085 1.085 0 0 1-1.835 1.157l-2.103-3.337a1.083 1.083 0 1 1 1.834-1.157z" fill="#263238"/>
        <path d="M325.453 234.745a287.496 287.496 0 0 0-7.228 5.088c-2.382 1.739-4.744 3.511-7.036 5.392a1.491 1.491 0 0 0 1.578 2.503c2.686-1.257 5.302-2.624 7.898-4.023a290.13 290.13 0 0 0 7.707-4.328 352.01 352.01 0 0 0 6.454-3.853 1.296 1.296 0 0 0 .419-1.796l-1.733-2.748a1.296 1.296 0 0 0-1.801-.396 351.665 351.665 0 0 0-6.258 4.161z" fill="#263238"/>
        <path d="M336.603 163.429a774.797 774.797 0 0 1-3.901 17.953l-4.147 17.855c-1.341 5.82-2.491 11.724-3.543 17.71l-3.147 18.005-.007.041a2.824 2.824 0 0 1-5.602-.388c-.216-6.25-.12-12.431.23-18.652.372-6.201.946-12.459 1.968-18.682.974-6.119 2.07-12.168 3.242-18.211a508.887 508.887 0 0 1 3.823-18.044 5.674 5.674 0 0 1 6.805-4.25c3 .694 4.888 3.662 4.279 6.663z" fill="#407bff"/>
        <path d="M321.006 233.326a2.075 2.075 0 0 0-1.984-.587l-1.626.388a2.065 2.065 0 0 0-1.568 1.74l-.471 3.61a4.608 4.608 0 0 0 .625 2.977l2.232 3.694a2.513 2.513 0 0 0 2.526.943l2.328-.494a2.514 2.514 0 0 0 1.87-3.233l-.61-1.882c.001 0-.036-3.681-3.322-7.156z" fill="#7f3e3b"/>
        <path d="M344.394 159.958c3.639 9.654-8.948 23.421-8.948 23.421l-15.927-5.268s1.219-13.172 6.747-20.598c6.829-9.173 15.358-4.903 18.128 2.445z" fill="#263238"/>
    </g>
</svg>
