<?xml version="1.0" encoding="UTF-8"?>
<svg data-bbox="0 54.952 500 372.609" viewBox="0 0 500 500" xmlns="http://www.w3.org/2000/svg" data-type="ugc">
    <g>
        <path fill="#ebebeb" d="M500 382.398v.25H0v-.25h500z"/>
        <path fill="#ebebeb" d="M449.901 398.494v.25h-33.122v-.25h33.122z"/>
        <path fill="#ebebeb" d="M331.22 401.208v.25h-8.693v-.25h8.693z"/>
        <path fill="#ebebeb" d="M415.778 389.208v.25h-19.192v-.25h19.192z"/>
        <path fill="#ebebeb" d="M95.652 390.888v.25H52.459v-.25h43.193z"/>
        <path fill="#ebebeb" d="M110.889 390.888v.25h-6.333v-.25h6.333z"/>
        <path fill="#ebebeb" d="M225.147 395.111v.25h-93.676v-.25h93.676z"/>
        <path d="M237.014 337.8H43.915a5.715 5.715 0 0 1-5.708-5.708V60.66a5.715 5.715 0 0 1 5.708-5.708h193.099a5.715 5.715 0 0 1 5.707 5.708v271.432a5.715 5.715 0 0 1-5.707 5.708zM43.915 55.203a5.464 5.464 0 0 0-5.458 5.458v271.432a5.464 5.464 0 0 0 5.458 5.458h193.099a5.463 5.463 0 0 0 5.457-5.458V60.66a5.464 5.464 0 0 0-5.457-5.458H43.915z" fill="#ebebeb"/>
        <path d="M453.31 337.8H260.212a5.714 5.714 0 0 1-5.707-5.708V60.66a5.715 5.715 0 0 1 5.707-5.708H453.31a5.714 5.714 0 0 1 5.708 5.708v271.432a5.714 5.714 0 0 1-5.708 5.708zM260.212 55.203a5.463 5.463 0 0 0-5.457 5.458v271.432a5.463 5.463 0 0 0 5.457 5.458H453.31a5.464 5.464 0 0 0 5.458-5.458V60.66a5.464 5.464 0 0 0-5.458-5.458H260.212z" fill="#ebebeb"/>
        <path fill="#ebebeb" d="M287.479 264.174v92.279H142.411v-92.279h145.068z"/>
        <path fill="#e0e0e0" d="M287.479 264.174v6.253H142.411v-6.253h145.068z"/>
        <path fill="#fafafa" d="M285.322 267.301a1.884 1.884 0 1 1-3.768 0 1.884 1.884 0 0 1 3.768 0z"/>
        <path fill="#fafafa" d="M279.062 267.301a1.884 1.884 0 1 1-3.768 0 1.884 1.884 0 0 1 3.768 0z"/>
        <path fill="#fafafa" d="M272.802 267.301a1.884 1.884 0 1 1-3.768 0 1.884 1.884 0 0 1 3.768 0z"/>
        <path fill="#f5f5f5" d="M368.511 289.958v92.279H223.443v-92.279h145.068z"/>
        <path fill="#e0e0e0" d="M368.511 289.958v6.253H223.443v-6.253h145.068z"/>
        <path d="M366.354 293.085a1.884 1.884 0 1 1-3.768 0 1.884 1.884 0 0 1 3.768 0z" fill="#fafafa"/>
        <path d="M360.094 293.085a1.884 1.884 0 1 1-3.768 0 1.884 1.884 0 0 1 3.768 0z" fill="#fafafa"/>
        <path d="M353.833 293.085a1.884 1.884 0 1 1-3.768 0 1.884 1.884 0 0 1 3.768 0z" fill="#fafafa"/>
        <path d="M265.223 86.885c-.123 0-.244.012-.365.018a14.49 14.49 0 0 0 .248-2.611c0-7.95-6.445-14.395-14.395-14.395-.037 0-.073.005-.11.006-1.9-3.286-5.444-5.503-9.513-5.503-4.234 0-7.903 2.398-9.738 5.906a12.072 12.072 0 0 0-3.073-.409c-6.532 0-11.842 5.178-12.082 11.652-2.689 2.001-4.439 5.194-4.439 8.803 0 6.063 4.915 10.978 10.978 10.978.909 0 1.787-.123 2.632-.331h37.693a7.223 7.223 0 1 0 2.164-14.114z" fill="#ebebeb"/>
        <path d="M380.692 115.271c-.095 0-.187.009-.28.014.119-.649.19-1.316.19-1.999 0-6.087-4.934-11.021-11.021-11.021-.029 0-.056.004-.085.004a8.405 8.405 0 0 0-14.739.309 9.262 9.262 0 0 0-2.353-.313c-5.001 0-9.067 3.965-9.251 8.921a8.385 8.385 0 0 0-3.399 6.74 8.405 8.405 0 0 0 8.405 8.405c.804 0 1.58-.12 2.317-.331h28.346c.585.21 1.212.331 1.869.331a5.53 5.53 0 0 0 .001-11.06z" fill="#ebebeb"/>
        <path d="M152.692 123.271c-.094 0-.187.009-.28.014.119-.649.19-1.316.19-1.999 0-6.087-4.934-11.021-11.021-11.021-.029 0-.056.004-.085.004a8.405 8.405 0 0 0-14.739.309 9.262 9.262 0 0 0-2.353-.313c-5.001 0-9.067 3.965-9.251 8.921a8.385 8.385 0 0 0-3.399 6.74 8.405 8.405 0 0 0 8.405 8.405c.804 0 1.58-.12 2.317-.331h28.346c.585.21 1.212.331 1.869.331a5.53 5.53 0 0 0 .001-11.06z" fill="#ebebeb"/>
        <path d="m78.782 346.781-1.258-1.749a2.434 2.434 0 0 0-1.959-1.025h-8.861a2.13 2.13 0 0 0-1.84 1.025l-1.056 1.749a2.13 2.13 0 0 1-1.84 1.025H56.68c-1.261 0-2.223 1.031-2.15 2.302l1.712 29.591c.075 1.271 1.157 2.301 2.418 2.301h41.906c1.261 0 2.223-1.03 2.149-2.302l-1.712-29.591c-.074-1.271-1.155-2.302-2.416-2.302H80.74a2.43 2.43 0 0 1-1.958-1.024z" fill="#e0e0e0"/>
        <path d="M102.776 350.626H64.384c-1.601 0-3.014 1.287-3.157 2.875l-2.308 25.624c-.143 1.588 1.039 2.875 2.639 2.875H99.95c1.601 0 3.014-1.287 3.157-2.875l2.308-25.624c.144-1.588-1.038-2.875-2.639-2.875z" fill="#f0f0f0"/>
        <path d="m417.714 347.203-1.258-1.75a2.434 2.434 0 0 0-1.958-1.025h-8.861a2.13 2.13 0 0 0-1.84 1.025l-1.055 1.75a2.13 2.13 0 0 1-1.84 1.025h-5.288c-1.261 0-2.223 1.03-2.15 2.302l1.712 29.591c.074 1.271 1.155 2.302 2.416 2.302h41.906c1.261 0 2.223-1.031 2.149-2.302l-1.712-29.591c-.074-1.271-1.155-2.302-2.416-2.302h-17.848a2.433 2.433 0 0 1-1.957-1.025z" fill="#e0e0e0"/>
        <path d="M441.709 351.047h-38.392c-1.601 0-3.014 1.287-3.157 2.875l-2.308 25.625c-.143 1.588 1.039 2.875 2.639 2.875h38.392c1.601 0 3.014-1.287 3.157-2.875l2.308-25.625c.143-1.587-1.039-2.875-2.639-2.875z" fill="#f0f0f0"/>
        <path d="m296.97 323.294-1.258-1.75a2.434 2.434 0 0 0-1.959-1.025h-8.861a2.13 2.13 0 0 0-1.84 1.025l-1.056 1.75a2.13 2.13 0 0 1-1.84 1.025h-5.288c-1.261 0-2.223 1.031-2.15 2.302l1.712 29.591c.074 1.271 1.155 2.302 2.416 2.302h41.906c1.261 0 2.223-1.03 2.15-2.302l-1.712-29.591c-.074-1.271-1.155-2.302-2.416-2.302h-17.848c-.76 0-1.495-.385-1.956-1.025z" fill="#e0e0e0"/>
        <path d="M320.965 327.138h-38.392c-1.601 0-3.014 1.287-3.157 2.875l-2.308 25.625c-.143 1.588 1.039 2.875 2.639 2.875h38.392c1.601 0 3.014-1.287 3.157-2.875l2.308-25.625c.143-1.587-1.038-2.875-2.639-2.875z" fill="#f0f0f0"/>
        <path fill="#f5f5f5" d="M443.889 416.238c0 6.254-86.807 11.323-193.889 11.323-107.082 0-193.889-5.07-193.889-11.323 0-6.254 86.807-11.323 193.889-11.323 107.082 0 193.889 5.07 193.889 11.323z"/>
        <path d="M161.628 305.909h-99.68a2.372 2.372 0 0 1-2.372-2.372V129.386a2.372 2.372 0 0 1 2.372-2.372h99.68a2.372 2.372 0 0 1 2.372 2.372v174.151a2.372 2.372 0 0 1-2.372 2.372z" fill="#407bff"/>
        <path d="M161.628 305.909h-99.68a2.372 2.372 0 0 1-2.372-2.372V129.386a2.372 2.372 0 0 1 2.372-2.372h99.68a2.372 2.372 0 0 1 2.372 2.372v174.151a2.372 2.372 0 0 1-2.372 2.372z" opacity=".7" fill="#ffffff"/>
        <path fill="#407bff" d="M86.334 149.676v2.667H66.667v-2.667h19.667z"/>
        <path fill="#407bff" d="M86.334 155.676v2.667H66.667v-2.667h19.667z"/>
        <path fill="#407bff" d="M156.378 149.676v2.667h-19.667v-2.667h19.667z"/>
        <path fill="#407bff" d="M119.711 137.333V140h-19.667v-2.667h19.667z"/>
        <path fill="#407bff" d="M156.378 132.667v2.667H66.667v-2.667h89.711z"/>
        <path fill="#407bff" d="M156.377 164v2.667H76.673V164h79.704z"/>
        <path fill="#407bff" d="M156.378 169.333V172H66.667v-2.667h89.711z"/>
        <path fill="#407bff" d="M156.378 174.667v2.667H66.667v-2.667h89.711z"/>
        <path fill="#407bff" d="M156.378 180v2.667H66.667V180h89.711z"/>
        <path fill="#407bff" d="M146.371 185.333V188H66.667v-2.667h79.704z"/>
        <path fill="#407bff" d="M156.377 195.02v2.667H76.673v-2.667h79.704z"/>
        <path fill="#407bff" d="M156.378 200.353v2.667H66.667v-2.667h89.711z"/>
        <path fill="#407bff" d="M156.378 205.686v2.667H66.667v-2.667h89.711z"/>
        <path fill="#407bff" d="M156.378 211.02v2.667H66.667v-2.667h89.711z"/>
        <path fill="#407bff" d="M146.371 216.353v2.667H66.667v-2.667h79.704z"/>
        <path fill="#407bff" d="M156.377 226.039v2.667H76.673v-2.667h79.704z"/>
        <path fill="#407bff" d="M156.378 231.372v2.667H66.667v-2.667h89.711z"/>
        <path fill="#407bff" d="M156.378 236.706v2.667H66.667v-2.667h89.711z"/>
        <path fill="#407bff" d="M156.378 242.039v2.667H66.667v-2.667h89.711z"/>
        <path fill="#407bff" d="M146.371 247.372v2.667H66.667v-2.667h79.704z"/>
        <path fill="#407bff" d="M156.377 258.059v2.667H76.673v-2.667h79.704z"/>
        <path fill="#407bff" d="M156.378 263.392v2.667H66.667v-2.667h89.711z"/>
        <path fill="#407bff" d="M156.378 268.726v2.667H66.667v-2.667h89.711z"/>
        <path fill="#407bff" d="M156.378 274.059v2.667H66.667v-2.667h89.711z"/>
        <path fill="#407bff" d="M146.371 279.392v2.667H66.667v-2.667h79.704z"/>
        <path fill="#407bff" d="M156.378 294.767v2.667h-19.667v-2.667h19.667z"/>
        <g opacity=".2">
            <path fill="#ffffff" d="M86.334 149.676v2.667H66.667v-2.667h19.667z"/>
            <path fill="#ffffff" d="M86.334 155.676v2.667H66.667v-2.667h19.667z"/>
            <path fill="#ffffff" d="M156.378 149.676v2.667h-19.667v-2.667h19.667z"/>
            <path fill="#ffffff" d="M119.711 137.333V140h-19.667v-2.667h19.667z"/>
            <path fill="#ffffff" d="M156.378 132.667v2.667H66.667v-2.667h89.711z"/>
            <path fill="#ffffff" d="M156.377 164v2.667H76.673V164h79.704z"/>
            <path fill="#ffffff" d="M156.378 169.333V172H66.667v-2.667h89.711z"/>
            <path fill="#ffffff" d="M156.378 174.667v2.667H66.667v-2.667h89.711z"/>
            <path fill="#ffffff" d="M156.378 180v2.667H66.667V180h89.711z"/>
            <path fill="#ffffff" d="M146.371 185.333V188H66.667v-2.667h79.704z"/>
            <path fill="#ffffff" d="M156.377 195.02v2.667H76.673v-2.667h79.704z"/>
            <path fill="#ffffff" d="M156.378 200.353v2.667H66.667v-2.667h89.711z"/>
            <path fill="#ffffff" d="M156.378 205.686v2.667H66.667v-2.667h89.711z"/>
            <path fill="#ffffff" d="M156.378 211.02v2.667H66.667v-2.667h89.711z"/>
            <path fill="#ffffff" d="M146.371 216.353v2.667H66.667v-2.667h79.704z"/>
            <path fill="#ffffff" d="M156.377 226.039v2.667H76.673v-2.667h79.704z"/>
            <path fill="#ffffff" d="M156.378 231.372v2.667H66.667v-2.667h89.711z"/>
            <path fill="#ffffff" d="M156.378 236.706v2.667H66.667v-2.667h89.711z"/>
            <path fill="#ffffff" d="M156.378 242.039v2.667H66.667v-2.667h89.711z"/>
            <path fill="#ffffff" d="M146.371 247.372v2.667H66.667v-2.667h79.704z"/>
            <path fill="#ffffff" d="M156.377 258.059v2.667H76.673v-2.667h79.704z"/>
            <path fill="#ffffff" d="M156.378 263.392v2.667H66.667v-2.667h89.711z"/>
            <path fill="#ffffff" d="M156.378 268.726v2.667H66.667v-2.667h89.711z"/>
            <path fill="#ffffff" d="M156.378 274.059v2.667H66.667v-2.667h89.711z"/>
            <path fill="#ffffff" d="M146.371 279.392v2.667H66.667v-2.667h79.704z"/>
            <path fill="#ffffff" d="M156.378 294.767v2.667h-19.667v-2.667h19.667z"/>
        </g>
        <path d="M166.631 315.433h-55.607a2.37 2.37 0 0 1-2.369-2.369v-45.395a2.37 2.37 0 0 1 2.369-2.369h55.607a2.37 2.37 0 0 1 2.369 2.369v45.395a2.369 2.369 0 0 1-2.369 2.369z" opacity=".1"/>
        <path d="M174.074 324.921h-55.607a2.37 2.37 0 0 1-2.369-2.369v-45.395a2.37 2.37 0 0 1 2.369-2.369h55.607a2.37 2.37 0 0 1 2.369 2.369v45.395a2.37 2.37 0 0 1-2.369 2.369z" fill="#407bff"/>
        <path d="M174.074 324.921h-55.607a2.37 2.37 0 0 1-2.369-2.369v-45.395a2.37 2.37 0 0 1 2.369-2.369h55.607a2.37 2.37 0 0 1 2.369 2.369v45.395a2.37 2.37 0 0 1-2.369 2.369z" opacity=".3" fill="#ffffff"/>
        <path fill="#407bff" d="M134 304v6h-12v-6h12z"/>
        <path fill="#407bff" d="M169 304v6h-34v-6h34z"/>
        <path fill="#407bff" d="M134 296v7h-12v-7h12z"/>
        <path fill="#407bff" d="M134 289v6h-12v-6h12z"/>
        <path fill="#407bff" d="M169 296v7h-34v-7h34z"/>
        <path fill="#407bff" d="M169 311v7h-34v-7h34z"/>
        <path fill="#407bff" d="M169 289v6h-34v-6h34z"/>
        <path fill="#407bff" d="M134 311v7h-12v-7h12z"/>
        <path fill="#407bff" d="M134 281v7h-12v-7h12z"/>
        <path fill="#407bff" d="M169 281v7h-34v-7h34z"/>
        <path d="M183.901 228.752h-55.607a2.37 2.37 0 0 1-2.369-2.369v-45.395a2.37 2.37 0 0 1 2.369-2.369h55.607a2.37 2.37 0 0 1 2.369 2.369v45.395a2.369 2.369 0 0 1-2.369 2.369z" opacity=".1"/>
        <path d="M195.074 226.383h-55.607a2.37 2.37 0 0 1-2.369-2.369V178.62a2.37 2.37 0 0 1 2.369-2.369h55.607a2.37 2.37 0 0 1 2.369 2.369v45.395a2.37 2.37 0 0 1-2.369 2.368z" fill="#407bff"/>
        <path d="M195.074 226.383h-55.607a2.37 2.37 0 0 1-2.369-2.369V178.62a2.37 2.37 0 0 1 2.369-2.369h55.607a2.37 2.37 0 0 1 2.369 2.369v45.395a2.37 2.37 0 0 1-2.369 2.368z" opacity=".3" fill="#ffffff"/>
        <path fill="#407bff" d="M191 183v7h-15v-7h15z"/>
        <path fill="#407bff" d="M175 183v7h-15v-7h15z"/>
        <path fill="#407bff" d="M175 190v30h-15v-30h15z"/>
        <path fill="#407bff" d="M191 190v30h-15v-30h15z"/>
        <path fill="#407bff" d="M159 183v7h-15v-7h15z"/>
        <path fill="#407bff" d="M159 190v30h-15v-30h15z"/>
        <path d="M202.804 281.367h-55.607a2.37 2.37 0 0 1-2.369-2.369v-45.395a2.37 2.37 0 0 1 2.369-2.369h55.607a2.37 2.37 0 0 1 2.369 2.369v45.395a2.37 2.37 0 0 1-2.369 2.369z" opacity=".1"/>
        <path d="M223.074 278.152h-55.607a2.37 2.37 0 0 1-2.369-2.369v-45.395a2.37 2.37 0 0 1 2.369-2.369h55.607a2.37 2.37 0 0 1 2.369 2.369v45.395a2.37 2.37 0 0 1-2.369 2.369z" fill="#407bff"/>
        <path d="M223.074 278.152h-55.607a2.37 2.37 0 0 1-2.369-2.369v-45.395a2.37 2.37 0 0 1 2.369-2.369h55.607a2.37 2.37 0 0 1 2.369 2.369v45.395a2.37 2.37 0 0 1-2.369 2.369z" opacity=".3" fill="#ffffff"/>
        <path fill="#407bff" d="M219 235v17h-23v-17h23z"/>
        <path fill="#407bff" d="M195 235v17h-23v-17h23z"/>
        <path fill="#407bff" d="M195 253v19h-23v-19h23z"/>
        <path fill="#407bff" d="M219 253v19h-23v-19h23z"/>
        <path d="M225 230.39V264h-20.73c-2.6 0-4.27-1.86-4.27-4.46V228h23.07c1.31 0 1.93 1.08 1.93 2.39z" opacity=".2"/>
        <path d="M204.067 181.62H148.46a2.37 2.37 0 0 1-2.369-2.369v-45.395a2.37 2.37 0 0 1 2.369-2.369h55.607a2.37 2.37 0 0 1 2.369 2.369v45.395a2.368 2.368 0 0 1-2.369 2.369z" opacity=".1"/>
        <path d="M214.074 172.615h-55.607a2.37 2.37 0 0 1-2.369-2.369v-45.395a2.37 2.37 0 0 1 2.369-2.369h55.607a2.37 2.37 0 0 1 2.369 2.369v45.395a2.37 2.37 0 0 1-2.369 2.369z" fill="#407bff"/>
        <path d="M214.074 172.615h-55.607a2.37 2.37 0 0 1-2.369-2.369v-45.395a2.37 2.37 0 0 1 2.369-2.369h55.607a2.37 2.37 0 0 1 2.369 2.369v45.395a2.37 2.37 0 0 1-2.369 2.369z" opacity=".3" fill="#ffffff"/>
        <path fill="#407bff" d="M199 129v5h-19v-5h19z"/>
        <path fill="#407bff" d="M189 135v31h-9v-31h9z"/>
        <path fill="#407bff" d="M210 129v5h-10v-5h10z"/>
        <path fill="#407bff" d="M210 135v31h-10v-31h10z"/>
        <path fill="#407bff" d="M199 135v31h-9v-31h9z"/>
        <path fill="#407bff" d="M179 135v31h-16v-31h16z"/>
        <path fill="#407bff" d="M179 129v5h-16v-5h16z"/>
        <path d="M380.092 317.194h-68.088a4.706 4.706 0 0 1-4.706-4.706V244.4a4.706 4.706 0 0 1 4.706-4.706h68.088a4.706 4.706 0 0 1 4.706 4.706v68.088a4.706 4.706 0 0 1-4.706 4.706z" fill="#407bff"/>
        <path opacity=".25" fill="#ffffff" d="M375 249.819v57.25h-57.577v-57.25H375z"/>
        <path opacity=".25" fill="#ffffff" d="m317.423 307 14.659-12.052 4.792 3.859 15.178-12.82 7.455 7.34L375 280.333V307h-57.577z"/>
        <path opacity=".25" fill="#ffffff" d="m317.423 307 12.41-23.282 14.502 2.265 10.832-14.158 11.166 2.004 8.667-8.662V307h-57.577z"/>
        <path opacity=".25" fill="#ffffff" d="m317.423 307 28.625-3.535 9.285-4.649 10 1.009L375 295v12h-57.577z"/>
        <path d="M377 240v8.04c0 2.6-2.44 4.96-5.04 4.96H316v23.48c0 2.6-2.36 4.52-4.96 4.52H307v-36.6c0-2.6 2.4-4.4 5-4.4h65z" opacity=".2"/>
        <path d="M285.705 251.383h-68.088a4.706 4.706 0 0 1-4.706-4.706v-68.088a4.706 4.706 0 0 1 4.706-4.706h68.088a4.706 4.706 0 0 1 4.706 4.706v68.088c0 2.6-2.107 4.706-4.706 4.706z" fill="#407bff"/>
        <path d="M261.504 195h-20.007a.871.871 0 0 1-.871-.871v-11.292c0-.481.39-.871.871-.871h20.007c.481 0 .871.39.871.871v11.292c0 .481-.39.871-.871.871z" opacity=".8" fill="#ffffff"/>
        <path d="M246.241 219.95h-15.848a.871.871 0 0 1-.871-.871v-8.207c0-.481.39-.871.871-.871h15.848c.481 0 .871.39.871.871v8.207c0 .481-.39.871-.871.871z" opacity=".6" fill="#ffffff"/>
        <path d="M272.93 219.95h-15.848a.871.871 0 0 1-.871-.871v-8.207c0-.481.39-.871.871-.871h15.848c.481 0 .871.39.871.871v8.207c0 .481-.39.871-.871.871z" opacity=".6" fill="#ffffff"/>
        <path d="M256.52 239.554h-7.49a.871.871 0 0 1-.871-.871v-6.756c0-.481.39-.871.871-.871h7.49c.481 0 .871.39.871.871v6.756c0 .48-.39.871-.871.871z" opacity=".4" fill="#ffffff"/>
        <path d="M268.245 239.554h-7.49a.871.871 0 0 1-.871-.871v-6.756c0-.481.39-.871.871-.871h7.49c.481 0 .871.39.871.871v6.756c0 .48-.39.871-.871.871z" opacity=".4" fill="#ffffff"/>
        <path d="M279.971 239.554h-7.49a.871.871 0 0 1-.871-.871v-6.756c0-.481.39-.871.871-.871h7.49c.481 0 .871.39.871.871v6.756c0 .48-.39.871-.871.871z" opacity=".4" fill="#ffffff"/>
        <path d="M229.387 239.554h-7.49a.871.871 0 0 1-.871-.871v-6.756c0-.481.39-.871.871-.871h7.49c.481 0 .871.39.871.871v6.756a.87.87 0 0 1-.871.871z" opacity=".4" fill="#ffffff"/>
        <path d="M242.114 239.554h-7.49a.871.871 0 0 1-.871-.871v-6.756c0-.481.39-.871.871-.871h7.49c.481 0 .871.39.871.871v6.756c0 .48-.39.871-.871.871z" opacity=".4" fill="#ffffff"/>
        <g opacity=".3">
            <path fill="#ffffff" d="M264 210h1v-7h-13v-8h-1v8h-13v7h1v-6h25v6z"/>
            <path fill="#ffffff" d="M238 226h-13v5h1v-4h12v4h1v-11h-1v6z"/>
            <path fill="#ffffff" d="M265 227v-7h-1v7h-12v4h1v-3h11v3h1v-3h11v3h1v-4h-12z"/>
        </g>
        <path d="M290 178.59V201h-54.93c-2.6 0-5.07-2.36-5.07-4.96V174h55.71c2.59 0 4.29 1.99 4.29 4.59z" opacity=".2"/>
        <path d="M391.973 217.686h-68.088a4.706 4.706 0 0 1-4.706-4.706v-68.088a4.706 4.706 0 0 1 4.706-4.706h68.088a4.706 4.706 0 0 1 4.706 4.706v68.088a4.706 4.706 0 0 1-4.706 4.706z" fill="#407bff"/>
        <path opacity=".25" fill="#ffffff" d="M386.717 150.311v57.25H329.14v-57.25h57.577z"/>
        <path opacity=".35" fill="#ffffff" d="M340.815 185.504v14.866h-5.798v-14.866h5.798z"/>
        <path opacity=".35" fill="#ffffff" d="M340.815 185.504v22.057h-5.798v-22.057h5.798z"/>
        <path opacity=".35" fill="#ffffff" d="M350.821 175.083v21.89h-5.798v-21.89h5.798z"/>
        <path opacity=".35" fill="#ffffff" d="M350.821 175.083v32.478h-5.798v-32.478h5.798z"/>
        <path opacity=".35" fill="#ffffff" d="M360.828 181.492v17.57h-5.798v-17.57h5.798z"/>
        <path opacity=".35" fill="#ffffff" d="M360.828 181.492v26.069h-5.798v-26.069h5.798z"/>
        <path opacity=".35" fill="#ffffff" d="M370.834 172.492v23.636h-5.798v-23.636h5.798z"/>
        <path opacity=".35" fill="#ffffff" d="M370.834 172.492v35.069h-5.798v-35.069h5.798z"/>
        <path opacity=".35" fill="#ffffff" d="M380.84 158.742v32.903h-5.798v-32.903h5.798z"/>
        <path opacity=".35" fill="#ffffff" d="M380.84 158.742v48.819h-5.798v-48.819h5.798z"/>
        <path d="M340 140v42.4c0 2.6-2.23 4.6-4.83 4.6H319v-42.11c0-2.6 2.29-4.89 4.88-4.89H340z" opacity=".2"/>
        <g>
            <path d="M328.066 164.535h-68.088a4.706 4.706 0 0 1-4.706-4.706V91.741a4.706 4.706 0 0 1 4.706-4.706h68.088a4.706 4.706 0 0 1 4.706 4.706v68.088a4.706 4.706 0 0 1-4.706 4.706z" fill="#407bff"/>
            <path opacity=".25" fill="#ffffff" d="M298.101 100.698c13.855 2.249 23.263 15.303 21.014 29.157-2.248 13.855-15.302 23.263-29.157 21.014-13.855-2.248-23.263-15.302-21.014-29.157 2.248-13.854 15.302-23.263 29.157-21.014z"/>
            <path d="m294.022 125.785 24.967 4.747c-2.271 11.943-12.809 20.667-24.967 20.667-13.942 0-25.414-11.472-25.414-25.414 0-13.942 11.472-25.414 25.414-25.414v25.414z" opacity=".25" fill="#ffffff"/>
            <path d="m294.022 125.785-.075 25.414c-13.914-.041-25.34-11.501-25.34-25.414 0-13.942 11.472-25.414 25.414-25.414v25.414z" opacity=".25" fill="#ffffff"/>
            <path d="m294.022 125.785-13.396-21.597a25.414 25.414 0 0 1 13.314-3.817l.082 25.414z" opacity=".25" fill="#ffffff"/>
        </g>
        <g>
            <path d="M428.25 176s13.5 23.662 14.5 29.331-11.5 41.919-11.5 41.919 2.75 9.543-.25 11.147c-3 1.603-8.242 4.853-8.996 2.103s0-11.82 0-11.82l2.254-1.93s7.968-37.878 7.98-39.189c.012-1.311-14.511-23.649-14.511-23.649L428.25 176z" fill="#e4897b"/>
            <path fill="#e4897b" d="m378.48 407.03-8.11.85-.41-4.7-1.11-12.79 8.11-.86 1.23 14.13.29 3.37z"/>
            <path fill="#e4897b" d="M418.96 406h-7.86l-.07-1.78-.01-.22-.4-11.4-.01-.23-.16-4.37h7.87l.64 18z"/>
            <path opacity=".2" d="m376.96 389.53 1.23 14.13-8.23-.48-1.11-12.79 8.11-.86z"/>
            <path opacity=".2" d="M418.91 405h-.01l-7.87-1h-.01l-.41-11h.01l7.88.63.4 11.025.01.345z"/>
            <path d="m437.28 187.33-13.53 9.2-.26-.33-8.21-10.7-5.03-6.56 7.43-20.2c8.57 3.26 19.6 28.59 19.6 28.59z" fill="#263238"/>
            <path d="m423.49 196.2-8.21-10.7 6.59-10.11s4.03 10.44 1.62 20.81z" opacity=".2"/>
            <path d="M410.01 405.527h9.55a.69.69 0 0 1 .67.54l1.55 7a1.16 1.16 0 0 1-1.15 1.4c-3.09-.05-5.34-.24-9.22-.24-2.39 0-9.6.25-12.9.25-3.3 0-3.73-3.26-2.38-3.56 6.06-1.32 10.62-3.15 12.56-4.89a1.9 1.9 0 0 1 1.32-.5z" fill="#263238"/>
            <path d="M369.51 405.277h9.55a.69.69 0 0 1 .67.54l1.55 7a1.16 1.16 0 0 1-1.15 1.4c-3.09-.05-5.34-.24-9.22-.24-2.39 0-9.6.25-12.9.25-3.3 0-3.73-3.26-2.38-3.56 6.06-1.32 10.62-3.15 12.56-4.89a1.9 1.9 0 0 1 1.32-.5z" fill="#263238"/>
            <path d="M368.105 402h11.53s-.94-99.255 11.53-132.775c.88 11.08 1.87 22.577 2.84 32.158.61 5.93 1.21 11.024 1.78 14.904 3.63 25 12.79 86.714 12.79 86.714h11.39s-1.35-59.135-2.7-83.705c-1.49-26.67-2.13-85.295-2.19-90.295h-41.72C369.385 250 359.205 334 368.105 402z" fill="#407bff"/>
            <path d="M368.105 402h11.53s-.94-99.255 11.53-132.775c.88 11.08 1.87 22.577 2.84 32.158.61 5.93 1.21 11.024 1.78 14.904 3.63 25 12.79 86.714 12.79 86.714h11.39s-1.35-59.135-2.7-83.705c-1.49-26.67-2.13-85.295-2.19-90.295h-41.72C369.385 250 359.205 334 368.105 402z" opacity=".6" fill="#ffffff"/>
            <path d="M388.505 140.872c.098.382.207.755.339 1.112a10.898 10.898 0 0 0 3.89 5.182c.451.33.929.624 1.423.88 2.612 1.345 5.714 1.596 8.517.377 1.147-.485 2.257-1.231 3.251-2.249 3.939-3.978 3.834-8.57 4.278-16.345a10.582 10.582 0 0 0-.795-4.891c-2.255-5.433-8.494-8-13.917-5.743-7.627 3.109-8.672 14.677-6.986 21.677z" fill="#e4897b"/>
            <path d="M392.733 147.165c.451.33.929.624 1.423.88 2.612 1.345 5.714 1.596 8.517.377-.547-1.502-1.389-2.639-1.389-2.639s-4.646-.715-8.551 1.382z" opacity=".2"/>
            <path d="M408.38 157.25c-3.83 3.48-13.213 2.193-13.213 2.193s-5.857-1.603-4.627-3.433c3.45-.57 5.12-2.18 5.81-4.24.4-1.2.46-2.55.35-3.94-.05-.73-.16-1.47-.29-2.2l11.6-8.59c-1.52 5.67-3.38 16.1.37 20.21z" fill="#e4897b"/>
            <path d="M392.227 124.392c.084.218-.119.666-.264 1.182-.28.996-.42 2.033-.423 3.068-.011 3.447 1.603 6.59 4.024 8.981a49.24 49.24 0 0 0 3.5 9.105c.147.291.306.596.579.775.322.211.734.205 1.118.192l6.776-.235c.4-.014.858-.057 1.094-.38.129-.177.163-.405.248-.607.614-1.464 3.195-.77 4.085-2.085.362-.535.314-1.242.524-1.853.557-1.623 2.857-2.468 2.773-4.182-.049-.996-.959-1.903-.684-2.861.27-.939 1.501-1.259 1.961-2.121.47-.88-.022-1.952-.551-2.798-.53-.846-1.131-1.811-.859-2.771.108-.381.345-.709.521-1.063.665-1.332.382-3.075-.671-4.128-.423-.424-.963-.755-1.241-1.285-.459-.877-.07-2.051-.628-2.869-.553-.811-1.714-.847-2.694-.789-.979.058-2.134.05-2.718-.738-.418-.564-.402-1.376-.863-1.904-.654-.748-1.859-.539-2.781-.17-.922.369-1.956.839-2.858.425-.622-.285-1.002-.927-1.568-1.311-.791-.536-1.937-.472-2.663.149-.504.43-.807 1.081-1.374 1.424-.796.482-1.809.205-2.714-.011s-2.015-.29-2.607.427c-.843 1.021.068 2.788-.791 3.795-.493.578-1.386.654-1.92 1.194-.736.745-.282 2.249.743 2.463.302.063.69.078.801.365.046.119.025.254.06.376.111.386.656.41 1.035.277.685-.241.959-.22 1.03-.037z" fill="#263238"/>
            <path d="M397.152 134.349c-.465 1.692-1.395 2.934-2.588 3.454-1.584.672-2.623-1.559-2.395-3.897.217-2.072 1.29-4.988 2.984-4.603 1.696.386 2.551 2.955 1.999 5.046z" fill="#e4897b"/>
            <path d="M391.165 269.18c.88 11.08 1.87 22.6 2.84 32.18 1.42-13.83 3.16-23.69 3.16-23.69s1.63-1.34 6.11-8.49c4.48-7.16 0-20.5 0-20.5.14 12.4-12.11 20.5-12.11 20.5z" opacity=".2"/>
            <path d="M417 237.33 369.33 235s1.37-26.27 6.34-51.75c1.38-7.04 3.02-14.01 5-20.36 1.1-3.57 2.31-6.94 3.63-10.01 0 0 29.63 2.45 35.67 7.12 6.03 4.67-3.3 53-2.97 77.33z" fill="#263238"/>
            <path d="M392.138 153.677s4.529-3.555 13.029-3.366 9.333 3.366 9.333 3.366 9.333 4.656 2 12.323-21.772-11.761-21.772-11.761l-2.59-.562z" fill="#263238"/>
            <path d="M392.138 153.677s4.529-3.555 13.029-3.366 9.333 3.366 9.333 3.366 9.333 4.656 2 12.323-21.772-11.761-21.772-11.761l-2.59-.562z" opacity=".25" fill="#ffffff"/>
            <path d="M385.05 163.5s-2.07 13.53-9.38 19.75c1.38-7.04 3.02-14.01 5-20.36l4.38.61z" opacity=".2"/>
            <path d="M378.941 153.06s-29.608-6.055-33.775-7.641C341 143.833 319 122.785 319 122.785l-4.82 3.643s16.485 21.405 24.736 27.572c8.251 6.167 37.126 15.492 37.126 15.492l2.899-16.432z" fill="#e4897b"/>
            <path d="m385.122 153.06-25.789-4.712-.667 17.819L377.941 174s12.152-12.193 7.181-20.94z" fill="#263238"/>
            <path d="M319 122.785c-2.375-2.704-11.02-8.559-12.27-9.059s-3.113 7.149-2.738 8.149 4.613 3.125 6.748 3.375 4.425 2.442 4.425 2.442l3.835-4.907z" fill="#e4897b"/>
            <path fill="#263238" d="m357.929 147.699 2.834.649-1.292 18.145-2.709-.993 1.167-17.801z"/>
            <path opacity=".25" fill="#ffffff" d="m357.929 147.699 2.834.649-1.292 18.145-2.709-.993 1.167-17.801z"/>
            <path fill="#263238" d="m422.004 196.376 15.28-10.348 1.049 2.639-14.566 9.166-1.763-1.457z"/>
            <path opacity=".25" fill="#ffffff" d="m422.004 196.376 15.28-10.348 1.049 2.639-14.566 9.166-1.763-1.457z"/>
            <path fill="#407bff" d="m366.813 398.75.562 3.25H381v-3l-14.187-.25z"/>
            <path fill="#407bff" d="m407.267 400 1.308 3H420l.75-3h-13.483z"/>
        </g>
    </g>
</svg>
