<?xml version="1.0" encoding="UTF-8"?>
<svg data-bbox="0 54.952 500 368.762" viewBox="0 0 500 500" xmlns="http://www.w3.org/2000/svg" data-type="ugc">
    <g>
        <path fill="#ebebeb" d="M449.901 398.494v.25h-33.122v-.25h33.122z"/>
        <path fill="#ebebeb" d="M331.22 401.208v.25h-8.693v-.25h8.693z"/>
        <path fill="#ebebeb" d="M415.778 389.208v.25h-19.192v-.25h19.192z"/>
        <path fill="#ebebeb" d="M95.652 390.888v.25H52.459v-.25h43.193z"/>
        <path fill="#ebebeb" d="M110.889 390.888v.25h-6.333v-.25h6.333z"/>
        <path fill="#ebebeb" d="M225.147 395.111v.25h-93.676v-.25h93.676z"/>
        <path d="M237.014 337.8H43.915a5.715 5.715 0 0 1-5.708-5.708V60.66a5.715 5.715 0 0 1 5.708-5.708h193.099a5.715 5.715 0 0 1 5.707 5.708v271.432a5.715 5.715 0 0 1-5.707 5.708zM43.915 55.203a5.464 5.464 0 0 0-5.458 5.458v271.432a5.464 5.464 0 0 0 5.458 5.458h193.099a5.463 5.463 0 0 0 5.457-5.458V60.66a5.464 5.464 0 0 0-5.457-5.458H43.915z" fill="#ebebeb"/>
        <path d="M453.31 337.8H260.212a5.714 5.714 0 0 1-5.707-5.708V60.66a5.715 5.715 0 0 1 5.707-5.708H453.31a5.714 5.714 0 0 1 5.708 5.708v271.432a5.714 5.714 0 0 1-5.708 5.708zM260.212 55.203a5.463 5.463 0 0 0-5.457 5.458v271.432a5.463 5.463 0 0 0 5.457 5.458H453.31a5.464 5.464 0 0 0 5.458-5.458V60.66a5.464 5.464 0 0 0-5.458-5.458H260.212z" fill="#ebebeb"/>
        <path fill="#ebebeb" d="M500 382.398v.25H0v-.25h500z"/>
        <path d="M85.856 180.765V161.29h-1.5v19.475a2.408 2.408 0 0 0-1.666 2.286v6.167a2.417 2.417 0 1 0 4.833 0v-6.167a2.408 2.408 0 0 0-1.667-2.286z" fill="#e0e0e0"/>
        <path fill="#ebebeb" d="M93.172 161.29v219.258h-2.988V161.29h2.988z"/>
        <path d="M111.178 381.449h-39a3.648 3.648 0 0 1 3.648-3.648h31.703a3.648 3.648 0 0 1 3.649 3.648z" fill="#e0e0e0"/>
        <path fill="#e0e0e0" d="m90.184 176.796 2.988-.983V161.29h-2.988v15.506z"/>
        <path fill="#f0f0f0" d="M109.578 115.801h-35.8l-11 47.5h57.8l-11-47.5z"/>
        <path d="M266.658 129.186v-8.528c-1.051 0-1.053-1.633 0-1.633 3.25 0 6.503-.022 9.755-.041v11.836h-9.755c-1.051-.001-1.052-1.634 0-1.634z" fill="#ebebeb"/>
        <path fill="#f5f5f5" d="M274.236 120.658v8.516h-7.578v-8.516h7.578z"/>
        <path d="M272.646 130.003h26.271c1.806 0 3.27-2.275 3.27-5.081s-1.464-5.081-3.27-5.081h-26.271v10.162z" fill="#fafafa"/>
        <path d="M272.646 119.025c8.601 0 17.216-.155 25.815 0 5.891.106 6.207 11.398.43 11.794-4.028.276-8.171 0-12.206 0h-14.039c-1.051 0-1.052-1.633 0-1.633h24.456c1.887 0 3.236-.021 3.965-2.247.631-1.926.432-5.856-2.15-6.281-.278-.046-.606 0-.885 0h-25.386c-1.051 0-1.052-1.633 0-1.633z" fill="#e6e6e6"/>
        <path d="M266.57 117.67v-7.579c-.934 0-.935-1.451 0-1.451 2.889 0 5.779-.02 8.669-.037v10.518h-8.669c-.933 0-.935-1.451 0-1.451z" fill="#ebebeb"/>
        <path fill="#f5f5f5" d="M273.304 110.091v7.568h-6.734v-7.568h6.734z"/>
        <path d="M271.892 118.396h23.347c1.605 0 2.906-2.021 2.906-4.515 0-2.494-1.301-4.515-2.906-4.515h-23.347v9.03z" fill="#fafafa"/>
        <path d="M271.892 108.64c7.644 0 15.3-.138 22.942 0 5.235.095 5.517 10.129.382 10.481-3.579.246-7.261 0-10.847 0h-12.476c-.934 0-.935-1.451 0-1.451h21.734c1.677 0 2.876-.019 3.524-1.997.561-1.711.384-5.204-1.911-5.582-.247-.041-.538 0-.786 0h-22.56c-.936 0-.938-1.451-.002-1.451z" fill="#e6e6e6"/>
        <path d="M266.658 140.777v-8.528c-1.051 0-1.053-1.633 0-1.633 3.25 0 6.503-.022 9.755-.041v11.836h-9.755c-1.051-.001-1.052-1.634 0-1.634z" fill="#ebebeb"/>
        <path fill="#f5f5f5" d="M274.236 132.249v8.516h-7.578v-8.516h7.578z"/>
        <path d="M272.646 141.594h26.271c1.806 0 3.27-2.275 3.27-5.081s-1.464-5.08-3.27-5.08h-26.271v10.161z" fill="#fafafa"/>
        <path d="M272.646 130.616c8.601 0 17.216-.155 25.815 0 5.891.106 6.207 11.398.43 11.794-4.028.276-8.171 0-12.206 0h-14.039c-1.051 0-1.052-1.633 0-1.633h24.456c1.887 0 3.236-.021 3.965-2.247.631-1.926.432-5.856-2.15-6.281-.278-.046-.606 0-.885 0h-25.386c-1.051 0-1.052-1.633 0-1.633z" fill="#e6e6e6"/>
        <path fill="#f5f5f5" d="M331.201 141.089H386.1v7.045H154.247v-7.045h176.954z"/>
        <path fill="#e0e0e0" d="M372.98 165.263v-17.129h8.564l-8.564 17.129z"/>
        <path fill="#f5f5f5" d="m377.262 165.263 8.564-17.129h-4.282l-8.564 17.129h4.282z"/>
        <path fill="#e0e0e0" d="M167.094 165.263v-17.129h-8.565l8.565 17.129z"/>
        <path fill="#f5f5f5" d="m162.811 165.263-8.564-17.129h4.282l8.565 17.129h-4.283z"/>
        <path d="M317.403 123.933c0 10.29 8.342 18.632 18.632 18.632 10.29 0 18.632-8.341 18.632-18.632v-.649c0-10.29-8.342-18.632-18.632-18.632-10.29 0-18.632 8.342-18.632 18.632v.649z" fill="#e6e6e6"/>
        <path d="M317.403 121.254c0 10.29 8.342 18.632 18.632 18.632 10.29 0 18.632-8.342 18.632-18.632v-.649c0-10.29-8.342-18.632-18.632-18.632-10.29 0-18.632 8.342-18.632 18.632v.649z" fill="#f0f0f0"/>
        <path d="M321.478 120.605c0 8.039 6.517 14.556 14.556 14.556 8.039 0 14.556-6.517 14.556-14.556s-6.517-14.556-14.556-14.556c-8.039 0-14.556 6.517-14.556 14.556z" fill="#fafafa"/>
        <path d="M336.034 108.348c-7.651 0-13.911 5.907-14.498 13.407-.03-.38-.058-.761-.058-1.149 0-8.039 6.517-14.556 14.556-14.556 8.039 0 14.556 6.517 14.556 14.556 0 .388-.028.769-.058 1.149-.587-7.501-6.847-13.407-14.498-13.407z" fill="#e6e6e6"/>
        <path d="M326.841 120.598h7.653v-7.653a1.54 1.54 0 0 1 3.08 0v9.193c0 .85-.69 1.54-1.54 1.54h-9.193a1.54 1.54 0 0 1 0-3.08z" fill="#e0e0e0"/>
        <path d="M326.841 122.145a1.54 1.54 0 0 1 0-3.08h9.194a1.54 1.54 0 0 1 0 3.08h-9.194z" fill="#f5f5f5"/>
        <path d="M334.494 111.412a1.54 1.54 0 0 1 3.08 0v9.193a1.54 1.54 0 0 1-3.08 0v-9.193z" fill="#ebebeb"/>
        <path fill="#e0e0e0" d="M218.958 141.332V94.687h11.229v46.645h-11.229z"/>
        <path fill="#fafafa" d="M228.028 131.372a3.455 3.455 0 1 1-6.91 0 3.455 3.455 0 0 1 6.91 0z"/>
        <path opacity=".6" fill="#f0f0f0" d="M221.118 121.655V99.197h6.91v22.458h-6.91z"/>
        <path opacity=".6" fill="#fafafa" d="M221.118 102.363v-3.167h6.91v3.167h-6.91z"/>
        <path fill="#e6e6e6" d="M210.533 141.331v-37.674h9.069v37.674h-9.069z"/>
        <path d="M212.276 133.287a2.79 2.79 0 1 0 5.581 0 2.79 2.79 0 0 0-5.581 0z" fill="#fafafa"/>
        <path opacity=".6" fill="#f0f0f0" d="M212.277 125.44v-18.139h5.581v18.139h-5.581z"/>
        <path opacity=".6" fill="#fafafa" d="M212.277 109.858V107.3h5.581v2.558h-5.581z"/>
        <path fill="#ebebeb" d="M237.44 141.332V94.687h11.229v46.645H237.44z"/>
        <path fill="#e0e0e0" d="M246.51 131.372a3.455 3.455 0 1 1-6.91 0 3.455 3.455 0 0 1 6.91 0z"/>
        <path opacity=".6" fill="#fafafa" d="M239.6 121.655V99.197h6.91v22.458h-6.91z"/>
        <path opacity=".6" fill="#fafafa" d="M239.6 102.363v-3.167h6.91v3.167h-6.91z"/>
        <path fill="#e0e0e0" d="M200.106 141.332V94.687h11.229v46.645h-11.229z"/>
        <path fill="#fafafa" d="M209.175 131.372a3.455 3.455 0 1 1-6.91 0 3.455 3.455 0 0 1 6.91 0z"/>
        <path opacity=".6" fill="#f0f0f0" d="M202.265 121.655V99.197h6.91v22.458h-6.91z"/>
        <path opacity=".6" fill="#fafafa" d="M202.265 102.363v-3.167h6.91v3.167h-6.91z"/>
        <path fill="#ebebeb" d="m184.079 140.624 4.885-46.389 11.167 1.176-4.885 46.389-11.167-1.176z"/>
        <path d="M187.272 130.937a3.454 3.454 0 0 0 3.075 3.797 3.455 3.455 0 1 0-3.075-3.797z" fill="#e0e0e0"/>
        <path opacity=".6" fill="#f5f5f5" d="m188.286 121.28 2.353-22.333 6.872.724-2.353 22.333-6.872-.724z"/>
        <path opacity=".6" fill="#fafafa" d="m190.304 102.096.331-3.15 6.872.725-.331 3.15-6.872-.725z"/>
        <path fill="#e6e6e6" d="M229.386 141.331v-37.674h9.069v37.674h-9.069z"/>
        <path d="M231.13 133.287a2.79 2.79 0 1 0 5.582 0 2.79 2.79 0 0 0-5.582 0z" fill="#fafafa"/>
        <path opacity=".6" fill="#f0f0f0" d="M231.129 125.44v-18.139h5.581v18.139h-5.581z"/>
        <path opacity=".6" fill="#fafafa" d="M231.129 109.858V107.3h5.581v2.558h-5.581z"/>
        <path fill="#f5f5f5" d="M439.067 412.391c0 6.254-86.807 11.323-193.889 11.323-107.082 0-193.889-5.07-193.889-11.323 0-6.254 86.807-11.323 193.889-11.323 107.082 0 193.889 5.07 193.889 11.323z"/>
        <path fill="#407bff" d="M249.427 274.804h-18.74l9-28.497h18.74l-9 28.497z"/>
        <path opacity=".2" d="M237.06 254.627h18.74l2.627-8.32h-18.74l-2.627 8.32z"/>
        <path fill="#407bff" d="M264.262 272.992v4.333h-35.864v-4.333h35.864z"/>
        <path opacity=".5" fill="#ffffff" d="M264.262 272.992v4.333h-35.864v-4.333h35.864z"/>
        <path opacity=".6" fill="#ffffff" d="M246.33 272.992v4.333h-17.932v-4.333h17.932z"/>
        <path fill="#407bff" d="m403.213 240.117-6.531-74.64-102.214 9.012H191.47l-103.792-9.012-2 2 6.53 74.64 103.789 9.012H299l102.213-9.012 2-2z"/>
        <path opacity=".2" fill="#ffffff" d="m403.213 240.117-6.531-74.64-102.214 9.012H191.47l-103.792-9.012 6.53 74.64 103.789 9.012H301l102.213-9.012z"/>
        <path opacity=".8" fill="#ffffff" d="m393.984 168.76 6.001 68.64-96.267 8.417-6.001-68.64 96.267-8.417z"/>
        <path d="M315.77 184.138a1.068 1.068 0 0 1-1.153-.974 1.068 1.068 0 0 1 .966-1.161l24.21-2.134a1.067 1.067 0 0 1 1.153.974c.052.59-.381 1.11-.966 1.161l-24.21 2.134z" opacity=".5" fill="#263238"/>
        <path d="M315.77 184.138a1.068 1.068 0 0 1-1.153-.974 1.068 1.068 0 0 1 .966-1.161l24.21-2.134a1.067 1.067 0 0 1 1.153.974c.052.59-.381 1.11-.966 1.161l-24.21 2.134z" opacity=".5" fill="#ffffff"/>
        <path d="M355.155 180.666a1.067 1.067 0 0 1-1.153-.974c-.052-.59.381-1.11.966-1.161l24.21-2.134a1.067 1.067 0 0 1 1.153.974c.052.59-.381 1.11-.966 1.161l-24.21 2.134z" opacity=".5" fill="#263238"/>
        <path d="M355.155 180.666a1.067 1.067 0 0 1-1.153-.974c-.052-.59.381-1.11.966-1.161l24.21-2.134a1.067 1.067 0 0 1 1.153.974c.052.59-.381 1.11-.966 1.161l-24.21 2.134z" opacity=".5" fill="#ffffff"/>
        <path d="M341.474 197.16c.598 6.83-4.412 12.851-11.19 13.449-6.778.598-12.756-4.455-13.354-11.285-.598-6.83 4.413-12.851 11.19-13.449 6.777-.597 12.756 4.455 13.354 11.285z" fill="#407bff"/>
        <g opacity=".9">
            <path d="m323.866 204.658-1.399.123a.66.66 0 0 1-.712-.602l-.579-6.616a.66.66 0 0 1 .597-.717l1.399-.123a.66.66 0 0 1 .712.602l.579 6.616a.66.66 0 0 1-.597.717z" fill="#ffffff"/>
            <path d="M325.698 196.233c.901-.896 3.159-3.412 3.148-6.124-.005-1.331 1.83-1.895 2.497-.745.5.861.618 2.514-.284 5.598l3.457-.305a2.328 2.328 0 0 1 2.251 1.218c.259.479.343 1.035.24 1.57l-1.01 5.222a2.332 2.332 0 0 1-2.447 1.891l-6.613-.466a1.122 1.122 0 0 1-1.035-1.025l-.52-5.945c-.03-.331.082-.656.316-.889z" fill="#ffffff"/>
        </g>
        <path d="M380.859 193.688c-.598-6.83-6.576-11.882-13.354-11.285-6.778.598-11.788 6.619-11.19 13.449.598 6.83 6.576 11.882 13.354 11.285 6.778-.598 11.788-6.619 11.19-13.449z" opacity=".9" fill="#ffffff"/>
        <path d="m362.22 189.386-1.399.123a.66.66 0 0 0-.597.717l.579 6.616a.66.66 0 0 0 .712.602l1.399-.123a.66.66 0 0 0 .597-.717l-.579-6.616a.66.66 0 0 0-.712-.602z" fill="#407bff"/>
        <path d="M365.487 197.361c1.043.725 3.703 2.807 4.163 5.479.226 1.311 2.131 1.545 2.588.297.342-.936.172-2.584-1.251-5.462l3.457-.305a2.33 2.33 0 0 0 2.004-1.593 2.36 2.36 0 0 0-.036-1.588l-1.901-4.965a2.326 2.326 0 0 0-2.738-1.433l-6.431 1.616c-.533.134-.89.639-.842 1.19l.52 5.945c.028.33.195.631.467.819z" fill="#407bff"/>
        <path fill="#407bff" d="m326.015 229.422.744 8.446-7.301.644-.745-8.447 7.302-.643z"/>
        <path opacity=".9" fill="#ffffff" d="m333.475 230.625.582 6.604-7.301.644-.582-6.604 7.301-.644z"/>
        <path opacity=".9" fill="#ffffff" d="m347.328 220.752 1.338 15.185-7.301.644-1.339-15.185 7.302-.644z"/>
        <path opacity=".9" fill="#ffffff" d="m361.772 217.657 1.498 16.992-7.302.644-1.497-16.992 7.301-.644z"/>
        <path opacity=".9" fill="#ffffff" d="m376.706 220.16 1.164 13.208-7.302.644-1.164-13.21 7.302-.643z"/>
        <path fill="#407bff" d="m340.146 222.76 1.218 13.82-7.301.644-1.218-13.82 7.301-.644z"/>
        <path fill="#407bff" d="m354.309 216.49 1.657 18.808-7.301.644-1.658-18.808 7.302-.644z"/>
        <path fill="#407bff" d="m369.233 218.822 1.338 15.185-7.301.643-1.339-15.185 7.302-.643z"/>
        <path fill="#407bff" d="m383.098 209.127 2.079 23.592-7.302.643-2.079-23.591 7.302-.644z"/>
        <path opacity=".8" fill="#ffffff" d="m90.964 168.74 6.005 68.64 97.745 8.486-6.005-68.639-97.745-8.487z"/>
        <path d="m160.772 200.52-52.457-4.555c-2.21-.192-4.157-2.125-4.349-4.318l-.661-7.559c-.192-2.193 1.444-3.815 3.654-3.623l52.457 4.555c2.21.192 4.157 2.125 4.348 4.318l.661 7.559c.193 2.192-1.443 3.815-3.653 3.623z" fill="#ffffff"/>
        <path d="M116.987 189.027c.23 2.623-1.727 4.564-4.371 4.334-2.643-.229-4.972-2.542-5.202-5.166-.229-2.623 1.727-4.564 4.371-4.334 2.644.23 4.973 2.543 5.202 5.166z" fill="#407bff"/>
        <path d="M123.113 186.892c-.574-.05-1.079-.552-1.129-1.122-.05-.57.375-.991.949-.941l32.15 2.791c.574.05 1.08.552 1.129 1.121.05.57-.375.991-.949.941l-32.15-2.79z" fill="#263238"/>
        <path d="M123.764 194.329c-.574-.05-1.079-.552-1.129-1.122-.05-.57.375-.991.949-.941l18.831 1.635c.574.05 1.079.552 1.129 1.122.05.57-.375.991-.949.941l-18.831-1.635z" fill="#263238"/>
        <path d="M123.438 190.611c-.574-.05-1.079-.552-1.129-1.121-.05-.57.375-.991.949-.941l27.27 2.368c.574.05 1.08.552 1.129 1.121.05.57-.375.991-.949.941l-27.27-2.368z" fill="#263238"/>
        <g opacity=".5">
            <path d="M123.113 186.892c-.574-.05-1.079-.552-1.129-1.122-.05-.57.375-.991.949-.941l32.15 2.791c.574.05 1.08.552 1.129 1.121.05.57-.375.991-.949.941l-32.15-2.79z" fill="#ffffff"/>
            <path d="M123.764 194.329c-.574-.05-1.079-.552-1.129-1.122-.05-.57.375-.991.949-.941l18.831 1.635c.574.05 1.079.552 1.129 1.122.05.57-.375.991-.949.941l-18.831-1.635z" fill="#ffffff"/>
            <path d="M123.438 190.611c-.574-.05-1.079-.552-1.129-1.121-.05-.57.375-.991.949-.941l27.27 2.368c.574.05 1.08.552 1.129 1.121.05.57-.375.991-.949.941l-27.27-2.368z" fill="#ffffff"/>
        </g>
        <path d="m163.512 177.85-6.133-.467c-.843-.064-1.46.563-1.377 1.401l.502 5.102c.082.836.829 1.567 1.671 1.633l1.775.141.87 1.245c.295.422.887.464 1.098.077l.624-1.146 1.765.14c.845.067 1.465-.561 1.382-1.401l-.501-5.092c-.083-.838-.833-1.569-1.676-1.633z" fill="#407bff"/>
        <path d="M158.794 181.995c-.528-.517-.785-1.054-.826-1.519-.069-.793.417-1.275 1.225-1.205.753.065 1.04.434 1.525.973.397-.463.624-.787 1.377-.721.808.07 1.387.645 1.456 1.438.041.465-.125.966-.57 1.398l-1.913 1.887-2.274-2.251z" fill="#ffffff" opacity=".9"/>
        <path d="m175.11 219.937-52.457-4.555c-2.21-.192-4.157-2.125-4.349-4.318l-.661-7.559c-.192-2.193 1.444-3.815 3.654-3.623l52.457 4.555c2.21.192 4.157 2.125 4.348 4.318l.661 7.559c.192 2.192-1.444 3.815-3.653 3.623z" fill="#ffffff"/>
        <path d="M131.325 208.444c.229 2.623-1.727 4.564-4.371 4.334-2.644-.23-4.972-2.542-5.202-5.166-.229-2.623 1.727-4.564 4.371-4.334 2.643.23 4.972 2.543 5.202 5.166z" fill="#407bff"/>
        <path d="M137.451 206.309c-.574-.05-1.08-.552-1.129-1.122-.05-.57.375-.991.949-.941l32.15 2.791c.574.05 1.08.552 1.129 1.122.05.57-.375.991-.949.941l-32.15-2.791z" fill="#263238"/>
        <path d="M138.101 213.746c-.574-.05-1.08-.552-1.129-1.122-.05-.57.375-.991.949-.941l18.83 1.635c.574.05 1.08.552 1.129 1.122.05.569-.375.991-.949.941l-18.83-1.635z" fill="#263238"/>
        <path d="M137.776 210.028c-.574-.05-1.079-.552-1.129-1.122-.05-.57.375-.991.949-.941l27.27 2.368c.574.05 1.079.552 1.129 1.121.05.57-.375.991-.949.941l-27.27-2.367z" fill="#263238"/>
        <g opacity=".5">
            <path d="M137.451 206.309c-.574-.05-1.08-.552-1.129-1.122-.05-.57.375-.991.949-.941l32.15 2.791c.574.05 1.08.552 1.129 1.122.05.57-.375.991-.949.941l-32.15-2.791z" fill="#ffffff"/>
            <path d="M138.101 213.746c-.574-.05-1.08-.552-1.129-1.122-.05-.57.375-.991.949-.941l18.83 1.635c.574.05 1.08.552 1.129 1.122.05.569-.375.991-.949.941l-18.83-1.635z" fill="#ffffff"/>
            <path d="M137.776 210.028c-.574-.05-1.079-.552-1.129-1.122-.05-.57.375-.991.949-.941l27.27 2.368c.574.05 1.079.552 1.129 1.121.05.57-.375.991-.949.941l-27.27-2.367z" fill="#ffffff"/>
        </g>
        <path d="m177.849 197.267-6.133-.467c-.843-.064-1.46.563-1.377 1.401l.502 5.102c.082.836.829 1.567 1.671 1.633l1.775.141.87 1.245c.295.422.887.464 1.098.077l.624-1.146 1.765.14c.845.067 1.465-.561 1.382-1.401l-.501-5.092c-.083-.838-.833-1.569-1.676-1.633z" fill="#407bff"/>
        <path d="M173.132 201.411c-.528-.516-.785-1.054-.826-1.519-.069-.793.417-1.275 1.225-1.205.753.065 1.04.434 1.525.973.397-.463.624-.787 1.377-.721.808.07 1.387.645 1.456 1.438.041.464-.125.966-.57 1.397l-1.913 1.887-2.274-2.25z" fill="#ffffff" opacity=".9"/>
        <path d="m168.255 238.747-52.457-4.554c-2.21-.192-4.157-2.125-4.349-4.318l-.661-7.559c-.192-2.193 1.444-3.815 3.654-3.623l52.457 4.554c2.21.192 4.157 2.125 4.348 4.318l.661 7.559c.193 2.193-1.443 3.815-3.653 3.623z" fill="#ffffff"/>
        <path d="M124.47 227.254c.23 2.623-1.727 4.564-4.371 4.335-2.644-.23-4.973-2.542-5.202-5.166-.229-2.623 1.727-4.564 4.371-4.334 2.644.229 4.973 2.542 5.202 5.165z" fill="#407bff"/>
        <path d="M130.596 225.119c-.574-.05-1.08-.552-1.129-1.121-.05-.57.375-.991.949-.941l32.15 2.791c.574.05 1.079.552 1.129 1.121.05.57-.375.991-.949.941l-32.15-2.791z" fill="#263238"/>
        <path d="M131.247 232.557c-.574-.05-1.079-.552-1.129-1.121-.05-.57.375-.991.949-.941l25.884 2.247c.574.05 1.079.552 1.129 1.121.05.57-.375.991-.949.941l-25.884-2.247z" fill="#263238"/>
        <path d="M130.922 228.838c-.574-.05-1.08-.552-1.129-1.121-.05-.57.375-.991.949-.941l23.239 2.018c.574.05 1.079.552 1.129 1.121.05.57-.375.991-.949.941l-23.239-2.018z" fill="#263238"/>
        <g opacity=".5">
            <path d="M130.596 225.119c-.574-.05-1.08-.552-1.129-1.121-.05-.57.375-.991.949-.941l32.15 2.791c.574.05 1.079.552 1.129 1.121.05.57-.375.991-.949.941l-32.15-2.791z" fill="#ffffff"/>
            <path d="M131.247 232.557c-.574-.05-1.079-.552-1.129-1.121-.05-.57.375-.991.949-.941l25.884 2.247c.574.05 1.079.552 1.129 1.121.05.57-.375.991-.949.941l-25.884-2.247z" fill="#ffffff"/>
            <path d="M130.922 228.838c-.574-.05-1.08-.552-1.129-1.121-.05-.57.375-.991.949-.941l23.239 2.018c.574.05 1.079.552 1.129 1.121.05.57-.375.991-.949.941l-23.239-2.018z" fill="#ffffff"/>
        </g>
        <path d="m171.171 218.093-6.133-.467c-.843-.064-1.46.563-1.377 1.401l.502 5.102c.082.836.829 1.567 1.671 1.633l1.775.141.87 1.245c.295.422.887.464 1.098.077l.624-1.146 1.765.14c.845.067 1.465-.561 1.382-1.401l-.501-5.092c-.083-.837-.833-1.569-1.676-1.633z" fill="#407bff"/>
        <path d="M166.492 223.815a.56.56 0 0 1-.493-.489l-.15-1.717c-.022-.249.164-.432.414-.411a.56.56 0 0 1 .493.489l.15 1.717c.022.249-.163.432-.414.411z" opacity=".9" fill="#ffffff"/>
        <path d="M167.344 221.205c.302-.239 1.059-.926 1.057-1.807-.001-.432.614-.51.837-.098.167.309.206.852-.098 1.802l1.158.101a.965.965 0 0 1 .753.525.808.808 0 0 1 .08.524l-.341 1.638c-.076.365-.428.567-.82.473l-2.214-.533a.461.461 0 0 1-.346-.393l-.172-1.961a.297.297 0 0 1 .106-.271z" opacity=".9" fill="#ffffff"/>
        <path opacity=".8" fill="#ffffff" d="m194.73 177.489 6.005 68.64h97.003l-6.005-68.64H194.73z"/>
        <path d="M197.709 245.809a.836.836 0 0 1-.816-.75l-1.891-21.612a.676.676 0 0 1 .684-.75c.414 0 .779.336.816.75l1.891 21.612a.676.676 0 0 1-.684.75z" opacity=".2"/>
        <path d="M195.468 220.197a.836.836 0 0 1-.816-.75l-2.683-30.667a.676.676 0 0 1 .684-.75c.414 0 .779.336.816.75l2.683 30.667a.675.675 0 0 1-.684.75z" opacity=".2"/>
        <path d="M192.45 185.697a.836.836 0 0 1-.816-.75l-.559-6.388a.676.676 0 0 1 .684-.75c.414 0 .779.336.816.75l.559 6.388a.676.676 0 0 1-.684.75z" opacity=".2"/>
        <path d="M300.708 245.809a.836.836 0 0 1-.816-.75l-2.751-31.446a.676.676 0 0 1 .684-.75c.414 0 .779.336.816.75l2.751 31.446a.676.676 0 0 1-.684.75z" opacity=".2"/>
        <path d="M297.636 210.696a.836.836 0 0 1-.816-.75l-2.143-24.5a.676.676 0 0 1 .684-.75c.414 0 .779.336.816.75l2.143 24.5a.676.676 0 0 1-.684.75z" opacity=".2"/>
        <path d="M295.104 181.753a.836.836 0 0 1-.816-.75l-.214-2.444a.676.676 0 0 1 .684-.75c.414 0 .779.336.816.75l.214 2.444a.676.676 0 0 1-.684.75z" opacity=".2"/>
        <path d="M280.42 207.707a.93.93 0 0 1 .941-1.031c.57 0 1.072.462 1.122 1.031l1.186 13.563a.93.93 0 0 1-.941 1.031 1.148 1.148 0 0 1-1.121-1.031l-1.187-13.563z" fill="#407bff"/>
        <path d="M202.028 183.262c-.57 0-1.072-.462-1.122-1.031a.93.93 0 0 1 .941-1.031h23.563c.57 0 1.072.462 1.121 1.031a.93.93 0 0 1-.941 1.031h-23.562z" fill="#263238"/>
        <path d="M202.679 190.699a1.148 1.148 0 0 1-1.121-1.031.93.93 0 0 1 .941-1.031h19.563c.569 0 1.072.462 1.121 1.031a.93.93 0 0 1-.941 1.031h-19.563z" fill="#263238"/>
        <path d="M202.354 186.98c-.57 0-1.072-.462-1.122-1.031a.93.93 0 0 1 .941-1.031h15.563c.57 0 1.072.462 1.122 1.031a.93.93 0 0 1-.941 1.031h-15.563z" fill="#263238"/>
        <g opacity=".5">
            <path d="M202.028 183.262c-.57 0-1.072-.462-1.122-1.031a.93.93 0 0 1 .941-1.031h23.563c.57 0 1.072.462 1.121 1.031a.93.93 0 0 1-.941 1.031h-23.562z" fill="#ffffff"/>
            <path d="M202.679 190.699a1.148 1.148 0 0 1-1.121-1.031.93.93 0 0 1 .941-1.031h19.563c.569 0 1.072.462 1.121 1.031a.93.93 0 0 1-.941 1.031h-19.563z" fill="#ffffff"/>
            <path d="M202.354 186.98c-.57 0-1.072-.462-1.122-1.031a.93.93 0 0 1 .941-1.031h15.563c.57 0 1.072.462 1.122 1.031a.93.93 0 0 1-.941 1.031h-15.563z" fill="#ffffff"/>
        </g>
        <path d="M286.049 199.257c.258 2.947-1.922 5.337-4.87 5.337s-5.546-2.389-5.803-5.337c-.258-2.947 1.922-5.337 4.87-5.337 2.947.001 5.545 2.39 5.803 5.337z" fill="#407bff"/>
        <path d="M278.086 201.803a.655.655 0 0 1-.64-.589l-.197-2.247a.531.531 0 0 1 .537-.589c.325 0 .612.264.64.589l.197 2.247a.53.53 0 0 1-.537.589z" fill="#ffffff"/>
        <path d="M279.19 198.265c.392-.35 1.375-1.342 1.371-2.503-.002-.57.796-.742 1.086-.225.217.388.268 1.1-.125 2.386h1.503c.402 0 .786.238.978.607.112.215.149.456.104.682l-.441 2.198c-.098.489-.555.797-1.065.717l-2.876-.449a.541.541 0 0 1-.45-.478l-.224-2.566a.438.438 0 0 1 .139-.369z" fill="#ffffff"/>
        <path d="M288.714 229.72c-.258-2.947-2.856-5.337-5.803-5.337s-5.128 2.389-4.87 5.337c.258 2.947 2.856 5.337 5.803 5.337s5.128-2.39 4.87-5.337z" fill="#407bff"/>
        <path d="M280.306 227.174a.53.53 0 0 0-.537.589l.197 2.247a.656.656 0 0 0 .64.589.53.53 0 0 0 .537-.589l-.197-2.247a.655.655 0 0 0-.64-.589z" fill="#ffffff"/>
        <path d="M282.028 230.712c.453.35 1.609 1.342 1.809 2.503.098.57.926.742 1.125.225.149-.388.075-1.1-.543-2.386h1.503a.905.905 0 0 0 .872-.607 1.004 1.004 0 0 0-.015-.681l-.825-2.198c-.184-.489-.694-.797-1.19-.717l-2.797.449a.435.435 0 0 0-.366.478l.224 2.565a.527.527 0 0 0 .203.369z" fill="#ffffff"/>
        <path fill="#407bff" d="M264.557 195.465c11.497 11.005 12.642 28.466 2.558 39-10.083 10.533-27.577 10.151-39.073-.854s-12.642-28.466-2.559-39c10.084-10.533 27.577-10.151 39.074.854z"/>
        <path d="M264.091 195.028c-5.428-4.992-12.594-8.079-20.211-8.079-15.234 0-26.503 12.35-25.17 27.583h27.583l17.798-19.504z" opacity=".6" fill="#ffffff"/>
        <path d="m225.082 195.028 21.211 19.504-2.413-27.583c-7.617 0-14.243 3.088-18.798 8.079z" opacity=".2"/>
        <path d="m225.082 195.028 21.211 19.504-2.413-27.583c-7.617 0-14.243 3.088-18.798 8.079z" fill="#407bff"/>
        <path d="m225.082 195.028 21.211 19.504-2.413-27.583c-7.617 0-14.243 3.088-18.798 8.079z" opacity=".3"/>
        <path d="M248.706 242.116c15.234 0 26.503-12.35 25.17-27.583h-27.583l-17.798 19.504c5.428 4.992 12.594 8.079 20.211 8.079z" opacity=".3" fill="#ffffff"/>
        <path d="M266.757 237.401c.324 3.703-2.415 6.705-6.118 6.705-3.703 0-6.967-3.002-7.291-6.705-.324-3.703 2.415-6.705 6.118-6.705 3.702 0 6.966 3.002 7.291 6.705z" fill="#263238"/>
        <path d="M257.724 238.516c-.612-.553-.91-1.16-.957-1.702-.081-.926.482-1.543 1.418-1.543.872 0 1.206.404 1.767.989.46-.585.722-.989 1.594-.989.936 0 1.607.617 1.688 1.543.047.542-.144 1.149-.66 1.702l-2.214 2.415-2.636-2.415z" fill="#407bff"/>
        <path d="M228.931 203.803c.324 3.703-2.415 6.705-6.118 6.705-3.703 0-6.967-3.002-7.291-6.705-.324-3.703 2.415-6.705 6.118-6.705 3.703 0 6.967 3.002 7.291 6.705z" fill="#263238"/>
        <path d="M226.449 203.803c.204 2.332-1.521 4.223-3.854 4.223-2.332 0-4.388-1.891-4.593-4.223-.204-2.332 1.521-4.223 3.854-4.223s4.389 1.891 4.593 4.223z" fill="#407bff"/>
        <path d="M226.449 203.803c.204 2.332-1.521 4.223-3.854 4.223-2.332 0-4.388-1.891-4.593-4.223-.204-2.332 1.521-4.223 3.854-4.223s4.389 1.891 4.593 4.223z" opacity=".5" fill="#ffffff"/>
        <path d="M223.773 204.698c-.79.792-2.007.794-2.937 0-.371-.316-.841.196-.468.513 1.248 1.065 2.902 1.065 3.964 0 .316-.317-.243-.829-.559-.513z" fill="#407bff"/>
        <path d="M221.097 202.428c.04.459-.087.832-.285.832s-.391-.372-.431-.832c-.04-.46.088-.832.285-.832.198 0 .391.372.431.832z" fill="#407bff"/>
        <path d="M223.831 202.428c.04.459-.087.832-.285.832s-.391-.372-.431-.832c-.04-.46.088-.832.285-.832.198 0 .391.372.431.832z" fill="#407bff"/>
        <path d="M269.871 197.708c.324 3.703-2.415 6.705-6.118 6.705-3.703 0-6.967-3.002-7.291-6.705-.324-3.703 2.415-6.705 6.118-6.705 3.703 0 6.967 3.002 7.291 6.705z" fill="#263238"/>
        <path d="M267.39 197.708c.204 2.332-1.521 4.223-3.854 4.223-2.332 0-4.389-1.891-4.592-4.223-.204-2.332 1.521-4.223 3.854-4.223 2.331 0 4.388 1.891 4.592 4.223z" fill="#407bff"/>
        <path d="M267.39 197.708c.204 2.332-1.521 4.223-3.854 4.223-2.332 0-4.389-1.891-4.592-4.223-.204-2.332 1.521-4.223 3.854-4.223 2.331 0 4.388 1.891 4.592 4.223z" opacity=".5" fill="#ffffff"/>
        <path d="M261.883 199.816c.79-.792 2.007-.794 2.937 0 .371.316.841-.196.468-.513-1.248-1.065-2.902-1.065-3.964 0-.316.317.243.829.559.513z" fill="#407bff"/>
        <path d="M262.037 196.333c.04.46-.088.832-.285.832-.198 0-.391-.372-.431-.832-.04-.459.088-.832.285-.832.198 0 .391.372.431.832z" fill="#407bff"/>
        <path d="M264.771 196.333c.04.46-.088.832-.285.832-.198 0-.391-.372-.431-.832-.04-.459.087-.832.285-.832.198 0 .391.372.431.832z" fill="#407bff"/>
        <path d="M229.489 224.383c.324 3.703-2.415 6.705-6.118 6.705-3.703 0-6.967-3.002-7.291-6.705-.324-3.703 2.415-6.705 6.118-6.705 3.702.001 6.967 3.002 7.291 6.705z" fill="#263238"/>
        <path d="M227.007 224.383c.204 2.332-1.521 4.223-3.854 4.223-2.332 0-4.389-1.891-4.592-4.223-.204-2.332 1.521-4.223 3.854-4.223 2.332 0 4.388 1.891 4.592 4.223z" fill="#407bff"/>
        <path d="M227.007 224.383c.204 2.332-1.521 4.223-3.854 4.223-2.332 0-4.389-1.891-4.592-4.223-.204-2.332 1.521-4.223 3.854-4.223 2.332 0 4.388 1.891 4.592 4.223z" opacity=".5" fill="#ffffff"/>
        <path d="M220.806 225.722c1.259 1.157 3.135 1.157 4.191 0l-.062-.706h-4.191l.062.706z" fill="#407bff"/>
        <path d="M222.226 223.117c-.614-.486-1.311-.486-1.839 0-.247.227.173.611.419.385.313-.288.706-.288 1.069 0 .285.225.638-.158.351-.385z" fill="#407bff"/>
        <path d="M224.96 223.117c-.614-.486-1.311-.486-1.839 0-.247.227.173.611.419.385.313-.288.706-.288 1.069 0 .285.225.638-.158.351-.385z" fill="#407bff"/>
        <path fill="#407bff" d="M298.882 272.284h-31.013v5.041h62.026v-2.072l-31.013-2.969z"/>
        <path opacity=".6" fill="#ffffff" d="M298.882 272.284h-31.013v5.041h62.026v-2.072l-31.013-2.969z"/>
        <path opacity=".6" fill="#ffffff" d="M298.882 277.325h-31.013v-5.041l31.013 2.969v2.072z"/>
        <path fill="#ffffff" d="m398.235 217.507-4.267-48.767-5.774.509-24.737 71.35 27.616-2.435 7.162-20.657z" opacity=".5"/>
        <path fill="#ffffff" d="m266.911 246.129 23.797-68.64h-26.771l-23.798 68.64h26.772z" opacity=".5"/>
        <path opacity=".5" fill="#ffffff" d="m170.07 243.727 19.529-56.329-.89-10.171-21.702-1.885-22.926 66.128 25.989 2.257z"/>
        <path d="M347.775 287.184H151.964a1.722 1.722 0 0 1-1.723-1.723v-4.251h199.256v4.251c0 .952-.771 1.723-1.722 1.723z" fill="#407bff"/>
        <path d="M347.775 287.184H151.964a1.722 1.722 0 0 1-1.723-1.723v-4.251h199.256v4.251c0 .952-.771 1.723-1.722 1.723z" opacity=".2"/>
        <path d="M240.441 287.184h-88.477a1.722 1.722 0 0 1-1.723-1.723v-4.251h90.2v5.974z" opacity=".3" fill="#ffffff"/>
        <path d="M353.555 282.325H146.183a2.032 2.032 0 0 1-2.032-2.032v-.936c0-1.122.91-2.032 2.032-2.032h207.372c1.122 0 2.032.91 2.032 2.032v.936c0 1.122-.91 2.032-2.032 2.032z" fill="#407bff"/>
        <path d="M240.441 282.325h-94.258a2.032 2.032 0 0 1-2.032-2.032v-.936c0-1.122.91-2.032 2.032-2.032h94.258v5z" opacity=".4" fill="#ffffff"/>
        <path d="M229.921 407.409H160.76c-4.146 0-7.519-3.373-7.519-7.52V294.716c0-4.146 3.373-7.518 7.519-7.518h69.161c4.146 0 7.52 3.373 7.52 7.518v105.173c0 4.146-3.373 7.52-7.52 7.52zM160.76 291.198a3.523 3.523 0 0 0-3.519 3.518v105.173c0 1.94 1.579 3.52 3.519 3.52h69.161a3.524 3.524 0 0 0 3.52-3.52V294.716a3.523 3.523 0 0 0-3.52-3.518H160.76z" fill="#263238"/>
        <g opacity=".4">
            <path d="M229.921 407.409H160.76c-4.146 0-7.519-3.373-7.519-7.52V294.716c0-4.146 3.373-7.518 7.519-7.518h69.161c4.146 0 7.52 3.373 7.52 7.518v105.173c0 4.146-3.373 7.52-7.52 7.52zM160.76 291.198a3.523 3.523 0 0 0-3.519 3.518v105.173c0 1.94 1.579 3.52 3.519 3.52h69.161a3.524 3.524 0 0 0 3.52-3.52V294.716a3.523 3.523 0 0 0-3.52-3.518H160.76z" opacity=".2" fill="#ffffff"/>
        </g>
        <path d="M229.921 287.198H160.76c-3.889 0-7.098 2.969-7.48 6.759h4.049a3.522 3.522 0 0 1 3.431-2.759h69.161a3.522 3.522 0 0 1 3.432 2.759h4.049c-.382-3.791-3.591-6.759-7.481-6.759z" opacity=".2"/>
        <path d="M337.577 407.409h-69.161c-4.146 0-7.519-3.373-7.519-7.52V294.716c0-4.146 3.373-7.518 7.519-7.518h69.161c4.146 0 7.52 3.373 7.52 7.518v105.173c0 4.146-3.373 7.52-7.52 7.52zm-69.161-116.211a3.523 3.523 0 0 0-3.519 3.518v105.173c0 1.94 1.579 3.52 3.519 3.52h69.161a3.524 3.524 0 0 0 3.52-3.52V294.716a3.523 3.523 0 0 0-3.52-3.518h-69.161z" fill="#263238"/>
        <path d="M337.577 407.409h-69.161c-4.146 0-7.519-3.373-7.519-7.52V294.716c0-4.146 3.373-7.518 7.519-7.518h69.161c4.146 0 7.52 3.373 7.52 7.518v105.173c0 4.146-3.373 7.52-7.52 7.52zm-69.161-116.211a3.523 3.523 0 0 0-3.519 3.518v105.173c0 1.94 1.579 3.52 3.519 3.52h69.161a3.524 3.524 0 0 0 3.52-3.52V294.716a3.523 3.523 0 0 0-3.52-3.518h-69.161z" opacity=".1" fill="#ffffff"/>
        <path d="M337.577 287.198h-69.161c-3.889 0-7.098 2.969-7.48 6.759h4.049a3.521 3.521 0 0 1 3.431-2.759h69.161a3.522 3.522 0 0 1 3.432 2.759h4.049c-.382-3.791-3.591-6.759-7.481-6.759z" opacity=".2"/>
        <path d="M213.207 311.908H135.86a8.423 8.423 0 0 0-8.423 8.423v79.043a8.423 8.423 0 0 0 8.423 8.423h77.347a8.423 8.423 0 0 0 8.423-8.423v-79.043a8.423 8.423 0 0 0-8.423-8.423z" fill="#407bff"/>
        <path d="M213.207 311.908H135.86a8.423 8.423 0 0 0-8.423 8.423v79.043a8.423 8.423 0 0 0 8.423 8.423h77.347a8.423 8.423 0 0 0 8.423-8.423v-79.043a8.423 8.423 0 0 0-8.423-8.423z" opacity=".4" fill="#ffffff"/>
        <path d="M127.437 399.307v.067a8.423 8.423 0 0 0 8.423 8.423h77.347a8.423 8.423 0 0 0 8.423-8.423v-.067h-94.193z" opacity=".1"/>
        <path d="M213.207 407.797h-21.443a8.423 8.423 0 0 1-8.423-8.423v-79.043a8.423 8.423 0 0 1 8.423-8.423h21.443a8.423 8.423 0 0 1 8.423 8.423v79.043a8.423 8.423 0 0 1-8.423 8.423z" fill="#407bff"/>
        <path d="M213.207 403.297a3.928 3.928 0 0 0 3.923-3.923v-79.043a3.928 3.928 0 0 0-3.923-3.923h-21.443a3.928 3.928 0 0 0-3.923 3.923v79.043a3.928 3.928 0 0 0 3.923 3.923h21.443z" opacity=".3" fill="#ffffff"/>
        <path opacity=".7" fill="#ffffff" d="M214.236 322.659v6.25h-23.5v-6.25h23.5z"/>
        <path opacity=".7" fill="#ffffff" d="M214.236 330.159v6.25h-23.5v-6.25h23.5z"/>
        <path fill="#407bff" d="M207.381 359.853a4.895 4.895 0 1 1-9.79 0 4.895 4.895 0 0 1 9.79 0z"/>
        <g opacity=".9">
            <path d="M203.624 358.884c.938 1.017.307 2.741-1.138 2.747-1.449.006-2.07-1.736-1.138-2.747.467-.506-.289-1.266-.758-.757-1.556 1.687-.511 4.576 1.895 4.576 2.408 0 3.451-2.889 1.895-4.576-.467-.508-1.224.251-.756.757z" fill="#ffffff"/>
            <path d="M201.95 356.998v2.44c0 .689 1.071.69 1.071 0v-2.44c0-.689-1.071-.69-1.071 0z" fill="#ffffff"/>
        </g>
        <path fill="#407bff" d="M194.716 374.325a1.5 1.5 0 1 1-3 0 1.5 1.5 0 0 1 3 0z"/>
        <path fill="#407bff" d="M200.896 374.325a1.5 1.5 0 1 1-3 0 1.5 1.5 0 0 1 3 0z"/>
        <path fill="#407bff" d="M207.076 374.325a1.5 1.5 0 1 1-3 0 1.5 1.5 0 0 1 3 0z"/>
        <path fill="#407bff" d="M213.255 374.325a1.5 1.5 0 1 1-3 0 1.5 1.5 0 0 1 3 0z"/>
        <path fill="#407bff" d="M197.806 379.659a1.5 1.5 0 1 1-3 0 1.5 1.5 0 0 1 3 0z"/>
        <path fill="#407bff" d="M203.986 379.659a1.5 1.5 0 1 1-3 0 1.5 1.5 0 0 1 3 0z"/>
        <path fill="#407bff" d="M210.166 379.659a1.5 1.5 0 1 1-3 0 1.5 1.5 0 0 1 3 0z"/>
        <path fill="#407bff" d="M194.716 385.566a1.5 1.5 0 1 1-3 0 1.5 1.5 0 0 1 3 0z"/>
        <path fill="#407bff" d="M200.896 385.566a1.5 1.5 0 1 1-3 0 1.5 1.5 0 0 1 3 0z"/>
        <path fill="#407bff" d="M207.076 385.566a1.5 1.5 0 1 1-3 0 1.5 1.5 0 0 1 3 0z"/>
        <path fill="#407bff" d="M213.255 385.566a1.5 1.5 0 1 1-3 0 1.5 1.5 0 0 1 3 0z"/>
        <path fill="#407bff" d="M197.806 390.899a1.5 1.5 0 1 1-3 0 1.5 1.5 0 0 1 3 0z"/>
        <path fill="#407bff" d="M203.986 390.899a1.5 1.5 0 1 1-3 0 1.5 1.5 0 0 1 3 0z"/>
        <path fill="#407bff" d="M210.166 390.899a1.5 1.5 0 1 1-3 0 1.5 1.5 0 0 1 3 0z"/>
        <path fill="#407bff" d="M194.716 396.807a1.5 1.5 0 1 1-3 0 1.5 1.5 0 0 1 3 0z"/>
        <path fill="#407bff" d="M200.896 396.807a1.5 1.5 0 1 1-3 0 1.5 1.5 0 0 1 3 0z"/>
        <path fill="#407bff" d="M207.076 396.807a1.5 1.5 0 1 1-3 0 1.5 1.5 0 0 1 3 0z"/>
        <path fill="#407bff" d="M213.255 396.807a1.5 1.5 0 1 1-3 0 1.5 1.5 0 0 1 3 0z"/>
        <path d="m330.128 267.632-6.041-2.723-8.468 3.532v4.216s13.147-.439 13.144-.418c0 0 14.829 4.937 20.305 4.178 5.477-.76 22.917-25.065 22.917-25.065l-8.762-7.671-16.682 23.774-16.413.177z" fill="#fcc1bb"/>
        <path d="m330.128 267.632-6.041-2.723-8.468 3.532v4.216s13.147-.439 13.144-.418c0 0 .371.124 1.016.328l4.243-4.977-3.894.042z" opacity=".1"/>
        <path d="M357.325 250.591s6.066-10.786 9.942-14.204c2.353-2.075 5.632-2.721 7.846-2.908 1.392-.118 2.583.986 2.594 2.383.031 4.263-1.08 13.538-9.85 23.084l-10.532-8.355z" fill="#263238"/>
        <path d="M357.325 248.56s7.386 3.475 11.711 10.311l-2.359 1.823s-4.81-6.067-10.827-9.551l1.475-2.583z" fill="#407bff"/>
        <path d="m342.503 209.62-2.993 4.704s1.56 1.151 3.743.368l-.75-5.072z" fill="#eb827e"/>
        <path d="M341.993 212.596c-1.837 0-3.331-1.598-3.331-3.563 0-1.964 1.495-3.563 3.331-3.563 1.837 0 3.331 1.598 3.331 3.563s-1.494 3.563-3.331 3.563zm0-6.375c-1.423 0-2.581 1.262-2.581 2.813 0 1.551 1.158 2.813 2.581 2.813s2.581-1.262 2.581-2.813c0-1.551-1.158-2.813-2.581-2.813z" fill="#407bff"/>
        <path d="M340.699 208.965c-.006.607.302 1.105.7 1.11.398.005.752-.508.742-1.098-.01-.59-.302-1.104-.701-1.103-.399 0-.728.485-.741 1.091z" fill="#1a2e35"/>
        <path d="M364.124 205.173c.267 8.069.555 11.485-3.106 15.986-5.795 4.779-15.492 5.341-18.163-2.493-2.408-7.047-2.44-19.03 5.115-23.012 5.386-2.836 12.051-.77 14.888 4.616a11.05 11.05 0 0 1 1.266 4.903z" fill="#fcc1bb"/>
        <path d="m352.79 224.595-.058-.395a1.47 1.47 0 0 0-1.845-1.204l-3.28.899c1.577.661 3.359.874 5.183.7z" opacity=".2" fill="#1a2e35"/>
        <path d="M342.883 206.215a.325.325 0 0 1-.282-.11 2.494 2.494 0 0 0-2.076-.939.319.319 0 0 1-.354-.272.324.324 0 0 1 .277-.356 3.1 3.1 0 0 1 2.639 1.154.32.32 0 0 1-.035.449l-.001.001a.362.362 0 0 1-.168.073z" fill="#1a2e35"/>
        <path fill="#fcc1bb" d="m352.49 222.556 1.768 11.985 10.009-2.072-3.206-12.267-8.571 2.354z"/>
        <path d="M342.463 198.631c3.405 6.484 5.765.553 5.14 5.78-.626 5.226 1.252 6.92 1.252 6.92l6.856 10.225c.363.541 1.059.719 1.655.458 1.779-.78 2.933-.609 3.567-.351.445.181.945.128 1.305-.191 1.548-1.37 5.222-5.296 6.35-12.496 2.211-14.108-8.63-16.259-8.63-16.259-6.024-1.252-4.48-7.637-8.061-7.636-2.73.001-1.926 4.494-1.926 4.494s-2.924-2.19-4.619-1.444c-2.19.963-.248 5.457-.248 5.457s-5.979-1.315-2.641 5.043z" fill="#1a2e35"/>
        <path fill="#407bff" d="M349.512 207.533h-10.003l.482-1h9.521v1z"/>
        <path d="M347.459 208.768a6.197 6.197 0 0 0 1.026 4.647c1.269 1.783 3.29.988 4.097-.916.732-1.724.939-4.715-.898-5.829-1.836-1.115-3.848.116-4.225 2.098z" fill="#ffc3bd"/>
        <path d="M349.79 230.158s6.426-6.074 13.167-5.583c4.583.333 6 6.083 6 6.083l-19.167-.5z" fill="#263238"/>
        <path d="M349.79 230.158s6.426-6.074 13.167-5.583c4.583.333 6 6.083 6 6.083l-19.167-.5z" opacity=".2" fill="#ffffff"/>
        <path d="m354.131 303.659-14.083-68.757c-.564-2.753 1.297-5.281 4.06-5.511 8.833-.737 26.645-1.449 32.601 4.018 13.883 12.745 14.984 71.25 14.984 71.25l-37.562-1z" fill="#263238"/>
        <path d="M344.04 233.825s-2.241.858-3.733 2.346l4.633 22.618c4.138-9.27 3.853-24.964 3.853-24.964h-4.753z" opacity=".5"/>
        <path d="m302.056 266.771-5.975-2.987-8.375 3.875v4.625s13.003-.481 13-.458c0 0 14.667 5.417 20.083 4.583 5.417-.833 22.667-27.5 22.667-27.5l-8.667-8.417-16.5 26.083-16.233.196z" fill="#fcc1bb"/>
        <path d="M328.957 248.075s6-11.833 9.833-15.583 10.155-3.246 10.155-3.246 2.25 13.723-9.572 27.996l-10.416-9.167z" fill="#263238"/>
        <path d="M328.957 245.846s7.305 3.813 11.583 11.313l-2.333 2s-4.758-6.656-10.708-10.479l1.458-2.834z" fill="#263238"/>
        <path d="M328.957 245.846s7.305 3.813 11.583 11.313l-2.333 2s-4.758-6.656-10.708-10.479l1.458-2.834z" opacity=".2" fill="#ffffff"/>
        <path fill="#fcc1bb" d="m350.082 378.721 3.427 16.603 6.76-1-1.625-16.165-8.562.562z"/>
        <path opacity=".2" d="m359.715 388.809-1.071-10.65-8.562.562 2.142 10.379 7.491-.291z"/>
        <path d="M390.194 303.159s3.433 18-8.317 18S354.499 325 354.499 325s4.5 4.274 5.5 58.744l-9.75.415s-16.195-61.479-13-68.235c4.5-9.515 27.801-12.765 27.801-12.765h25.144z" fill="#407bff"/>
        <path d="M390.194 303.159s3.433 18-8.317 18S354.499 325 354.499 325s4.5 4.274 5.5 58.744l-9.75.415s-16.195-61.479-13-68.235c4.5-9.515 27.801-12.765 27.801-12.765h25.144z" opacity=".2"/>
        <path fill="#407bff" d="m348.182 381.242 13.256-.333-.423 5.5-11.122.476-1.711-5.643z"/>
        <path opacity=".5" fill="#ffffff" d="m348.182 381.242 13.256-.333-.423 5.5-11.122.476-1.711-5.643z"/>
        <path d="M350.466 396.369c-.875.105-1.799.054-2.134-.288a.631.631 0 0 1-.074-.727.873.873 0 0 1 .478-.453c1.137-.465 3.762.644 3.877.693a.166.166 0 0 1 .101.164.176.176 0 0 1-.118.153c-.695.215-1.408.368-2.13.458zm-1.284-1.235a1.1 1.1 0 0 0-.314.08.465.465 0 0 0-.299.272c-.099.223-.043.318.011.369.382.419 2.159.217 3.45-.102a7.765 7.765 0 0 0-2.848-.619z" fill="#407bff"/>
        <path d="M352.57 395.912a.1.1 0 0 1-.07.002c-.887-.272-2.762-1.596-2.707-2.406-.006-.193.11-.443.564-.544.331-.076.679-.013.963.173.985.63 1.401 2.506 1.421 2.593a.165.165 0 0 1-.057.16.16.16 0 0 1-.114.022zm-2.064-2.645-.097.003c-.297.061-.302.185-.309.229.014.483 1.267 1.544 2.202 1.955a3.945 3.945 0 0 0-1.194-2.046.88.88 0 0 0-.602-.141z" fill="#407bff"/>
        <path d="m353.197 394.839 7.686-.922a.623.623 0 0 1 .662.411l2.14 6.086a1.037 1.037 0 0 1-.837 1.378c-2.776.284-5.258.428-8.707.847-4.07.49-2.979.853-7.757 1.495-2.879.384-3.8-2.83-2.597-3.138 5.511-1.376 5.89-3.135 7.808-5.397a2.482 2.482 0 0 1 1.602-.76z" fill="#407bff"/>
        <path fill="#fcc1bb" d="m330.302 383.169 6.375 15.479 6.208-1.239-4.27-16.563-8.313 2.323z"/>
        <path opacity=".2" d="m341.464 391.895-2.849-11.049-8.313 2.323 4.145 10.063 7.017-1.337z"/>
        <path d="M390.194 303.159s7.259 18.775-16.737 18c-9.19-.297-48.991 9-48.991 9s7.178 3.75 16.178 54l-10.188 2.313s-28.879-57.057-25.684-63.813c4.5-9.515 51.857-19.5 51.857-19.5h33.565z" fill="#407bff"/>
        <path fill="#407bff" d="m329.207 385.825 12.083-2.583 1.25 5-11.583 2.667-1.75-5.084z"/>
        <path opacity=".5" fill="#ffffff" d="m329.207 385.825 12.083-2.583 1.25 5-11.583 2.667-1.75-5.084z"/>
        <path d="M332.84 399.356c-.875.105-1.799.053-2.134-.288a.631.631 0 0 1-.074-.727.876.876 0 0 1 .478-.453c1.137-.464 3.762.644 3.877.693a.168.168 0 0 1 .102.164.176.176 0 0 1-.118.153c-.696.214-1.409.368-2.131.458zm-1.284-1.236a1.1 1.1 0 0 0-.314.08.464.464 0 0 0-.299.273c-.099.222-.043.317.011.369.382.419 2.159.217 3.45-.102a7.757 7.757 0 0 0-2.848-.62z" fill="#407bff"/>
        <path d="M334.944 398.898a.1.1 0 0 1-.07.002c-.887-.272-2.762-1.596-2.707-2.406-.006-.193.11-.442.564-.544.331-.076.679-.013.963.173.985.629 1.401 2.506 1.421 2.593a.165.165 0 0 1-.057.16.153.153 0 0 1-.114.022zm-2.064-2.644-.097.003c-.297.061-.302.185-.309.229.014.483 1.267 1.544 2.202 1.955a3.945 3.945 0 0 0-1.194-2.046.873.873 0 0 0-.602-.141z" fill="#407bff"/>
        <path d="m335.571 397.825 7.686-.923a.623.623 0 0 1 .662.411l2.14 6.086a1.036 1.036 0 0 1-.837 1.378c-2.776.284-5.258.428-8.707.847-4.07.49-2.979.853-7.757 1.495-2.879.384-3.8-2.83-2.597-3.138 5.511-1.376 5.89-3.135 7.808-5.397.422-.44.993-.71 1.602-.759z" fill="#407bff"/>
        <path d="M412.158 388.133c-6.112-1.005-15.177-2.427-19.214-2.725a72.835 72.835 0 0 0-3.222-.147v-31.353h-7.677v31.353a71.26 71.26 0 0 0-3.222.147c-4.037.297-13.102 1.72-19.214 2.725a7.284 7.284 0 0 0-6.1 7.191v1.584h7.446l1-2.228s13.995-2.424 18.711-2.772c2.602-.192 7.835-.192 10.438 0 4.716.347 18.71 2.772 18.71 2.772l1 2.228h7.446v-1.584a7.285 7.285 0 0 0-6.102-7.191z" fill="#263238"/>
        <path d="M412.158 388.133c-6.112-1.005-15.177-2.427-19.214-2.725a72.835 72.835 0 0 0-3.222-.147v-31.353h-7.677v31.353a71.26 71.26 0 0 0-3.222.147c-4.037.297-13.102 1.72-19.214 2.725a7.284 7.284 0 0 0-6.1 7.191v1.584h7.446l1-2.228s13.995-2.424 18.711-2.772c2.602-.192 7.835-.192 10.438 0 4.716.347 18.71 2.772 18.71 2.772l1 2.228h7.446v-1.584a7.285 7.285 0 0 0-6.102-7.191z" opacity=".1" fill="#ffffff"/>
        <path d="M388.481 358.409h-5.194a3.566 3.566 0 0 1-3.566-3.566v-26.501h12.326v26.501a3.567 3.567 0 0 1-3.566 3.566z" fill="#263238"/>
        <path opacity=".2" d="M392.047 328.341v7.317h-12.326v-7.317h12.326z"/>
        <path fill="#263238" d="M420.388 402.159a5.25 5.25 0 1 1-10.5 0 5.25 5.25 0 0 1 10.5 0z"/>
        <path fill="#263238" d="M361.879 402.159a5.25 5.25 0 1 1-10.5 0 5.25 5.25 0 0 1 10.5 0z"/>
        <path d="M427.556 322.101a101.37 101.37 0 0 0-22.488-3.097c-7.809-.196-37.039-.029-43.98-.032a101.496 101.496 0 0 0-25.097 3.129c-5.153 1.314-3.565 8.751 1.09 8.837.411.008 88.772-.019 89.096-.004 4.869.221 6.645-7.49 1.379-8.833z" fill="#407bff"/>
        <path d="M427.556 322.101a101.37 101.37 0 0 0-22.488-3.097c-7.809-.196-37.039-.029-43.98-.032a101.496 101.496 0 0 0-25.097 3.129c-5.153 1.314-3.565 8.751 1.09 8.837.411.008 88.772-.019 89.096-.004 4.869.221 6.645-7.49 1.379-8.833z" opacity=".3"/>
        <path d="M338.384 330.779a92.211 92.211 0 0 1 45.408 0c5.615 1.432 8.01-7.246 2.393-8.679-16.395-4.181-33.798-4.181-50.193 0-5.609 1.431-3.233 10.113 2.392 8.679z" fill="#407bff"/>
        <path d="M338.384 330.779a92.211 92.211 0 0 1 45.408 0c5.615 1.432 8.01-7.246 2.393-8.679-16.395-4.181-33.798-4.181-50.193 0-5.609 1.431-3.233 10.113 2.392 8.679z" fill="#ffffff" opacity=".4"/>
        <path d="M403.923 257.701c-.929-.018-1.863.398-2.485 1.432-11.905 19.797-16.134 43.595-12.027 66.3.257 1.423 1.232 2.086 2.313 2.16 1.802.123 33.882.009 35.046.007 1.75-.004 3.672-1.49 3.261-3.762-3.817-21.099.386-43.325 11.422-61.677 1.371-2.281-.651-4.421-2.696-4.46-.93-.018-32.789.039-34.834 0z" fill="#407bff"/>
        <path d="M403.923 257.701c-.929-.018-1.863.398-2.485 1.432-11.905 19.797-16.134 43.595-12.027 66.3.257 1.423 1.232 2.086 2.313 2.16 1.802.123 33.882.009 35.046.007 1.75-.004 3.672-1.49 3.261-3.762-3.817-21.099.386-43.325 11.422-61.677 1.371-2.281-.651-4.421-2.696-4.46-.93-.018-32.789.039-34.834 0z" opacity=".2"/>
        <path d="M395.197 323.838c-3.817-21.099.386-43.325 11.422-61.677 1.995-3.317-3.191-6.337-5.181-3.028-11.905 19.797-16.134 43.595-12.027 66.3.687 3.794 6.47 2.186 5.786-1.595z" fill="#407bff"/>
        <path d="M395.197 323.838c-3.817-21.099.386-43.325 11.422-61.677 1.995-3.317-3.191-6.337-5.181-3.028-11.905 19.797-16.134 43.595-12.027 66.3.687 3.794 6.47 2.186 5.786-1.595z" fill="#ffffff" opacity=".4"/>
        <path d="m355.908 297.75 30.913 28.274c2.134 1.951 5.324-1.222 3.182-3.182l-30.913-28.275c-2.134-1.951-5.325 1.223-3.182 3.183z" fill="#263238"/>
        <path d="m355.908 297.75 30.913 28.274c2.134 1.951 5.324-1.222 3.182-3.182l-30.913-28.275c-2.134-1.951-5.325 1.223-3.182 3.183z" fill="#ffffff" opacity=".5"/>
        <path d="M359.09 294.568c-2.133-1.951-5.324 1.222-3.182 3.182l5.914 5.409h6.661l-9.393-8.591z" opacity=".2"/>
        <path d="M339.79 299.159h42.416c3.861 0 3.867-6 0-6H339.79c-3.86 0-3.867 6 0 6z" fill="#407bff"/>
        <path d="M339.79 299.159h42.416c3.861 0 3.867-6 0-6H339.79c-3.86 0-3.867 6 0 6z" fill="#ffffff" opacity=".3"/>
    </g>
</svg>
