<?xml version="1.0" encoding="UTF-8"?>
<svg data-bbox="0 54.952 500 372.609" viewBox="0 0 500 500" xmlns="http://www.w3.org/2000/svg" data-type="ugc">
    <g>
        <path fill="#ebebeb" d="M500 382.398v.25H0v-.25h500z"/>
        <path fill="#ebebeb" d="M449.901 398.494v.25h-33.122v-.25h33.122z"/>
        <path fill="#ebebeb" d="M331.22 401.208v.25h-8.693v-.25h8.693z"/>
        <path fill="#ebebeb" d="M415.778 389.208v.25h-19.192v-.25h19.192z"/>
        <path fill="#ebebeb" d="M95.652 390.888v.25H52.459v-.25h43.193z"/>
        <path fill="#ebebeb" d="M110.889 390.888v.25h-6.333v-.25h6.333z"/>
        <path fill="#ebebeb" d="M225.147 395.111v.25h-93.676v-.25h93.676z"/>
        <path d="M237.014 337.8H43.915a5.715 5.715 0 0 1-5.708-5.708V60.66a5.715 5.715 0 0 1 5.708-5.708h193.099a5.715 5.715 0 0 1 5.707 5.708v271.432a5.715 5.715 0 0 1-5.707 5.708zM43.915 55.203a5.464 5.464 0 0 0-5.458 5.458v271.432a5.464 5.464 0 0 0 5.458 5.458h193.099a5.463 5.463 0 0 0 5.457-5.458V60.66a5.464 5.464 0 0 0-5.457-5.458H43.915z" fill="#ebebeb"/>
        <path d="M453.31 337.8H260.212a5.714 5.714 0 0 1-5.707-5.708V60.66a5.715 5.715 0 0 1 5.707-5.708H453.31a5.714 5.714 0 0 1 5.708 5.708v271.432a5.714 5.714 0 0 1-5.708 5.708zM260.212 55.203a5.463 5.463 0 0 0-5.457 5.458v271.432a5.463 5.463 0 0 0 5.457 5.458H453.31a5.464 5.464 0 0 0 5.458-5.458V60.66a5.464 5.464 0 0 0-5.458-5.458H260.212z" fill="#ebebeb"/>
        <path d="M207 127.667c0-6.259-5.074-11.333-11.333-11.333-1.132 0-2.223.171-3.254.48a24.2 24.2 0 0 0 .254-3.48c0-13.255-10.745-24-24-24-1.511 0-2.987.146-4.421.413-3.689-6.037-10.32-10.08-17.912-10.08-11.492 0-20.813 9.233-20.984 20.684-.118-.002-.232-.018-.349-.018-10.677 0-19.333 8.656-19.333 19.333 0 10.678 8.656 19.333 19.333 19.333h71l-.014-.016c6.109-.169 11.013-5.165 11.013-11.316z" fill="#f0f0f0"/>
        <path d="M285 178.371a5.629 5.629 0 0 0-7.245-5.391c.082-.565.126-1.141.126-1.728 0-6.584-5.337-11.921-11.921-11.921-.75 0-1.484.073-2.196.205-1.832-2.999-5.126-5.007-8.897-5.007-5.708 0-10.338 4.586-10.423 10.274-.058-.001-.115-.009-.173-.009a9.602 9.602 0 0 0-9.603 9.603 9.602 9.602 0 0 0 9.603 9.603h35.266l-.007-.008a5.626 5.626 0 0 0 5.47-5.621z" fill="#f0f0f0"/>
        <path d="M409.5 123.551a3.448 3.448 0 0 0-4.438-3.302 7.303 7.303 0 0 0-8.571-8.236 6.378 6.378 0 0 0-5.45-3.067 6.387 6.387 0 0 0-6.385 6.294c-.036-.001-.07-.005-.106-.005a5.883 5.883 0 0 0 0 11.766h21.604l-.004-.005a3.448 3.448 0 0 0 3.35-3.445z" fill="#f0f0f0"/>
        <text transform="translate(134.999 112.982)" fill="#ebebeb" font-family="Bebas" font-size="7" glyph-orientation-vertical="0" writing-mode="tb">101010000111110101010101</text>
        <text transform="translate(142.499 112.982)" fill="#ebebeb" font-family="Bebas" font-size="7" glyph-orientation-vertical="0" writing-mode="tb">001101100110001101011111</text>
        <text transform="translate(149.999 112.982)" fill="#ebebeb" font-family="Bebas" font-size="7" glyph-orientation-vertical="0" writing-mode="tb">111110101010101011110000</text>
        <text transform="translate(157.499 112.982)" fill="#ebebeb" font-family="Bebas" font-size="7" glyph-orientation-vertical="0" writing-mode="tb">101010000111110101010101</text>
        <text transform="translate(164.999 112.982)" fill="#ebebeb" font-family="Bebas" font-size="7" glyph-orientation-vertical="0" writing-mode="tb">000101011111000000110101</text>
        <text transform="translate(172.499 112.982)" fill="#ebebeb" font-family="Bebas" font-size="7" glyph-orientation-vertical="0" writing-mode="tb">110011001101010101001100</text>
        <path fill="#f5f5f5" d="M272.011 238.652v144.085H45.5V238.652h226.511z"/>
        <path fill="#e0e0e0" d="M272.011 238.652v9.764H45.5v-9.764h226.511z"/>
        <path d="M268.642 243.534a2.941 2.941 0 1 1-5.883 0 2.941 2.941 0 0 1 5.883 0z" fill="#fafafa"/>
        <path d="M258.868 243.534a2.941 2.941 0 1 1-5.883 0 2.941 2.941 0 0 1 5.883 0z" fill="#fafafa"/>
        <path d="M249.093 243.534a2.941 2.941 0 1 1-5.883 0 2.941 2.941 0 0 1 5.883 0z" fill="#fafafa"/>
        <path d="m86.463 265.341-1.395-1.94a2.699 2.699 0 0 0-2.172-1.136h-9.825a2.36 2.36 0 0 0-2.04 1.136l-1.17 1.94a2.362 2.362 0 0 1-2.04 1.137h-5.863c-1.398 0-2.465 1.143-2.383 2.552l1.898 32.813c.082 1.41 1.281 2.552 2.679 2.552h46.469c1.398 0 2.465-1.143 2.383-2.552l-1.898-32.813c-.082-1.41-1.281-2.552-2.679-2.552H88.635a2.695 2.695 0 0 1-2.172-1.137z" fill="#e0e0e0"/>
        <path d="M113.07 269.605H70.497c-1.775 0-3.342 1.427-3.501 3.188l-2.559 28.414c-.159 1.761 1.152 3.188 2.927 3.188h42.572c1.775 0 3.342-1.427 3.501-3.188l2.559-28.414c.159-1.761-1.151-3.188-2.926-3.188z" fill="#e6e6e6"/>
        <path d="m157.354 265.341-1.395-1.94a2.699 2.699 0 0 0-2.172-1.136h-9.825a2.36 2.36 0 0 0-2.04 1.136l-1.17 1.94a2.362 2.362 0 0 1-2.04 1.137h-5.863c-1.398 0-2.465 1.143-2.383 2.552l1.898 32.813c.081 1.41 1.281 2.552 2.679 2.552h46.469c1.398 0 2.465-1.143 2.383-2.552l-1.898-32.813c-.082-1.41-1.281-2.552-2.679-2.552h-19.791a2.699 2.699 0 0 1-2.173-1.137z" fill="#e0e0e0"/>
        <path d="M183.961 269.605h-42.572c-1.775 0-3.342 1.427-3.501 3.188l-2.559 28.414c-.159 1.761 1.152 3.188 2.927 3.188h42.572c1.775 0 3.342-1.427 3.501-3.188l2.559-28.414c.159-1.761-1.152-3.188-2.927-3.188z" fill="#e6e6e6"/>
        <path d="m228.246 265.341-1.395-1.94a2.7 2.7 0 0 0-2.172-1.136h-9.825a2.36 2.36 0 0 0-2.04 1.136l-1.17 1.94a2.362 2.362 0 0 1-2.04 1.137h-5.863c-1.398 0-2.465 1.143-2.383 2.552l1.898 32.813c.082 1.41 1.281 2.552 2.679 2.552h46.469c1.398 0 2.465-1.143 2.384-2.552l-1.898-32.813c-.082-1.41-1.281-2.552-2.679-2.552H230.42a2.7 2.7 0 0 1-2.174-1.137z" fill="#e0e0e0"/>
        <path d="M254.853 269.605h-42.572c-1.775 0-3.342 1.427-3.501 3.188l-2.559 28.414c-.159 1.761 1.152 3.188 2.927 3.188h42.572c1.775 0 3.342-1.427 3.501-3.188l2.559-28.414c.158-1.761-1.152-3.188-2.927-3.188z" fill="#e6e6e6"/>
        <path d="m86.463 325.379-1.395-1.94a2.7 2.7 0 0 0-2.172-1.137h-9.825c-.846 0-1.612.427-2.04 1.137l-1.17 1.94a2.362 2.362 0 0 1-2.04 1.137h-5.863c-1.398 0-2.465 1.143-2.383 2.552l1.898 32.813c.082 1.41 1.281 2.552 2.679 2.552h46.469c1.398 0 2.465-1.143 2.383-2.552l-1.898-32.813c-.082-1.41-1.281-2.552-2.679-2.552H88.635a2.698 2.698 0 0 1-2.172-1.137z" fill="#e0e0e0"/>
        <path d="M113.07 329.643H70.497c-1.775 0-3.342 1.427-3.501 3.188l-2.559 28.414c-.159 1.761 1.152 3.188 2.927 3.188h42.572c1.775 0 3.342-1.427 3.501-3.188l2.559-28.414c.159-1.761-1.151-3.188-2.926-3.188z" fill="#e6e6e6"/>
        <path d="m157.354 325.379-1.395-1.94a2.7 2.7 0 0 0-2.172-1.137h-9.825c-.846 0-1.612.427-2.04 1.137l-1.17 1.94a2.362 2.362 0 0 1-2.04 1.137h-5.863c-1.398 0-2.465 1.143-2.383 2.552l1.898 32.813c.081 1.41 1.281 2.552 2.679 2.552h46.469c1.398 0 2.465-1.143 2.383-2.552l-1.898-32.813c-.082-1.41-1.281-2.552-2.679-2.552h-19.791a2.701 2.701 0 0 1-2.173-1.137z" fill="#e0e0e0"/>
        <path d="M183.961 329.643h-42.572c-1.775 0-3.342 1.427-3.501 3.188l-2.559 28.414c-.159 1.761 1.152 3.188 2.927 3.188h42.572c1.775 0 3.342-1.427 3.501-3.188l2.559-28.414c.159-1.761-1.152-3.188-2.927-3.188z" fill="#e6e6e6"/>
        <path d="m228.246 325.379-1.395-1.94a2.701 2.701 0 0 0-2.172-1.137h-9.825c-.846 0-1.612.427-2.04 1.137l-1.17 1.94a2.362 2.362 0 0 1-2.04 1.137h-5.863c-1.398 0-2.465 1.143-2.383 2.552l1.898 32.813c.082 1.41 1.281 2.552 2.679 2.552h46.469c1.398 0 2.465-1.143 2.384-2.552l-1.898-32.813c-.082-1.41-1.281-2.552-2.679-2.552H230.42a2.702 2.702 0 0 1-2.174-1.137z" fill="#e0e0e0"/>
        <path d="M254.853 329.643h-42.572c-1.775 0-3.342 1.427-3.501 3.188l-2.559 28.414c-.159 1.761 1.152 3.188 2.927 3.188h42.572c1.775 0 3.342-1.427 3.501-3.188l2.559-28.414c.158-1.761-1.152-3.188-2.927-3.188z" fill="#e6e6e6"/>
        <path d="M450.025 359.163h-73a2.667 2.667 0 0 0-2.667 2.667v17.667a2.667 2.667 0 0 0 2.667 2.667h73a2.667 2.667 0 0 0 2.667-2.667V361.83a2.668 2.668 0 0 0-2.667-2.667z" fill="#e6e6e6"/>
        <path d="M444.962 370.663a4.833 4.833 0 1 1-9.666 0 4.833 4.833 0 0 1 9.666 0z" fill="#f5f5f5"/>
        <path d="M442.587 370.663a2.458 2.458 0 1 1-4.916 0 2.458 2.458 0 0 1 4.916 0z" fill="#e6e6e6"/>
        <path fill="#f5f5f5" d="M429.775 367.913v5.5h-5.5v-5.5h5.5z"/>
        <path d="M450.025 335.163h-73a2.667 2.667 0 0 0-2.667 2.667v17.667a2.667 2.667 0 0 0 2.667 2.667h73a2.667 2.667 0 0 0 2.667-2.667V337.83a2.668 2.668 0 0 0-2.667-2.667z" fill="#e6e6e6"/>
        <path d="M444.962 346.663a4.833 4.833 0 1 1-9.666 0 4.833 4.833 0 0 1 9.666 0z" fill="#f5f5f5"/>
        <path d="M442.587 346.663a2.458 2.458 0 1 1-4.916 0 2.458 2.458 0 0 1 4.916 0z" fill="#e6e6e6"/>
        <path fill="#f5f5f5" d="M429.775 343.913v5.5h-5.5v-5.5h5.5z"/>
        <path d="M450.025 311.163h-73a2.667 2.667 0 0 0-2.667 2.667v17.667a2.667 2.667 0 0 0 2.667 2.667h73a2.667 2.667 0 0 0 2.667-2.667V313.83a2.668 2.668 0 0 0-2.667-2.667z" fill="#e6e6e6"/>
        <path d="M444.962 322.663a4.833 4.833 0 1 1-9.666 0 4.833 4.833 0 0 1 9.666 0z" fill="#f5f5f5"/>
        <path d="M442.587 322.663a2.458 2.458 0 1 1-4.916 0 2.458 2.458 0 0 1 4.916 0z" fill="#e6e6e6"/>
        <path fill="#f5f5f5" d="M429.775 319.913v5.5h-5.5v-5.5h5.5z"/>
        <path d="M450.025 287.163h-73a2.667 2.667 0 0 0-2.667 2.667v17.667a2.667 2.667 0 0 0 2.667 2.667h73a2.667 2.667 0 0 0 2.667-2.667V289.83a2.668 2.668 0 0 0-2.667-2.667z" fill="#e6e6e6"/>
        <path d="M444.962 298.663a4.833 4.833 0 1 1-9.666 0 4.833 4.833 0 0 1 9.666 0z" fill="#f5f5f5"/>
        <path d="M442.587 298.663a2.458 2.458 0 1 1-4.916 0 2.458 2.458 0 0 1 4.916 0z" fill="#e6e6e6"/>
        <path fill="#f5f5f5" d="M429.775 295.913v5.5h-5.5v-5.5h5.5z"/>
        <path d="M450.025 263.163h-73a2.667 2.667 0 0 0-2.667 2.667v17.667a2.667 2.667 0 0 0 2.667 2.667h73a2.667 2.667 0 0 0 2.667-2.667V265.83a2.668 2.668 0 0 0-2.667-2.667z" fill="#e6e6e6"/>
        <path d="M444.962 274.663a4.833 4.833 0 1 1-9.666 0 4.833 4.833 0 0 1 9.666 0z" fill="#f5f5f5"/>
        <path d="M442.587 274.663a2.458 2.458 0 1 1-4.916 0 2.458 2.458 0 0 1 4.916 0z" fill="#e6e6e6"/>
        <path fill="#f5f5f5" d="M429.775 271.913v5.5h-5.5v-5.5h5.5z"/>
        <path d="M450.025 239.163h-73a2.667 2.667 0 0 0-2.667 2.667v17.667a2.667 2.667 0 0 0 2.667 2.667h73a2.667 2.667 0 0 0 2.667-2.667V241.83a2.668 2.668 0 0 0-2.667-2.667z" fill="#e6e6e6"/>
        <path d="M444.962 250.663a4.833 4.833 0 1 1-9.666 0 4.833 4.833 0 0 1 9.666 0z" fill="#f5f5f5"/>
        <path d="M442.587 250.663a2.458 2.458 0 1 1-4.916 0 2.458 2.458 0 0 1 4.916 0z" fill="#e6e6e6"/>
        <path fill="#f5f5f5" d="M429.775 247.913v5.5h-5.5v-5.5h5.5z"/>
        <path fill="#f5f5f5" d="M443.889 416.238c0 6.254-86.807 11.323-193.889 11.323-107.082 0-193.889-5.07-193.889-11.323 0-6.254 86.807-11.323 193.889-11.323 107.082 0 193.889 5.07 193.889 11.323z"/>
        <path d="M103.539 357.175c-1.555-2.561-4.116-.334-4.116-.334.366-4.907-4.149-8.263-4.149-8.263s5.246 0 5.978-5.005c.732-5.005-1.829-2.677-4.232-2.711-2.403-.034-4.914 6.985-1.746 10.933 3.169 3.948 2.319 10.686-4.997 17.167-1.785 1.581-2.998 3.686-3.818 5.963.552-5.954.864-14.343-.888-19.944-2.976-9.512 2.695-12.073 4.341-16.829 1.646-4.756-4.341-8.78-4.341-8.78s5.622-2.561 2.878-5.488c-2.744-2.927-8.414-2.528-8.414 1.297s3.841 5.289 3.841 5.289 4.39 4.573 4.39 6.951c0 2.378-4.39 7.5-4.39 7.5s2.012-4.384-2.012-4.57c-4.024-.186-5.305 5.118-3.659 7.496s4.39.366 4.39.366.32 5.122 1.257 8.231c.412 1.368.219 6.733-.128 12.315-.811-2.016-1.957-3.862-3.563-5.285-7.317-6.481-8.166-13.219-4.997-17.167s.657-10.967-1.746-10.933c-2.403.034-4.964-2.294-4.232 2.711s5.978 5.005 5.978 5.005-4.514 3.357-4.148 8.263c0 0-2.561-2.227-4.116.334-2.776 4.572 3.658 7.408 4.74 5.158 0 0 13.644 9.659 10.351 23.561l.765 1.129c-.098 1.122-.16 1.798-.16 1.798l1.067-.459 1.214 1.792c-.063 3.475.311 6.043.311 6.043l3.262-4.815c-3.293-13.902 10.351-23.56 10.351-23.56 1.08 2.25 7.514-.586 4.738-5.159z" fill="#407bff"/>
        <path d="M103.539 357.175c-1.555-2.561-4.116-.334-4.116-.334.366-4.907-4.149-8.263-4.149-8.263s5.246 0 5.978-5.005c.732-5.005-1.829-2.677-4.232-2.711-2.403-.034-4.914 6.985-1.746 10.933 3.169 3.948 2.319 10.686-4.997 17.167-1.785 1.581-2.998 3.686-3.818 5.963.552-5.954.864-14.343-.888-19.944-2.976-9.512 2.695-12.073 4.341-16.829 1.646-4.756-4.341-8.78-4.341-8.78s5.622-2.561 2.878-5.488c-2.744-2.927-8.414-2.528-8.414 1.297s3.841 5.289 3.841 5.289 4.39 4.573 4.39 6.951c0 2.378-4.39 7.5-4.39 7.5s2.012-4.384-2.012-4.57c-4.024-.186-5.305 5.118-3.659 7.496s4.39.366 4.39.366.32 5.122 1.257 8.231c.412 1.368.219 6.733-.128 12.315-.811-2.016-1.957-3.862-3.563-5.285-7.317-6.481-8.166-13.219-4.997-17.167s.657-10.967-1.746-10.933c-2.403.034-4.964-2.294-4.232 2.711s5.978 5.005 5.978 5.005-4.514 3.357-4.148 8.263c0 0-2.561-2.227-4.116.334-2.776 4.572 3.658 7.408 4.74 5.158 0 0 13.644 9.659 10.351 23.561l.765 1.129c-.098 1.122-.16 1.798-.16 1.798l1.067-.459 1.214 1.792c-.063 3.475.311 6.043.311 6.043l3.262-4.815c-3.293-13.902 10.351-23.56 10.351-23.56 1.08 2.25 7.514-.586 4.738-5.159z" opacity=".2" fill="#407bff"/>
        <g opacity=".3">
            <path d="M103.539 357.175c-1.555-2.561-4.116-.334-4.116-.334.366-4.907-4.149-8.263-4.149-8.263s5.246 0 5.978-5.005c.732-5.005-1.829-2.677-4.232-2.711-2.403-.034-4.914 6.985-1.746 10.933 3.169 3.948 2.319 10.686-4.997 17.167-1.785 1.581-2.998 3.686-3.818 5.963.552-5.954.864-14.343-.888-19.944-2.976-9.512 2.695-12.073 4.341-16.829 1.646-4.756-4.341-8.78-4.341-8.78s5.622-2.561 2.878-5.488c-2.744-2.927-8.414-2.528-8.414 1.297s3.841 5.289 3.841 5.289 4.39 4.573 4.39 6.951c0 2.378-4.39 7.5-4.39 7.5s2.012-4.384-2.012-4.57c-4.024-.186-5.305 5.118-3.659 7.496s4.39.366 4.39.366.32 5.122 1.257 8.231c.412 1.368.219 6.733-.128 12.315-.811-2.016-1.957-3.862-3.563-5.285-7.317-6.481-8.166-13.219-4.997-17.167s.657-10.967-1.746-10.933c-2.403.034-4.964-2.294-4.232 2.711s5.978 5.005 5.978 5.005-4.514 3.357-4.148 8.263c0 0-2.561-2.227-4.116.334-2.776 4.572 3.658 7.408 4.74 5.158 0 0 13.644 9.659 10.351 23.561l.765 1.129c-.098 1.122-.16 1.798-.16 1.798l1.067-.459 1.214 1.792c-.063 3.475.311 6.043.311 6.043l3.262-4.815c-3.293-13.902 10.351-23.56 10.351-23.56 1.08 2.25 7.514-.586 4.738-5.159z" fill="#ffffff"/>
            <path d="M103.539 357.175c-1.555-2.561-4.116-.334-4.116-.334.366-4.907-4.149-8.263-4.149-8.263s5.246 0 5.978-5.005c.732-5.005-1.829-2.677-4.232-2.711-2.403-.034-4.914 6.985-1.746 10.933 3.169 3.948 2.319 10.686-4.997 17.167-1.785 1.581-2.998 3.686-3.818 5.963.552-5.954.864-14.343-.888-19.944-2.976-9.512 2.695-12.073 4.341-16.829 1.646-4.756-4.341-8.78-4.341-8.78s5.622-2.561 2.878-5.488c-2.744-2.927-8.414-2.528-8.414 1.297s3.841 5.289 3.841 5.289 4.39 4.573 4.39 6.951c0 2.378-4.39 7.5-4.39 7.5s2.012-4.384-2.012-4.57c-4.024-.186-5.305 5.118-3.659 7.496s4.39.366 4.39.366.32 5.122 1.257 8.231c.412 1.368.219 6.733-.128 12.315-.811-2.016-1.957-3.862-3.563-5.285-7.317-6.481-8.166-13.219-4.997-17.167s.657-10.967-1.746-10.933c-2.403.034-4.964-2.294-4.232 2.711s5.978 5.005 5.978 5.005-4.514 3.357-4.148 8.263c0 0-2.561-2.227-4.116.334-2.776 4.572 3.658 7.408 4.74 5.158 0 0 13.644 9.659 10.351 23.561l.765 1.129c-.098 1.122-.16 1.798-.16 1.798l1.067-.459 1.214 1.792c-.063 3.475.311 6.043.311 6.043l3.262-4.815c-3.293-13.902 10.351-23.56 10.351-23.56 1.08 2.25 7.514-.586 4.738-5.159z" opacity=".2" fill="#ffffff"/>
        </g>
        <path fill="#407bff" d="M100.87 416.477H69.617l-3.371-34.217h37.996l-3.372 34.217z"/>
        <path opacity=".5" fill="#ffffff" d="M100.87 416.477H69.617l-3.371-34.217h37.996l-3.372 34.217z"/>
        <path fill="#407bff" d="M105.91 378.484v7.55H64.577v-7.55h41.333z"/>
        <path opacity=".6" fill="#ffffff" d="M105.91 378.484v7.55H64.577v-7.55h41.333z"/>
        <path d="m387.867 377.423-1.395-1.94a2.7 2.7 0 0 0-2.172-1.137h-9.825a2.36 2.36 0 0 0-2.04 1.137l-1.17 1.94a2.362 2.362 0 0 1-2.04 1.137h-5.863c-1.398 0-2.465 1.143-2.383 2.552l1.898 32.813c.082 1.41 1.281 2.552 2.679 2.552h46.469c1.398 0 2.465-1.142 2.383-2.552l-1.898-32.813c-.082-1.409-1.281-2.552-2.679-2.552H390.04a2.701 2.701 0 0 1-2.173-1.137z" fill="#407bff"/>
        <path d="m387.867 377.423-1.395-1.94a2.7 2.7 0 0 0-2.172-1.137h-9.825a2.36 2.36 0 0 0-2.04 1.137l-1.17 1.94a2.362 2.362 0 0 1-2.04 1.137h-5.863c-1.398 0-2.465 1.143-2.383 2.552l1.898 32.813c.082 1.41 1.281 2.552 2.679 2.552h46.469c1.398 0 2.465-1.142 2.383-2.552l-1.898-32.813c-.082-1.409-1.281-2.552-2.679-2.552H390.04a2.701 2.701 0 0 1-2.173-1.137z" opacity=".5" fill="#ffffff"/>
        <path d="M414.474 381.687h-42.572c-1.775 0-3.342 1.427-3.501 3.188l-2.559 28.414c-.159 1.761 1.152 3.188 2.927 3.188h42.572c1.775 0 3.342-1.427 3.501-3.188l2.559-28.414c.158-1.761-1.152-3.188-2.927-3.188z" fill="#407bff"/>
        <path d="M414.474 381.687h-42.572c-1.775 0-3.342 1.427-3.501 3.188l-2.559 28.414c-.159 1.761 1.152 3.188 2.927 3.188h42.572c1.775 0 3.342-1.427 3.501-3.188l2.559-28.414c.158-1.761-1.152-3.188-2.927-3.188z" opacity=".7" fill="#ffffff"/>
        <path fill="#263238" d="M290.887 366.665v42.431h-60.763v-42.431h60.763z"/>
        <path d="M291.549 402.265H246.44c-.91 0-1.648.738-1.648 1.648v10.917c0 .91.738 1.648 1.648 1.648h45.109c.91 0 1.648-.738 1.648-1.648v-10.917c0-.911-.738-1.648-1.648-1.648z" fill="#407bff"/>
        <path d="M291.549 402.265H246.44c-.91 0-1.648.738-1.648 1.648v10.917c0 .91.738 1.648 1.648 1.648h45.109c.91 0 1.648-.738 1.648-1.648v-10.917c0-.911-.738-1.648-1.648-1.648z" opacity=".2"/>
        <path d="M275.061 402.265h-45.109c-.91 0-1.648.738-1.648 1.648v10.917c0 .91.738 1.648 1.648 1.648h45.109c.91 0 1.648-.738 1.648-1.648v-10.917a1.648 1.648 0 0 0-1.648-1.648z" fill="#407bff"/>
        <path d="M271.932 409.371a2.987 2.987 0 1 1-5.973 0 2.987 2.987 0 0 1 5.973 0z" opacity=".3" fill="#f5f5f5"/>
        <path fill="#407bff" d="M270.465 409.371a1.519 1.519 0 1 1-3.038 0 1.519 1.519 0 0 1 3.038 0z"/>
        <path opacity=".3" fill="#f5f5f5" d="M262.548 407.672v3.399h-3.399v-3.399h3.399z"/>
        <path d="M291.549 387.425H246.44c-.91 0-1.648.738-1.648 1.648v10.917c0 .91.738 1.648 1.648 1.648h45.109c.91 0 1.648-.738 1.648-1.648v-10.917c0-.91-.738-1.648-1.648-1.648z" fill="#407bff"/>
        <path d="M291.549 387.425H246.44c-.91 0-1.648.738-1.648 1.648v10.917c0 .91.738 1.648 1.648 1.648h45.109c.91 0 1.648-.738 1.648-1.648v-10.917c0-.91-.738-1.648-1.648-1.648z" opacity=".2"/>
        <path d="M275.061 387.425h-45.109c-.91 0-1.648.738-1.648 1.648v10.917c0 .91.738 1.648 1.648 1.648h45.109c.91 0 1.648-.738 1.648-1.648v-10.917a1.649 1.649 0 0 0-1.648-1.648z" fill="#407bff"/>
        <path d="M271.932 394.531a2.987 2.987 0 1 1-5.974 0 2.987 2.987 0 0 1 5.974 0z" opacity=".3" fill="#f5f5f5"/>
        <path d="M270.465 394.531a1.519 1.519 0 1 1-3.038 0 1.519 1.519 0 0 1 3.038 0z" fill="#407bff"/>
        <path opacity=".3" fill="#f5f5f5" d="M262.548 392.832v3.399h-3.399v-3.399h3.399z"/>
        <path d="M291.549 372.586H246.44c-.91 0-1.648.738-1.648 1.648v10.917c0 .91.738 1.648 1.648 1.648h45.109c.91 0 1.648-.738 1.648-1.648v-10.917c0-.911-.738-1.648-1.648-1.648z" fill="#407bff"/>
        <path d="M291.549 372.586H246.44c-.91 0-1.648.738-1.648 1.648v10.917c0 .91.738 1.648 1.648 1.648h45.109c.91 0 1.648-.738 1.648-1.648v-10.917c0-.911-.738-1.648-1.648-1.648z" opacity=".2"/>
        <path d="M275.061 372.586h-45.109c-.91 0-1.648.738-1.648 1.648v10.917c0 .91.738 1.648 1.648 1.648h45.109c.91 0 1.648-.738 1.648-1.648v-10.917a1.648 1.648 0 0 0-1.648-1.648z" fill="#407bff"/>
        <path d="M271.932 379.692a2.987 2.987 0 1 1-5.974 0 2.987 2.987 0 0 1 5.974 0z" opacity=".3" fill="#f5f5f5"/>
        <path d="M270.465 379.692a1.519 1.519 0 1 1-3.038 0 1.519 1.519 0 0 1 3.038 0z" fill="#407bff"/>
        <path opacity=".3" fill="#f5f5f5" d="M262.548 377.992v3.399h-3.399v-3.399h3.399z"/>
        <path d="M291.549 357.746H246.44c-.91 0-1.648.738-1.648 1.648v10.917c0 .91.738 1.648 1.648 1.648h45.109c.91 0 1.648-.738 1.648-1.648v-10.917c0-.91-.738-1.648-1.648-1.648z" fill="#407bff"/>
        <path d="M291.549 357.746H246.44c-.91 0-1.648.738-1.648 1.648v10.917c0 .91.738 1.648 1.648 1.648h45.109c.91 0 1.648-.738 1.648-1.648v-10.917c0-.91-.738-1.648-1.648-1.648z" opacity=".2"/>
        <path d="M275.061 357.746h-45.109c-.91 0-1.648.738-1.648 1.648v10.917c0 .91.738 1.648 1.648 1.648h45.109c.91 0 1.648-.738 1.648-1.648v-10.917a1.649 1.649 0 0 0-1.648-1.648z" fill="#407bff"/>
        <path d="M271.932 364.852a2.987 2.987 0 1 1-5.973 0 2.987 2.987 0 0 1 5.973 0z" opacity=".3" fill="#f5f5f5"/>
        <path d="M270.465 364.852a1.519 1.519 0 1 1-3.038 0 1.519 1.519 0 0 1 3.038 0z" fill="#407bff"/>
        <path opacity=".3" fill="#f5f5f5" d="M262.548 363.153v3.399h-3.399v-3.399h3.399z"/>
        <path fill="#263238" d="M345.298 389.323v19.774h-60.763v-19.774h60.763z"/>
        <path d="M345.961 402.265h-45.108c-.91 0-1.648.738-1.648 1.648v10.917c0 .91.738 1.648 1.648 1.648h45.108c.91 0 1.648-.738 1.648-1.648v-10.917a1.648 1.648 0 0 0-1.648-1.648z" fill="#407bff"/>
        <path d="M345.961 402.265h-45.108c-.91 0-1.648.738-1.648 1.648v10.917c0 .91.738 1.648 1.648 1.648h45.108c.91 0 1.648-.738 1.648-1.648v-10.917a1.648 1.648 0 0 0-1.648-1.648z" opacity=".2"/>
        <path d="M329.472 402.265h-45.109c-.91 0-1.648.738-1.648 1.648v10.917c0 .91.738 1.648 1.648 1.648h45.109c.91 0 1.648-.738 1.648-1.648v-10.917c0-.911-.738-1.648-1.648-1.648z" fill="#407bff"/>
        <path d="M326.344 409.371a2.987 2.987 0 1 1-5.973 0 2.987 2.987 0 0 1 5.973 0z" opacity=".3" fill="#f5f5f5"/>
        <path d="M324.876 409.371a1.519 1.519 0 1 1-3.038 0 1.519 1.519 0 0 1 3.038 0z" fill="#407bff"/>
        <path opacity=".3" fill="#f5f5f5" d="M316.96 407.672v3.399h-3.399v-3.399h3.399z"/>
        <path d="M345.961 387.425h-45.108c-.91 0-1.648.738-1.648 1.648v10.917c0 .91.738 1.648 1.648 1.648h45.108c.91 0 1.648-.738 1.648-1.648v-10.917a1.649 1.649 0 0 0-1.648-1.648z" fill="#407bff"/>
        <path d="M345.961 387.425h-45.108c-.91 0-1.648.738-1.648 1.648v10.917c0 .91.738 1.648 1.648 1.648h45.108c.91 0 1.648-.738 1.648-1.648v-10.917a1.649 1.649 0 0 0-1.648-1.648z" opacity=".2"/>
        <path d="M329.472 387.425h-45.109c-.91 0-1.648.738-1.648 1.648v10.917c0 .91.738 1.648 1.648 1.648h45.109c.91 0 1.648-.738 1.648-1.648v-10.917c0-.91-.738-1.648-1.648-1.648z" fill="#407bff"/>
        <path d="M326.344 394.531a2.987 2.987 0 1 1-5.974 0 2.987 2.987 0 0 1 5.974 0z" opacity=".3" fill="#f5f5f5"/>
        <path d="M324.876 394.531a1.519 1.519 0 1 1-3.038 0 1.519 1.519 0 0 1 3.038 0z" fill="#407bff"/>
        <path opacity=".3" fill="#f5f5f5" d="M316.96 392.832v3.399h-3.399v-3.399h3.399z"/>
        <path fill="#e4897b" d="m169.344 399.093-6.308 1.114-2.586-8.601-2.361-7.893 7.273-2.541 2.112 9.487 1.87 8.434z"/>
        <path opacity=".2" d="m167.508 390.854-7.028.925-2.375-7.98 7.265-2.583 2.138 9.638z"/>
        <path fill="#e4897b" d="M127.234 402h-6.405l-1.052-9.021-.952-8.235 7.604-1.262.43 9.799.375 8.719z"/>
        <path opacity=".2" d="m126.859 393.364-7.082-.311-.952-8.272 7.604-1.281.43 9.864z"/>
        <path d="M135.915 414.688a10.73 10.73 0 0 0-3.42-1.86s-3.72-3.69-5.51-14.8l-4.87-1.27a4.15 4.15 0 0 0-4.43 1.73 2.34 2.34 0 0 0-.31.64 28.353 28.353 0 0 0-.52 3.61c-.49 3.76-.07 12.2-.07 12.2h.88l.35-7.66c.13-2.6 2.12.45 2.69 3.25.57 2.8 1.78 5.78 7.48 5.92 6.65.13 9.41-.13 7.73-1.76z" fill="#263238"/>
        <path d="M178.415 413.938a10.73 10.73 0 0 0-3.42-1.86s-3.72-3.69-5.51-14.8l-4.87-1.27a4.15 4.15 0 0 0-4.43 1.73 2.34 2.34 0 0 0-.31.64 28.353 28.353 0 0 0-.52 3.61c-.49 3.76-.07 12.2-.07 12.2h.88l.35-7.66c.13-2.6 2.12.45 2.69 3.25.57 2.8 1.78 5.78 7.48 5.92 6.65.13 9.41-.13 7.73-1.76z" fill="#263238"/>
        <path d="m168.102 385.849-10.369 1.828c-10.464-26.07-17.907-47.831-23.163-65.889-2.831-9.744-5.193-18.409-6.888-26.098l.318 28.38V388h-10.219c-25.615-122-7.462-149.804-7.462-149.804l30.643-5.102c1.165 4.574 2.046 12.056 2.566 17.217l1.382 10.166 11.979 61.872 11.213 63.5z" fill="#407bff"/>
        <path d="m168.102 385.849-10.369 1.828c-10.464-26.07-17.907-47.831-23.163-65.889-2.831-9.744-5.193-18.409-6.888-26.098l.318 28.38V388h-10.219c-25.615-122-7.462-149.804-7.462-149.804l30.643-5.102c1.165 4.574 2.046 12.056 2.566 17.217l1.382 10.166 11.979 61.872 11.213 63.5z" opacity=".2"/>
        <path d="m177.246 202.973 10.345-10.221s.358-2.738 1.358-3.501c1.001-.763 8.098-3.337 8.965-2.765.867.572 2.075 6.308.861 7.356-1.214 1.049-7.668 2.393-8.329 2.28l-11.191 13.285-2.009-6.434z" fill="#eec1bb"/>
        <path d="M140.205 184.347c4.462 2.365 20.295 24.501 22.628 25.6 2.333 1.099 20.162-13.36 20.162-13.36l3.005 5.126s-14.628 20.667-22.898 19.667c-8.269-1-24.102-18.5-24.102-18.5l1.205-18.533z" fill="#263238"/>
        <path d="M140.205 184.347c4.462 2.365 20.295 24.501 22.628 25.6 2.333 1.099 20.162-13.36 20.162-13.36l3.005 5.126s-14.628 20.667-22.898 19.667c-8.269-1-24.102-18.5-24.102-18.5l1.205-18.533z" opacity=".1" fill="#ffffff"/>
        <path fill="#407bff" d="m182.015 197.129 1.235-1.167 3.25 5.5-1.167 2.25-3.318-6.583z"/>
        <path d="M145.36 209.342c-3.7-3.53-6.36-6.46-6.36-6.46l.28-4.4 1.39-4.27s6.24 5.75 4.69 15.13z" opacity=".2"/>
        <path d="M134.57 321.788c-2.831-9.744-5.038-18.409-6.733-26.098 0 0 .17-14.943 1.979-27.215.001-.001 4.489 35.103 4.754 53.313z" opacity=".2"/>
        <path d="M141.701 231.202c1.25-22.017.691-34.119.123-40.17-.625-6.449-1.619-6.686-1.619-6.686s-6.989-.682-13.068-.634a99.612 99.612 0 0 0-14.034 1.477 92.766 92.766 0 0 0-12.973 3.134c.71 2.026 1.354 3.949 1.951 5.757a353.597 353.597 0 0 1 2.149 6.667c1.203 3.864 2.14 7.206 2.888 10.199 2.339 9.261 2.831 15.189 3.324 22.954 0 0-7.692 20.099-9.192 34.849l25.5 2.75 3.5-14.75 3.5 15.25 14.25-5-6.299-35.797z" fill="#263238"/>
        <path d="M141.701 231.202c1.25-22.017.691-34.119.123-40.17-.625-6.449-1.619-6.686-1.619-6.686s-6.989-.682-13.068-.634a99.612 99.612 0 0 0-14.034 1.477 92.766 92.766 0 0 0-12.973 3.134c.71 2.026 1.354 3.949 1.951 5.757a353.597 353.597 0 0 1 2.149 6.667c1.203 3.864 2.14 7.206 2.888 10.199 2.339 9.261 2.831 15.189 3.324 22.954 0 0-7.692 20.099-9.192 34.849l25.5 2.75 3.5-14.75 3.5 15.25 14.25-5-6.299-35.797z" opacity=".1" fill="#ffffff"/>
        <path d="M108.35 216.332c-.34-1.68-.74-3.47-1.23-5.39-.31-1.22-.65-2.5-1.03-3.86.97-3.41 1.972-.745 1.972-.745s1.001 4.125.288 9.995z" opacity=".2"/>
        <path fill="#407bff" d="M116.833 191.333 129.5 214l3-24.333-5.75 7.208-9.917-5.542z"/>
        <path d="M116.5 183.25c-5.662 1.329-7.375 5.875-6.75 10l4.125-1.375s7.625 2.625 13.25 7.25c0 0 3.125-5.75 6.125-7.625l4.25.5s-6.625-12.125-21-8.75z" fill="#407bff"/>
        <path d="M116.5 183.25c-5.662 1.329-7.375 5.875-6.75 10l4.125-1.375s7.625 2.625 13.25 7.25c0 0 3.125-5.75 6.125-7.625l4.25.5s-6.625-12.125-21-8.75z" opacity=".1" fill="#ffffff"/>
        <path d="M126.782 185.053a6.76 6.76 0 0 0-.951-.408c-.721-.569-1.596-1.941-1.555-5.275.015-1.086.118-2.371.362-3.904l-9.272-1.731s3.161 6.239.523 10.873c-.907.404-1.448.974-1.35 1.729.694 5.359 12.211 10.537 12.211 10.537s5.625-8.749.032-11.821z" fill="#eec1bb"/>
        <path d="M124.638 175.467c-.244 1.532-.347 2.818-.362 3.904-6.263 0-8.91-5.635-8.91-5.635l9.272 1.731z" opacity=".2"/>
        <path d="M120.5 144.875s10.875-1.375 12.875 7.375-4.75 13.625-4.75 13.625l-8.125-21z" fill="#263238"/>
        <path d="M119.513 149.541c8.06-.442 10.891 3.731 11.936 12.005 1.307 10.34-.591 17.84-10.79 16.175-13.852-2.261-14.532-27.447-1.146-28.18z" fill="#eec1bb"/>
        <path d="M126.214 161.381s1.232 2.044 2.528 3.214c0 0-.63 1.134-2.075 1.028l-.453-4.242z" fill="#d4827d"/>
        <path d="M121.244 160.992c.052.661-.264 1.225-.704 1.26-.441.035-.84-.473-.892-1.135-.052-.661.263-1.225.704-1.26.441-.034.84.474.892 1.135z" fill="#263238"/>
        <path d="m120.171 159.904 1.394-.677s-.621 1.267-1.394.677z" fill="#263238"/>
        <path d="M129.454 160.211c.052.661-.264 1.225-.704 1.26-.441.034-.84-.474-.892-1.135-.052-.661.264-1.225.705-1.26.44-.034.839.474.891 1.135z" fill="#263238"/>
        <path d="m128.38 159.123 1.394-.676s-.621 1.266-1.394.676z" fill="#263238"/>
        <path d="M120.858 155.431s-2.281-.17-3.429 1.41" fill="none" stroke="#263238" stroke-width=".686" stroke-linecap="round" stroke-linejoin="round" stroke-miterlimit="10"/>
        <path d="M126.698 154.77s1.395-.605 3.248.486" fill="none" stroke="#263238" stroke-width=".686" stroke-linecap="round" stroke-linejoin="round" stroke-miterlimit="10"/>
        <path d="M111.448 163.608s3.406-6.829 2.555-11.91c0 0 15.615-7.4 17.291 8.769 0 0 .772-14.481-13.101-14.043-13.851.438-12.704 20.705-5.217 26.353 0 0-3.632-4.899-1.528-9.169z" fill="#263238"/>
        <path d="M121.875 144.25s6.625-1.625 8.5.125-11.5 14.125-18.5 15.375c0 0-2.375 7.75-.5 11.375 0 0-7.875-2.75-8.25-14.75s12.25-16.5 18.75-12.125z" fill="#263238"/>
        <path d="M112.858 165.238c-.125-1.295-1.584-3.418-3.983-3.022-2.483.409-3.392 5.602 2.888 6.495.9.127 1.355-.772 1.095-3.473z" fill="#eec1bb"/>
        <path d="M109.375 149s-2.75-7-10.125-6.5-8.5 12-4.625 20.5 1.25 11.25 1.25 11.25 4.125-.5 4.125-8.125c0 0 .375 2.5.25 4.875 0 0 2.75-3.875.125-11.25s5.75-4 5.75-4l3.25-6.75z" fill="#263238"/>
        <path d="M129.75 145s-3.5 11.25-12.875 14.625" fill="none" stroke="#263238" stroke-width=".686" stroke-linecap="round" stroke-linejoin="round" stroke-miterlimit="10"/>
        <path d="M120.375 168.5s1.875 2 4.625 1.875" fill="none" stroke="#263238" stroke-width=".686" stroke-linecap="round" stroke-linejoin="round" stroke-miterlimit="10"/>
        <path d="M125.375 162.125c0 1.07-.798 1.938-1.781 1.938-.984 0-1.781-.867-1.781-1.938s.798-1.938 1.781-1.938c.983.001 1.781.868 1.781 1.938z" fill="none" stroke="#263238" stroke-width=".5" stroke-linecap="round" stroke-linejoin="round" stroke-miterlimit="10"/>
        <path d="M131.688 161.813c0 1.07-.798 1.938-1.781 1.938-.984 0-1.781-.867-1.781-1.938s.798-1.938 1.781-1.938c.983 0 1.781.867 1.781 1.938z" fill="none" stroke="#263238" stroke-width=".5" stroke-linecap="round" stroke-linejoin="round" stroke-miterlimit="10"/>
        <path d="M125.375 162.125s.938-2 2.75-.313" fill="none" stroke="#263238" stroke-width=".5" stroke-linecap="round" stroke-linejoin="round" stroke-miterlimit="10"/>
        <path d="M121.813 162.125s-10-.313-11.188-.25" fill="none" stroke="#263238" stroke-width=".5" stroke-linecap="round" stroke-linejoin="round" stroke-miterlimit="10"/>
        <path d="m111.733 208.827-.462 25.533a1.035 1.035 0 0 0 1.116 1.05l16.816-1.336c.525-.042.935-.471.952-.998l.809-25.311a1.034 1.034 0 0 0-1.101-1.065l-17.163 1.114a1.033 1.033 0 0 0-.967 1.013z" fill="#407bff"/>
        <path d="m111.733 208.827-.462 25.533a1.035 1.035 0 0 0 1.116 1.05l16.816-1.336c.525-.042.935-.471.952-.998l.809-25.311a1.034 1.034 0 0 0-1.101-1.065l-17.163 1.114a1.033 1.033 0 0 0-.967 1.013z" opacity=".6" fill="#ffffff"/>
        <path d="m112.233 209.41-.462 25.533a1.035 1.035 0 0 0 1.116 1.05l16.816-1.336c.525-.042.935-.471.952-.998l.809-25.311a1.034 1.034 0 0 0-1.101-1.065l-17.163 1.115a1.032 1.032 0 0 0-.967 1.012z" fill="#407bff"/>
        <path d="m112.233 209.41-.462 25.533a1.035 1.035 0 0 0 1.116 1.05l16.816-1.336c.525-.042.935-.471.952-.998l.809-25.311a1.034 1.034 0 0 0-1.101-1.065l-17.163 1.115a1.032 1.032 0 0 0-.967 1.012z" opacity=".7" fill="#ffffff"/>
        <path d="M123.83 221.584a2.5 2.5 0 1 1-2.496-2.504.39.39 0 0 1 .096.008 2.488 2.488 0 0 0 2.368 2.088c.024.136.032.272.032.408z" opacity=".2"/>
        <path d="m97.128 229.592 12.303-7.754s.939-2.597 2.08-3.126c1.141-.529 8.627-1.515 9.351-.77.724.745.668 6.606-.743 7.369-1.411.763-8.003.686-8.624.433l-13.789 10.564-.578-6.716z" fill="#eec1bb"/>
        <path d="M100.13 188.324S108.167 200 107 210l-10.667 17.667L103.5 224l3.25 6.125S98.5 242.833 88 239.833s12.13-51.509 12.13-51.509z" fill="#263238"/>
        <path d="M100.13 188.324S108.167 200 107 210l-10.667 17.667L103.5 224l3.25 6.125S98.5 242.833 88 239.833s12.13-51.509 12.13-51.509z" opacity=".1" fill="#ffffff"/>
        <path fill="#407bff" d="m102.75 223.667 4.083 7.583.917-2.167-3.25-6.166-1.75.75z"/>
        <path d="M196.017 192.64a4.622 4.622 0 0 1-4.617-4.616 4.622 4.622 0 0 1 4.617-4.616 4.622 4.622 0 0 1 4.616 4.616 4.622 4.622 0 0 1-4.616 4.616z" fill="#407bff"/>
        <path d="M198.11 213h-.093c-4.323 0-8.579-1.315-12.308-3.474l2.506-4.414c2.968 1.719 6.358 2.758 9.802 2.758l.093 5.13zm12.303-3.699-2.523-4.316a19.79 19.79 0 0 0 7.16-7.212l4.335 2.492a24.812 24.812 0 0 1-8.972 9.036zm-33.712-8.949a24.591 24.591 0 0 1-3.313-12.303l5-.006a19.583 19.583 0 0 0 2.637 9.799l-4.324 2.51zm40.945-12.391a19.566 19.566 0 0 0-2.658-9.793l4.319-2.519a24.584 24.584 0 0 1 3.338 12.296l-4.999.016zm-36.641-9.722-4.329-2.501a24.805 24.805 0 0 1 8.99-9.018l2.515 4.322a19.8 19.8 0 0 0-7.176 7.197zm26.779-7.238c-2.96-1.706-6.337-2.804-9.767-2.804l-.046-5.197h.046c4.305 0 8.545 1.329 12.263 3.472l-2.496 4.529z" fill="#407bff"/>
        <path d="M198.11 213h-.093c-4.323 0-8.579-1.315-12.308-3.474l2.506-4.414c2.968 1.719 6.358 2.758 9.802 2.758l.093 5.13zm12.303-3.699-2.523-4.316a19.79 19.79 0 0 0 7.16-7.212l4.335 2.492a24.812 24.812 0 0 1-8.972 9.036zm-33.712-8.949a24.591 24.591 0 0 1-3.313-12.303l5-.006a19.583 19.583 0 0 0 2.637 9.799l-4.324 2.51zm40.945-12.391a19.566 19.566 0 0 0-2.658-9.793l4.319-2.519a24.584 24.584 0 0 1 3.338 12.296l-4.999.016zm-36.641-9.722-4.329-2.501a24.805 24.805 0 0 1 8.99-9.018l2.515 4.322a19.8 19.8 0 0 0-7.176 7.197zm26.779-7.238c-2.96-1.706-6.337-2.804-9.767-2.804l-.046-5.197h.046c4.305 0 8.545 1.329 12.263 3.472l-2.496 4.529z" fill="#ffffff" opacity=".6"/>
        <path d="M203.017 194.179a6.162 6.162 0 0 1-6.155-6.155 6.162 6.162 0 0 1 6.155-6.155 6.162 6.162 0 0 1 6.155 6.155 6.162 6.162 0 0 1-6.155 6.155z" fill="#407bff"/>
        <path d="M203.017 194.179a6.162 6.162 0 0 1-6.155-6.155 6.162 6.162 0 0 1 6.155-6.155 6.162 6.162 0 0 1 6.155 6.155 6.162 6.162 0 0 1-6.155 6.155z" opacity=".5" fill="#ffffff"/>
        <path fill="none" stroke="#407bff" stroke-width="3" stroke-miterlimit="10" d="M207.353 178.192c5.445 1.285 8.816 6.741 7.53 12.185-1.285 5.445-6.741 8.816-12.185 7.53-5.445-1.285-8.816-6.74-7.53-12.185 1.285-5.445 6.74-8.816 12.185-7.53z"/>
        <path fill="#407bff" d="M382 187v2H214v-2h168z"/>
        <path d="M206 179h-2v-12a1 1 0 0 1 .294-.708l61.166-61a1 1 0 0 1 .706-.292H322v2h-55.42L206 167.415V179z" fill="#407bff"/>
        <path d="M351 280h-75a.997.997 0 0 1-.707-.293l-71-71A.997.997 0 0 1 204 208v-10h2v9.586L276.414 278H351v2z" fill="#407bff"/>
        <path d="M301 216h-40.167c-.264 0-.518-.105-.705-.29l-27-26.833 1.41-1.419L261.246 214H301v2z" fill="#407bff"/>
        <path d="m273.21 188.786-1.419-1.41 26.914-27.081a1 1 0 0 1 .71-.295H340v2h-40.17l-26.62 26.786z" fill="#407bff"/>
        <path d="M426 138H267.228c-.267 0-.523-.107-.711-.296l-15.936-16.103 1.422-1.407L267.646 136H426v2z" fill="#407bff"/>
        <path d="m284.374 106.707-1.414-1.414 26-26a1 1 0 0 1 .707-.293H393v2h-82.919l-25.707 25.707z" fill="#407bff"/>
        <path d="m300.626 329.04-40.333-40.333A.996.996 0 0 1 260 288v-24h2v23.586l40.04 40.04-1.414 1.414z" fill="#407bff"/>
        <path d="m291.543 279.391-1.419-1.41 26.519-26.686a1 1 0 0 1 .71-.295H418v2H317.768l-26.225 26.391z" fill="#407bff"/>
        <path d="M385 308h-44.833a.997.997 0 0 1-.707-.293l-28.167-28.167 1.414-1.414L340.581 306H385v2z" fill="#407bff"/>
        <path fill="#407bff" d="M397.583 80a4.583 4.583 0 1 1-9.166 0 4.583 4.583 0 0 1 9.166 0z"/>
        <path d="M331 116.584c-5.836 0-10.583-4.748-10.583-10.584S325.164 95.416 331 95.416s10.583 4.748 10.583 10.584-4.747 10.584-10.583 10.584zm0-19.168c-4.733 0-8.583 3.851-8.583 8.584s3.851 8.584 8.583 8.584 8.583-3.851 8.583-8.584-3.85-8.584-8.583-8.584z" fill="#407bff"/>
        <path fill="#407bff" d="M335.583 106a4.583 4.583 0 1 1-9.166 0 4.583 4.583 0 0 1 9.166 0z"/>
        <path d="M430.583 137.165a4.583 4.583 0 1 1-9.166 0 4.583 4.583 0 0 1 9.166 0z" fill="#407bff"/>
        <path fill="#407bff" d="M344.583 161a4.583 4.583 0 1 1-9.166 0 4.583 4.583 0 0 1 9.166 0z"/>
        <path d="M391 198.583c-5.836 0-10.583-4.748-10.583-10.583s4.748-10.583 10.583-10.583 10.583 4.748 10.583 10.583-4.747 10.583-10.583 10.583zm0-19.166c-4.733 0-8.583 3.851-8.583 8.583s3.851 8.583 8.583 8.583 8.583-3.851 8.583-8.583-3.85-8.583-8.583-8.583z" fill="#407bff"/>
        <path fill="#407bff" d="M395.583 188a4.583 4.583 0 1 1-9.166 0 4.583 4.583 0 0 1 9.166 0z"/>
        <path fill="#407bff" d="M305.583 215a4.583 4.583 0 1 1-9.166 0 4.583 4.583 0 0 1 9.166 0z"/>
        <path fill="#407bff" d="M422.583 252a4.583 4.583 0 1 1-9.166 0 4.583 4.583 0 0 1 9.166 0z"/>
        <path d="M360 289.417c-5.836 0-10.583-4.748-10.583-10.584S354.164 268.25 360 268.25s10.583 4.747 10.583 10.583-4.747 10.584-10.583 10.584zm0-19.167c-4.733 0-8.583 3.851-8.583 8.583 0 4.733 3.851 8.584 8.583 8.584s8.583-3.851 8.583-8.584c0-4.732-3.85-8.583-8.583-8.583z" fill="#407bff"/>
        <path d="M364.583 278.833a4.583 4.583 0 1 1-9.166 0 4.583 4.583 0 0 1 9.166 0z" fill="#407bff"/>
        <path fill="#407bff" d="M389.583 307a4.583 4.583 0 1 1-9.166 0 4.583 4.583 0 0 1 9.166 0z"/>
        <path d="M305.917 328.333a4.583 4.583 0 1 1-9.166 0 4.583 4.583 0 0 1 9.166 0z" fill="#407bff"/>
        <path d="M421.768 93.503h-16.703a1.508 1.508 0 0 1-1.508-1.508V69.26c0-.833.675-1.508 1.508-1.508h16.703c.833 0 1.508.675 1.508 1.508v22.735c0 .833-.675 1.508-1.508 1.508z" fill="#407bff"/>
        <path d="M421.768 93.503h-16.703a1.508 1.508 0 0 1-1.508-1.508V69.26c0-.833.675-1.508 1.508-1.508h16.703c.833 0 1.508.675 1.508 1.508v22.735c0 .833-.675 1.508-1.508 1.508z" opacity=".6" fill="#ffffff"/>
        <path fill="#407bff" d="M420.333 71.406v1.392h-13.832v-1.392h13.832z"/>
        <path fill="#407bff" d="M420.333 73.842v1.392h-13.832v-1.392h13.832z"/>
        <path fill="#407bff" d="M420.333 76.278v1.392h-13.832v-1.392h13.832z"/>
        <path fill="#407bff" d="M420.333 78.714v1.392h-13.832v-1.392h13.832z"/>
        <path fill="#407bff" d="M420.333 81.15v1.392h-13.832V81.15h13.832z"/>
        <path fill="#407bff" d="M420.333 83.585v1.392h-13.832v-1.392h13.832z"/>
        <path fill="#407bff" d="M420.333 86.021v1.392h-13.832v-1.392h13.832z"/>
        <path fill="#407bff" d="M415.458 88.457v1.392h-8.957v-1.392h8.957z"/>
        <path d="M328.85 230.038h-16.703a1.508 1.508 0 0 1-1.508-1.508v-22.734c0-.833.675-1.508 1.508-1.508h16.703c.833 0 1.508.675 1.508 1.508v22.734c0 .833-.675 1.508-1.508 1.508z" fill="#407bff"/>
        <path d="M328.85 230.038h-16.703a1.508 1.508 0 0 1-1.508-1.508v-22.734c0-.833.675-1.508 1.508-1.508h16.703c.833 0 1.508.675 1.508 1.508v22.734c0 .833-.675 1.508-1.508 1.508z" opacity=".6" fill="#ffffff"/>
        <path fill="#407bff" d="M327.415 207.941v1.392h-13.832v-1.392h13.832z"/>
        <path fill="#407bff" d="M327.415 210.377v1.392h-13.832v-1.392h13.832z"/>
        <path fill="#407bff" d="M327.415 212.813v1.392h-13.832v-1.392h13.832z"/>
        <path fill="#407bff" d="M327.415 215.249v1.392h-13.832v-1.392h13.832z"/>
        <path fill="#407bff" d="M327.415 217.685v1.392h-13.832v-1.392h13.832z"/>
        <path fill="#407bff" d="M327.415 220.121v1.392h-13.832v-1.392h13.832z"/>
        <path fill="#407bff" d="M327.415 222.557v1.392h-13.832v-1.392h13.832z"/>
        <path fill="#407bff" d="M322.54 224.992v1.392h-8.957v-1.392h8.957z"/>
        <path d="M444.211 257.754h-16.703a1.508 1.508 0 0 1-1.508-1.508v-22.735c0-.833.675-1.508 1.508-1.508h16.703c.833 0 1.508.675 1.508 1.508v22.735c0 .833-.675 1.508-1.508 1.508z" fill="#407bff"/>
        <path d="M444.211 257.754h-16.703a1.508 1.508 0 0 1-1.508-1.508v-22.735c0-.833.675-1.508 1.508-1.508h16.703c.833 0 1.508.675 1.508 1.508v22.735c0 .833-.675 1.508-1.508 1.508z" opacity=".6" fill="#ffffff"/>
        <path fill="#407bff" d="M442.775 235.658v1.392h-13.832v-1.392h13.832z"/>
        <path fill="#407bff" d="M442.775 238.094v1.392h-13.832v-1.392h13.832z"/>
        <path fill="#407bff" d="M442.775 240.529v1.392h-13.832v-1.392h13.832z"/>
        <path fill="#407bff" d="M442.775 242.965v1.392h-13.832v-1.392h13.832z"/>
        <path fill="#407bff" d="M442.775 245.401v1.392h-13.832v-1.392h13.832z"/>
        <path fill="#407bff" d="M442.775 247.837v1.392h-13.832v-1.392h13.832z"/>
        <path fill="#407bff" d="M442.775 250.273v1.392h-13.832v-1.392h13.832z"/>
        <path fill="#407bff" d="M437.9 252.709v1.392h-8.957v-1.392h8.957z"/>
        <path d="M452.027 142.875h-16.703a1.508 1.508 0 0 1-1.508-1.508v-22.735c0-.833.675-1.508 1.508-1.508h16.703c.833 0 1.508.675 1.508 1.508v22.735c0 .833-.675 1.508-1.508 1.508z" fill="#407bff"/>
        <path d="M452.027 142.875h-16.703a1.508 1.508 0 0 1-1.508-1.508v-22.735c0-.833.675-1.508 1.508-1.508h16.703c.833 0 1.508.675 1.508 1.508v22.735c0 .833-.675 1.508-1.508 1.508z" opacity=".6" fill="#ffffff"/>
        <path fill="#407bff" d="M450.592 120.779v1.392H436.76v-1.392h13.832z"/>
        <path fill="#407bff" d="M450.592 123.214v1.392H436.76v-1.392h13.832z"/>
        <path fill="#407bff" d="M450.592 125.65v1.392H436.76v-1.392h13.832z"/>
        <path fill="#407bff" d="M450.592 128.086v1.392H436.76v-1.392h13.832z"/>
        <path fill="#407bff" d="M450.592 130.522v1.392H436.76v-1.392h13.832z"/>
        <path fill="#407bff" d="M450.592 132.958v1.392H436.76v-1.392h13.832z"/>
        <path fill="#407bff" d="M450.592 135.394v1.392H436.76v-1.392h13.832z"/>
        <path fill="#407bff" d="M445.717 137.829v1.392h-8.957v-1.392h8.957z"/>
        <path d="M329.223 348.963H312.52a1.508 1.508 0 0 1-1.508-1.508V324.72c0-.833.675-1.508 1.508-1.508h16.703c.833 0 1.508.675 1.508 1.508v22.734a1.51 1.51 0 0 1-1.508 1.509z" fill="#407bff"/>
        <path d="M329.223 348.963H312.52a1.508 1.508 0 0 1-1.508-1.508V324.72c0-.833.675-1.508 1.508-1.508h16.703c.833 0 1.508.675 1.508 1.508v22.734a1.51 1.51 0 0 1-1.508 1.509z" opacity=".6" fill="#ffffff"/>
        <path fill="#407bff" d="M327.787 326.866v1.392h-13.832v-1.392h13.832z"/>
        <path fill="#407bff" d="M327.787 329.302v1.392h-13.832v-1.392h13.832z"/>
        <path fill="#407bff" d="M327.787 331.738v1.392h-13.832v-1.392h13.832z"/>
        <path fill="#407bff" d="M327.787 334.174v1.392h-13.832v-1.392h13.832z"/>
        <path fill="#407bff" d="M327.787 336.61v1.392h-13.832v-1.392h13.832z"/>
        <path fill="#407bff" d="M327.787 339.046v1.392h-13.832v-1.392h13.832z"/>
        <path fill="#407bff" d="M327.787 341.481v1.392h-13.832v-1.392h13.832z"/>
        <path fill="#407bff" d="M322.912 343.917v1.392h-8.957v-1.392h8.957z"/>
        <path d="M450.405 210.45h-42.924a1.539 1.539 0 0 1-1.538-1.538v-42.924c0-.849.689-1.538 1.538-1.538h42.924c.849 0 1.538.688 1.538 1.538v42.924c0 .85-.688 1.538-1.538 1.538z" fill="#407bff"/>
        <path opacity=".5" fill="#ffffff" d="M444.443 187.45c0 8.56-6.94 15.5-15.5 15.5-8.56 0-15.5-6.94-15.5-15.5 0-8.56 6.94-15.5 15.5-15.5 8.56 0 15.5 6.94 15.5 15.5z"/>
        <path d="M428.943 187.45h15.5c0 8.503-6.997 15.5-15.5 15.5s-15.5-6.997-15.5-15.5 6.997-15.5 15.5-15.5c2.719 0 5.391.715 7.746 2.074l-7.746 13.426z" opacity=".7" fill="#ffffff"/>
        <path fill="#407bff" d="M440.943 187.45c0 6.627-5.373 12-12 12s-12-5.373-12-12 5.373-12 12-12 12 5.373 12 12z"/>
        <path opacity=".3" fill="#ffffff" d="M440.943 187.45c0 6.627-5.373 12-12 12s-12-5.373-12-12 5.373-12 12-12 12 5.373 12 12z"/>
        <text transform="translate(423.708 189.793)" fill="#ffffff" font-family="Bebas" font-size="5.888">80%</text>
        <path d="M407.679 296.5h-32.66a1.17 1.17 0 0 1-1.17-1.17v-32.66c0-.646.524-1.17 1.17-1.17h32.66c.646 0 1.17.524 1.17 1.17v32.66a1.169 1.169 0 0 1-1.17 1.17z" fill="#407bff"/>
        <path opacity=".5" fill="#ffffff" d="M402.5 290.627v2.29H398v-2.29h4.5z"/>
        <path fill="#ffffff" d="M402.5 267.78v2.29H398v-2.29h4.5z"/>
        <path fill="#ffffff" d="M402.5 271.587v2.29H398v-2.29h4.5z"/>
        <path opacity=".75" fill="#ffffff" d="M402.5 275.395v2.29H398v-2.29h4.5z"/>
        <path opacity=".5" fill="#ffffff" d="M402.5 279.203v2.29H398v-2.29h4.5z"/>
        <path opacity=".5" fill="#ffffff" d="M402.5 283.011v2.29H398v-2.29h4.5z"/>
        <path opacity=".5" fill="#ffffff" d="M402.5 286.819v2.29H398v-2.29h4.5z"/>
        <path opacity=".5" fill="#ffffff" d="M396.375 290.627v2.29h-4.5v-2.29h4.5z"/>
        <path fill="#ffffff" d="M396.375 279.203v2.29h-4.5v-2.29h4.5z"/>
        <path opacity=".75" fill="#ffffff" d="M396.375 283.011v2.29h-4.5v-2.29h4.5z"/>
        <path opacity=".5" fill="#ffffff" d="M396.375 286.819v2.29h-4.5v-2.29h4.5z"/>
        <path opacity=".5" fill="#ffffff" d="M390.25 290.627v2.29h-4.5v-2.29h4.5z"/>
        <path fill="#ffffff" d="M390.25 275.395v2.29h-4.5v-2.29h4.5z"/>
        <path opacity=".75" fill="#ffffff" d="M390.25 279.203v2.29h-4.5v-2.29h4.5z"/>
        <path opacity=".5" fill="#ffffff" d="M390.25 283.011v2.29h-4.5v-2.29h4.5z"/>
        <path opacity=".5" fill="#ffffff" d="M390.25 286.819v2.29h-4.5v-2.29h4.5z"/>
        <path opacity=".5" fill="#ffffff" d="M384.125 290.627v2.29h-4.5v-2.29h4.5z"/>
        <path fill="#ffffff" d="M384.125 283.011v2.29h-4.5v-2.29h4.5z"/>
        <path opacity=".75" fill="#ffffff" d="M384.125 286.819v2.29h-4.5v-2.29h4.5z"/>
        <path d="M380.913 128.083h-32.66a1.17 1.17 0 0 1-1.17-1.17v-32.66c0-.646.524-1.17 1.17-1.17h32.66c.646 0 1.17.524 1.17 1.17v32.66a1.17 1.17 0 0 1-1.17 1.17z" fill="#407bff"/>
        <path d="M367.109 106.785v-2.19l-1.128-.106a5.842 5.842 0 0 0-.841-2.023l.724-.875-1.548-1.549-.875.724a5.842 5.842 0 0 0-2.023-.841l-.106-1.128h-2.19l-.106 1.128a5.842 5.842 0 0 0-2.023.841l-.875-.724-1.548 1.549.724.875a5.842 5.842 0 0 0-.841 2.023l-1.128.106v2.19l1.128.106c.152.734.443 1.417.841 2.023l-.724.875 1.548 1.548.875-.724a5.842 5.842 0 0 0 2.023.841l.106 1.128h2.19l.106-1.128a5.85 5.85 0 0 0 2.023-.841l.875.724 1.548-1.548-.724-.875a5.842 5.842 0 0 0 .841-2.023l1.128-.106zm-6.891 1.869a2.964 2.964 0 1 1 0-5.928 2.964 2.964 0 0 1 0 5.928z" opacity=".9" fill="#ffffff"/>
        <path d="M375.984 112.966v-1.716l-.883-.083a4.575 4.575 0 0 0-.659-1.585l.568-.685-1.213-1.213-.686.568a4.575 4.575 0 0 0-1.585-.659l-.083-.883h-1.716l-.083.883a4.575 4.575 0 0 0-1.585.659l-.685-.568-1.213 1.213.568.685a4.575 4.575 0 0 0-.659 1.585l-.884.083v1.716l.884.083c.119.575.347 1.11.659 1.585l-.568.686 1.213 1.213.685-.567c.475.312 1.01.54 1.585.659l.083.883h1.716l.083-.883a4.575 4.575 0 0 0 1.585-.659l.685.567 1.213-1.213-.568-.686c.312-.475.54-1.01.659-1.585l.884-.083zm-5.4 1.465a2.323 2.323 0 1 1 0-4.646 2.323 2.323 0 0 1 0 4.646z" opacity=".6" fill="#ffffff"/>
        <path d="M367.109 117.837v-1.441l-.742-.07a3.861 3.861 0 0 0-.553-1.331l.477-.576-1.019-1.019-.576.477a3.842 3.842 0 0 0-1.331-.553l-.07-.742h-1.441l-.07.742c-.483.1-.932.292-1.331.554l-.576-.477-1.019 1.019.477.576a3.842 3.842 0 0 0-.553 1.331l-.742.07v1.441l.742.07c.1.483.292.932.553 1.331l-.477.576 1.019 1.019.576-.477c.399.262.848.453 1.331.554l.07.742h1.441l.07-.742c.483-.1.932-.292 1.331-.554l.576.477 1.019-1.019-.477-.576c.262-.399.453-.848.553-1.331l.742-.071zm-4.536 1.231a1.95 1.95 0 1 1-.001-3.9 1.95 1.95 0 0 1 .001 3.9z" opacity=".4" fill="#ffffff"/>
        <path fill="#407bff" d="M378.688 150.75v20h-30.75v-20h30.75z"/>
        <path opacity=".6" fill="#ffffff" d="M378.688 150.75v20h-30.75v-20h30.75z"/>
        <path fill="#407bff" d="M377.563 154.5v15.25h-28.5V154.5h28.5z"/>
        <path fill="#ffffff" d="M372.467 156.779v.656h-21.082v-.656h21.082z"/>
        <path fill="#ffffff" d="M361.5 158.788v.656h-10.115v-.656H361.5z"/>
        <path fill="#ffffff" d="M364.125 160.797v.656h-12.74v-.656h12.74z"/>
        <path fill="#ffffff" d="M355.875 162.806v.656h-4.49v-.656h4.49z"/>
        <path fill="#ffffff" d="M354.293 164.815v.656h-2.908v-.656h2.908z"/>
        <path fill="#407bff" d="M427.688 303.25v20h-30.75v-20h30.75z"/>
        <path opacity=".6" fill="#ffffff" d="M427.688 303.25v20h-30.75v-20h30.75z"/>
        <path fill="#407bff" d="M426.563 307v15.25h-28.5V307h28.5z"/>
        <path fill="#ffffff" d="M421.467 309.279v.656h-21.082v-.656h21.082z"/>
        <path fill="#ffffff" d="M410.5 311.288v.656h-10.115v-.656H410.5z"/>
        <path fill="#ffffff" d="M413.125 313.297v.656h-12.74v-.656h12.74z"/>
        <path fill="#ffffff" d="M404.875 315.306v.656h-4.49v-.656h4.49z"/>
        <path fill="#ffffff" d="M403.293 317.315v.656h-2.908v-.656h2.908z"/>
        <g opacity=".4">
            <path fill="#ffffff" d="M382 187v2H212v-2h170z"/>
            <path d="M206 179h-2v-12a1 1 0 0 1 .294-.708l61.166-61a1 1 0 0 1 .706-.292H322v2h-55.42L206 167.415V179z" fill="#ffffff"/>
            <path d="M351 280h-75a.997.997 0 0 1-.707-.293l-71-71A.997.997 0 0 1 204 208v-10h2v9.586L276.414 278H351v2z" fill="#ffffff"/>
            <path d="M301 216h-40.167c-.264 0-.518-.105-.705-.29l-27-26.833 1.41-1.419L261.246 214H301v2z" fill="#ffffff"/>
            <path d="m273.21 188.786-1.419-1.41 26.914-27.081a1 1 0 0 1 .71-.295H340v2h-40.17l-26.62 26.786z" fill="#ffffff"/>
            <path d="M426 138H267.228c-.267 0-.523-.107-.711-.296l-15.936-16.103 1.422-1.407L267.646 136H426v2z" fill="#ffffff"/>
            <path d="m284.374 106.707-1.414-1.414 26-26a1 1 0 0 1 .707-.293H393v2h-82.919l-25.707 25.707z" fill="#ffffff"/>
            <path d="m300.626 329.04-40.333-40.333A.996.996 0 0 1 260 288v-24h2v23.586l40.04 40.04-1.414 1.414z" fill="#ffffff"/>
            <path d="m291.543 279.391-1.419-1.41 26.519-26.686a1 1 0 0 1 .71-.295H418v2H317.768l-26.225 26.391z" fill="#ffffff"/>
            <path d="M385 308h-44.833a.997.997 0 0 1-.707-.293l-28.167-28.167 1.414-1.414L340.581 306H385v2z" fill="#ffffff"/>
            <path fill="#ffffff" d="M397.583 80a4.583 4.583 0 1 1-9.166 0 4.583 4.583 0 0 1 9.166 0z"/>
            <path d="M331 116.584c-5.836 0-10.583-4.748-10.583-10.584S325.164 95.416 331 95.416s10.583 4.748 10.583 10.584-4.747 10.584-10.583 10.584zm0-19.168c-4.733 0-8.583 3.851-8.583 8.584s3.851 8.584 8.583 8.584 8.583-3.851 8.583-8.584-3.85-8.584-8.583-8.584z" fill="#ffffff"/>
            <path d="M430.583 137.165a4.583 4.583 0 1 1-9.166 0 4.583 4.583 0 0 1 9.166 0z" fill="#ffffff"/>
            <path fill="#ffffff" d="M344.583 161a4.583 4.583 0 1 1-9.166 0 4.583 4.583 0 0 1 9.166 0z"/>
            <path d="M391 198.583c-5.836 0-10.583-4.748-10.583-10.583s4.748-10.583 10.583-10.583 10.583 4.748 10.583 10.583-4.747 10.583-10.583 10.583zm0-19.166c-4.733 0-8.583 3.851-8.583 8.583s3.851 8.583 8.583 8.583 8.583-3.851 8.583-8.583-3.85-8.583-8.583-8.583z" fill="#ffffff"/>
            <path fill="#ffffff" d="M305.583 215a4.583 4.583 0 1 1-9.166 0 4.583 4.583 0 0 1 9.166 0z"/>
            <path fill="#ffffff" d="M422.583 252a4.583 4.583 0 1 1-9.166 0 4.583 4.583 0 0 1 9.166 0z"/>
            <path d="M360 289.417c-5.836 0-10.583-4.748-10.583-10.584S354.164 268.25 360 268.25s10.583 4.747 10.583 10.583-4.747 10.584-10.583 10.584zm0-19.167c-4.733 0-8.583 3.851-8.583 8.583 0 4.733 3.851 8.584 8.583 8.584s8.583-3.851 8.583-8.584c0-4.732-3.85-8.583-8.583-8.583z" fill="#ffffff"/>
            <path fill="#ffffff" d="M389.583 307a4.583 4.583 0 1 1-9.166 0 4.583 4.583 0 0 1 9.166 0z"/>
            <path d="M305.917 328.333a4.583 4.583 0 1 1-9.166 0 4.583 4.583 0 0 1 9.166 0z" fill="#ffffff"/>
            <path d="M205.017 199.653c-6.413 0-11.629-5.217-11.629-11.629 0-6.413 5.217-11.629 11.629-11.629s11.629 5.217 11.629 11.629-5.216 11.629-11.629 11.629zm0-20.259c-4.758 0-8.629 3.871-8.629 8.629 0 4.758 3.871 8.629 8.629 8.629s8.629-3.871 8.629-8.629c0-4.758-3.871-8.629-8.629-8.629z" fill="#ffffff"/>
        </g>
    </g>
</svg>
