<?xml version="1.0" encoding="UTF-8"?>
<svg data-bbox="0 54.952 500 372.609" viewBox="0 0 500 500" xmlns="http://www.w3.org/2000/svg" data-type="ugc">
    <g>
        <path fill="#ebebeb" d="M500 382.398v.25H0v-.25h500z"/>
        <path fill="#ebebeb" d="M449.901 398.494v.25h-33.122v-.25h33.122z"/>
        <path fill="#ebebeb" d="M331.22 401.208v.25h-8.693v-.25h8.693z"/>
        <path fill="#ebebeb" d="M415.778 389.208v.25h-19.192v-.25h19.192z"/>
        <path fill="#ebebeb" d="M95.652 390.888v.25H52.459v-.25h43.193z"/>
        <path fill="#ebebeb" d="M110.889 390.888v.25h-6.333v-.25h6.333z"/>
        <path fill="#ebebeb" d="M225.147 395.111v.25h-93.676v-.25h93.676z"/>
        <path d="M237.014 337.8H43.915a5.715 5.715 0 0 1-5.708-5.708V60.66a5.715 5.715 0 0 1 5.708-5.708h193.099a5.715 5.715 0 0 1 5.707 5.708v271.432a5.715 5.715 0 0 1-5.707 5.708zM43.915 55.203a5.464 5.464 0 0 0-5.458 5.458v271.432a5.464 5.464 0 0 0 5.458 5.458h193.099a5.463 5.463 0 0 0 5.457-5.458V60.66a5.464 5.464 0 0 0-5.457-5.458H43.915z" fill="#ebebeb"/>
        <path d="M453.31 337.8H260.212a5.714 5.714 0 0 1-5.707-5.708V60.66a5.715 5.715 0 0 1 5.707-5.708H453.31a5.714 5.714 0 0 1 5.708 5.708v271.432a5.714 5.714 0 0 1-5.708 5.708zM260.212 55.203a5.463 5.463 0 0 0-5.457 5.458v271.432a5.463 5.463 0 0 0 5.457 5.458H453.31a5.464 5.464 0 0 0 5.458-5.458V60.66a5.464 5.464 0 0 0-5.458-5.458H260.212z" fill="#ebebeb"/>
        <path fill="#f5f5f5" d="M337.411 95.99v221.846H68.738V95.99h268.673z"/>
        <path fill="#fafafa" d="M333.1 100.693v212.626H68.738V100.693H333.1z"/>
        <path fill="#f0f0f0" d="M331.148 252.83v-75.123h-7.804v-9.922l-17.562-8.215v-10.156h-2.927v28.293h-2.927v75.123h-3.902v-39.025h-8.781v-20.488h-2.926v59.513h-6.83v-22.439h-4.878v-5.854h-10.732v-20.488h-5.854V190.39h-6.829v-20.488h-2.927v20.488h-6.829v13.659h-5.854v20.488h-10.732v5.854h-4.878v22.439h-5.854v-28.293h-10.731v-62.44h-2.927v-6.829h-23.415v6.829h-4.878v44.879h-19.513v4.878h-6.829v2.927h6.829v17.561H130.17v-58.538h-3.902v-11.707h-9.757v-44.879h-2.926v44.879h-6.83v11.707H68.738v139.515H333.1V252.83h-1.952z"/>
        <path fill="#f5f5f5" d="M91.816 176.863v2.764h-2.764v-2.764h2.764z"/>
        <path fill="#f5f5f5" d="M91.816 181.498v2.764h-2.764v-2.764h2.764z"/>
        <path fill="#f5f5f5" d="M91.816 200.034v2.764h-2.764v-2.764h2.764z"/>
        <path fill="#f5f5f5" d="M91.816 204.669v2.764h-2.764v-2.764h2.764z"/>
        <path fill="#f5f5f5" d="M91.816 209.303v2.764h-2.764v-2.764h2.764z"/>
        <path fill="#f5f5f5" d="M91.816 223.206v2.764h-2.764v-2.764h2.764z"/>
        <path fill="#f5f5f5" d="M91.816 227.84v2.764h-2.764v-2.764h2.764z"/>
        <path fill="#f5f5f5" d="M96.206 195.4v2.764h-2.764V195.4h2.764z"/>
        <path fill="#f5f5f5" d="M96.206 200.034v2.764h-2.764v-2.764h2.764z"/>
        <path fill="#f5f5f5" d="M96.206 204.669v2.764h-2.764v-2.764h2.764z"/>
        <path fill="#f5f5f5" d="M96.206 209.303v2.764h-2.764v-2.764h2.764z"/>
        <path fill="#f5f5f5" d="M96.206 213.937v2.764h-2.764v-2.764h2.764z"/>
        <path fill="#f5f5f5" d="M96.206 223.206v2.764h-2.764v-2.764h2.764z"/>
        <path fill="#f5f5f5" d="M96.206 227.84v2.764h-2.764v-2.764h2.764z"/>
        <path fill="#f5f5f5" d="M100.597 176.863v2.764h-2.764v-2.764h2.764z"/>
        <path fill="#f5f5f5" d="M100.597 181.498v2.764h-2.764v-2.764h2.764z"/>
        <path fill="#f5f5f5" d="M100.597 186.132v2.764h-2.764v-2.764h2.764z"/>
        <path fill="#f5f5f5" d="M100.597 190.766v2.764h-2.764v-2.764h2.764z"/>
        <path fill="#f5f5f5" d="M100.597 195.4v2.764h-2.764V195.4h2.764z"/>
        <path fill="#f5f5f5" d="M100.597 200.034v2.764h-2.764v-2.764h2.764z"/>
        <path fill="#f5f5f5" d="M100.597 204.669v2.764h-2.764v-2.764h2.764z"/>
        <path fill="#f5f5f5" d="M100.597 209.303v2.764h-2.764v-2.764h2.764z"/>
        <path fill="#f5f5f5" d="M100.597 213.937v2.764h-2.764v-2.764h2.764z"/>
        <path fill="#f5f5f5" d="M100.597 218.571v2.764h-2.764v-2.764h2.764z"/>
        <path fill="#f5f5f5" d="M100.597 227.84v2.764h-2.764v-2.764h2.764z"/>
        <path fill="#f5f5f5" d="M104.987 176.863v2.764h-2.764v-2.764h2.764z"/>
        <path fill="#f5f5f5" d="M104.987 181.498v2.764h-2.764v-2.764h2.764z"/>
        <path fill="#f5f5f5" d="M104.987 186.132v2.764h-2.764v-2.764h2.764z"/>
        <path fill="#f5f5f5" d="M104.987 190.766v2.764h-2.764v-2.764h2.764z"/>
        <path fill="#f5f5f5" d="M104.987 195.4v2.764h-2.764V195.4h2.764z"/>
        <path fill="#f5f5f5" d="M104.987 200.034v2.764h-2.764v-2.764h2.764z"/>
        <path fill="#f5f5f5" d="M104.987 204.669v2.764h-2.764v-2.764h2.764z"/>
        <path fill="#f5f5f5" d="M104.987 246.376v2.764h-2.764v-2.764h2.764z"/>
        <path fill="#f5f5f5" d="M109.378 176.863v2.764h-2.764v-2.764h2.764z"/>
        <path fill="#f5f5f5" d="M109.378 181.498v2.764h-2.764v-2.764h2.764z"/>
        <path fill="#f5f5f5" d="M109.378 186.132v2.764h-2.764v-2.764h2.764z"/>
        <path fill="#f5f5f5" d="M109.378 190.766v2.764h-2.764v-2.764h2.764z"/>
        <path fill="#f5f5f5" d="M109.378 195.4v2.764h-2.764V195.4h2.764z"/>
        <path fill="#f5f5f5" d="M109.378 200.034v2.764h-2.764v-2.764h2.764z"/>
        <path fill="#f5f5f5" d="M109.378 204.669v2.764h-2.764v-2.764h2.764z"/>
        <path fill="#f5f5f5" d="M109.378 209.303v2.764h-2.764v-2.764h2.764z"/>
        <path fill="#f5f5f5" d="M109.378 237.108v2.764h-2.764v-2.764h2.764z"/>
        <path fill="#f5f5f5" d="M109.378 241.742v2.764h-2.764v-2.764h2.764z"/>
        <path fill="#f5f5f5" d="M109.378 246.376v2.764h-2.764v-2.764h2.764z"/>
        <path fill="#f5f5f5" d="M109.378 251.011v2.764h-2.764v-2.764h2.764z"/>
        <path fill="#f5f5f5" d="M109.378 269.548v2.764h-2.764v-2.764h2.764z"/>
        <path fill="#f5f5f5" d="M113.768 176.863v2.764h-2.764v-2.764h2.764z"/>
        <path fill="#f5f5f5" d="M113.768 181.498v2.764h-2.764v-2.764h2.764z"/>
        <path fill="#f5f5f5" d="M113.768 186.132v2.764h-2.764v-2.764h2.764z"/>
        <path fill="#f5f5f5" d="M113.768 190.766v2.764h-2.764v-2.764h2.764z"/>
        <path fill="#f5f5f5" d="M113.768 195.4v2.764h-2.764V195.4h2.764z"/>
        <path fill="#f5f5f5" d="M113.768 200.034v2.764h-2.764v-2.764h2.764z"/>
        <path fill="#f5f5f5" d="M113.768 204.669v2.764h-2.764v-2.764h2.764z"/>
        <path fill="#f5f5f5" d="M113.768 209.303v2.764h-2.764v-2.764h2.764z"/>
        <path fill="#f5f5f5" d="M113.768 213.937v2.764h-2.764v-2.764h2.764z"/>
        <path fill="#f5f5f5" d="M113.768 218.571v2.764h-2.764v-2.764h2.764z"/>
        <path fill="#f5f5f5" d="M113.768 232.474v2.764h-2.764v-2.764h2.764z"/>
        <path fill="#f5f5f5" d="M113.768 237.108v2.764h-2.764v-2.764h2.764z"/>
        <path fill="#f5f5f5" d="M113.768 241.742v2.764h-2.764v-2.764h2.764z"/>
        <path fill="#f5f5f5" d="M113.768 246.376v2.764h-2.764v-2.764h2.764z"/>
        <path fill="#f5f5f5" d="M113.768 251.011v2.764h-2.764v-2.764h2.764z"/>
        <path fill="#f5f5f5" d="M113.768 269.548v2.764h-2.764v-2.764h2.764z"/>
        <path fill="#f5f5f5" d="M118.158 176.863v2.764h-2.764v-2.764h2.764z"/>
        <path fill="#f5f5f5" d="M118.158 181.498v2.764h-2.764v-2.764h2.764z"/>
        <path fill="#f5f5f5" d="M118.158 186.132v2.764h-2.764v-2.764h2.764z"/>
        <path fill="#f5f5f5" d="M118.158 190.766v2.764h-2.764v-2.764h2.764z"/>
        <path fill="#f5f5f5" d="M118.158 195.4v2.764h-2.764V195.4h2.764z"/>
        <path fill="#f5f5f5" d="M118.158 200.034v2.764h-2.764v-2.764h2.764z"/>
        <path fill="#f5f5f5" d="M118.158 204.669v2.764h-2.764v-2.764h2.764z"/>
        <path fill="#f5f5f5" d="M118.158 209.303v2.764h-2.764v-2.764h2.764z"/>
        <path fill="#f5f5f5" d="M118.158 213.937v2.764h-2.764v-2.764h2.764z"/>
        <path fill="#f5f5f5" d="M118.158 218.571v2.764h-2.764v-2.764h2.764z"/>
        <path fill="#f5f5f5" d="M118.158 223.206v2.764h-2.764v-2.764h2.764z"/>
        <path fill="#f5f5f5" d="M118.158 227.84v2.764h-2.764v-2.764h2.764z"/>
        <path fill="#f5f5f5" d="M118.158 232.474v2.764h-2.764v-2.764h2.764z"/>
        <path fill="#f5f5f5" d="M118.158 237.108v2.764h-2.764v-2.764h2.764z"/>
        <path fill="#f5f5f5" d="M118.158 241.742v2.764h-2.764v-2.764h2.764z"/>
        <path fill="#f5f5f5" d="M118.158 246.376v2.764h-2.764v-2.764h2.764z"/>
        <path fill="#f5f5f5" d="M118.158 251.011v2.764h-2.764v-2.764h2.764z"/>
        <path fill="#f5f5f5" d="M118.158 255.645v2.764h-2.764v-2.764h2.764z"/>
        <path fill="#f5f5f5" d="M122.548 176.863v2.764h-2.764v-2.764h2.764z"/>
        <path fill="#f5f5f5" d="M122.548 181.498v2.764h-2.764v-2.764h2.764z"/>
        <path fill="#f5f5f5" d="M122.548 186.132v2.764h-2.764v-2.764h2.764z"/>
        <path fill="#f5f5f5" d="M122.548 190.766v2.764h-2.764v-2.764h2.764z"/>
        <path fill="#f5f5f5" d="M122.548 195.4v2.764h-2.764V195.4h2.764z"/>
        <path fill="#f5f5f5" d="M122.548 200.034v2.764h-2.764v-2.764h2.764z"/>
        <path fill="#f5f5f5" d="M122.548 204.669v2.764h-2.764v-2.764h2.764z"/>
        <path fill="#f5f5f5" d="M122.548 209.303v2.764h-2.764v-2.764h2.764z"/>
        <path fill="#f5f5f5" d="M122.548 213.937v2.764h-2.764v-2.764h2.764z"/>
        <path fill="#f5f5f5" d="M122.548 218.571v2.764h-2.764v-2.764h2.764z"/>
        <path fill="#f5f5f5" d="M122.548 232.474v2.764h-2.764v-2.764h2.764z"/>
        <path fill="#f5f5f5" d="M122.548 237.108v2.764h-2.764v-2.764h2.764z"/>
        <path fill="#f5f5f5" d="M122.548 241.742v2.764h-2.764v-2.764h2.764z"/>
        <path fill="#f5f5f5" d="M122.548 246.376v2.764h-2.764v-2.764h2.764z"/>
        <path fill="#f5f5f5" d="M126.939 176.863v2.764h-2.764v-2.764h2.764z"/>
        <path fill="#f5f5f5" d="M126.939 181.498v2.764h-2.764v-2.764h2.764z"/>
        <path fill="#f5f5f5" d="M126.939 186.132v2.764h-2.764v-2.764h2.764z"/>
        <path fill="#f5f5f5" d="M126.939 190.766v2.764h-2.764v-2.764h2.764z"/>
        <path fill="#f5f5f5" d="M126.939 195.4v2.764h-2.764V195.4h2.764z"/>
        <path fill="#f5f5f5" d="M126.939 200.034v2.764h-2.764v-2.764h2.764z"/>
        <path fill="#f5f5f5" d="M126.939 204.669v2.764h-2.764v-2.764h2.764z"/>
        <path fill="#f5f5f5" d="M126.939 209.303v2.764h-2.764v-2.764h2.764z"/>
        <path fill="#f5f5f5" d="M126.939 213.937v2.764h-2.764v-2.764h2.764z"/>
        <path fill="#f5f5f5" d="M126.939 218.571v2.764h-2.764v-2.764h2.764z"/>
        <path fill="#f5f5f5" d="M126.939 232.474v2.764h-2.764v-2.764h2.764z"/>
        <path fill="#f5f5f5" d="M126.939 237.108v2.764h-2.764v-2.764h2.764z"/>
        <path fill="#f5f5f5" d="M126.939 241.742v2.764h-2.764v-2.764h2.764z"/>
        <path fill="#f5f5f5" d="M176.37 164.831v2.764h-2.764v-2.764h2.764z"/>
        <path fill="#f5f5f5" d="M176.37 169.465v2.764h-2.764v-2.764h2.764z"/>
        <path fill="#f5f5f5" d="M176.37 174.099v2.764h-2.764v-2.764h2.764z"/>
        <path fill="#f5f5f5" d="M176.37 178.733v2.764h-2.764v-2.764h2.764z"/>
        <path fill="#f5f5f5" d="M176.37 183.367v2.764h-2.764v-2.764h2.764z"/>
        <path fill="#f5f5f5" d="M176.37 188.002v2.764h-2.764v-2.764h2.764z"/>
        <path fill="#f5f5f5" d="M176.37 192.636v2.764h-2.764v-2.764h2.764z"/>
        <path fill="#f5f5f5" d="M176.37 197.27v2.764h-2.764v-2.764h2.764z"/>
        <path fill="#f5f5f5" d="M176.37 211.173v2.764h-2.764v-2.764h2.764z"/>
        <path fill="#f5f5f5" d="M176.37 215.807v2.764h-2.764v-2.764h2.764z"/>
        <path fill="#f5f5f5" d="M180.76 164.831v2.764h-2.764v-2.764h2.764z"/>
        <path fill="#f5f5f5" d="M180.76 169.465v2.764h-2.764v-2.764h2.764z"/>
        <path fill="#f5f5f5" d="M180.76 174.099v2.764h-2.764v-2.764h2.764z"/>
        <path fill="#f5f5f5" d="M180.76 178.733v2.764h-2.764v-2.764h2.764z"/>
        <path fill="#f5f5f5" d="M180.76 183.367v2.764h-2.764v-2.764h2.764z"/>
        <path fill="#f5f5f5" d="M180.76 188.002v2.764h-2.764v-2.764h2.764z"/>
        <path fill="#f5f5f5" d="M180.76 192.636v2.764h-2.764v-2.764h2.764z"/>
        <path fill="#f5f5f5" d="M180.76 197.27v2.764h-2.764v-2.764h2.764z"/>
        <path fill="#f5f5f5" d="M180.76 215.807v2.764h-2.764v-2.764h2.764z"/>
        <path fill="#f5f5f5" d="M185.151 164.831v2.764h-2.764v-2.764h2.764z"/>
        <path fill="#f5f5f5" d="M185.151 169.465v2.764h-2.764v-2.764h2.764z"/>
        <path fill="#f5f5f5" d="M185.151 174.099v2.764h-2.764v-2.764h2.764z"/>
        <path fill="#f5f5f5" d="M185.151 178.733v2.764h-2.764v-2.764h2.764z"/>
        <path fill="#f5f5f5" d="M185.151 183.367v2.764h-2.764v-2.764h2.764z"/>
        <path fill="#f5f5f5" d="M185.151 188.002v2.764h-2.764v-2.764h2.764z"/>
        <path fill="#f5f5f5" d="M185.151 192.636v2.764h-2.764v-2.764h2.764z"/>
        <path fill="#f5f5f5" d="M185.151 197.27v2.764h-2.764v-2.764h2.764z"/>
        <path fill="#f5f5f5" d="M189.541 164.831v2.764h-2.764v-2.764h2.764z"/>
        <path fill="#f5f5f5" d="M189.541 169.465v2.764h-2.764v-2.764h2.764z"/>
        <path fill="#f5f5f5" d="M189.541 174.099v2.764h-2.764v-2.764h2.764z"/>
        <path fill="#f5f5f5" d="M189.541 178.733v2.764h-2.764v-2.764h2.764z"/>
        <path fill="#f5f5f5" d="M189.541 183.367v2.764h-2.764v-2.764h2.764z"/>
        <path fill="#f5f5f5" d="M189.541 188.002v2.764h-2.764v-2.764h2.764z"/>
        <path fill="#f5f5f5" d="M189.541 197.27v2.764h-2.764v-2.764h2.764z"/>
        <path fill="#f5f5f5" d="M189.541 201.904v2.764h-2.764v-2.764h2.764z"/>
        <path fill="#f5f5f5" d="M189.541 215.807v2.764h-2.764v-2.764h2.764z"/>
        <path fill="#f5f5f5" d="M189.541 220.441v2.764h-2.764v-2.764h2.764z"/>
        <path fill="#f5f5f5" d="M189.541 225.076v2.764h-2.764v-2.764h2.764z"/>
        <path fill="#f5f5f5" d="M189.541 229.71v2.764h-2.764v-2.764h2.764z"/>
        <path fill="#f5f5f5" d="M189.541 234.344v2.764h-2.764v-2.764h2.764z"/>
        <path fill="#f5f5f5" d="M189.541 238.978v2.764h-2.764v-2.764h2.764z"/>
        <path fill="#f5f5f5" d="M189.541 243.612v2.764h-2.764v-2.764h2.764z"/>
        <path fill="#f5f5f5" d="M193.931 164.831v2.764h-2.764v-2.764h2.764z"/>
        <path fill="#f5f5f5" d="M193.931 169.465v2.764h-2.764v-2.764h2.764z"/>
        <path fill="#f5f5f5" d="M193.931 174.099v2.764h-2.764v-2.764h2.764z"/>
        <path fill="#f5f5f5" d="M193.931 178.733v2.764h-2.764v-2.764h2.764z"/>
        <path fill="#f5f5f5" d="M193.931 183.367v2.764h-2.764v-2.764h2.764z"/>
        <path fill="#f5f5f5" d="M193.931 188.002v2.764h-2.764v-2.764h2.764z"/>
        <path fill="#f5f5f5" d="M193.931 201.904v2.764h-2.764v-2.764h2.764z"/>
        <path fill="#f5f5f5" d="M193.931 206.539v2.764h-2.764v-2.764h2.764z"/>
        <path fill="#f5f5f5" d="M193.931 211.173v2.764h-2.764v-2.764h2.764z"/>
        <path fill="#f5f5f5" d="M193.931 215.807v2.764h-2.764v-2.764h2.764z"/>
        <path fill="#f5f5f5" d="M193.931 220.441v2.764h-2.764v-2.764h2.764z"/>
        <path fill="#f5f5f5" d="M193.931 225.076v2.764h-2.764v-2.764h2.764z"/>
        <path fill="#f5f5f5" d="M193.931 229.71v2.764h-2.764v-2.764h2.764z"/>
        <path fill="#f5f5f5" d="M193.931 234.344v2.764h-2.764v-2.764h2.764z"/>
        <path fill="#f5f5f5" d="M193.931 238.978v2.764h-2.764v-2.764h2.764z"/>
        <path fill="#f5f5f5" d="M193.931 243.612v2.764h-2.764v-2.764h2.764z"/>
        <path fill="#f5f5f5" d="M193.931 248.247v2.764h-2.764v-2.764h2.764z"/>
        <path fill="#f5f5f5" d="M193.931 257.515v2.764h-2.764v-2.764h2.764z"/>
        <path fill="#f5f5f5" d="M198.322 164.831v2.764h-2.764v-2.764h2.764z"/>
        <path fill="#f5f5f5" d="M198.322 169.465v2.764h-2.764v-2.764h2.764z"/>
        <path fill="#f5f5f5" d="M198.322 174.099v2.764h-2.764v-2.764h2.764z"/>
        <path fill="#f5f5f5" d="M198.322 178.733v2.764h-2.764v-2.764h2.764z"/>
        <path fill="#f5f5f5" d="M198.322 183.367v2.764h-2.764v-2.764h2.764z"/>
        <path fill="#f5f5f5" d="M198.322 188.002v2.764h-2.764v-2.764h2.764z"/>
        <path fill="#f5f5f5" d="M198.322 201.904v2.764h-2.764v-2.764h2.764z"/>
        <path fill="#f5f5f5" d="M198.322 206.539v2.764h-2.764v-2.764h2.764z"/>
        <path fill="#f5f5f5" d="M198.322 211.173v2.764h-2.764v-2.764h2.764z"/>
        <path fill="#f5f5f5" d="M198.322 215.807v2.764h-2.764v-2.764h2.764z"/>
        <path fill="#f5f5f5" d="M198.322 229.71v2.764h-2.764v-2.764h2.764z"/>
        <path fill="#f5f5f5" d="M198.322 234.344v2.764h-2.764v-2.764h2.764z"/>
        <path fill="#f5f5f5" d="M198.322 238.978v2.764h-2.764v-2.764h2.764z"/>
        <path fill="#f5f5f5" d="M198.322 243.612v2.764h-2.764v-2.764h2.764z"/>
        <path fill="#f5f5f5" d="M198.322 248.247v2.764h-2.764v-2.764h2.764z"/>
        <path fill="#f5f5f5" d="M198.322 257.515v2.764h-2.764v-2.764h2.764z"/>
        <path fill="#f5f5f5" d="M198.322 262.149v2.764h-2.764v-2.764h2.764z"/>
        <path fill="#f5f5f5" d="M238.16 207.921v2.764h-2.764v-2.764h2.764z"/>
        <path fill="#f5f5f5" d="M238.16 212.555v2.764h-2.764v-2.764h2.764z"/>
        <path fill="#f5f5f5" d="M238.16 217.189v2.764h-2.764v-2.764h2.764z"/>
        <path fill="#f5f5f5" d="M238.16 221.823v2.764h-2.764v-2.764h2.764z"/>
        <path fill="#f5f5f5" d="M238.16 226.458v2.764h-2.764v-2.764h2.764z"/>
        <path fill="#f5f5f5" d="M238.16 231.092v2.764h-2.764v-2.764h2.764z"/>
        <path fill="#f5f5f5" d="M238.16 235.726v2.764h-2.764v-2.764h2.764z"/>
        <path fill="#f5f5f5" d="M238.16 249.629v2.764h-2.764v-2.764h2.764z"/>
        <path fill="#f5f5f5" d="M238.16 254.263v2.764h-2.764v-2.764h2.764z"/>
        <path fill="#f5f5f5" d="M238.16 258.897v2.764h-2.764v-2.764h2.764z"/>
        <path fill="#f5f5f5" d="M242.55 207.921v2.764h-2.764v-2.764h2.764z"/>
        <path fill="#f5f5f5" d="M242.55 212.555v2.764h-2.764v-2.764h2.764z"/>
        <path fill="#f5f5f5" d="M242.55 217.189v2.764h-2.764v-2.764h2.764z"/>
        <path fill="#f5f5f5" d="M242.55 221.823v2.764h-2.764v-2.764h2.764z"/>
        <path fill="#f5f5f5" d="M242.55 226.458v2.764h-2.764v-2.764h2.764z"/>
        <path fill="#f5f5f5" d="M242.55 231.092v2.764h-2.764v-2.764h2.764z"/>
        <path fill="#f5f5f5" d="M242.55 235.726v2.764h-2.764v-2.764h2.764z"/>
        <path fill="#f5f5f5" d="M246.94 207.921v2.764h-2.764v-2.764h2.764z"/>
        <path fill="#f5f5f5" d="M246.94 212.555v2.764h-2.764v-2.764h2.764z"/>
        <path fill="#f5f5f5" d="M246.94 217.189v2.764h-2.764v-2.764h2.764z"/>
        <path fill="#f5f5f5" d="M246.94 221.823v2.764h-2.764v-2.764h2.764z"/>
        <path fill="#f5f5f5" d="M246.94 226.458v2.764h-2.764v-2.764h2.764z"/>
        <path fill="#f5f5f5" d="M246.94 231.092v2.764h-2.764v-2.764h2.764z"/>
        <path fill="#f5f5f5" d="M246.94 235.726v2.764h-2.764v-2.764h2.764z"/>
        <path fill="#f5f5f5" d="M251.331 207.921v2.764h-2.764v-2.764h2.764z"/>
        <path fill="#f5f5f5" d="M251.331 212.555v2.764h-2.764v-2.764h2.764z"/>
        <path fill="#f5f5f5" d="M251.331 217.189v2.764h-2.764v-2.764h2.764z"/>
        <path fill="#f5f5f5" d="M251.331 221.823v2.764h-2.764v-2.764h2.764z"/>
        <path fill="#f5f5f5" d="M251.331 226.458v2.764h-2.764v-2.764h2.764z"/>
        <path fill="#f5f5f5" d="M251.331 231.092v2.764h-2.764v-2.764h2.764z"/>
        <path fill="#f5f5f5" d="M251.331 235.726v2.764h-2.764v-2.764h2.764z"/>
        <path fill="#f5f5f5" d="M251.331 240.36v2.764h-2.764v-2.764h2.764z"/>
        <path fill="#f5f5f5" d="M251.331 244.995v2.764h-2.764v-2.764h2.764z"/>
        <path fill="#f5f5f5" d="M251.331 249.629v2.764h-2.764v-2.764h2.764z"/>
        <path fill="#f5f5f5" d="M251.331 254.263v2.764h-2.764v-2.764h2.764z"/>
        <path fill="#f5f5f5" d="M255.721 207.921v2.764h-2.764v-2.764h2.764z"/>
        <path fill="#f5f5f5" d="M255.721 212.555v2.764h-2.764v-2.764h2.764z"/>
        <path fill="#f5f5f5" d="M255.721 217.189v2.764h-2.764v-2.764h2.764z"/>
        <path fill="#f5f5f5" d="M255.721 221.823v2.764h-2.764v-2.764h2.764z"/>
        <path fill="#f5f5f5" d="M255.721 226.458v2.764h-2.764v-2.764h2.764z"/>
        <path fill="#f5f5f5" d="M255.721 231.092v2.764h-2.764v-2.764h2.764z"/>
        <path fill="#f5f5f5" d="M255.721 235.726v2.764h-2.764v-2.764h2.764z"/>
        <path fill="#f5f5f5" d="M255.721 240.36v2.764h-2.764v-2.764h2.764z"/>
        <path fill="#f5f5f5" d="M255.721 244.995v2.764h-2.764v-2.764h2.764z"/>
        <path fill="#f5f5f5" d="M255.721 249.629v2.764h-2.764v-2.764h2.764z"/>
        <path fill="#f5f5f5" d="M255.721 254.263v2.764h-2.764v-2.764h2.764z"/>
        <path fill="#f5f5f5" d="M255.721 258.897v2.764h-2.764v-2.764h2.764z"/>
        <path fill="#f5f5f5" d="M255.721 272.8v2.764h-2.764V272.8h2.764z"/>
        <path fill="#f5f5f5" d="M255.721 277.434v2.764h-2.764v-2.764h2.764z"/>
        <path fill="#f5f5f5" d="M260.111 207.921v2.764h-2.764v-2.764h2.764z"/>
        <path fill="#f5f5f5" d="M260.111 212.555v2.764h-2.764v-2.764h2.764z"/>
        <path fill="#f5f5f5" d="M260.111 217.189v2.764h-2.764v-2.764h2.764z"/>
        <path fill="#f5f5f5" d="M260.111 231.092v2.764h-2.764v-2.764h2.764z"/>
        <path fill="#f5f5f5" d="M260.111 235.726v2.764h-2.764v-2.764h2.764z"/>
        <path fill="#f5f5f5" d="M260.111 240.36v2.764h-2.764v-2.764h2.764z"/>
        <path fill="#f5f5f5" d="M260.111 244.995v2.764h-2.764v-2.764h2.764z"/>
        <path fill="#f5f5f5" d="M260.111 249.629v2.764h-2.764v-2.764h2.764z"/>
        <path fill="#f5f5f5" d="M260.111 254.263v2.764h-2.764v-2.764h2.764z"/>
        <path fill="#f5f5f5" d="M260.111 258.897v2.764h-2.764v-2.764h2.764z"/>
        <path fill="#f5f5f5" d="M260.111 272.8v2.764h-2.764V272.8h2.764z"/>
        <path fill="#f5f5f5" d="M260.111 277.434v2.764h-2.764v-2.764h2.764z"/>
        <path fill="#f5f5f5" d="M260.111 282.068v2.764h-2.764v-2.764h2.764z"/>
        <path fill="#f5f5f5" d="M306.128 180.115v2.764h-2.764v-2.764h2.764z"/>
        <path fill="#f5f5f5" d="M306.128 184.75v2.764h-2.764v-2.764h2.764z"/>
        <path fill="#f5f5f5" d="M306.128 189.384v2.764h-2.764v-2.764h2.764z"/>
        <path fill="#f5f5f5" d="M306.128 194.018v2.764h-2.764v-2.764h2.764z"/>
        <path fill="#f5f5f5" d="M306.128 198.652v2.764h-2.764v-2.764h2.764z"/>
        <path fill="#f5f5f5" d="M306.128 203.287v2.764h-2.764v-2.764h2.764z"/>
        <path fill="#f5f5f5" d="M306.128 207.921v2.764h-2.764v-2.764h2.764z"/>
        <path fill="#f5f5f5" d="M306.128 212.555v2.764h-2.764v-2.764h2.764z"/>
        <path fill="#f5f5f5" d="M306.128 217.189v2.764h-2.764v-2.764h2.764z"/>
        <path fill="#f5f5f5" d="M306.128 221.823v2.764h-2.764v-2.764h2.764z"/>
        <path fill="#f5f5f5" d="M306.128 226.458v2.764h-2.764v-2.764h2.764z"/>
        <path fill="#f5f5f5" d="M306.128 231.092v2.764h-2.764v-2.764h2.764z"/>
        <path fill="#f5f5f5" d="M306.128 235.726v2.764h-2.764v-2.764h2.764z"/>
        <path fill="#f5f5f5" d="M306.128 240.36v2.764h-2.764v-2.764h2.764z"/>
        <path fill="#f5f5f5" d="M306.128 244.995v2.764h-2.764v-2.764h2.764z"/>
        <path fill="#f5f5f5" d="M306.128 249.629v2.764h-2.764v-2.764h2.764z"/>
        <path fill="#f5f5f5" d="M306.128 254.263v2.764h-2.764v-2.764h2.764z"/>
        <path fill="#f5f5f5" d="M306.128 258.897v2.764h-2.764v-2.764h2.764z"/>
        <path fill="#f5f5f5" d="M306.128 263.531v2.764h-2.764v-2.764h2.764z"/>
        <path fill="#f5f5f5" d="M306.128 268.165v2.764h-2.764v-2.764h2.764z"/>
        <path fill="#f5f5f5" d="M306.128 272.8v2.764h-2.764V272.8h2.764z"/>
        <path fill="#f5f5f5" d="M306.128 277.434v2.764h-2.764v-2.764h2.764z"/>
        <path fill="#f5f5f5" d="M306.128 282.068v2.764h-2.764v-2.764h2.764z"/>
        <path fill="#f5f5f5" d="M310.519 180.115v2.764h-2.765v-2.764h2.765z"/>
        <path fill="#f5f5f5" d="M310.519 184.75v2.764h-2.765v-2.764h2.765z"/>
        <path fill="#f5f5f5" d="M310.519 189.384v2.764h-2.765v-2.764h2.765z"/>
        <path fill="#f5f5f5" d="M310.519 194.018v2.764h-2.765v-2.764h2.765z"/>
        <path fill="#f5f5f5" d="M310.519 198.652v2.764h-2.765v-2.764h2.765z"/>
        <path fill="#f5f5f5" d="M310.519 203.287v2.764h-2.765v-2.764h2.765z"/>
        <path fill="#f5f5f5" d="M310.519 207.921v2.764h-2.765v-2.764h2.765z"/>
        <path fill="#f5f5f5" d="M310.519 212.555v2.764h-2.765v-2.764h2.765z"/>
        <path fill="#f5f5f5" d="M310.519 217.189v2.764h-2.765v-2.764h2.765z"/>
        <path fill="#f5f5f5" d="M310.519 221.823v2.764h-2.765v-2.764h2.765z"/>
        <path fill="#f5f5f5" d="M310.519 226.458v2.764h-2.765v-2.764h2.765z"/>
        <path fill="#f5f5f5" d="M310.519 231.092v2.764h-2.765v-2.764h2.765z"/>
        <path fill="#f5f5f5" d="M310.519 235.726v2.764h-2.765v-2.764h2.765z"/>
        <path fill="#f5f5f5" d="M310.519 240.36v2.764h-2.765v-2.764h2.765z"/>
        <path fill="#f5f5f5" d="M310.519 244.995v2.764h-2.765v-2.764h2.765z"/>
        <path fill="#f5f5f5" d="M310.519 249.629v2.764h-2.765v-2.764h2.765z"/>
        <path fill="#f5f5f5" d="M310.519 254.263v2.764h-2.765v-2.764h2.765z"/>
        <path fill="#f5f5f5" d="M310.519 258.897v2.764h-2.765v-2.764h2.765z"/>
        <path fill="#f5f5f5" d="M310.519 263.531v2.764h-2.765v-2.764h2.765z"/>
        <path fill="#f5f5f5" d="M314.909 180.115v2.764h-2.764v-2.764h2.764z"/>
        <path fill="#f5f5f5" d="M314.909 184.75v2.764h-2.764v-2.764h2.764z"/>
        <path fill="#f5f5f5" d="M314.909 189.384v2.764h-2.764v-2.764h2.764z"/>
        <path fill="#f5f5f5" d="M314.909 194.018v2.764h-2.764v-2.764h2.764z"/>
        <path fill="#f5f5f5" d="M314.909 198.652v2.764h-2.764v-2.764h2.764z"/>
        <path fill="#f5f5f5" d="M314.909 203.287v2.764h-2.764v-2.764h2.764z"/>
        <path fill="#f5f5f5" d="M314.909 207.921v2.764h-2.764v-2.764h2.764z"/>
        <path fill="#f5f5f5" d="M314.909 212.555v2.764h-2.764v-2.764h2.764z"/>
        <path fill="#f5f5f5" d="M314.909 217.189v2.764h-2.764v-2.764h2.764z"/>
        <path fill="#f5f5f5" d="M314.909 221.823v2.764h-2.764v-2.764h2.764z"/>
        <path fill="#f5f5f5" d="M314.909 226.458v2.764h-2.764v-2.764h2.764z"/>
        <path fill="#f5f5f5" d="M314.909 231.092v2.764h-2.764v-2.764h2.764z"/>
        <path fill="#f5f5f5" d="M314.909 235.726v2.764h-2.764v-2.764h2.764z"/>
        <path fill="#f5f5f5" d="M314.909 240.36v2.764h-2.764v-2.764h2.764z"/>
        <path fill="#f5f5f5" d="M314.909 244.995v2.764h-2.764v-2.764h2.764z"/>
        <path fill="#f5f5f5" d="M314.909 249.629v2.764h-2.764v-2.764h2.764z"/>
        <path fill="#f5f5f5" d="M314.909 254.263v2.764h-2.764v-2.764h2.764z"/>
        <path fill="#f5f5f5" d="M314.909 258.897v2.764h-2.764v-2.764h2.764z"/>
        <path fill="#f5f5f5" d="M314.909 263.531v2.764h-2.764v-2.764h2.764z"/>
        <path fill="#f5f5f5" d="M319.299 180.115v2.764h-2.764v-2.764h2.764z"/>
        <path fill="#f5f5f5" d="M319.299 184.75v2.764h-2.764v-2.764h2.764z"/>
        <path fill="#f5f5f5" d="M319.299 189.384v2.764h-2.764v-2.764h2.764z"/>
        <path fill="#f5f5f5" d="M319.299 194.018v2.764h-2.764v-2.764h2.764z"/>
        <path fill="#f5f5f5" d="M319.299 198.652v2.764h-2.764v-2.764h2.764z"/>
        <path fill="#f5f5f5" d="M319.299 203.287v2.764h-2.764v-2.764h2.764z"/>
        <path fill="#f5f5f5" d="M319.299 207.921v2.764h-2.764v-2.764h2.764z"/>
        <path fill="#f5f5f5" d="M319.299 212.555v2.764h-2.764v-2.764h2.764z"/>
        <path fill="#f5f5f5" d="M319.299 217.189v2.764h-2.764v-2.764h2.764z"/>
        <path fill="#f5f5f5" d="M319.299 221.823v2.764h-2.764v-2.764h2.764z"/>
        <path fill="#f5f5f5" d="M319.299 226.458v2.764h-2.764v-2.764h2.764z"/>
        <path fill="#f5f5f5" d="M319.299 231.092v2.764h-2.764v-2.764h2.764z"/>
        <path fill="#f5f5f5" d="M319.299 235.726v2.764h-2.764v-2.764h2.764z"/>
        <path fill="#f5f5f5" d="M319.299 240.36v2.764h-2.764v-2.764h2.764z"/>
        <path fill="#f5f5f5" d="M319.299 244.995v2.764h-2.764v-2.764h2.764z"/>
        <path fill="#f5f5f5" d="M323.689 180.115v2.764h-2.764v-2.764h2.764z"/>
        <path fill="#f5f5f5" d="M323.689 184.75v2.764h-2.764v-2.764h2.764z"/>
        <path fill="#f5f5f5" d="M323.689 189.384v2.764h-2.764v-2.764h2.764z"/>
        <path fill="#f5f5f5" d="M323.689 194.018v2.764h-2.764v-2.764h2.764z"/>
        <path fill="#f5f5f5" d="M323.689 198.652v2.764h-2.764v-2.764h2.764z"/>
        <path fill="#f5f5f5" d="M323.689 203.287v2.764h-2.764v-2.764h2.764z"/>
        <path fill="#f5f5f5" d="M323.689 207.921v2.764h-2.764v-2.764h2.764z"/>
        <path fill="#f5f5f5" d="M323.689 212.555v2.764h-2.764v-2.764h2.764z"/>
        <path fill="#f5f5f5" d="M323.689 217.189v2.764h-2.764v-2.764h2.764z"/>
        <path fill="#f5f5f5" d="M323.689 221.823v2.764h-2.764v-2.764h2.764z"/>
        <path fill="#f5f5f5" d="M323.689 226.458v2.764h-2.764v-2.764h2.764z"/>
        <path fill="#f5f5f5" d="M323.689 231.092v2.764h-2.764v-2.764h2.764z"/>
        <path fill="#f5f5f5" d="M323.689 235.726v2.764h-2.764v-2.764h2.764z"/>
        <path fill="#f5f5f5" d="M328.08 180.115v2.764h-2.764v-2.764h2.764z"/>
        <path fill="#f5f5f5" d="M328.08 184.75v2.764h-2.764v-2.764h2.764z"/>
        <path fill="#f5f5f5" d="M328.08 189.384v2.764h-2.764v-2.764h2.764z"/>
        <path fill="#f5f5f5" d="M328.08 194.018v2.764h-2.764v-2.764h2.764z"/>
        <path fill="#f5f5f5" d="M328.08 198.652v2.764h-2.764v-2.764h2.764z"/>
        <path fill="#f5f5f5" d="M328.08 203.287v2.764h-2.764v-2.764h2.764z"/>
        <path fill="#f5f5f5" d="M328.08 207.921v2.764h-2.764v-2.764h2.764z"/>
        <path fill="#f5f5f5" d="M328.08 212.555v2.764h-2.764v-2.764h2.764z"/>
        <path fill="#f5f5f5" d="M328.08 217.189v2.764h-2.764v-2.764h2.764z"/>
        <path fill="#f5f5f5" d="M328.08 221.823v2.764h-2.764v-2.764h2.764z"/>
        <path fill="#f5f5f5" d="M328.08 226.458v2.764h-2.764v-2.764h2.764z"/>
        <path fill="#f5f5f5" d="M328.08 231.092v2.764h-2.764v-2.764h2.764z"/>
        <path fill="#f5f5f5" d="M71.816 178.733v2.764h-2.764v-2.764h2.764z"/>
        <path fill="#f5f5f5" d="M71.816 183.367v2.764h-2.764v-2.764h2.764z"/>
        <path fill="#f5f5f5" d="M71.816 188.002v2.764h-2.764v-2.764h2.764z"/>
        <path fill="#f5f5f5" d="M71.816 192.636v2.764h-2.764v-2.764h2.764z"/>
        <path fill="#f5f5f5" d="M71.816 197.27v2.764h-2.764v-2.764h2.764z"/>
        <path fill="#f5f5f5" d="M71.816 201.904v2.764h-2.764v-2.764h2.764z"/>
        <path fill="#f5f5f5" d="M71.816 206.539v2.764h-2.764v-2.764h2.764z"/>
        <path fill="#f5f5f5" d="M71.816 211.173v2.764h-2.764v-2.764h2.764z"/>
        <path fill="#f5f5f5" d="M71.816 215.807v2.764h-2.764v-2.764h2.764z"/>
        <path fill="#f5f5f5" d="M71.816 220.441v2.764h-2.764v-2.764h2.764z"/>
        <path fill="#f5f5f5" d="M71.816 225.076v2.764h-2.764v-2.764h2.764z"/>
        <path fill="#f5f5f5" d="M71.816 229.71v2.764h-2.764v-2.764h2.764z"/>
        <path fill="#f5f5f5" d="M71.816 234.344v2.764h-2.764v-2.764h2.764z"/>
        <path fill="#f5f5f5" d="M71.816 238.978v2.764h-2.764v-2.764h2.764z"/>
        <path fill="#f5f5f5" d="M71.816 243.612v2.764h-2.764v-2.764h2.764z"/>
        <path fill="#f5f5f5" d="M71.816 248.247v2.764h-2.764v-2.764h2.764z"/>
        <path fill="#f5f5f5" d="M71.816 252.881v2.764h-2.764v-2.764h2.764z"/>
        <path fill="#f5f5f5" d="M71.816 262.149v2.764h-2.764v-2.764h2.764z"/>
        <path fill="#f5f5f5" d="M71.816 266.783v2.764h-2.764v-2.764h2.764z"/>
        <path fill="#f5f5f5" d="M71.816 271.418v2.764h-2.764v-2.764h2.764z"/>
        <path fill="#f5f5f5" d="M71.816 276.052v2.764h-2.764v-2.764h2.764z"/>
        <path fill="#f5f5f5" d="M71.816 280.686v2.764h-2.764v-2.764h2.764z"/>
        <path fill="#f5f5f5" d="M76.206 178.733v2.764h-2.764v-2.764h2.764z"/>
        <path fill="#f5f5f5" d="M76.206 183.367v2.764h-2.764v-2.764h2.764z"/>
        <path fill="#f5f5f5" d="M76.206 188.002v2.764h-2.764v-2.764h2.764z"/>
        <path fill="#f5f5f5" d="M76.206 192.636v2.764h-2.764v-2.764h2.764z"/>
        <path fill="#f5f5f5" d="M76.206 197.27v2.764h-2.764v-2.764h2.764z"/>
        <path fill="#f5f5f5" d="M76.206 201.904v2.764h-2.764v-2.764h2.764z"/>
        <path fill="#f5f5f5" d="M76.206 206.539v2.764h-2.764v-2.764h2.764z"/>
        <path fill="#f5f5f5" d="M76.206 211.173v2.764h-2.764v-2.764h2.764z"/>
        <path fill="#f5f5f5" d="M76.206 215.807v2.764h-2.764v-2.764h2.764z"/>
        <path fill="#f5f5f5" d="M76.206 220.441v2.764h-2.764v-2.764h2.764z"/>
        <path fill="#f5f5f5" d="M76.206 225.076v2.764h-2.764v-2.764h2.764z"/>
        <path fill="#f5f5f5" d="M76.206 229.71v2.764h-2.764v-2.764h2.764z"/>
        <path fill="#f5f5f5" d="M76.206 234.344v2.764h-2.764v-2.764h2.764z"/>
        <path fill="#f5f5f5" d="M76.206 238.978v2.764h-2.764v-2.764h2.764z"/>
        <path fill="#f5f5f5" d="M76.206 243.612v2.764h-2.764v-2.764h2.764z"/>
        <path fill="#f5f5f5" d="M76.206 248.247v2.764h-2.764v-2.764h2.764z"/>
        <path fill="#f5f5f5" d="M76.206 276.052v2.764h-2.764v-2.764h2.764z"/>
        <path fill="#f5f5f5" d="M76.206 280.686v2.764h-2.764v-2.764h2.764z"/>
        <path fill="#f5f5f5" d="M80.597 178.733v2.764h-2.764v-2.764h2.764z"/>
        <path fill="#f5f5f5" d="M80.597 183.367v2.764h-2.764v-2.764h2.764z"/>
        <path fill="#f5f5f5" d="M80.597 188.002v2.764h-2.764v-2.764h2.764z"/>
        <path fill="#f5f5f5" d="M80.597 192.636v2.764h-2.764v-2.764h2.764z"/>
        <path fill="#f5f5f5" d="M80.597 197.27v2.764h-2.764v-2.764h2.764z"/>
        <path fill="#f5f5f5" d="M80.597 201.904v2.764h-2.764v-2.764h2.764z"/>
        <path fill="#f5f5f5" d="M80.597 206.539v2.764h-2.764v-2.764h2.764z"/>
        <path fill="#f5f5f5" d="M80.597 211.173v2.764h-2.764v-2.764h2.764z"/>
        <path fill="#f5f5f5" d="M80.597 215.807v2.764h-2.764v-2.764h2.764z"/>
        <path fill="#f5f5f5" d="M80.597 220.441v2.764h-2.764v-2.764h2.764z"/>
        <path fill="#f5f5f5" d="M80.597 225.076v2.764h-2.764v-2.764h2.764z"/>
        <path fill="#f5f5f5" d="M80.597 229.71v2.764h-2.764v-2.764h2.764z"/>
        <path fill="#f5f5f5" d="M80.597 234.344v2.764h-2.764v-2.764h2.764z"/>
        <path fill="#f5f5f5" d="M80.597 238.978v2.764h-2.764v-2.764h2.764z"/>
        <path fill="#f5f5f5" d="M80.597 243.612v2.764h-2.764v-2.764h2.764z"/>
        <path fill="#f5f5f5" d="M80.597 248.247v2.764h-2.764v-2.764h2.764z"/>
        <path fill="#f5f5f5" d="M80.597 257.515v2.764h-2.764v-2.764h2.764z"/>
        <path fill="#f5f5f5" d="M80.597 262.149v2.764h-2.764v-2.764h2.764z"/>
        <path fill="#f5f5f5" d="M80.597 266.783v2.764h-2.764v-2.764h2.764z"/>
        <path fill="#f5f5f5" d="M80.597 271.418v2.764h-2.764v-2.764h2.764z"/>
        <path fill="#f5f5f5" d="M80.597 280.686v2.764h-2.764v-2.764h2.764z"/>
        <path fill="#f5f5f5" d="M157.183 211.173v2.764h-2.764v-2.764h2.764z"/>
        <path fill="#f5f5f5" d="M157.183 215.807v2.764h-2.764v-2.764h2.764z"/>
        <path fill="#f5f5f5" d="M157.183 220.441v2.764h-2.764v-2.764h2.764z"/>
        <path fill="#f5f5f5" d="M157.183 225.076v2.764h-2.764v-2.764h2.764z"/>
        <path fill="#f5f5f5" d="M157.183 229.71v2.764h-2.764v-2.764h2.764z"/>
        <path fill="#f5f5f5" d="M157.183 234.344v2.764h-2.764v-2.764h2.764z"/>
        <path fill="#f5f5f5" d="M157.183 238.978v2.764h-2.764v-2.764h2.764z"/>
        <path fill="#f5f5f5" d="M157.183 243.612v2.764h-2.764v-2.764h2.764z"/>
        <path fill="#f5f5f5" d="M157.183 248.247v2.764h-2.764v-2.764h2.764z"/>
        <path fill="#f5f5f5" d="M157.183 252.881v2.764h-2.764v-2.764h2.764z"/>
        <path fill="#f5f5f5" d="M157.183 257.515v2.764h-2.764v-2.764h2.764z"/>
        <path fill="#f5f5f5" d="M157.183 262.149v2.764h-2.764v-2.764h2.764z"/>
        <path fill="#f5f5f5" d="M157.183 266.783v2.764h-2.764v-2.764h2.764z"/>
        <path fill="#f5f5f5" d="M157.183 276.052v2.764h-2.764v-2.764h2.764z"/>
        <path fill="#f5f5f5" d="M157.183 280.686v2.764h-2.764v-2.764h2.764z"/>
        <path fill="#f5f5f5" d="M157.183 285.32v2.764h-2.764v-2.764h2.764z"/>
        <path fill="#f5f5f5" d="M157.183 289.954v2.764h-2.764v-2.764h2.764z"/>
        <path fill="#f5f5f5" d="M157.183 299.223v2.764h-2.764v-2.764h2.764z"/>
        <path fill="#f5f5f5" d="M157.183 303.857v2.764h-2.764v-2.764h2.764z"/>
        <path fill="#f5f5f5" d="M157.183 308.491v2.764h-2.764v-2.764h2.764z"/>
        <path fill="#f5f5f5" d="M161.573 211.173v2.764h-2.764v-2.764h2.764z"/>
        <path fill="#f5f5f5" d="M161.573 215.807v2.764h-2.764v-2.764h2.764z"/>
        <path fill="#f5f5f5" d="M161.573 220.441v2.764h-2.764v-2.764h2.764z"/>
        <path fill="#f5f5f5" d="M161.573 225.076v2.764h-2.764v-2.764h2.764z"/>
        <path fill="#f5f5f5" d="M161.573 229.71v2.764h-2.764v-2.764h2.764z"/>
        <path fill="#f5f5f5" d="M161.573 234.344v2.764h-2.764v-2.764h2.764z"/>
        <path fill="#f5f5f5" d="M161.573 238.978v2.764h-2.764v-2.764h2.764z"/>
        <path fill="#f5f5f5" d="M161.573 243.612v2.764h-2.764v-2.764h2.764z"/>
        <path fill="#f5f5f5" d="M161.573 248.247v2.764h-2.764v-2.764h2.764z"/>
        <path fill="#f5f5f5" d="M161.573 252.881v2.764h-2.764v-2.764h2.764z"/>
        <path fill="#f5f5f5" d="M161.573 257.515v2.764h-2.764v-2.764h2.764z"/>
        <path fill="#f5f5f5" d="M161.573 262.149v2.764h-2.764v-2.764h2.764z"/>
        <path fill="#f5f5f5" d="M161.573 266.783v2.764h-2.764v-2.764h2.764z"/>
        <path fill="#f5f5f5" d="M161.573 280.686v2.764h-2.764v-2.764h2.764z"/>
        <path fill="#f5f5f5" d="M161.573 285.32v2.764h-2.764v-2.764h2.764z"/>
        <path fill="#f5f5f5" d="M161.573 294.589v2.764h-2.764v-2.764h2.764z"/>
        <path fill="#f5f5f5" d="M161.573 299.223v2.764h-2.764v-2.764h2.764z"/>
        <path fill="#f5f5f5" d="M161.573 303.857v2.764h-2.764v-2.764h2.764z"/>
        <path fill="#f5f5f5" d="M161.573 308.491v2.764h-2.764v-2.764h2.764z"/>
        <path fill="#f5f5f5" d="M165.964 211.173v2.764H163.2v-2.764h2.764z"/>
        <path fill="#f5f5f5" d="M165.964 215.807v2.764H163.2v-2.764h2.764z"/>
        <path fill="#f5f5f5" d="M165.964 220.441v2.764H163.2v-2.764h2.764z"/>
        <path fill="#f5f5f5" d="M165.964 225.076v2.764H163.2v-2.764h2.764z"/>
        <path fill="#f5f5f5" d="M165.964 229.71v2.764H163.2v-2.764h2.764z"/>
        <path fill="#f5f5f5" d="M165.964 234.344v2.764H163.2v-2.764h2.764z"/>
        <path fill="#f5f5f5" d="M165.964 238.978v2.764H163.2v-2.764h2.764z"/>
        <path fill="#f5f5f5" d="M165.964 243.612v2.764H163.2v-2.764h2.764z"/>
        <path fill="#f5f5f5" d="M165.964 248.247v2.764H163.2v-2.764h2.764z"/>
        <path fill="#f5f5f5" d="M165.964 252.881v2.764H163.2v-2.764h2.764z"/>
        <path fill="#f5f5f5" d="M165.964 257.515v2.764H163.2v-2.764h2.764z"/>
        <path fill="#f5f5f5" d="M165.964 262.149v2.764H163.2v-2.764h2.764z"/>
        <path fill="#f5f5f5" d="M165.964 266.783v2.764H163.2v-2.764h2.764z"/>
        <path fill="#f5f5f5" d="M165.964 271.418v2.764H163.2v-2.764h2.764z"/>
        <path fill="#f5f5f5" d="M165.964 280.686v2.764H163.2v-2.764h2.764z"/>
        <path fill="#f5f5f5" d="M165.964 289.954v2.764H163.2v-2.764h2.764z"/>
        <path fill="#f5f5f5" d="M165.964 294.589v2.764H163.2v-2.764h2.764z"/>
        <path fill="#f5f5f5" d="M165.964 299.223v2.764H163.2v-2.764h2.764z"/>
        <path fill="#f5f5f5" d="M165.964 303.857v2.764H163.2v-2.764h2.764z"/>
        <path fill="#f5f5f5" d="M165.964 308.491v2.764H163.2v-2.764h2.764z"/>
        <path fill="#f5f5f5" d="M139.297 237.596v2.764h-2.764v-2.764h2.764z"/>
        <path fill="#f5f5f5" d="M139.297 242.23v2.764h-2.764v-2.764h2.764z"/>
        <path fill="#f5f5f5" d="M139.297 246.864v2.764h-2.764v-2.764h2.764z"/>
        <path fill="#f5f5f5" d="M139.297 251.499v2.764h-2.764v-2.764h2.764z"/>
        <path fill="#f5f5f5" d="M139.297 256.133v2.764h-2.764v-2.764h2.764z"/>
        <path fill="#f5f5f5" d="M139.297 260.767v2.764h-2.764v-2.764h2.764z"/>
        <path fill="#f5f5f5" d="M139.297 274.67v2.764h-2.764v-2.764h2.764z"/>
        <path fill="#f5f5f5" d="M139.297 279.304v2.764h-2.764v-2.764h2.764z"/>
        <path fill="#f5f5f5" d="M139.297 283.938v2.764h-2.764v-2.764h2.764z"/>
        <path fill="#f5f5f5" d="M139.297 288.572v2.764h-2.764v-2.764h2.764z"/>
        <path fill="#f5f5f5" d="M139.297 293.207v2.764h-2.764v-2.764h2.764z"/>
        <path fill="#f5f5f5" d="M139.297 297.841v2.764h-2.764v-2.764h2.764z"/>
        <path fill="#f5f5f5" d="M139.297 302.475v2.764h-2.764v-2.764h2.764z"/>
        <path fill="#f5f5f5" d="M143.687 237.596v2.764h-2.764v-2.764h2.764z"/>
        <path fill="#f5f5f5" d="M143.687 242.23v2.764h-2.764v-2.764h2.764z"/>
        <path fill="#f5f5f5" d="M143.687 246.864v2.764h-2.764v-2.764h2.764z"/>
        <path fill="#f5f5f5" d="M143.687 251.499v2.764h-2.764v-2.764h2.764z"/>
        <path fill="#f5f5f5" d="M143.687 256.133v2.764h-2.764v-2.764h2.764z"/>
        <path fill="#f5f5f5" d="M143.687 260.767v2.764h-2.764v-2.764h2.764z"/>
        <path fill="#f5f5f5" d="M143.687 274.67v2.764h-2.764v-2.764h2.764z"/>
        <path fill="#f5f5f5" d="M143.687 279.304v2.764h-2.764v-2.764h2.764z"/>
        <path fill="#f5f5f5" d="M143.687 283.938v2.764h-2.764v-2.764h2.764z"/>
        <path fill="#f5f5f5" d="M143.687 288.572v2.764h-2.764v-2.764h2.764z"/>
        <path fill="#f5f5f5" d="M143.687 293.207v2.764h-2.764v-2.764h2.764z"/>
        <path fill="#f5f5f5" d="M143.687 297.841v2.764h-2.764v-2.764h2.764z"/>
        <path fill="#f5f5f5" d="M143.687 307.109v2.764h-2.764v-2.764h2.764z"/>
        <path fill="#f5f5f5" d="M289.543 217.189v2.764h-2.764v-2.764h2.764z"/>
        <path fill="#f5f5f5" d="M289.543 221.823v2.764h-2.764v-2.764h2.764z"/>
        <path fill="#f5f5f5" d="M289.543 226.458v2.764h-2.764v-2.764h2.764z"/>
        <path fill="#f5f5f5" d="M289.543 231.092v2.764h-2.764v-2.764h2.764z"/>
        <path fill="#f5f5f5" d="M289.543 235.726v2.764h-2.764v-2.764h2.764z"/>
        <path fill="#f5f5f5" d="M289.543 240.36v2.764h-2.764v-2.764h2.764z"/>
        <path fill="#f5f5f5" d="M289.543 244.995v2.764h-2.764v-2.764h2.764z"/>
        <path fill="#f5f5f5" d="M289.543 249.629v2.764h-2.764v-2.764h2.764z"/>
        <path fill="#f5f5f5" d="M289.543 254.263v2.764h-2.764v-2.764h2.764z"/>
        <path fill="#f5f5f5" d="M289.543 258.897v2.764h-2.764v-2.764h2.764z"/>
        <path fill="#f5f5f5" d="M289.543 263.531v2.764h-2.764v-2.764h2.764z"/>
        <path fill="#f5f5f5" d="M289.543 272.8v2.764h-2.764V272.8h2.764z"/>
        <path fill="#f5f5f5" d="M289.543 277.434v2.764h-2.764v-2.764h2.764z"/>
        <path fill="#f5f5f5" d="M289.543 282.068v2.764h-2.764v-2.764h2.764z"/>
        <path fill="#f5f5f5" d="M289.543 286.702v2.764h-2.764v-2.764h2.764z"/>
        <path fill="#f5f5f5" d="M289.543 291.337v2.764h-2.764v-2.764h2.764z"/>
        <path fill="#f5f5f5" d="M289.543 295.971v2.764h-2.764v-2.764h2.764z"/>
        <path fill="#f5f5f5" d="M289.543 300.605v2.764h-2.764v-2.764h2.764z"/>
        <path fill="#f5f5f5" d="M289.543 305.239v2.764h-2.764v-2.764h2.764z"/>
        <path fill="#f5f5f5" d="M293.933 217.189v2.764h-2.764v-2.764h2.764z"/>
        <path fill="#f5f5f5" d="M293.933 221.823v2.764h-2.764v-2.764h2.764z"/>
        <path fill="#f5f5f5" d="M293.933 226.458v2.764h-2.764v-2.764h2.764z"/>
        <path fill="#f5f5f5" d="M293.933 231.092v2.764h-2.764v-2.764h2.764z"/>
        <path fill="#f5f5f5" d="M293.933 235.726v2.764h-2.764v-2.764h2.764z"/>
        <path fill="#f5f5f5" d="M293.933 240.36v2.764h-2.764v-2.764h2.764z"/>
        <path fill="#f5f5f5" d="M293.933 244.995v2.764h-2.764v-2.764h2.764z"/>
        <path fill="#f5f5f5" d="M293.933 249.629v2.764h-2.764v-2.764h2.764z"/>
        <path fill="#f5f5f5" d="M293.933 254.263v2.764h-2.764v-2.764h2.764z"/>
        <path fill="#f5f5f5" d="M293.933 258.897v2.764h-2.764v-2.764h2.764z"/>
        <path fill="#f5f5f5" d="M293.933 263.531v2.764h-2.764v-2.764h2.764z"/>
        <path fill="#f5f5f5" d="M293.933 268.165v2.764h-2.764v-2.764h2.764z"/>
        <path fill="#f5f5f5" d="M293.933 272.8v2.764h-2.764V272.8h2.764z"/>
        <path fill="#f5f5f5" d="M293.933 277.434v2.764h-2.764v-2.764h2.764z"/>
        <path fill="#f5f5f5" d="M293.933 282.068v2.764h-2.764v-2.764h2.764z"/>
        <path fill="#f5f5f5" d="M293.933 286.702v2.764h-2.764v-2.764h2.764z"/>
        <path fill="#f5f5f5" d="M293.933 291.337v2.764h-2.764v-2.764h2.764z"/>
        <path fill="#f5f5f5" d="M293.933 295.971v2.764h-2.764v-2.764h2.764z"/>
        <path fill="#f5f5f5" d="M293.933 300.605v2.764h-2.764v-2.764h2.764z"/>
        <path fill="#f5f5f5" d="M293.933 305.239v2.764h-2.764v-2.764h2.764z"/>
        <path fill="#f5f5f5" d="M267.916 235.238v2.764h-2.764v-2.764h2.764z"/>
        <path fill="#f5f5f5" d="M267.916 239.872v2.764h-2.764v-2.764h2.764z"/>
        <path fill="#f5f5f5" d="M267.916 244.507v2.764h-2.764v-2.764h2.764z"/>
        <path fill="#f5f5f5" d="M267.916 249.141v2.764h-2.764v-2.764h2.764z"/>
        <path fill="#f5f5f5" d="M267.916 253.775v2.764h-2.764v-2.764h2.764z"/>
        <path fill="#f5f5f5" d="M267.916 258.409v2.764h-2.764v-2.764h2.764z"/>
        <path fill="#f5f5f5" d="M267.916 263.043v2.764h-2.764v-2.764h2.764z"/>
        <path fill="#f5f5f5" d="M267.916 267.678v2.764h-2.764v-2.764h2.764z"/>
        <path fill="#f5f5f5" d="M267.916 272.312v2.764h-2.764v-2.764h2.764z"/>
        <path fill="#f5f5f5" d="M267.916 276.946v2.764h-2.764v-2.764h2.764z"/>
        <path fill="#f5f5f5" d="M272.307 235.238v2.764h-2.764v-2.764h2.764z"/>
        <path fill="#f5f5f5" d="M272.307 239.872v2.764h-2.764v-2.764h2.764z"/>
        <path fill="#f5f5f5" d="M272.307 244.507v2.764h-2.764v-2.764h2.764z"/>
        <path fill="#f5f5f5" d="M272.307 249.141v2.764h-2.764v-2.764h2.764z"/>
        <path fill="#f5f5f5" d="M272.307 253.775v2.764h-2.764v-2.764h2.764z"/>
        <path fill="#f5f5f5" d="M272.307 258.409v2.764h-2.764v-2.764h2.764z"/>
        <path fill="#f5f5f5" d="M272.307 263.043v2.764h-2.764v-2.764h2.764z"/>
        <path fill="#f5f5f5" d="M272.307 267.678v2.764h-2.764v-2.764h2.764z"/>
        <path fill="#f5f5f5" d="M272.307 272.312v2.764h-2.764v-2.764h2.764z"/>
        <path fill="#f5f5f5" d="M248.059 96.504v221.332h-4.64V96.504h4.64z"/>
        <path fill="#f5f5f5" d="M160.783 96.504v221.332h-4.64V96.504h4.64z"/>
        <path fill="#f5f5f5" d="M73.507 96.504v221.332h-4.64V96.504h4.64z"/>
        <path d="M421.006 127.993s.862-5.686-3.285-9.331c-4.147-3.646-3.782-5.814-2.598-6.097 1.185-.283 2.279 3.363 4.101 4.365 0 0 .057-5.195-1.794-7.109-1.852-1.914-2.823-6.844-1.061-6.931 1.762-.087 1.944 2.928 2.309 5.067.365 2.138 2.328 5.146 2.328 5.146s.383-4.648 1.58-6.562c1.197-1.914-1.993-6.289-.763-8.203 1.23-1.914 3.418 1.732 3.236 5.833-.182 4.101-2.917 8.476-2.279 12.76 0 0 1.206-3.008 2.289-3.281 1.083-.273 2.177-2.263 2.906-3s1.641 1.815 0 4.185c-1.641 2.37-5.833 8.709-5.195 13.833l-1.774-.675z" fill="#e6e6e6"/>
        <path d="m418.527 125.406-1.358 8.522a4.333 4.333 0 0 0 4.279 5.015h1.449a4.333 4.333 0 0 0 4.279-5.015l-1.358-8.522h-7.291z" fill="#e6e6e6"/>
        <path fill="#e0e0e0" d="M439.066 135.798v4.932h-85.991v-4.932h85.991z"/>
        <path fill="#ebebeb" d="M361.722 117.618v18.18h-4.229v-18.18h4.229z"/>
        <path fill="#ebebeb" d="M382.171 117.618v18.18h-4.229v-18.18h4.229z"/>
        <path fill="#ebebeb" d="m405.388 117.144 3.089 17.916-4.168.718-3.089-17.916 4.168-.718z"/>
        <path fill="#ebebeb" d="M366.962 120.014v15.784h-4.229v-15.784h4.229z"/>
        <path fill="#ebebeb" d="M376.683 120.014v15.784h-4.229v-15.784h4.229z"/>
        <path fill="#ebebeb" d="M401.217 120.014v15.784h-4.229v-15.784h4.229z"/>
        <path fill="#ebebeb" d="m387.728 119.476 3.423 15.409-4.128.917-3.423-15.409 4.128-.917z"/>
        <path fill="#ebebeb" d="M370.619 116.716v19.083h-2.114v-19.083h2.114z"/>
        <path fill="#ebebeb" d="M395.773 116.716v19.083h-2.115v-19.083h2.115z"/>
        <path fill="#e0e0e0" d="M353.074 177.549v-4.932h85.991v4.932h-85.991z"/>
        <path fill="#ebebeb" d="M430.42 172.617v-18.18h4.229v18.18h-4.229z"/>
        <path fill="#ebebeb" d="M409.97 172.617v-18.18h4.229v18.18h-4.229z"/>
        <path fill="#ebebeb" d="m383.677 171.883 3.088-17.915 4.168.718-3.089 17.916-4.167-.719z"/>
        <path fill="#ebebeb" d="M425.178 172.617v-15.784h4.229v15.784h-4.229z"/>
        <path fill="#ebebeb" d="M415.458 172.617v-15.784h4.229v15.784h-4.229z"/>
        <path fill="#ebebeb" d="M390.923 172.617v-15.784h4.229v15.784h-4.229z"/>
        <path fill="#ebebeb" d="m400.993 171.692 3.423-15.409 4.128.917-3.423 15.409-4.128-.917z"/>
        <path fill="#ebebeb" d="M421.524 172.618v-19.083h2.114v19.083h-2.114z"/>
        <path fill="#ebebeb" d="M396.369 172.618v-19.083h2.115v19.083h-2.115z"/>
        <path fill="#ebebeb" d="M362.286 172.452v-14.226h20.606v14.226h-20.606z"/>
        <path fill="#f5f5f5" d="M443.889 416.238c0 6.254-86.807 11.323-193.889 11.323-107.082 0-193.889-5.07-193.889-11.323 0-6.254 86.807-11.323 193.889-11.323 107.082 0 193.889 5.07 193.889 11.323z"/>
        <path d="M399.93 341.888c.21 1.47-3.776 2.438-7.028 2.98.265 2.669 2.041 5.367 4.494 7.886 3.085-1.738 7.49-4.036 8.302-3.475.886.613-3.624 3.529-6.445 5.244 1.984 1.761 4.218 3.402 6.389 4.84 1.383-1.292 3.002-2.426 3.967-1.813 1.001.637.73 2.636.236 4.42 3.357 1.957 5.87 3.147 5.87 3.147s1.409-4.271 2.242-9.53a19.23 19.23 0 0 1-.492-1.029c-.541-1.251-.014-1.783.879-1.959.231-2.302.297-4.669.055-6.866-3.799-.797-8.418-2.271-6.688-4.55 1.044-1.374 2.954-1.53 4.942-1.185a8.241 8.241 0 0 0-.938-1.278c-6.914-7.618-11.737 0-11.737 0-4.018-3.348-9.662-2.442-10.882 2.79 2.256-.577 6.575-1.437 6.834.378z" fill="#407bff"/>
        <path d="M399.93 341.888c.21 1.47-3.776 2.438-7.028 2.98.265 2.669 2.041 5.367 4.494 7.886 3.085-1.738 7.49-4.036 8.302-3.475.886.613-3.624 3.529-6.445 5.244 1.984 1.761 4.218 3.402 6.389 4.84 1.383-1.292 3.002-2.426 3.967-1.813 1.001.637.73 2.636.236 4.42 3.357 1.957 5.87 3.147 5.87 3.147s1.409-4.271 2.242-9.53a19.23 19.23 0 0 1-.492-1.029c-.541-1.251-.014-1.783.879-1.959.231-2.302.297-4.669.055-6.866-3.799-.797-8.418-2.271-6.688-4.55 1.044-1.374 2.954-1.53 4.942-1.185a8.241 8.241 0 0 0-.938-1.278c-6.914-7.618-11.737 0-11.737 0-4.018-3.348-9.662-2.442-10.882 2.79 2.256-.577 6.575-1.437 6.834.378z" opacity=".3" fill="#ffffff"/>
        <path d="m408.557 397.875-.997-.082c.043-.515 4.094-51.525-7.354-56.334-1.229-.517-2.365-.488-3.47.087-4.136 2.151-6.119 11.082-6.138 11.173l-.978-.213c.084-.386 2.102-9.479 6.653-11.847 1.367-.711 2.82-.752 4.32-.122 12.111 5.087 8.139 55.207 7.964 57.338z" fill="#407bff"/>
        <path d="M410 396.769c-.203-2.295-4.875-56.268 3.862-61.997 2.095-1.373 3.962-1.667 5.549-.863 4.129 2.082 4.671 10.91 4.692 11.284l-.998.057c-.005-.086-.529-8.626-4.145-10.449-1.244-.625-2.775-.356-4.55.808-8.242 5.405-3.463 60.517-3.414 61.073l-.996.087z" fill="#407bff"/>
        <path d="M411.313 401.133c-.066-1.757-1.504-43.071 6.452-46.688 1.573-.715 3.165-.727 4.732-.038 5.46 2.402 8.832 12.577 8.973 13.009l-.951.311c-.033-.102-3.374-10.183-8.425-12.404-1.313-.576-2.595-.567-3.915.033-6.101 2.773-6.304 33.958-5.867 45.74l-.999.037z" fill="#407bff"/>
        <path d="m409.288 399.243-.993-.113c1.402-12.296 4.082-45.061-.297-48.97-.653-.584-1.238-.764-1.792-.554-2.935 1.126-4.722 11.783-5.163 15.795l-.994-.109c.169-1.538 1.768-15.073 5.798-16.619.922-.353 1.869-.105 2.816.741 5.661 5.051.834 48.003.625 49.829z" fill="#407bff"/>
        <path fill="#263238" d="M392.601 375.933h35.927l-3 40.243h-29.927l-3-40.243z"/>
        <path d="M397.495 361.165c-.374.979-3.165.209-5.356-.572-.751 1.737-.581 4.009.068 6.404 2.499-.014 6.003.079 6.311.703.336.682-3.445.934-5.772 1.025.62 1.766 1.435 3.544 2.281 5.175 1.296-.323 2.684-.467 3.068.242.399.736-.454 1.876-1.37 2.807 1.399 2.358 2.541 3.953 2.541 3.953s2.333-2.151 4.65-5.108c.01-.264.022-.53.049-.803.095-.957.603-1.105 1.214-.907.932-1.34 1.784-2.777 2.388-4.215-2.069-1.794-4.413-4.287-2.565-5.099 1.115-.49 2.346.069 3.454.963a5.832 5.832 0 0 0-.14-1.11c-1.652-7.069-7.239-4.024-7.239-4.024-1.33-3.443-5.121-4.819-7.668-2.01 1.59.417 4.548 1.367 4.086 2.576z" fill="#407bff"/>
        <path d="M397.495 361.165c-.374.979-3.165.209-5.356-.572-.751 1.737-.581 4.009.068 6.404 2.499-.014 6.003.079 6.311.703.336.682-3.445.934-5.772 1.025.62 1.766 1.435 3.544 2.281 5.175 1.296-.323 2.684-.467 3.068.242.399.736-.454 1.876-1.37 2.807 1.399 2.358 2.541 3.953 2.541 3.953s2.333-2.151 4.65-5.108c.01-.264.022-.53.049-.803.095-.957.603-1.105 1.214-.907.932-1.34 1.784-2.777 2.388-4.215-2.069-1.794-4.413-4.287-2.565-5.099 1.115-.49 2.346.069 3.454.963a5.832 5.832 0 0 0-.14-1.11c-1.652-7.069-7.239-4.024-7.239-4.024-1.33-3.443-5.121-4.819-7.668-2.01 1.59.417 4.548 1.367 4.086 2.576z" opacity=".3" fill="#ffffff"/>
        <path d="M424.17 365.943c-1.133.084-2.22.344-3.283.691a7.606 7.606 0 0 1-.484-2.377c-.228-7.246 4.959-4.191 7.7-6.32 1.367-1.062 3.041-1.744 4.586-1.438-.232.399-.443.812-.62 1.24-.287.694.166 1.417.877 1.55.669.125 1.42.067 2.035-.241.192-.096.353-.236.523-.362.383.646.722 1.439.995 2.423a13.89 13.89 0 0 1 .469 3.099c-.408.091-.813.2-1.212.342-.624.221-.956 1.217-.454 1.722a5.17 5.17 0 0 0 1.495 1.049c-.179 1.193-.512 2.325-.912 3.396-.123.019-.247.033-.369.057a9.49 9.49 0 0 0-.782.193 2.685 2.685 0 0 0-.434.159c-.359.17-.621.477-.677.879-.056.395.109.804.427 1.046.169.129.355.23.539.332-.826 1.307-1.803 2.343-2.87 2.896 0 0-1.322-.577-3.052-1.613.216-.29.433-.58.634-.88.238-.353.343-.716.307-1.138-.034-.409-.282-.766-.587-1.022-.294-.247-.764-.356-1.138-.308-.366.047-.811.272-1.022.587-.24.357-.505.696-.767 1.038-1.324-.998-2.641-2.203-3.68-3.573l.11-.032a11.395 11.395 0 0 1 2.042-.339c.861-.064 1.397-.931 1.33-1.725-.073-.863-.923-1.391-1.726-1.331z" fill="#407bff"/>
        <path d="M424.17 365.943c-1.133.084-2.22.344-3.283.691a7.606 7.606 0 0 1-.484-2.377c-.228-7.246 4.959-4.191 7.7-6.32 1.367-1.062 3.041-1.744 4.586-1.438-.232.399-.443.812-.62 1.24-.287.694.166 1.417.877 1.55.669.125 1.42.067 2.035-.241.192-.096.353-.236.523-.362.383.646.722 1.439.995 2.423a13.89 13.89 0 0 1 .469 3.099c-.408.091-.813.2-1.212.342-.624.221-.956 1.217-.454 1.722a5.17 5.17 0 0 0 1.495 1.049c-.179 1.193-.512 2.325-.912 3.396-.123.019-.247.033-.369.057a9.49 9.49 0 0 0-.782.193 2.685 2.685 0 0 0-.434.159c-.359.17-.621.477-.677.879-.056.395.109.804.427 1.046.169.129.355.23.539.332-.826 1.307-1.803 2.343-2.87 2.896 0 0-1.322-.577-3.052-1.613.216-.29.433-.58.634-.88.238-.353.343-.716.307-1.138-.034-.409-.282-.766-.587-1.022-.294-.247-.764-.356-1.138-.308-.366.047-.811.272-1.022.587-.24.357-.505.696-.767 1.038-1.324-.998-2.641-2.203-3.68-3.573l.11-.032a11.395 11.395 0 0 1 2.042-.339c.861-.064 1.397-.931 1.33-1.725-.073-.863-.923-1.391-1.726-1.331z" opacity=".5" fill="#ffffff"/>
        <path d="M426.244 340.961c.632-.453 1.317-.794 2.028-1.078a5.23 5.23 0 0 0-.789-1.461c-3.06-3.906-4.444-.025-6.818.059-1.184.042-2.363.418-3.04 1.257.297.108.589.232.87.38.455.239.535.817.219 1.199-.296.359-.716.659-1.175.766-.143.034-.289.031-.434.039.083.508.252 1.073.541 1.71a9.465 9.465 0 0 0 1.114 1.833 7.14 7.14 0 0 1 .787-.352c.425-.157 1.037.22.994.706a3.53 3.53 0 0 1-.325 1.207c.618.548 1.289.997 1.97 1.384.073-.044.144-.091.219-.132a6.49 6.49 0 0 1 .496-.242c.096-.043.195-.081.298-.107a.786.786 0 0 1 .741.164c.203.183.296.47.235.737-.032.142-.085.276-.138.411 1.008.324 1.975.44 2.779.262 0 0 .441-.883.896-2.187a14.555 14.555 0 0 1-.719-.184 1.159 1.159 0 0 1-.661-.463c-.162-.23-.188-.526-.14-.795.046-.259.245-.522.463-.661.213-.136.545-.213.795-.14.283.082.571.144.858.208.257-1.105.421-2.316.365-3.492a7.84 7.84 0 0 0-1.294.749c-.48.344-1.142.124-1.456-.323-.342-.482-.127-1.133.321-1.454z" fill="#407bff"/>
        <path d="M426.244 340.961c.632-.453 1.317-.794 2.028-1.078a5.23 5.23 0 0 0-.789-1.461c-3.06-3.906-4.444-.025-6.818.059-1.184.042-2.363.418-3.04 1.257.297.108.589.232.87.38.455.239.535.817.219 1.199-.296.359-.716.659-1.175.766-.143.034-.289.031-.434.039.083.508.252 1.073.541 1.71a9.465 9.465 0 0 0 1.114 1.833 7.14 7.14 0 0 1 .787-.352c.425-.157 1.037.22.994.706a3.53 3.53 0 0 1-.325 1.207c.618.548 1.289.997 1.97 1.384.073-.044.144-.091.219-.132a6.49 6.49 0 0 1 .496-.242c.096-.043.195-.081.298-.107a.786.786 0 0 1 .741.164c.203.183.296.47.235.737-.032.142-.085.276-.138.411 1.008.324 1.975.44 2.779.262 0 0 .441-.883.896-2.187a14.555 14.555 0 0 1-.719-.184 1.159 1.159 0 0 1-.661-.463c-.162-.23-.188-.526-.14-.795.046-.259.245-.522.463-.661.213-.136.545-.213.795-.14.283.082.571.144.858.208.257-1.105.421-2.316.365-3.492a7.84 7.84 0 0 0-1.294.749c-.48.344-1.142.124-1.456-.323-.342-.482-.127-1.133.321-1.454z" opacity=".3" fill="#ffffff"/>
        <path d="M396.971 348.213c-.21 1.47 3.776 2.438 7.028 2.98-.265 2.669-2.041 5.367-4.494 7.886-3.086-1.738-7.49-4.036-8.302-3.475-.886.613 3.624 3.529 6.444 5.244-1.984 1.761-4.218 3.402-6.389 4.84-1.383-1.292-3.002-2.426-3.967-1.813-1.001.637-.73 2.636-.236 4.42-3.357 1.957-5.87 3.147-5.87 3.147s-1.409-4.271-2.242-9.53c.169-.334.338-.672.492-1.029.541-1.251.014-1.783-.879-1.959-.231-2.302-.297-4.669-.055-6.866 3.799-.797 8.418-2.272 6.688-4.55-1.043-1.374-2.954-1.529-4.942-1.185.278-.458.586-.89.938-1.278 6.914-7.618 11.737 0 11.737 0 4.018-3.349 9.662-2.442 10.882 2.79-2.255-.578-6.573-1.438-6.833.378z" fill="#407bff"/>
        <path d="M396.971 348.213c-.21 1.47 3.776 2.438 7.028 2.98-.265 2.669-2.041 5.367-4.494 7.886-3.086-1.738-7.49-4.036-8.302-3.475-.886.613 3.624 3.529 6.444 5.244-1.984 1.761-4.218 3.402-6.389 4.84-1.383-1.292-3.002-2.426-3.967-1.813-1.001.637-.73 2.636-.236 4.42-3.357 1.957-5.87 3.147-5.87 3.147s-1.409-4.271-2.242-9.53c.169-.334.338-.672.492-1.029.541-1.251.014-1.783-.879-1.959-.231-2.302-.297-4.669-.055-6.866 3.799-.797 8.418-2.272 6.688-4.55-1.043-1.374-2.954-1.529-4.942-1.185.278-.458.586-.89.938-1.278 6.914-7.618 11.737 0 11.737 0 4.018-3.349 9.662-2.442 10.882 2.79-2.255-.578-6.573-1.438-6.833.378z" opacity=".5" fill="#ffffff"/>
        <path fill="#263238" d="M99.342 363.137v18.066H73.496v-18.066h25.846z"/>
        <path d="M65.189 359.044v57.13h35.67v-57.13h-35.67zm31.779 16.88h-11.34v-6.84a2.88 2.88 0 0 1 2.88-2.88h5.58a2.88 2.88 0 0 1 2.88 2.88v6.84z" fill="#407bff"/>
        <path d="M65.189 359.044v57.13h35.67v-57.13h-35.67zm31.779 16.88h-11.34v-6.84a2.88 2.88 0 0 1 2.88-2.88h5.58a2.88 2.88 0 0 1 2.88 2.88v6.84z" opacity=".6" fill="#ffffff"/>
        <path opacity=".4" fill="#ffffff" d="M80.486 359.047v57.129H65.189v-57.129h15.297z"/>
        <path fill="#407bff" d="M101.7 356.034v5.521H64.266v-5.521H101.7z"/>
        <path opacity=".2" fill="#ffffff" d="M81.541 356.034v5.521H64.266v-5.521h17.275z"/>
        <path fill="#407bff" d="M431.219 112.571v188.443H232.196V112.571h199.023z"/>
        <path opacity=".6" fill="#ffffff" d="M431.219 112.571v188.443H232.196V112.571h199.023z"/>
        <path fill="#407bff" d="M431.219 112.571v9.593H232.196v-9.593h199.023z"/>
        <path opacity=".2" d="M431.219 122.164v179.017h-6.582V122.164h6.582z"/>
        <path d="M428.297 151.341h-.6a1.68 1.68 0 0 1-1.681-1.681v-21.575c0-.928.753-1.681 1.681-1.681h.6a1.68 1.68 0 0 1 1.681 1.681v21.575c0 .928-.753 1.681-1.681 1.681z" opacity=".6" fill="#ffffff"/>
        <path fill="none" d="M402.975 144.247h5.534l.571-6.78h-6.676l.571 6.78z"/>
        <path fill="none" d="m387.878 142.458.047-1.249 2.729-3.367v-2.221h-6.517v8.626h6.517v-4.023l-1.564 1.929-1.212.305z"/>
        <path fill="#ffffff" d="M264.307 130.857c5.108 5.108 5.108 13.391 0 18.5-5.108 5.108-13.391 5.108-18.5 0-5.108-5.108-5.108-13.391 0-18.5 5.108-5.108 13.391-5.108 18.5 0z"/>
        <path fill="#407bff" d="M257.622 129.344c5.956 1.407 9.645 7.376 8.238 13.332-1.406 5.957-7.376 9.646-13.332 8.24-5.956-1.407-9.645-7.377-8.238-13.333 1.406-5.956 7.376-9.645 13.332-8.239z"/>
        <path d="M256.414 135.214v8.396h-1.943v-6.837h-1.679v-1.559h3.622z" fill="#ffffff"/>
        <path d="M371.483 149.923h-95.769a3.066 3.066 0 0 1-3.066-3.066v-13.503a3.066 3.066 0 0 1 3.066-3.066h95.769a3.066 3.066 0 0 1 3.066 3.066v13.503a3.065 3.065 0 0 1-3.066 3.066z" fill="#ffffff"/>
        <path d="M274.648 146.748v-13.284c0-.649.527-1.176 1.176-1.176h95.55c.649 0 1.176.527 1.176 1.176v13.284c0 .649-.526 1.176-1.176 1.176h-95.55a1.177 1.177 0 0 1-1.176-1.176z" fill="#407bff"/>
        <path d="M291.269 139.543c0-2.069 1.58-3.578 3.708-3.578 1.08 0 2.019.37 2.659 1.089l-.65.63c-.54-.57-1.2-.83-1.969-.83-1.579 0-2.749 1.139-2.749 2.688s1.169 2.688 2.749 2.688c.77 0 1.429-.27 1.969-.839l.65.629c-.64.72-1.579 1.1-2.669 1.1-2.119.001-3.698-1.508-3.698-3.577z" fill="#ffffff"/>
        <path d="M298.349 139.543c0-2.049 1.58-3.578 3.728-3.578 2.129 0 3.708 1.519 3.708 3.578s-1.579 3.578-3.708 3.578c-2.149 0-3.728-1.529-3.728-3.578zm6.436 0c0-1.549-1.159-2.688-2.708-2.688-1.569 0-2.729 1.139-2.729 2.688s1.16 2.688 2.729 2.688c1.549 0 2.708-1.139 2.708-2.688z" fill="#ffffff"/>
        <path d="m313.805 143.041-.01-5.097-2.529 4.248h-.46l-2.529-4.218v5.067h-.959v-6.996h.82l2.918 4.917 2.878-4.917h.819l.01 6.996h-.958z" fill="#ffffff"/>
        <path d="M322.515 138.483c0 1.519-1.099 2.439-2.918 2.439h-1.729v2.119h-1v-6.996h2.729c1.819 0 2.918.919 2.918 2.438zm-.999 0c0-.999-.669-1.569-1.949-1.569h-1.699v3.138h1.699c1.279.001 1.949-.569 1.949-1.569z" fill="#ffffff"/>
        <path d="M323.988 136.045h1v6.126h3.788v.87h-4.788v-6.996z" fill="#ffffff"/>
        <path d="M335.005 142.171v.87h-5.077v-6.996h4.938v.87h-3.938v2.148h3.508v.85h-3.508v2.259h4.077z" fill="#ffffff"/>
        <path d="M338.017 136.915h-2.398v-.87h5.787v.87h-2.398v6.126h-.99v-6.126z" fill="#ffffff"/>
        <path d="M347.575 142.171v.87h-5.077v-6.996h4.938v.87h-3.938v2.148h3.508v.85h-3.508v2.259h4.077z" fill="#ffffff"/>
        <path d="M349.198 136.045h2.949c2.248 0 3.778 1.419 3.778 3.498s-1.529 3.498-3.778 3.498h-2.949v-6.996zm2.888 6.126c1.729 0 2.838-1.059 2.838-2.628 0-1.569-1.109-2.628-2.838-2.628h-1.889v5.257h1.889z" fill="#ffffff"/>
        <path d="M398.335 146.748v-13.284c0-.649.526-1.176 1.176-1.176h12.55c.649 0 1.176.527 1.176 1.176v13.284c0 .649-.526 1.176-1.176 1.176h-12.55c-.65 0-1.176-.527-1.176-1.176z" opacity=".2"/>
        <g opacity=".6">
            <path d="M411.017 136.639h-10.55v1h.934l.655 7.78h7.372l.655-7.78h.934v-1zm-2.508 7.78h-5.534l-.571-6.78h6.676l-.571 6.78z" fill="#ffffff"/>
            <path fill="#ffffff" d="M407.769 134.793h-4.055l-.352 1h4.759l-.352-1z"/>
        </g>
        <path d="M379.945 146.748v-13.284c0-.649.527-1.176 1.176-1.176h12.55c.649 0 1.176.527 1.176 1.176v13.284c0 .649-.526 1.176-1.176 1.176h-12.55c-.65 0-1.176-.527-1.176-1.176z" opacity=".2"/>
        <path d="m393.265 134.793-1.611 1.987v-1.987h-8.517v10.626h8.517v-6.257l2.776-3.425-1.165-.944zm-2.611 9.626h-6.517v-8.626h6.517v2.221l-2.729 3.367-.047 1.249 1.212-.305 1.564-1.929v4.023z" opacity=".6" fill="#ffffff"/>
        <path fill="#ffffff" d="M264.307 164.357c5.108 5.108 5.108 13.391 0 18.5-5.108 5.108-13.391 5.108-18.5 0-5.108-5.108-5.108-13.391 0-18.5 5.108-5.108 13.391-5.108 18.5 0z"/>
        <path fill="#407bff" d="M257.62 162.847c5.957 1.406 9.646 7.376 8.24 13.332-1.407 5.956-7.377 9.645-13.333 8.239-5.956-1.407-9.645-7.376-8.239-13.333 1.407-5.956 7.376-9.645 13.333-8.238z"/>
        <path d="M258.26 175.526v1.583h-6.344v-1.259l3.238-3.058c.744-.708.876-1.14.876-1.547 0-.66-.456-1.043-1.343-1.043-.72 0-1.331.276-1.739.839l-1.415-.911c.648-.948 1.823-1.559 3.334-1.559 1.871 0 3.118.959 3.118 2.482 0 .815-.228 1.559-1.403 2.65l-1.931 1.823h3.609z" fill="#ffffff"/>
        <path d="M371.483 183.423h-95.769a3.066 3.066 0 0 1-3.066-3.066v-13.503a3.066 3.066 0 0 1 3.066-3.066h95.769a3.066 3.066 0 0 1 3.066 3.066v13.503a3.065 3.065 0 0 1-3.066 3.066z" fill="#ffffff"/>
        <path d="M274.648 180.248v-13.284c0-.649.527-1.176 1.176-1.176h95.55c.649 0 1.176.527 1.176 1.176v13.284c0 .649-.526 1.176-1.176 1.176h-95.55a1.177 1.177 0 0 1-1.176-1.176z" fill="#407bff"/>
        <path d="M291.269 173.043c0-2.069 1.58-3.578 3.708-3.578 1.08 0 2.019.37 2.659 1.089l-.65.63c-.54-.57-1.2-.83-1.969-.83-1.579 0-2.749 1.139-2.749 2.688s1.169 2.688 2.749 2.688c.77 0 1.429-.27 1.969-.839l.65.629c-.64.72-1.579 1.1-2.669 1.1-2.119.001-3.698-1.508-3.698-3.577z" fill="#ffffff"/>
        <path d="M298.349 173.043c0-2.049 1.58-3.578 3.728-3.578 2.129 0 3.708 1.519 3.708 3.578s-1.579 3.578-3.708 3.578c-2.149 0-3.728-1.529-3.728-3.578zm6.436 0c0-1.549-1.159-2.688-2.708-2.688-1.569 0-2.729 1.139-2.729 2.688s1.16 2.688 2.729 2.688c1.549 0 2.708-1.139 2.708-2.688z" fill="#ffffff"/>
        <path d="m313.805 176.541-.01-5.097-2.529 4.248h-.46l-2.529-4.218v5.067h-.959v-6.996h.82l2.918 4.917 2.878-4.917h.819l.01 6.996h-.958z" fill="#ffffff"/>
        <path d="M322.515 171.983c0 1.519-1.099 2.439-2.918 2.439h-1.729v2.119h-1v-6.996h2.729c1.819 0 2.918.919 2.918 2.438zm-.999 0c0-.999-.669-1.569-1.949-1.569h-1.699v3.138h1.699c1.279.001 1.949-.569 1.949-1.569z" fill="#ffffff"/>
        <path d="M323.988 169.545h1v6.126h3.788v.87h-4.788v-6.996z" fill="#ffffff"/>
        <path d="M335.005 175.671v.87h-5.077v-6.996h4.938v.87h-3.938v2.148h3.508v.85h-3.508v2.259h4.077z" fill="#ffffff"/>
        <path d="M338.017 170.415h-2.398v-.87h5.787v.87h-2.398v6.126h-.99v-6.126z" fill="#ffffff"/>
        <path d="M347.575 175.671v.87h-5.077v-6.996h4.938v.87h-3.938v2.148h3.508v.85h-3.508v2.259h4.077z" fill="#ffffff"/>
        <path d="M349.198 169.545h2.949c2.248 0 3.778 1.419 3.778 3.498s-1.529 3.498-3.778 3.498h-2.949v-6.996zm2.888 6.126c1.729 0 2.838-1.059 2.838-2.628 0-1.569-1.109-2.628-2.838-2.628h-1.889v5.257h1.889z" fill="#ffffff"/>
        <path d="M398.335 180.248v-13.284c0-.649.526-1.176 1.176-1.176h12.55c.649 0 1.176.527 1.176 1.176v13.284c0 .649-.526 1.176-1.176 1.176h-12.55c-.65 0-1.176-.527-1.176-1.176z" opacity=".2"/>
        <g opacity=".6">
            <path d="M411.017 170.139h-10.55v1h.934l.655 7.78h7.372l.655-7.78h.934v-1zm-2.508 7.78h-5.534l-.571-6.78h6.676l-.571 6.78z" fill="#ffffff"/>
            <path fill="#ffffff" d="M407.769 168.293h-4.055l-.352 1h4.759l-.352-1z"/>
        </g>
        <path d="M379.945 180.248v-13.284c0-.649.527-1.176 1.176-1.176h12.55c.649 0 1.176.527 1.176 1.176v13.284c0 .649-.526 1.176-1.176 1.176h-12.55c-.65 0-1.176-.527-1.176-1.176z" opacity=".2"/>
        <path d="m393.265 168.293-1.611 1.987v-1.987h-8.517v10.626h8.517v-6.257l2.776-3.425-1.165-.944zm-2.611 9.626h-6.517v-8.626h6.517v2.221l-2.729 3.367-.047 1.249 1.212-.305 1.564-1.929v4.023z" opacity=".6" fill="#ffffff"/>
        <path fill="#ffffff" d="M264.307 197.857c5.108 5.108 5.108 13.391 0 18.5-5.108 5.108-13.391 5.108-18.5 0-5.108-5.108-5.108-13.391 0-18.5 5.108-5.108 13.391-5.108 18.5 0z"/>
        <path opacity=".2" d="M257.618 196.35c5.957 1.407 9.646 7.376 8.24 13.332-1.407 5.956-7.377 9.645-13.333 8.239-5.956-1.407-9.645-7.376-8.239-13.332 1.407-5.956 7.376-9.645 13.332-8.239z"/>
        <path d="M258.177 208.043c0 1.415-1.091 2.71-3.478 2.71-1.175 0-2.387-.324-3.203-.899l.756-1.487c.636.48 1.523.755 2.398.755.972 0 1.571-.396 1.571-1.079 0-.636-.468-1.032-1.571-1.032h-.887v-1.283l1.727-1.955h-3.574v-1.559h5.877v1.259l-1.895 2.159c1.511.24 2.279 1.176 2.279 2.411z" opacity=".2"/>
        <path d="M371.483 216.923h-95.769a3.066 3.066 0 0 1-3.066-3.066v-13.503a3.066 3.066 0 0 1 3.066-3.066h95.769a3.066 3.066 0 0 1 3.066 3.066v13.503a3.065 3.065 0 0 1-3.066 3.066z" fill="#ffffff"/>
        <path d="M274.648 213.748v-13.284c0-.649.526-1.176 1.176-1.176h95.55c.649 0 1.176.527 1.176 1.176v13.284c0 .649-.526 1.176-1.176 1.176h-95.55a1.177 1.177 0 0 1-1.176-1.176z" opacity=".2"/>
        <g opacity=".2">
            <path d="M314.067 203.045v6.996h-.989v-6.126h-1.579v-.87h2.568z"/>
            <path d="M315.599 206.543c0-2.279 1.22-3.578 2.859-3.578 1.629 0 2.848 1.299 2.848 3.578s-1.219 3.578-2.848 3.578c-1.64 0-2.859-1.299-2.859-3.578zm4.707 0c0-1.789-.759-2.688-1.849-2.688-1.1 0-1.859.899-1.859 2.688 0 1.789.76 2.688 1.859 2.688 1.09 0 1.849-.899 1.849-2.688z"/>
            <path d="M324.607 201.626h.869l-3.298 9.415h-.87l3.299-9.415z"/>
            <path d="M328.057 203.045v6.996h-.989v-6.126h-1.579v-.87h2.568z"/>
            <path d="M329.589 206.543c0-2.279 1.219-3.578 2.858-3.578 1.629 0 2.848 1.299 2.848 3.578s-1.219 3.578-2.848 3.578c-1.639 0-2.858-1.299-2.858-3.578zm4.707 0c0-1.789-.759-2.688-1.849-2.688-1.1 0-1.859.899-1.859 2.688 0 1.789.76 2.688 1.859 2.688 1.09 0 1.849-.899 1.849-2.688z"/>
        </g>
        <path d="M398.335 213.748v-13.284c0-.649.526-1.176 1.176-1.176h12.55c.649 0 1.176.527 1.176 1.176v13.284c0 .649-.526 1.176-1.176 1.176h-12.55c-.65 0-1.176-.527-1.176-1.176z" opacity=".2"/>
        <g opacity=".6">
            <path d="M411.017 203.639h-10.55v1h.934l.655 7.78h7.372l.655-7.78h.934v-1zm-2.508 7.78h-5.534l-.571-6.78h6.676l-.571 6.78z" fill="#ffffff"/>
            <path fill="#ffffff" d="M407.769 201.793h-4.055l-.352 1h4.759l-.352-1z"/>
        </g>
        <path d="M379.945 213.748v-13.284c0-.649.527-1.176 1.176-1.176h12.55c.649 0 1.176.527 1.176 1.176v13.284c0 .649-.526 1.176-1.176 1.176h-12.55c-.65 0-1.176-.527-1.176-1.176z" opacity=".2"/>
        <path d="m393.265 201.793-1.611 1.987v-1.987h-8.517v10.626h8.517v-6.257l2.776-3.425-1.165-.944zm-2.611 9.626h-6.517v-8.626h6.517v2.221l-2.729 3.367-.047 1.249 1.212-.305 1.564-1.929v4.023z" opacity=".6" fill="#ffffff"/>
        <path opacity=".2" fill="none" stroke="#000000" stroke-linecap="round" stroke-linejoin="round" stroke-miterlimit="10" d="M236.33 190.392h183.956"/>
        <path opacity=".2" fill="none" stroke="#000000" stroke-linecap="round" stroke-linejoin="round" stroke-miterlimit="10" d="M236.33 156.392h183.956"/>
        <path opacity=".2" d="M420.286 224.392v71.671H236.33v-71.671h183.956z"/>
        <path opacity=".6" fill="#ffffff" d="M393.341 236.048v8.457H243.979v-8.457h149.362z"/>
        <path d="M275.33 229.484h-30.131a1.22 1.22 0 1 0 0 2.44h30.131a1.221 1.221 0 0 0 0-2.44z" opacity=".2"/>
        <path opacity=".6" fill="#ffffff" d="M313.341 258.048v8.457h-69.362v-8.457h69.362z"/>
        <path d="M275.33 251.484h-30.131a1.22 1.22 0 1 0 0 2.44h30.131a1.221 1.221 0 0 0 0-2.44z" opacity=".2"/>
        <path opacity=".6" fill="#ffffff" d="M360.154 278.048v8.457H243.979v-8.457h116.175z"/>
        <path d="M275.33 271.483h-30.131a1.22 1.22 0 1 0 0 2.44h30.131a1.22 1.22 0 0 0 1.22-1.22 1.222 1.222 0 0 0-1.22-1.22z" opacity=".2"/>
        <path opacity=".6" fill="#ffffff" d="M393.341 258.048v8.457h-69.362v-8.457h69.362z"/>
        <path d="M355.33 251.484h-30.131a1.22 1.22 0 1 0 0 2.44h30.131a1.221 1.221 0 0 0 0-2.44z" opacity=".2"/>
        <path opacity=".2" d="M404.611 236.048v8.457h-8.457v-8.457h8.457z"/>
        <path opacity=".2" d="M404.695 258.048v8.457h-8.457v-8.457h8.457z"/>
        <path opacity=".2" d="M371.332 278.048v8.457h-8.457v-8.457h8.457z"/>
        <path opacity=".6" fill="#ffffff" d="M428.924 117.367a2.407 2.407 0 1 1-4.814 0 2.407 2.407 0 0 1 4.814 0z"/>
        <path opacity=".6" fill="#ffffff" d="M420.424 117.367a2.407 2.407 0 1 1-4.814 0 2.407 2.407 0 0 1 4.814 0z"/>
        <path opacity=".6" fill="#ffffff" d="M411.924 117.367a2.407 2.407 0 1 1-4.814 0 2.407 2.407 0 0 1 4.814 0z"/>
        <path d="m108.585 397.58 26.56-2.315v-39.569h9.338v39.56l26.656 2.325a4.587 4.587 0 0 1 4.138 4.565v3.538h-70.831v-3.538a4.59 4.59 0 0 1 4.139-4.566z" fill="#263238"/>
        <path d="m108.585 397.58 26.56-2.315v-39.569h9.338v39.56l26.656 2.325a4.587 4.587 0 0 1 4.138 4.565v3.538h-70.831v-3.538a4.59 4.59 0 0 1 4.139-4.566z" opacity=".1" fill="#ffffff"/>
        <path d="M166.679 410.072a6.105 6.105 0 1 0 12.21 0 6.105 6.105 0 1 0-12.21 0z" fill="#263238"/>
        <path d="M113.045 410.072a6.105 6.105 0 1 1-12.21 0 6.105 6.105 0 1 1 12.21 0z" fill="#263238"/>
        <path d="M137.671 362.812h4.287a4.132 4.132 0 0 0 4.133-4.133V326.56h-12.553v32.119a4.132 4.132 0 0 0 4.133 4.133z" fill="#263238"/>
        <path d="M137.671 362.812h4.287a4.132 4.132 0 0 0 4.133-4.133V326.56h-12.553v32.119a4.132 4.132 0 0 0 4.133 4.133z" opacity=".2" fill="#ffffff"/>
        <path d="M112.27 257.557s2.876 57.678 15.298 67.608h-13.285s-11.847-19.65-12.73-67.608h10.717z" fill="#263238"/>
        <path d="M112.27 257.557s2.876 57.678 15.298 67.608h-13.285s-11.847-19.65-12.73-67.608h10.717z" opacity=".1" fill="#ffffff"/>
        <path d="M170.089 320.385H111.19a5 5 0 0 0-5 5v4.559h68.899v-4.559a5 5 0 0 0-5-5z" fill="#407bff"/>
        <path d="M175.699 325.164h-70.12a2.01 2.01 0 0 0-2.011 2.011v.757c0 1.111.9 2.011 2.011 2.011h70.12a2.011 2.011 0 0 0 2.011-2.011v-.757c0-1.11-.9-2.011-2.011-2.011z" fill="#263238"/>
        <path d="M175.699 325.164h-70.12a2.01 2.01 0 0 0-2.011 2.011v.757c0 1.111.9 2.011 2.011 2.011h70.12a2.011 2.011 0 0 0 2.011-2.011v-.757c0-1.11-.9-2.011-2.011-2.011z" opacity=".6" fill="#ffffff"/>
        <path d="M99.222 270.184h21.282c6.235 0 10.737-5.602 10.057-12.512l-.908-9.225c-.68-6.91-6.286-12.512-12.521-12.512H95.851c-6.235 0-10.737 5.602-10.057 12.512l.908 9.224c.68 6.911 6.286 12.513 12.52 12.513z" fill="#407bff"/>
        <path fill="#ebb376" d="m168.947 408.956 7.966-1.094 1.104-18.936-7.955 1.102-1.115 18.928z"/>
        <path opacity=".2" d="m170.062 390.028 7.956-1.092-.633 10.824-7.945.698.622-10.43z"/>
        <path fill="#ebb376" d="m187.324 401.884 8.019.59 5.024-18.291-8.01-.579-5.033 18.28z"/>
        <path opacity=".2" d="m192.357 383.604 8.009.589-2.874 10.455-7.916-.973 2.781-10.071z"/>
        <path d="m203.083 393.358-14.12-4.15s8.43-47.58 16.98-64.08c-.64-.21-1.49-.48-2.54-.79-1.89-.57-4.4-1.28-7.35-2.1-20.52-5.69-62.11-16.36-62.11-16.36l19-17.73s75.68 11.54 77.25 31.48c.75 9.589-27.11 73.73-27.11 73.73z" fill="#407bff"/>
        <path d="m203.083 393.358-14.12-4.15s8.43-47.58 16.98-64.08c-.64-.21-1.49-.48-2.54-.79-1.89-.57-4.4-1.28-7.35-2.1-20.52-5.69-62.11-16.36-62.11-16.36l19-17.73s75.68 11.54 77.25 31.48c.75 9.589-27.11 73.73-27.11 73.73z" opacity=".4" fill="#ffffff"/>
        <path d="m169.267 297.637-3.944-18.176-42.66.329s-4.749 28.337-1.1 35.087c6.514 12.051 41.618 5.969 51.89 7.154-6.14 25.11-5.54 74.18-5.54 74.18l14.67 1.12s11.288-52.876 13.57-78c1.54-16.953-12.507-16.532-26.886-21.694z" fill="#407bff"/>
        <path d="M196.457 402.832c.01.02.006.046.022.062.02.011.045.012.068.009a9.92 9.92 0 0 0 1.962.842 2.153 2.153 0 0 0 1.56.025.999.999 0 0 0 .503-.945.708.708 0 0 0-.271-.629c-.455-.339-1.408-.239-2.248-.061.612-.499 1.15-1.126 1.184-1.627a.704.704 0 0 0-.485-.728.918.918 0 0 0-.805.035c-.974.535-1.352 2.779-1.381 2.899l.142.002v.002l-.144.008c-.001.008-.135.014-.135.023.001.03.01.058.028.083zm.598-.447-.18.055c.188-.738.592-1.95 1.175-2.262a.54.54 0 0 1 .43-.057l.087.031c.249.102.282.247.268.356-.068.542-.989 1.443-1.78 1.877zm.03.414c1.058-.32 2.526-.609 2.977-.27.096.073.146.19.132.309a.69.69 0 0 1-.308.606c-.465.254-1.492.013-2.801-.645z" fill="#407bff"/>
        <path fill="#407bff" d="m187.141 389.52 17.002 4.807 3.05-7.07-18.758-4.915-1.294 7.178z"/>
        <path opacity=".2" fill="#ffffff" d="m187.141 389.52 17.002 4.807 3.05-7.07-18.758-4.915-1.294 7.178z"/>
        <path d="m196.13 401.661-8.685-2.424a.57.57 0 0 0-.719.364l-.003.009-2.343 6.76a1.42 1.42 0 0 0 .97 1.745c3.044.796 4.538 1.025 8.368 2.061 2.348.648 6.926 2.152 10.274 2.533 3.349.381 3.635-2.939 2.252-3.395-3.279-1.098-7.202-4.515-8.906-6.836a2.253 2.253 0 0 0-1.208-.817z" fill="#263238"/>
        <path d="m169.267 297.637-3.944-18.176-42.66.329s-4.749 28.337-1.1 35.087c6.514 12.051 41.618 5.969 51.89 7.154-6.14 25.11-5.54 74.18-5.54 74.18l14.67 1.12s11.288-52.876 13.57-78c1.54-16.953-12.507-16.532-26.886-21.694z" opacity=".4" fill="#ffffff"/>
        <path fill="#407bff" d="m166.193 396.901 17.63 1.16 1.51-7.55-19.37-.9.23 7.29z"/>
        <path opacity=".2" fill="#ffffff" d="m166.193 396.901 17.63 1.16 1.51-7.55-19.37-.9.23 7.29z"/>
        <path d="M177.707 407.884c0 .008.166.012.168.021.009.03.179.056.202.076.014.018.015.043.034.056a.106.106 0 0 0 .068-.006 9.887 9.887 0 0 0 2.093.415 2.142 2.142 0 0 0 1.529-.301.999.999 0 0 0 .292-1.029.716.716 0 0 0-.403-.558c-.516-.236-1.442.06-2.226.41.495-.615.862-1.339.791-1.836-.05-.326-.354-.577-.682-.608-.289-.053-.665.023-.893.21-.837.723-.972 2.994-.972 3.134v.008l-.001.008zm.862-.465-.165.092c.031-.761.174-2.031.678-2.457a.542.542 0 0 1 .409-.145l.091.012c.265.048.327.183.336.293.047.543-.667 1.615-1.349 2.205zm.116.398c.968-.534 2.343-1.122 2.855-.884a.34.34 0 0 1 .194.275.69.69 0 0 1-.175.657c-.402.345-1.458.324-2.874-.048z" fill="#407bff"/>
        <path d="m177.514 406.903-9-.561a.57.57 0 0 0-.628.506l-.001.009-.883 7.1a1.419 1.419 0 0 0 1.312 1.504c3.143.145 4.651.057 8.614.273 2.431.145 7.222.662 10.576.337 3.355-.325 2.943-3.632 1.495-3.79-3.435-.391-7.985-2.915-10.135-4.831a2.245 2.245 0 0 0-1.35-.547z" fill="#263238"/>
        <path d="M203.403 324.337c-1.89-.57-4.4-1.28-7.35-2.1.59-4.84.6-10.39-1.73-13.22-4.63-5.64-16.54-8.95-23.32-10.15-5.67-1-24.72-2.99-24.72-2.99s24.72-2.37 49.99 5c12.49 3.65 10.06 15.86 7.13 23.46z" opacity=".2"/>
        <path fill="#263238" d="m137.835 279.676-15.172.114-.57 3.729 15.742.239v-4.082z"/>
        <path fill="#263238" d="M139.813 279.661v4.127l26.537.403v-4.73l-26.537.2z"/>
        <path d="M153.396 281.072v2.725c0 .666.54 1.205 1.205 1.205h4.579c.666 0 1.205-.54 1.205-1.205v-2.725c0-.666-.54-1.205-1.205-1.205h-4.579c-.666 0-1.205.539-1.205 1.205z" fill="#ffffff"/>
        <path d="M161.148 241.214s.244.661.688 1.749a96.605 96.605 0 0 0 1.949 4.516c2.001 4.36 4.908 9.885 7.945 12.87.896.879 1.801 1.54 2.697 1.88 3.237 1.244 11.356 1.471 18.604 1.401 7.135-.061 13.444-.435 13.444-.435v-5.491l-23.834-6.352s-12.565-22.677-19.997-26.036l-1.496 15.898z" fill="#263238"/>
        <path d="M161.835 242.963a96.605 96.605 0 0 0 1.949 4.516c2.001 4.36 4.908 9.885 7.945 12.87 3.089-11.382-8.336-22.215-8.336-22.215l-1.558 4.829z" opacity=".2"/>
        <path d="M121.549 281.079h45.498c5.622-41.331-4.402-55.594-4.402-55.594a73.854 73.854 0 0 0-11.32-2.305 145.894 145.894 0 0 0-16.806-.363 78.55 78.55 0 0 0-11.421 1.131c-2.046.865-4.075 9.782-2.048 37.537.673 9.214.629 16.839.499 19.594z" fill="#263238"/>
        <path d="M121.549 281.079h45.498c5.622-41.331-4.402-55.594-4.402-55.594a73.854 73.854 0 0 0-11.32-2.305 145.894 145.894 0 0 0-16.806-.363 78.55 78.55 0 0 0-11.421 1.131c-2.046.865-4.075 9.782-2.048 37.537.673 9.214.629 16.839.499 19.594z" opacity=".1" fill="#ffffff"/>
        <path fill="#263238" d="M156.86 239.637h7.951l.608 9.497-4.271 2.767-4.288-2.118v-10.146z"/>
        <path d="m134.895 222.409 13.344 4.549.541-3.824c-1.304-2.28-1.632-3.719-.533-6.368l-8.906-10.233c.239 5.245-.713 12.408-4.446 15.876z" fill="#ebb376"/>
        <path d="m142.97 210.706 5.269 6.059a17.8 17.8 0 0 0-.954 2.874c-2.229-.667-4.982-3.639-4.869-6.059a7.947 7.947 0 0 1 .554-2.874z" opacity=".2"/>
        <path d="M154.171 194.258c-3.234 1.64-2.315 5.236 3.736 11.45 3.186-3.199 4.518-10.027 2.565-12.035-1.954-2.009-3.484-.832-6.301.585z" fill="#263238"/>
        <path d="M140.663 198.171c-.605 7.316-1.325 11.561 1.791 15.815 4.695 6.393 14.126 4.373 16.907-2.617 2.488-6.279 3.066-17.191-3.611-21.099-4.758-2.817-10.898-1.244-13.715 3.514a10.004 10.004 0 0 0-1.372 4.387z" fill="#ebb376"/>
        <path d="M151.202 201.727c-.085.59.161 1.114.546 1.168.385.054.761-.374.846-.964.085-.59-.153-1.111-.535-1.173-.382-.061-.732.394-.857.969z" fill="#263238"/>
        <path d="M157.909 202.708c-.085.59.161 1.114.546 1.168.385.054.769-.371.857-.969.088-.598-.161-1.114-.546-1.168-.385-.053-.772.379-.857.969z" fill="#263238"/>
        <path d="M155.68 202.669a21.308 21.308 0 0 0 2.09 5.456c-1.207.82-2.9.116-2.9.116l.81-5.572z" fill="#d58745"/>
        <path d="M149.676 199.346a.346.346 0 0 1-.213-.08.355.355 0 0 1-.004-.497 3.46 3.46 0 0 1 3.031-1.022.337.337 0 0 1 .273.391l-.005.024a.362.362 0 0 1-.415.268 2.763 2.763 0 0 0-2.383.831.356.356 0 0 1-.284.085z" fill="#263238"/>
        <path d="M161.291 200.889a.365.365 0 0 1-.288-.243 2.787 2.787 0 0 0-1.724-1.851.355.355 0 0 1-.244-.433.355.355 0 0 1 .425-.247 3.497 3.497 0 0 1 2.207 2.319.347.347 0 0 1-.222.437l-.005.002a.391.391 0 0 1-.149.016z" fill="#263238"/>
        <path d="M144.483 192.164c3.221 1.653 2.276 5.247-3.812 11.417-3.168-3.219-4.461-10.063-2.486-12.047s3.483-.809 6.298.63z" fill="#263238"/>
        <path d="M136.369 203.47a6.986 6.986 0 0 0 2.686 4.607c1.959 1.461 3.814-.081 4.009-2.387.173-2.08-.643-5.349-2.961-5.899-2.317-.55-4.03 1.433-3.734 3.679z" fill="#ebb376"/>
        <path d="M149.261 208.751s.958 2.546 4.493 2.881" fill="none" stroke="#263238" stroke-width=".526" stroke-linecap="round" stroke-linejoin="round" stroke-miterlimit="10"/>
        <path d="M152.012 191.95s-2.015 7.146-9.087 6.714c-7.072-.433-8.03-4.961-8.03-4.961s1.059.299 1.708.364c0 0-1.599-3.798.887-6.956 2.486-3.158 9.933-5.826 14.889-3.33 0 0 5.196-1.242 9.699 2.204s2.855 9.486 2.855 9.486.692-3.708-1.44-5.042c0 0 1.824 8.052-2.646 9.565 0-.001.548-7.623-8.835-8.044z" fill="#263238"/>
        <path d="M144.099 211.926s2.835-5.709 4.681-5.789c1.846-.08 3.988 2.894 3.988 2.894l-.87.587s-1.763-2.044-2.539-2.242-3.566 3.297-3.061 4.549c.505 1.253 2.136 1.846 2.136 1.846l1.627-1.714 1.447.857-.896 2.258s1.853.741 3.143 0c1.29-.741 1.689-4.142 1.589-4.354-.101-.212-2.079-.627-2.079-.627l.49-.771s2.68-.33 3.106.527c.426.857-.881 6.1-2.19 6.689-1.308.589-3.412 1.452-6.431.151-3.02-1.301-4.932-3.4-4.141-4.861z" opacity=".5"/>
        <path d="M159.341 257.312s25.248-.575 26.661-.716c1.413-.141 7.4-3.517 8.666-3.658 1.266-.141 4.682 5.205 5.104 6.472.422 1.266-9.547 4.643-10.532 4.502-.985-.141-3.248-1.209-3.248-1.209l-25.761 3.311-.89-8.702z" fill="#ebb376"/>
        <path d="M120.294 247.201s.009 0 0 .009c3.75 6.083 8.998 12.574 14.227 12.27 5.473-.322-.044-11.495-5.926-21.223-.226.47-.426.922-.583 1.366-1.331 3.724-5.395-.861-7.466-6.857-.305 3.505-.427 8.222-.252 14.435z" opacity=".2"/>
        <path d="M123.098 223.949c-12.904 4.651 9.747 39.598 16.781 43.199 7.034 3.601 25.54-.553 25.54-.553l-1.147-10.796s-14.649.987-17.564.251c-2.915-.737-9.837-15.632-13.82-22.667s-9.79-9.434-9.79-9.434z" fill="#263238"/>
        <path d="M135.725 219.988s5.181 3.608 12.019 6.246c0 0 .81-3.033 0-5.67l5.894 2.942s.488 4.575-.866 6.948l-4.324-3.165-4.859 3.956s-9.204-3.551-10.644-8.369l2.78-2.888z" fill="#263238"/>
        <path fill="#263238" d="M212.65 416.176h-5.72l-.934-143.075h7.588l-.934 143.075z"/>
        <path opacity=".4" fill="#ffffff" d="m213.588 273.332-.149 23.083-.785 119.761h-5.723l-.784-119.761-.15-23.083h7.591z"/>
        <path opacity=".2" d="m213.588 273.332-.149 23.34h-7.292l-.15-23.34h7.591z"/>
        <path fill="#263238" d="M273.374 416.176h-5.72l-10.276-143.075h7.588l8.408 143.075z"/>
        <path opacity=".5" fill="#ffffff" d="M273.377 416.176h-5.723l-9.775-135.968-.504-6.876h7.591l.41 6.876 8.001 135.968z"/>
        <path opacity=".2" d="M265.376 279.867h-7.497l-.504-6.535h7.591l.41 6.535z"/>
        <path fill="#263238" d="M151.926 416.176h-5.72l8.408-143.075h7.588l-10.276 143.075z"/>
        <path opacity=".5" fill="#ffffff" d="m162.201 273.332-.504 6.876-9.775 135.968h-5.714l7.992-135.968.411-6.876h7.59z"/>
        <path opacity=".2" d="M154.611 273.332h7.59l-.504 6.535H154.2l.411-6.535z"/>
        <path d="M268.818 276.684H150.762a2.162 2.162 0 0 1-2.162-2.162v-5.004h122.381v5.004a2.162 2.162 0 0 1-2.163 2.162z" fill="#263238"/>
        <path d="M268.818 276.684H150.762a2.162 2.162 0 0 1-2.162-2.162v-5.004h122.381v5.004a2.162 2.162 0 0 1-2.163 2.162z" opacity=".6" fill="#ffffff"/>
        <path opacity=".2" d="M270.981 269.518v3.583H148.6v-3.583h122.381z"/>
        <path d="M274.526 270.452H145.054a2.02 2.02 0 0 1 0-4.038h129.471a2.018 2.018 0 1 1 .001 4.038z" fill="#263238"/>
        <path d="M274.526 270.452H145.054a2.02 2.02 0 0 1 0-4.038h129.471a2.018 2.018 0 1 1 .001 4.038z" opacity=".6" fill="#ffffff"/>
        <path d="M234.162 262.277v2.343c0 .702-1.208 1.199-1.902 1.199h-54.721c-.702 0-1.822-.497-1.822-1.199v-2.343h58.445z" fill="#263238"/>
        <path d="M234.162 262.277v2.343c0 .702-1.208 1.199-1.902 1.199h-54.721c-.702 0-1.822-.497-1.822-1.199v-2.343h58.445z" opacity=".6" fill="#ffffff"/>
        <path d="M234.162 262.277v2.343c0 .702-1.208 1.199-1.902 1.199h-36.092c-.702 0-1.856-.497-1.856-1.199v-2.343h39.85z" opacity=".2"/>
        <path d="m242.936 233.508-6.514 29.647c-.212.973-1.159 1.778-2.115 1.778h-35.584c-.948 0-1.557-1.011-1.337-1.984l6.506-29.329c.22-.965 1.159-1.452 2.115-1.452h35.584c.956.001 1.557.376 1.345 1.34z" fill="#263238"/>
        <path d="m242.936 233.508-6.514 29.647c-.212.973-1.159 1.778-2.115 1.778h-35.584c-.948 0-1.557-1.011-1.337-1.984l6.506-29.329c.22-.965 1.159-1.452 2.115-1.452h35.584c.956.001 1.557.376 1.345 1.34z" opacity=".6" fill="#ffffff"/>
        <path d="m242.936 233.508-6.514 29.647c-.212.973-1.159 1.778-2.115 1.778h-34.374c-.956 0-1.557-1.011-1.345-1.984l6.515-29.329c.212-.965 1.159-1.452 2.115-1.452h34.374c.955.001 1.556.376 1.344 1.34z" opacity=".4" fill="#ffffff"/>
        <path d="M222.003 252.509c1.656 0 3.356-1.78 3.79-3.967.425-2.196-.567-3.976-2.232-3.976-.31 0-.62.062-.921.177-.39 1.709-1.55 3.144-2.825 3.622-.018.062-.035.115-.044.177-.433 2.187.568 3.967 2.232 3.967z" opacity=".2"/>
    </g>
</svg>
